<svg version="1.2" baseProfile="tiny-ps" xmlns="http://www.w3.org/2000/svg" viewBox="0 0 26 23" width="26" height="23">
	<title>blog-svg</title>
	<style>
		tspan { white-space:pre }
		.s0 { fill: #888787 } 
	</style>
	<path id="Layer" fill-rule="evenodd" class="s0" d="m18.28 0c0.99 0 1.81 0.94 1.81 2.07v4.75l2.23-2.56c0.09-0.11 0.22-0.18 0.35-0.2c0.09-0.01 0.18 0 0.26 0.04c0.08 0.03 0.16 0.09 0.22 0.16l2.68 3.07c0.11 0.13 0.17 0.3 0.17 0.48c0 0.18-0.06 0.35-0.17 0.48l-5.73 6.55v6.1c0 1.14-0.82 2.07-1.81 2.07h-16.47c-0.99 0-1.81-0.94-1.81-2.07v-18.86c0-1.14 0.82-2.07 1.81-2.07h16.47zm-17.1 2.07v18.86c0 0.41 0.27 0.72 0.63 0.72h16.47c0.36 0 0.63-0.31 0.63-0.72v-4.76l-1.65 1.89c-0.11 0.13-0.26 0.2-0.42 0.2h-2.66c-0.16 0-0.31-0.07-0.42-0.2c-0.11-0.13-0.17-0.3-0.17-0.48v-3.04c0-0.18 0.06-0.35 0.18-0.48l5.14-5.9v-6.1c0-0.41-0.27-0.72-0.63-0.72h-16.47c-0.36 0-0.63 0.31-0.63 0.72zm2.96 2.66h11.82c0.08 0 0.16 0.02 0.23 0.05c0.07 0.03 0.14 0.08 0.19 0.15c0.06 0.06 0.1 0.14 0.13 0.22c0.03 0.08 0.05 0.17 0.05 0.26c0 0.09-0.02 0.18-0.05 0.26c-0.03 0.08-0.07 0.16-0.13 0.22c-0.06 0.06-0.12 0.11-0.19 0.15c-0.07 0.03-0.15 0.05-0.23 0.05h-11.82c-0.08 0-0.16-0.01-0.23-0.04c-0.07-0.03-0.14-0.08-0.2-0.14c-0.06-0.06-0.1-0.13-0.14-0.21c-0.03-0.08-0.05-0.17-0.06-0.26c0-0.09 0.01-0.18 0.03-0.26c0.03-0.08 0.07-0.16 0.12-0.23c0.05-0.07 0.12-0.12 0.19-0.16c0.07-0.04 0.15-0.06 0.22-0.06c0.02 0 0.04 0 0.06 0zm17.52 2.19l1.85 2.11l1.08-1.24l-1.85-2.11l-1.08 1.24zm-6.88 7.9v2.09h1.83l6.07-6.92l-1.85-2.11l-6.05 6.94zm-10.64-6.02h11.82c0.08 0 0.16 0.02 0.23 0.05c0.07 0.03 0.14 0.08 0.19 0.15c0.06 0.06 0.1 0.14 0.13 0.22c0.03 0.08 0.05 0.17 0.05 0.26c0 0.09-0.02 0.18-0.05 0.26c-0.03 0.08-0.07 0.16-0.13 0.22c-0.06 0.06-0.12 0.11-0.19 0.15c-0.07 0.03-0.15 0.05-0.23 0.05h-11.82c-0.08 0-0.16-0.01-0.23-0.04c-0.07-0.03-0.14-0.08-0.2-0.14c-0.06-0.06-0.1-0.13-0.14-0.21c-0.03-0.08-0.05-0.17-0.06-0.26c0-0.09 0.01-0.18 0.03-0.26c0.03-0.08 0.07-0.16 0.12-0.23c0.05-0.07 0.12-0.12 0.19-0.16c0.07-0.04 0.15-0.06 0.22-0.06c0.02 0 0.04 0 0.06 0zm0 4.06h7.73c0.08 0 0.16 0.02 0.23 0.05c0.07 0.03 0.14 0.08 0.19 0.15c0.06 0.06 0.1 0.14 0.13 0.22c0.03 0.08 0.05 0.17 0.05 0.26c0 0.09-0.02 0.18-0.05 0.26c-0.03 0.08-0.07 0.16-0.13 0.22c-0.06 0.06-0.12 0.11-0.19 0.15c-0.07 0.03-0.15 0.05-0.23 0.05h-7.73c-0.08 0-0.16-0.01-0.23-0.04c-0.07-0.03-0.14-0.08-0.2-0.14c-0.06-0.06-0.1-0.13-0.14-0.21c-0.03-0.08-0.05-0.17-0.06-0.26c0-0.09 0.01-0.18 0.03-0.26c0.03-0.08 0.07-0.16 0.12-0.23c0.05-0.07 0.12-0.12 0.19-0.16c0.07-0.04 0.15-0.06 0.22-0.06c0.02 0 0.04 0 0.06 0zm0 4.06h7.68c0.08 0 0.16 0.02 0.23 0.05c0.07 0.03 0.14 0.08 0.19 0.15c0.06 0.06 0.1 0.14 0.13 0.22c0.03 0.08 0.05 0.17 0.05 0.26c0 0.09-0.02 0.18-0.05 0.26c-0.03 0.08-0.07 0.16-0.13 0.22c-0.06 0.06-0.12 0.11-0.19 0.15c-0.07 0.03-0.15 0.05-0.23 0.05h-7.68c-0.08 0-0.16-0.01-0.23-0.04c-0.07-0.03-0.14-0.08-0.2-0.14c-0.06-0.06-0.1-0.13-0.14-0.21c-0.03-0.08-0.05-0.17-0.06-0.26c0-0.09 0.01-0.18 0.03-0.26c0.03-0.08 0.07-0.16 0.12-0.23c0.05-0.07 0.12-0.12 0.19-0.16c0.07-0.04 0.15-0.06 0.22-0.06c0.02 0 0.04 0 0.06 0z" />
</svg>