<svg version="1.2" baseProfile="tiny-ps" xmlns="http://www.w3.org/2000/svg" viewBox="0 0 18 19" width="18" height="19">
	<title>dashboard-svg</title>
	<defs>
		<clipPath clipPathUnits="userSpaceOnUse" id="cp1">
			<path d="m0 0h20v25h-20v-25z" />
		</clipPath>
	</defs>
	<style>
		tspan { white-space:pre }
		.s0 { fill: #888787 } 
	</style>
	<g id="Clip-Path" clip-path="url(#cp1)">
		<g id="Layer">
			<path id="Layer" fill-rule="evenodd" class="s0" d="m7.75 6.43h-6.88c-0.17 0-0.32-0.07-0.44-0.2c-0.12-0.13-0.18-0.3-0.18-0.48v-4.72c0-0.18 0.07-0.35 0.18-0.48c0.12-0.13 0.28-0.2 0.44-0.2h6.88c0.17 0 0.32 0.07 0.44 0.2c0.12 0.13 0.18 0.3 0.18 0.48v4.72c0 0.18-0.07 0.35-0.18 0.48c-0.12 0.13-0.28 0.2-0.44 0.2zm-6.25-1.35h5.63v-3.38h-5.63v3.38z" />
			<path id="Layer" fill-rule="evenodd" class="s0" d="m7.75 19.25h-6.88c-0.17 0-0.32-0.07-0.44-0.2c-0.12-0.13-0.18-0.3-0.18-0.48v-10.12c0-0.18 0.07-0.35 0.18-0.48c0.12-0.13 0.28-0.2 0.44-0.2h6.88c0.17 0 0.32 0.07 0.44 0.2c0.12 0.13 0.18 0.3 0.18 0.48v10.12c0 0.18-0.07 0.35-0.18 0.48c-0.12 0.13-0.28 0.2-0.44 0.2zm-6.25-1.35h5.63v-8.77h-5.63v8.77z" />
			<path id="Layer" fill-rule="evenodd" class="s0" d="m17.13 19.25h-6.88c-0.17 0-0.32-0.07-0.44-0.2c-0.12-0.13-0.18-0.3-0.18-0.48v-4.73c0-0.18 0.07-0.35 0.18-0.48c0.12-0.13 0.28-0.2 0.44-0.2h6.88c0.17 0 0.32 0.07 0.44 0.2c0.12 0.13 0.18 0.3 0.18 0.48v4.73c0 0.18-0.07 0.35-0.18 0.48c-0.12 0.13-0.28 0.2-0.44 0.2zm-6.25-1.35h5.63v-3.38h-5.63v3.38z" />
			<path id="Layer" fill-rule="evenodd" class="s0" d="m17.13 11.83h-6.88c-0.17 0-0.32-0.07-0.44-0.2c-0.12-0.13-0.18-0.3-0.18-0.48v-10.13c0-0.18 0.07-0.35 0.18-0.48c0.12-0.13 0.28-0.2 0.44-0.2h6.88c0.17 0 0.32 0.07 0.44 0.2c0.12 0.13 0.18 0.3 0.18 0.48v10.13c0 0.18-0.07 0.35-0.18 0.48c-0.12 0.13-0.28 0.2-0.44 0.2zm-6.25-1.35h5.63v-8.77h-5.63v8.77z" />
		</g>
	</g>
</svg>