<svg version="1.2" baseProfile="tiny-ps" xmlns="http://www.w3.org/2000/svg" viewBox="0 0 24 20" width="24" height="20">
	<title>payment-svg</title>
	<style>
		tspan { white-space:pre }
		.s0 { fill: #888787 } 
	</style>
	<path id="Layer" fill-rule="evenodd" class="s0" d="m23.9 2.2v15.59c0 1.21-0.88 2.2-1.97 2.2h-19.81c-1.08 0-1.97-0.99-1.97-2.2v-15.59c0-1.21 0.88-2.2 1.97-2.2h19.81c1.08 0 1.97 0.99 1.97 2.2zm-0.91 5.42h-21.93v10.17c0 0.65 0.47 1.19 1.06 1.19h19.81c0.58 0 1.06-0.53 1.06-1.19v-10.17zm0-5.42c0-0.65-0.47-1.19-1.06-1.19h-19.81c-0.58 0-1.06 0.53-1.06 1.19v4.41h21.93v-4.41zm-20.07 10.76c0-0.28 0.2-0.51 0.45-0.51h3.74c0.25 0 0.45 0.23 0.45 0.51c0 0.28-0.2 0.51-0.45 0.51h-3.74c-0.25 0-0.45-0.23-0.45-0.51zm6.28 0c0-0.28 0.2-0.51 0.45-0.51h7.98c0.25 0 0.45 0.23 0.45 0.51c0 0.28-0.2 0.51-0.45 0.51h-7.98c-0.25 0-0.45-0.23-0.45-0.51z" />
</svg>