<svg version="1.2" baseProfile="tiny-ps" xmlns="http://www.w3.org/2000/svg" viewBox="0 0 26 26" width="26" height="26">
	<title>servise-svg</title>
	<style>
		tspan { white-space:pre }
		.s0 { fill: #888787 } 
	</style>
	<path id="Layer" fill-rule="evenodd" class="s0" d="m16.81 7.74c0.18 0.03 0.21 0.07 0.3 0.15l2.07 2.08c0.19 0.21 0.19 0.53 0 0.74l-5.23 5.3c-0.04 0.08-0.05 0.1-0.11 0.16l-2.07 2.08c-0.32 0.3-0.39 0.17-0.53 0.15c-0.1-0.01-0.16-0.03-0.3-0.15l-2.07-2.08c-0.1-0.11-0.11-0.15-0.13-0.23l-1.91-1.92c-0.19-0.21-0.19-0.53 0-0.74l2.07-2.08c0.21-0.19 0.53-0.19 0.74 0l1.72 1.73l5.05-5.07c0.18-0.14 0.18-0.14 0.4-0.12zm-5.08 6.3c-0.21 0.19-0.52 0.19-0.74 0l-1.72-1.73l-1.33 1.34l1.72 1.73c0.1 0.11 0.11 0.15 0.13 0.23l1.57 1.58l1.58-1.6c0.06-0.15 0.04-0.11 0.13-0.2l5.01-5.04l-1.33-1.34c-1.67 1.68-3.34 3.36-5.01 5.04z" />
	<path id="Layer" fill-rule="evenodd" class="s0" d="m13.06 0.78c0.5 0 1 0.04 1.49 0.1c0.27 0.03 0.54 0.11 0.64 0.4l0.47 1.61c0.06 0.02 0.12 0.03 0.17 0.05c0.83 0.24 1.63 0.57 2.38 1.01l0.06 0.04l1.46-0.81c0.34-0.16 0.42-0.07 0.74 0.17c0.86 0.67 1.63 1.46 2.29 2.34c0 0 0.23 0.27 0.07 0.61l-0.8 1.47c0.03 0.05 0.06 0.1 0.09 0.16c0.42 0.76 0.75 1.56 0.98 2.4l0.02 0.07l1.6 0.47c0.35 0.13 0.35 0.24 0.4 0.65c0.14 1.09 0.13 2.19-0.02 3.28c0 0-0.03 0.35-0.38 0.48l-1.6 0.47c-0.02 0.06-0.03 0.12-0.05 0.17c-0.24 0.83-0.57 1.64-1 2.39l-0.04 0.06l0.8 1.47c0.16 0.34 0.07 0.42-0.17 0.74c-0.67 0.87-1.45 1.64-2.32 2.3c0 0-0.27 0.23-0.61 0.07l-1.46-0.81c-0.05 0.03-0.1 0.06-0.16 0.09c-0.75 0.42-1.56 0.75-2.39 0.98l-0.07 0.02l-0.47 1.61c-0.13 0.35-0.24 0.35-0.64 0.4c-1.08 0.14-2.18 0.13-3.26-0.02c0 0-0.35-0.03-0.48-0.38l-0.47-1.61c-0.06-0.02-0.12-0.03-0.17-0.05c-0.83-0.24-1.63-0.57-2.38-1.01l-0.06-0.04l-1.46 0.81c-0.34 0.16-0.42 0.07-0.74-0.17c-0.86-0.67-1.63-1.46-2.29-2.34c0 0-0.23-0.27-0.07-0.61l0.8-1.47c-0.03-0.05-0.06-0.1-0.09-0.16c-0.42-0.76-0.75-1.56-0.98-2.4l-0.02-0.07l-1.6-0.47c-0.35-0.13-0.35-0.24-0.4-0.65c-0.14-1.09-0.13-2.19 0.02-3.28c0 0 0.03-0.35 0.38-0.48l1.6-0.47c0.02-0.06 0.03-0.12 0.05-0.17c0.24-0.83 0.57-1.64 1-2.39l0.04-0.06l-0.8-1.47c-0.16-0.34-0.07-0.42 0.17-0.74c0.67-0.87 1.45-1.64 2.32-2.3c0 0 0.27-0.23 0.61-0.07l1.46 0.81c0.05-0.03 0.1-0.06 0.16-0.09c0.75-0.42 1.56-0.75 2.39-0.98l0.07-0.02l0.47-1.61c0.13-0.35 0.24-0.35 0.64-0.4c0.53-0.07 1.07-0.1 1.6-0.1zm5.33 20.26c0.07 0.02 0.07 0.02 0.13 0.05l1.43 0.79c0.67-0.53 1.28-1.14 1.81-1.82l-0.8-1.52c-0.13-0.4 0.06-0.48 0.24-0.8c0.45-0.79 0.78-1.65 0.99-2.54c0 0 0.06-0.27 0.36-0.38l1.56-0.46c0.1-0.85 0.1-1.72 0-2.57l-1.63-0.51c-0.37-0.2-0.3-0.38-0.39-0.74c-0.24-0.88-0.61-1.72-1.09-2.5c0 0-0.12-0.3-0.01-0.53l0.78-1.44c-0.53-0.67-1.14-1.28-1.81-1.82l-1.51 0.8c-0.4 0.13-0.48-0.06-0.8-0.24c-0.79-0.45-1.64-0.78-2.53-0.99c0 0-0.3-0.13-0.38-0.36l-0.46-1.57c-0.85-0.1-1.71-0.1-2.56 0l-0.5 1.64c-0.19 0.37-0.38 0.3-0.74 0.39c-0.87 0.24-1.71 0.61-2.48 1.1c0 0-0.3 0.12-0.52 0.01l-1.43-0.79c-0.67 0.53-1.28 1.14-1.81 1.82l0.8 1.52c0.13 0.4-0.06 0.48-0.24 0.8c-0.45 0.79-0.78 1.65-0.99 2.54c0 0-0.06 0.27-0.36 0.38l-1.56 0.46c-0.1 0.85-0.1 1.72 0 2.57l1.63 0.51c0.37 0.2 0.29 0.38 0.39 0.74c0.24 0.88 0.61 1.72 1.09 2.5c0 0 0.12 0.3 0.01 0.53l-0.78 1.44c0.53 0.67 1.14 1.28 1.81 1.82l1.51-0.8c0.4-0.13 0.48 0.06 0.8 0.24c0.79 0.45 1.64 0.78 2.53 0.99c0 0 0.27 0.06 0.38 0.36l0.46 1.57c0.85 0.1 1.71 0.1 2.56 0l0.5-1.64c0.19-0.37 0.38-0.3 0.74-0.39c0.87-0.25 1.71-0.61 2.48-1.1c0 0 0.04-0.13 0.4-0.06z" />
</svg>