<svg version="1.2" baseProfile="tiny-ps" xmlns="http://www.w3.org/2000/svg" viewBox="0 0 25 21" width="25" height="21">
	<title>team-svg</title>
	<style>
		tspan { white-space:pre }
		.s0 { fill: #394500 } 
	</style>
	<path id="Layer" fill-rule="evenodd" class="s0" d="m8.88 6.9c0-2.15 1.63-3.9 3.63-3.9c2 0 3.63 1.75 3.63 3.9c0 2.15-1.63 3.9-3.63 3.9c-2 0-3.63-1.79-3.63-3.9zm1.25-0.04c0 1.39 1.04 2.55 2.38 2.55c1.29 0 2.38-1.12 2.38-2.55c0-1.39-1.04-2.55-2.38-2.55c-1.33 0-2.38 1.16-2.38 2.55zm6.13-2.96c0-2.15 1.67-3.9 3.67-3.9c2 0 3.63 1.75 3.63 3.9c0 2.15-1.63 3.9-3.63 3.9c-2.04 0-3.67-1.75-3.67-3.9zm1.25 0c0 1.39 1.13 2.55 2.42 2.55c1.29 0 2.38-1.21 2.38-2.6c0-1.39-1.04-2.55-2.38-2.55c-1.33 0-2.42 1.21-2.42 2.6zm-16.04 0c0-2.15 1.63-3.9 3.63-3.9c2 0 3.63 1.75 3.63 3.9c0 2.15-1.63 3.9-3.63 3.9c-2 0-3.63-1.75-3.63-3.9zm1.25 0c0 1.39 1.04 2.55 2.38 2.55c1.33 0 2.38-1.21 2.38-2.6c0-1.39-1.04-2.55-2.38-2.55c-1.29 0-2.38 1.21-2.38 2.6zm22.29 8.46v4.97c0 0.36-0.29 0.67-0.63 0.67h-5.96v-1.34h5.33v-4.3c0-1.12-0.83-2.01-1.88-2.01h-3.96c-0.75 0-1.42 0.49-1.71 1.16c-0.38-0.13-0.75-0.27-1.21-0.36c0.46-1.25 1.58-2.1 2.88-2.1h4c1.75 0 3.13 1.48 3.13 3.31zm-23.75 0v4.3h5.33v1.34h-5.96c-0.33 0-0.63-0.31-0.63-0.67v-4.97c0-1.84 1.38-3.36 3.13-3.36h3.96c1.33 0 2.46 0.9 2.88 2.1c-0.42 0.04-0.83 0.18-1.21 0.4c-0.29-0.67-0.92-1.16-1.71-1.16h-4c-0.96 0.04-1.79 0.94-1.79 2.01zm16.33 3v4.97c0 0.36-0.29 0.67-0.63 0.67h-8.96c-0.33 0-0.63-0.31-0.63-0.67v-4.97c0-1.88 1.42-3.36 3.13-3.36h4c1.71 0 3.08 1.52 3.08 3.36zm-1.17 4.3v-4.3c0-1.12-0.83-2.01-1.88-2.01h-4c-1.04 0-1.88 0.9-1.88 2.01v4.3h7.75z" />
</svg>