<svg version="1.2" baseProfile="tiny-ps" xmlns="http://www.w3.org/2000/svg" viewBox="0 0 15 24" width="15" height="24">
	<title>user-svg</title>
	<style>
		tspan { white-space:pre }
		.s0 { fill: #888787 } 
	</style>
	<path id="Layer" fill-rule="evenodd" class="s0" d="m7.5 11.06c-3.28 0-5.95-2.48-5.95-5.53c0-3.05 2.67-5.53 5.95-5.53c3.28 0 5.95 2.48 5.95 5.53c0 3.05-2.67 5.53-5.95 5.53zm0-9.56c-2.32 0-4.2 1.81-4.2 4.03c0 2.22 1.89 4.03 4.2 4.03c2.32 0 4.2-1.81 4.2-4.03c0-2.22-1.89-4.03-4.2-4.03zm6.63 22.5h-13.25c-0.23 0-0.45-0.08-0.62-0.22c-0.16-0.14-0.26-0.33-0.26-0.53v-8.07c0-0.63 0.29-1.23 0.81-1.67c0.52-0.44 1.22-0.69 1.95-0.69h9.49c0.73 0 1.43 0.25 1.95 0.69c0.52 0.44 0.81 1.04 0.81 1.67v8.07c0 0.2-0.09 0.39-0.26 0.53c-0.16 0.14-0.39 0.22-0.62 0.22zm-12.38-1.5h11.51v-7.32c0-0.23-0.11-0.45-0.3-0.61c-0.19-0.16-0.45-0.25-0.71-0.25h-9.49c-0.27 0-0.52 0.09-0.71 0.25c-0.19 0.16-0.3 0.38-0.3 0.61v7.32z" />
</svg>