<svg xmlns="http://www.w3.org/2000/svg" width="82.222" height="67.749" viewBox="0 0 82.222 67.749">
  <g id="edit-btn" transform="translate(-21.349 -35.266)">
    <path id="Path_66422" data-name="Path 66422" d="M110.026,100.3a15.713,15.713,0,0,1-3.277,4.644,19.968,19.968,0,0,1-4.876,3.5l-.132.066c-.026.013-.052.029-.08.042l-.036.016c-.023.013-.046.024-.07.034a22.21,22.21,0,0,1-9.172,2.242,13.642,13.642,0,0,1-9.288-3.477.052.052,0,0,0-.013-.01,19.224,19.224,0,0,1-1.387-1.469L77.679,101.4a7.088,7.088,0,0,1,.415-9.879l.178-.168a3.605,3.605,0,0,1,.709-.516l-.431-.863-1.3.952a4.515,4.515,0,0,1-2.679.879,4.516,4.516,0,0,1-3.721-1.935,4.672,4.672,0,0,1-.838-3.181,4.6,4.6,0,0,1-1.751.346H41.317a9.787,9.787,0,0,1-9.693-9.858v-21.6a9.787,9.787,0,0,1,9.693-9.858H80.923a9.787,9.787,0,0,1,9.693,9.858V68.812a4.773,4.773,0,0,1-.91,2.809,4.577,4.577,0,0,1,3.419,1.925,4.685,4.685,0,0,1,.807,3.472,4.494,4.494,0,0,1-.093.451c.193-.018.387-.029.58-.029q.244,0,.488.016c.116.011.232.021.348.034a7.417,7.417,0,0,1,.833.157c.108-.065.217-.123.322-.178a6.818,6.818,0,0,1,9.252,3.071l2.444,4.894,1.212,2.426c.585,1.175.67,1.345.686,1.379.008.013.013.026.021.039A12.851,12.851,0,0,1,110.026,100.3Z" transform="translate(-7.696 -7.827)" fill="#bec6b9"/>
    <path id="Path_66423" data-name="Path 66423" d="M99.751,89.85a15.705,15.705,0,0,1-3.277,4.644,19.963,19.963,0,0,1-4.876,3.5l-.132.066c-.026.013-.052.029-.08.042l-.036.016c-.023.013-.046.024-.07.034a22.213,22.213,0,0,1-9.172,2.242,13.642,13.642,0,0,1-9.289-3.477.059.059,0,0,0-.013-.011,19.229,19.229,0,0,1-1.387-1.469L67.4,90.952a7.088,7.088,0,0,1,.415-9.879L68,80.905a3.6,3.6,0,0,1,.709-.516l-.431-.863-1.3.952a4.516,4.516,0,0,1-2.679.878,4.516,4.516,0,0,1-3.721-1.935,4.67,4.67,0,0,1-.838-3.181,4.607,4.607,0,0,1-1.751.346H31.042a9.787,9.787,0,0,1-9.693-9.858v-21.6a9.787,9.787,0,0,1,9.693-9.858H70.648a9.787,9.787,0,0,1,9.693,9.858V58.362a4.773,4.773,0,0,1-.91,2.809A4.577,4.577,0,0,1,82.85,63.1a4.687,4.687,0,0,1,.807,3.472,4.55,4.55,0,0,1-.093.451c.193-.018.387-.029.58-.029q.244,0,.487.016c.116.011.232.021.348.034a7.37,7.37,0,0,1,.833.157c.108-.065.217-.123.322-.178a6.818,6.818,0,0,1,9.252,3.071l2.445,4.893,1.212,2.426c.585,1.175.67,1.345.686,1.379.008.013.013.026.021.039A12.851,12.851,0,0,1,99.751,89.85Z" fill="#fff"/>
    <g id="Group_27883" data-name="Group 27883" transform="translate(24.962 38.938)">
      <g id="Group_27879" data-name="Group 27879" transform="translate(37.413 23.017)">
        <g id="Group_27822" data-name="Group 27822" transform="translate(3.727 1.863)">
          <path id="Path_66424" data-name="Path 66424" d="M203.081,154.446a.954.954,0,0,0,.567-.187,1,1,0,0,0,.22-1.383l-2.433-3.431a.965.965,0,0,0-.634-.4.954.954,0,0,0-.726.174.985.985,0,0,0-.392.645,1,1,0,0,0,.172.738l2.433,3.432a.971.971,0,0,0,.793.411Z" transform="translate(-199.671 -149.033)"/>
        </g>
        <g id="Group_27823" data-name="Group 27823" transform="translate(12.412 2.877)">
          <path id="Path_66425" data-name="Path 66425" d="M235.1,157.517a.969.969,0,0,0,.158.013.955.955,0,0,0,.567-.187l3.374-2.475a.987.987,0,0,0,.392-.645,1,1,0,0,0-.172-.738h0a.964.964,0,0,0-1.36-.224l-3.374,2.475a1,1,0,0,0-.22,1.383A.966.966,0,0,0,235.1,157.517Z" transform="translate(-234.277 -153.075)"/>
        </g>
        <g id="Group_27824" data-name="Group 27824" transform="translate(0.95 11.274)">
          <path id="Path_66426" data-name="Path 66426" d="M193.11,186.547a.955.955,0,0,0-.726.174l-3.374,2.475a.986.986,0,0,0-.392.645,1,1,0,0,0,.171.738.967.967,0,0,0,.634.4.988.988,0,0,0,.158.013.956.956,0,0,0,.568-.187l3.374-2.475a.986.986,0,0,0,.392-.645,1,1,0,0,0-.171-.738A.965.965,0,0,0,193.11,186.547Z" transform="translate(-188.606 -186.534)"/>
        </g>
        <g id="Group_27825" data-name="Group 27825" transform="translate(0 7.354)">
          <path id="Path_66427" data-name="Path 66427" d="M189.9,173.574a.957.957,0,0,0,.568-.188.987.987,0,0,0,.392-.645,1,1,0,0,0-.172-.738.965.965,0,0,0-.634-.4l-4.107-.677a.955.955,0,0,0-.725.175.986.986,0,0,0-.392.645,1,1,0,0,0,.172.738.965.965,0,0,0,.634.4l4.107.677A.983.983,0,0,0,189.9,173.574Z" transform="translate(-184.821 -170.916)"/>
        </g>
        <g id="Group_27826" data-name="Group 27826" transform="translate(9.362)">
          <path id="Path_66428" data-name="Path 66428" d="M222.944,147.757a.954.954,0,0,0,.726-.175.988.988,0,0,0,.392-.645l.665-4.176a.99.99,0,0,0-.806-1.136.977.977,0,0,0-1.117.819l-.665,4.176a1,1,0,0,0,.172.738A.965.965,0,0,0,222.944,147.757Z" transform="translate(-222.126 -141.612)"/>
        </g>
        <g id="Group_27878" data-name="Group 27878" transform="translate(6.658 6.853)">
          <g id="Group_27827" data-name="Group 27827" transform="translate(14.533 3.751)">
            <path id="Path_66429" data-name="Path 66429" d="M269.259,183.875l.027-.012Z" transform="translate(-269.259 -183.863)"/>
          </g>
          <g id="Group_27828" data-name="Group 27828" transform="translate(15.265 3.649)">
            <path id="Path_66430" data-name="Path 66430" d="M272.178,183.457l.031,0Z" transform="translate(-272.178 -183.457)"/>
          </g>
          <g id="Group_27829" data-name="Group 27829" transform="translate(14.659 3.696)">
            <path id="Path_66431" data-name="Path 66431" d="M269.76,183.664l.059-.018Z" transform="translate(-269.76 -183.646)"/>
          </g>
          <g id="Group_27830" data-name="Group 27830" transform="translate(15.088 11.913)">
            <path id="Path_66432" data-name="Path 66432" d="M271.47,216.387l.012,0Z" transform="translate(-271.47 -216.387)"/>
          </g>
          <g id="Group_27831" data-name="Group 27831" transform="translate(14.744 3.679)">
            <path id="Path_66433" data-name="Path 66433" d="M270.1,183.589l.04-.01Z" transform="translate(-270.102 -183.579)"/>
          </g>
          <g id="Group_27832" data-name="Group 27832" transform="translate(14.475 3.778)">
            <path id="Path_66434" data-name="Path 66434" d="M269.03,183.984l.021-.01Z" transform="translate(-269.03 -183.974)"/>
          </g>
          <g id="Group_27833" data-name="Group 27833" transform="translate(16.195 10.778)">
            <path id="Path_66435" data-name="Path 66435" d="M275.888,211.886l-.005-.02Z" transform="translate(-275.883 -211.866)"/>
          </g>
          <g id="Group_27834" data-name="Group 27834" transform="translate(15.105 3.641)">
            <path id="Path_66436" data-name="Path 66436" d="M271.538,183.427h0Z" transform="translate(-271.538 -183.427)"/>
          </g>
          <g id="Group_27835" data-name="Group 27835" transform="translate(15.034 3.642)">
            <path id="Path_66437" data-name="Path 66437" d="M271.255,183.431l.043,0Z" transform="translate(-271.255 -183.429)"/>
          </g>
          <g id="Group_27836" data-name="Group 27836" transform="translate(15.172 3.642)">
            <path id="Path_66438" data-name="Path 66438" d="M271.807,183.431l.04,0Z" transform="translate(-271.807 -183.431)"/>
          </g>
          <g id="Group_27837" data-name="Group 27837" transform="translate(14.88 3.654)">
            <path id="Path_66439" data-name="Path 66439" d="M270.641,183.485l.046-.007Z" transform="translate(-270.641 -183.478)"/>
          </g>
          <g id="Group_27838" data-name="Group 27838" transform="translate(14.813 3.665)">
            <path id="Path_66440" data-name="Path 66440" d="M270.376,183.531l.039-.008Z" transform="translate(-270.376 -183.523)"/>
          </g>
          <g id="Group_27839" data-name="Group 27839" transform="translate(14.946 3.645)">
            <path id="Path_66441" data-name="Path 66441" d="M270.9,183.448l.064-.006Z" transform="translate(-270.905 -183.442)"/>
          </g>
          <g id="Group_27840" data-name="Group 27840" transform="translate(14.595 3.726)">
            <path id="Path_66442" data-name="Path 66442" d="M269.507,183.775l.031-.011Z" transform="translate(-269.507 -183.764)"/>
          </g>
          <g id="Group_27841" data-name="Group 27841" transform="translate(11.127 13.205)">
            <path id="Path_66443" data-name="Path 66443" d="M255.69,221.571l.045-.036Z" transform="translate(-255.69 -221.535)"/>
          </g>
          <g id="Group_27842" data-name="Group 27842" transform="translate(11.237 13.103)">
            <path id="Path_66444" data-name="Path 66444" d="M256.125,221.17l.038-.041Z" transform="translate(-256.125 -221.129)"/>
          </g>
          <g id="Group_27843" data-name="Group 27843" transform="translate(11.281 13.046)">
            <path id="Path_66445" data-name="Path 66445" d="M256.3,220.952c.013-.016.026-.033.038-.049C256.327,220.92,256.314,220.936,256.3,220.952Z" transform="translate(-256.301 -220.903)"/>
          </g>
          <g id="Group_27844" data-name="Group 27844" transform="translate(11.067 13.246)">
            <path id="Path_66446" data-name="Path 66446" d="M255.45,221.736l.053-.036Z" transform="translate(-255.45 -221.7)"/>
          </g>
          <g id="Group_27845" data-name="Group 27845" transform="translate(11.326 12.926)">
            <path id="Path_66447" data-name="Path 66447" d="M256.483,220.535a.975.975,0,0,0,.067-.11A.975.975,0,0,1,256.483,220.535Z" transform="translate(-256.483 -220.425)"/>
          </g>
          <g id="Group_27846" data-name="Group 27846" transform="translate(11.451 12.588)">
            <path id="Path_66448" data-name="Path 66448" d="M256.98,219.279a.947.947,0,0,0,.045-.2A.947.947,0,0,1,256.98,219.279Z" transform="translate(-256.98 -219.076)"/>
          </g>
          <g id="Group_27847" data-name="Group 27847" transform="translate(11.398 12.796)">
            <path id="Path_66449" data-name="Path 66449" d="M256.768,220.026a.956.956,0,0,0,.052-.122A.956.956,0,0,1,256.768,220.026Z" transform="translate(-256.768 -219.904)"/>
          </g>
          <g id="Group_27848" data-name="Group 27848" transform="translate(11.465 12.228)">
            <path id="Path_66450" data-name="Path 66450" d="M257.042,217.662l-.006-.021Z" transform="translate(-257.036 -217.641)"/>
          </g>
          <g id="Group_27849" data-name="Group 27849" transform="translate(11.453 12.188)">
            <path id="Path_66451" data-name="Path 66451" d="M256.993,217.5l-.005-.016Z" transform="translate(-256.988 -217.482)"/>
          </g>
          <g id="Group_27850" data-name="Group 27850" transform="translate(11.476 12.267)">
            <path id="Path_66452" data-name="Path 66452" d="M257.083,217.823l-.006-.025Z" transform="translate(-257.077 -217.798)"/>
          </g>
          <g id="Group_27851" data-name="Group 27851" transform="translate(11.439 12.148)">
            <path id="Path_66453" data-name="Path 66453" d="M256.934,217.331l0-.009Z" transform="translate(-256.931 -217.322)"/>
          </g>
          <g id="Group_27852" data-name="Group 27852" transform="translate(11.484 12.305)">
            <path id="Path_66454" data-name="Path 66454" d="M257.121,218.017c0,.023,0,.045.005.068a.945.945,0,0,0-.016-.137C257.114,217.971,257.118,217.994,257.121,218.017Z" transform="translate(-257.11 -217.948)"/>
          </g>
          <g id="Group_27853" data-name="Group 27853" transform="translate(2.746 1.863)">
            <path id="Path_66455" data-name="Path 66455" d="M222.346,176.343l-.044.015-.01,0,.01,0Z" transform="translate(-222.292 -176.343)"/>
          </g>
          <g id="Group_27854" data-name="Group 27854" transform="translate(1.76 2.368)">
            <path id="Path_66456" data-name="Path 66456" d="M218.692,178.353a1.569,1.569,0,0,0-.278,1.358A1.569,1.569,0,0,1,218.692,178.353Z" transform="translate(-218.363 -178.353)"/>
          </g>
          <g id="Group_27855" data-name="Group 27855" transform="translate(7.873 9.139)">
            <path id="Path_66457" data-name="Path 66457" d="M244.607,209.108a.915.915,0,0,0,1.24.411c.02-.01.039-.022.058-.033-.019.012-.038.023-.058.033a.915.915,0,0,1-1.24-.411l-.268-.537-1.458-2.92-.158-.316.158.316Z" transform="translate(-242.723 -205.335)"/>
          </g>
          <g id="Group_27856" data-name="Group 27856" transform="translate(8.514 20.492)">
            <path id="Path_66458" data-name="Path 66458" d="M246.1,250.808h0a.83.83,0,0,0,.281-.237.83.83,0,0,1-.281.237h0a.821.821,0,0,1-.822-.039A.822.822,0,0,0,246.1,250.808Z" transform="translate(-245.276 -250.571)"/>
          </g>
          <g id="Group_27857" data-name="Group 27857" transform="translate(11.496 12.448)">
            <path id="Path_66459" data-name="Path 66459" d="M257.164,218.52a.971.971,0,0,1,0,.137A.971.971,0,0,0,257.164,218.52Z" transform="translate(-257.159 -218.52)"/>
          </g>
          <g id="Group_27858" data-name="Group 27858" transform="translate(8.933 7.121)">
            <path id="Path_66460" data-name="Path 66460" d="M246.946,197.294l.25.5,1.02,2.041L247.2,197.8Z" transform="translate(-246.946 -197.294)"/>
          </g>
          <g id="Group_27859" data-name="Group 27859" transform="translate(11.183 13.154)">
            <path id="Path_66461" data-name="Path 66461" d="M255.955,221.331l-.045.042Z" transform="translate(-255.91 -221.331)"/>
          </g>
          <g id="Group_27860" data-name="Group 27860" transform="translate(1.986 16.079)">
            <path id="Path_66462" data-name="Path 66462" d="M219.7,233.192a2.063,2.063,0,0,1,1.3-.166,2.11,2.11,0,0,1,1.1.548,2.112,2.112,0,0,0-1.1-.548,2.065,2.065,0,0,0-1.3.166,1.532,1.532,0,0,0-.435.735A1.531,1.531,0,0,1,219.7,233.192Z" transform="translate(-219.266 -232.988)"/>
          </g>
          <g id="Group_27861" data-name="Group 27861" transform="translate(3.844 20.145)">
            <path id="Path_66463" data-name="Path 66463" d="M226.669,249.188,229.183,252l.093.1-.092-.1Z" transform="translate(-226.669 -249.188)"/>
          </g>
          <g id="Group_27862" data-name="Group 27862" transform="translate(15.336 3.657)">
            <path id="Path_66464" data-name="Path 66464" d="M272.473,183.493l-.014,0,.024,0Z" transform="translate(-272.459 -183.491)"/>
          </g>
          <g id="Group_27863" data-name="Group 27863" transform="translate(7.104 23.773)">
            <path id="Path_66465" data-name="Path 66465" d="M239.9,263.891c-.048-.043-.137-.135-.242-.247.105.112.193.2.242.247,2.786,2.507,6.384,2.471,9.766,1.461C246.285,266.362,242.687,266.4,239.9,263.891Z" transform="translate(-239.659 -263.644)"/>
          </g>
          <g id="Group_27864" data-name="Group 27864" transform="translate(20.066 21.053)">
            <path id="Path_66466" data-name="Path 66466" d="M291.376,256.07l-.071.037.071-.037a13.849,13.849,0,0,0,4.23-3.263A13.848,13.848,0,0,1,291.376,256.07Z" transform="translate(-291.305 -252.807)"/>
          </g>
          <g id="Group_27865" data-name="Group 27865" transform="translate(8.355 20.56)">
            <path id="Path_66467" data-name="Path 66467" d="M244.65,250.847l-.006-.006Z" transform="translate(-244.644 -250.841)"/>
          </g>
          <g id="Group_27866" data-name="Group 27866" transform="translate(18.638 8.817)">
            <path id="Path_66468" data-name="Path 66468" d="M286.544,205.843a.945.945,0,0,1-.13-.2l-.8-1.6.8,1.6A.955.955,0,0,0,286.544,205.843Z" transform="translate(-285.617 -204.052)"/>
          </g>
          <g id="Group_27867" data-name="Group 27867" transform="translate(19.641 6.685)">
            <path id="Path_66469" data-name="Path 66469" d="M289.614,195.557l1.437,2.878a.949.949,0,0,1,.076.212.944.944,0,0,0-.076-.212Z" transform="translate(-289.614 -195.557)"/>
          </g>
          <g id="Group_27868" data-name="Group 27868" transform="translate(18.719 3.515)">
            <path id="Path_66470" data-name="Path 66470" d="M286.241,182.926a1.584,1.584,0,0,0-.3,1A1.584,1.584,0,0,1,286.241,182.926Z" transform="translate(-285.94 -182.926)"/>
          </g>
          <g id="Group_27869" data-name="Group 27869" transform="translate(15.456 3.68)">
            <path id="Path_66471" data-name="Path 66471" d="M273.735,184.055a1.521,1.521,0,0,0-.661-.437c-.044-.015-.09-.027-.136-.038.046.011.091.023.136.038A1.515,1.515,0,0,1,273.735,184.055Z" transform="translate(-272.938 -183.58)"/>
          </g>
          <g id="Group_27870" data-name="Group 27870" transform="translate(19.423 2.912)">
            <path id="Path_66472" data-name="Path 66472" d="M290.893,181.361l4.318,8.647a7.162,7.162,0,0,1,.578,1.777,7.159,7.159,0,0,0-.578-1.777l-4.318-8.647a1.506,1.506,0,0,0-2.034-.675c-.038.02-.076.042-.113.066.037-.023.075-.046.113-.065A1.505,1.505,0,0,1,290.893,181.361Z" transform="translate(-288.746 -180.52)"/>
          </g>
          <g id="Group_27871" data-name="Group 27871" transform="translate(9.461 4.277)">
            <path id="Path_66473" data-name="Path 66473" d="M250.117,186.073a1.455,1.455,0,0,0-1.066-.023h0A1.458,1.458,0,0,1,250.117,186.073Z" transform="translate(-249.05 -185.96)"/>
          </g>
          <g id="Group_27872" data-name="Group 27872" transform="translate(15.395 3.667)">
            <path id="Path_66474" data-name="Path 66474" d="M272.693,183.53l.047.01Z" transform="translate(-272.693 -183.53)"/>
          </g>
          <g id="Group_27873" data-name="Group 27873" transform="translate(10.894 4.603)">
            <path id="Path_66475" data-name="Path 66475" d="M255.211,187.81l.342.685-.342-.685a1.607,1.607,0,0,0-.451-.55A1.612,1.612,0,0,1,255.211,187.81Z" transform="translate(-254.76 -187.26)"/>
          </g>
          <g id="Group_27874" data-name="Group 27874" transform="translate(15.107 11.606)">
            <path id="Path_66476" data-name="Path 66476" d="M272.157,215.393a.924.924,0,0,0,.287-.231.92.92,0,0,1-.287.231.9.9,0,0,1-.611.081A.9.9,0,0,0,272.157,215.393Z" transform="translate(-271.546 -215.162)"/>
          </g>
          <g id="Group_27875" data-name="Group 27875" transform="translate(13.611 4.218)">
            <path id="Path_66477" data-name="Path 66477" d="M265.917,185.725a1.568,1.568,0,0,0-.234,1.507A1.568,1.568,0,0,1,265.917,185.725Z" transform="translate(-265.586 -185.725)"/>
          </g>
          <g id="Group_27876" data-name="Group 27876" transform="translate(16.145 10.801)">
            <path id="Path_66478" data-name="Path 66478" d="M275.738,211.954a.953.953,0,0,1-.056.575A.951.951,0,0,0,275.738,211.954Z" transform="translate(-275.682 -211.954)"/>
          </g>
          <g id="Group_27877" data-name="Group 27877">
            <path id="Path_66479" data-name="Path 66479" d="M238.822,180.539c-.017-.033-.1-.2-.677-1.359l-3.654-7.318a3.248,3.248,0,0,0-4.4-1.46,3.331,3.331,0,0,0-.34.2,3.235,3.235,0,0,0-.918.951c-.03.048-.06.1-.088.146q-.113-.11-.233-.207a3.256,3.256,0,0,0-1.646-.7c-.055-.007-.11-.013-.165-.016a3.194,3.194,0,0,0-1.709.351,3.275,3.275,0,0,0-1.335,1.276,3.324,3.324,0,0,0-.829-.621,3.191,3.191,0,0,0-2.62-.18,3.272,3.272,0,0,0-1.6,1.275l-1.052-2.109a3.272,3.272,0,0,0-4.054-1.655,3.234,3.234,0,0,0-.362.161,3.286,3.286,0,0,0-1.626,1.934,3.35,3.35,0,0,0,.191,2.538l1.929,3.863,1.324,2.65.514,1.029,1.083,2.168.155.31a3.854,3.854,0,0,0-.649-.31,3.907,3.907,0,0,0-2.765,0,3.333,3.333,0,0,0-.323.146l-.216.112-.179.167a3.372,3.372,0,0,0-.192,4.7l4.021,4.492c.878.981,1.05,1.135,1.123,1.2,3.527,3.174,8.571,3.393,14.586.636l.037-.018.13-.067a16.215,16.215,0,0,0,3.989-2.854,12.039,12.039,0,0,0,2.522-3.556A9.184,9.184,0,0,0,238.822,180.539Zm-7.333,12.7-.071.037-.022.011a22.572,22.572,0,0,1-2.932,1.117c-3.382,1.01-6.98,1.046-9.766-1.461-.048-.043-.137-.135-.242-.247-.215-.229-.5-.544-.654-.716l-.093-.1-2.514-2.809-1.511-1.688a1.56,1.56,0,0,1-.347-1.439,1.532,1.532,0,0,1,.435-.735,2.065,2.065,0,0,1,1.3-.166,2.112,2.112,0,0,1,1.1.548c.023.023.045.046.067.07l3.435,3.791.033.034.006.006.039.037a.833.833,0,0,0,.114.087.821.821,0,0,0,.822.039h0a.829.829,0,0,0,.281-.237.855.855,0,0,0,.083-.9l-2.523-5.049c-.349-.7-.715-1.431-1.083-2.168L216.7,179.8l-1-2.005-2.425-4.854a1.552,1.552,0,0,1-.112-.3,1.569,1.569,0,0,1,.278-1.358,1.5,1.5,0,0,1,.5-.414,1.579,1.579,0,0,1,.16-.072l.01,0,.044-.015a1.533,1.533,0,0,1,1.838.8l3.235,6.474.158.316,1.458,2.92.268.537a.915.915,0,0,0,1.24.411c.02-.01.039-.022.058-.033l.012-.007.053-.036.007-.006.045-.036.011-.009.045-.042.009-.009.038-.041.006-.007c.013-.016.026-.033.038-.049l.007-.01a.974.974,0,0,0,.067-.11l0-.008a.951.951,0,0,0,.052-.122v0a.946.946,0,0,0,.045-.2v0a.965.965,0,0,0,0-.137v-.007c0-.023,0-.045-.005-.068s-.007-.046-.011-.069l0-.012-.006-.025,0-.018-.006-.021-.007-.024-.005-.016-.011-.032,0-.009c-.011-.029-.023-.057-.037-.085l-1.2-2.4-1.02-2.041-.25-.5-.3-.61a1.555,1.555,0,0,1,.664-2.069,1.486,1.486,0,0,1,.169-.075h0a1.455,1.455,0,0,1,1.066.023,1.566,1.566,0,0,1,.257.135c.038.024.074.051.109.079a1.607,1.607,0,0,1,.451.55l.342.685,2.617,5.24.174.348a.921.921,0,0,0,.61.487l.012,0h.007a.9.9,0,0,0,.611-.081.92.92,0,0,0,.287-.231.95.95,0,0,0,.2-.805v0l-.005-.02a.952.952,0,0,0-.073-.2l-.814-1.63-1.534-3.07a1.529,1.529,0,0,1-.066-.151,1.568,1.568,0,0,1,.234-1.507,1.51,1.51,0,0,1,.5-.411l.038-.018.021-.01.037-.016.027-.012.035-.014.031-.011.033-.012.059-.018.026-.007.04-.01.029-.006.039-.008.028,0,.046-.007.021,0,.064-.006h.024l.043,0h.1l.04,0,.053,0,.031,0,.039.005.014,0,.01,0,.035.006.047.01.014,0c.046.011.091.023.136.038a1.521,1.521,0,0,1,.661.437q.046.053.089.11a1.583,1.583,0,0,1,.131.217l1.01,2.021,1.156,2.314.8,1.6a.945.945,0,0,0,.13.2.912.912,0,0,0,1.109.216.948.948,0,0,0,.4-1.261l-1.437-2.878-.75-1.5a1.633,1.633,0,0,1-.17-.666,1.584,1.584,0,0,1,.3-1,1.467,1.467,0,0,1,.356-.342l.047-.03c.037-.024.075-.046.113-.065a1.506,1.506,0,0,1,2.034.675l4.318,8.647a7.157,7.157,0,0,1,.578,1.777,8.273,8.273,0,0,1-2.1,6.877A13.849,13.849,0,0,1,231.489,193.235Z" transform="translate(-211.352 -168.919)" fill="#838eeb"/>
          </g>
        </g>
      </g>
      <g id="Group_27882" data-name="Group 27882" transform="translate(0 0)">
        <g id="Group_27881" data-name="Group 27881">
          <g id="Group_27880" data-name="Group 27880">
            <path id="Path_66480" data-name="Path 66480" d="M81.436,49.9H41.829a6.135,6.135,0,0,0-6.082,6.186v21.6a6.135,6.135,0,0,0,6.082,6.186H68.776a1.075,1.075,0,0,0,1.066-1.084c0-.01,0-.019,0-.028a1.074,1.074,0,0,0-1.066-1.056H41.829a3.985,3.985,0,0,1-3.95-4.018v-21.6a3.984,3.984,0,0,1,3.95-4.017H81.436a3.984,3.984,0,0,1,3.95,4.017v13.24a1.077,1.077,0,0,0,.968,1.079c.033,0,.065,0,.1,0a1.075,1.075,0,0,0,1.066-1.084V56.084A6.135,6.135,0,0,0,81.436,49.9Z" transform="translate(-35.747 -49.898)" fill="#accd00"/>
          </g>
        </g>
        <text id="edit" transform="translate(8.069 20.853)" fill="#df88d9" font-size="15" font-family="ProximaNova-Bold, Proxima Nova" font-weight="700"><tspan x="0" y="0">edit</tspan></text>
      </g>
    </g>
  </g>
</svg>
