<svg xmlns="http://www.w3.org/2000/svg" width="49.186" height="49.186" viewBox="0 0 49.186 49.186"><path d="M38.427,49.186a1.533,1.533,0,0,1-1.087-.45l-5.7-5.7H16.908A4.611,4.611,0,0,1,12.3,38.427v-9.1l-5.188,4.15a1.537,1.537,0,0,1-2.5-1.2V27.667A4.611,4.611,0,0,1,0,23.056V4.611A4.611,4.611,0,0,1,4.611,0H32.278A4.611,4.611,0,0,1,36.89,4.611V15.371h7.685a4.611,4.611,0,0,1,4.611,4.611V38.427a4.611,4.611,0,0,1-4.611,4.611H39.964v4.611a1.537,1.537,0,0,1-.948,1.42A1.518,1.518,0,0,1,38.427,49.186ZM13.834,24.593a1.538,1.538,0,0,1,1.537,1.537v12.3a1.538,1.538,0,0,0,1.537,1.537H32.278a1.533,1.533,0,0,1,1.087.45l3.524,3.525V41.5a1.538,1.538,0,0,1,1.537-1.537h6.148a1.538,1.538,0,0,0,1.537-1.537V19.982a1.538,1.538,0,0,0-1.537-1.537H35.353a1.538,1.538,0,0,1-1.537-1.537V4.611a1.538,1.538,0,0,0-1.537-1.537H4.611A1.538,1.538,0,0,0,3.074,4.611V23.056a1.538,1.538,0,0,0,1.537,1.537H6.148A1.538,1.538,0,0,1,7.685,26.13v2.95l5.188-4.15A1.536,1.536,0,0,1,13.834,24.593Z" fill="#df88d9"/><path d="M13.685,19.371a7.685,7.685,0,1,1,7.685-7.685A7.686,7.686,0,0,1,13.685,19.371Zm0-12.3A4.611,4.611,0,1,0,18.3,11.685,4.611,4.611,0,0,0,13.685,7.074Z" transform="translate(3.222 2.148)" fill="#accd00"/><path d="M17.142,16.679a1.533,1.533,0,0,1-1.087-.45l-4.611-4.611a1.537,1.537,0,0,1,2.173-2.173l4.611,4.611a1.537,1.537,0,0,1-1.087,2.624Z" transform="translate(5.914 4.84)" fill="#accd00"/><path d="M27.759,29.371a1.538,1.538,0,0,1-1.537-1.537V21.685c0-4.611-2.306-4.611-3.074-4.611s-3.074,0-3.074,4.611v6.148a1.537,1.537,0,0,1-3.074,0V21.685C17,16.873,19.306,14,23.148,14S29.3,16.873,29.3,21.685v6.148A1.538,1.538,0,0,1,27.759,29.371Z" transform="translate(9.13 7.519)" fill="#accd00"/><path d="M27.759,22.074H18.537a1.537,1.537,0,0,1,0-3.074h9.222a1.537,1.537,0,1,1,0,3.074Z" transform="translate(9.13 10.204)" fill="#accd00"/></svg>