<svg xmlns="http://www.w3.org/2000/svg" width="31.56" height="49.832" viewBox="0 0 31.56 49.832"><g transform="translate(0 0)"><path d="M545.95,976.56l-5.4,5.4-1.246-1.246,7.475-7.475,7.475,7.475-1.246,1.246-5.4-5.4v16.611H545.95V976.56Zm-3.322-24.916V949.98a3.329,3.329,0,0,1,3.331-3.319H547.6a3.32,3.32,0,0,1,3.33,3.319v1.664h3.329a1.656,1.656,0,0,1,1.654,1.66v1.664a1.652,1.652,0,0,1-1.654,1.659H539.3a1.656,1.656,0,0,1-1.654-1.659V953.3a1.653,1.653,0,0,1,1.654-1.66Zm-1.661-1.661H539.31a3.324,3.324,0,0,0-3.327,3.322h-1.666A3.315,3.315,0,0,0,531,956.634V991.5a3.32,3.32,0,0,0,3.317,3.329h24.926a3.315,3.315,0,0,0,3.317-3.329V956.634a3.32,3.32,0,0,0-3.317-3.329h-1.666a3.326,3.326,0,0,0-3.327-3.322h-1.656a5,5,0,0,0-5-4.983h-1.631a4.987,4.987,0,0,0-5,4.983Zm16.611,4.983h1.661a1.671,1.671,0,0,1,1.661,1.666V991.5a1.653,1.653,0,0,1-1.661,1.666H534.322a1.671,1.671,0,0,1-1.661-1.666V956.633a1.653,1.653,0,0,1,1.661-1.666h1.661a3.325,3.325,0,0,0,3.327,3.322h14.94a3.324,3.324,0,0,0,3.327-3.322Zm-10.8-3.322a.831.831,0,1,0-.831-.831.831.831,0,0,0,.831.831Zm0,0" transform="translate(-531 -945)" fill="#accd00" fill-rule="evenodd"/></g></svg>