<svg xmlns="http://www.w3.org/2000/svg" width="26.667" height="17.306" viewBox="0 0 26.667 17.306">
  <path id="ico-crown" d="M28.467,25.462a2.828,2.828,0,1,0-5.656,0,2.656,2.656,0,0,0,.339,1.329l-3,2.291-2.969-3.9a2.825,2.825,0,1,0-4.864-1.951,2.774,2.774,0,0,0,.735,1.895l-3.2,3.959L7.088,26.848a2.894,2.894,0,0,0,.368-1.386A2.828,2.828,0,1,0,4.4,28.29l1.075,5.627v2.941a.833.833,0,0,0,.848.848H23.914a.833.833,0,0,0,.848-.848V33.917l1.075-5.627A2.858,2.858,0,0,0,28.467,25.462Zm-2.828-1.131a1.131,1.131,0,1,1-1.131,1.131A1.134,1.134,0,0,1,25.639,24.331ZM15.147,22.1a1.131,1.131,0,1,1-1.131,1.131A1.134,1.134,0,0,1,15.147,22.1ZM10,31.146h.085a.874.874,0,0,0,.566-.311L14.525,26a4.219,4.219,0,0,0,.594.057A3.465,3.465,0,0,0,15.656,26l3.62,4.807a.91.91,0,0,0,.566.339h.113a.79.79,0,0,0,.509-.17l3.676-2.828-.933,4.836H7.06l-.9-4.723,3.337,2.715A.738.738,0,0,0,10,31.146ZM3.525,25.462a1.131,1.131,0,1,1,1.131,1.131A1.134,1.134,0,0,1,3.525,25.462ZM7.2,36.01V34.681H23.094V36.01Z" transform="translate(-1.8 -20.4)" fill="#fff"/>
</svg>
