<svg xmlns="http://www.w3.org/2000/svg" width="25.111" height="15.694" viewBox="0 0 25.111 15.694">
  <path id="icon-passport" d="M21.972,0H3.139C0,0,0,0,0,3.139v9.417c0,3.139,0,3.139,3.139,3.139H21.972c3.139,0,3.139,0,3.139-3.139V3.139C25.111,0,25.111,0,21.972,0ZM14.125,6.278h4.708V7.847H14.125Zm-3.139,6.278H3.139V10.986A3.376,3.376,0,0,1,6.278,7.847h.785A2.354,2.354,0,1,1,9.417,5.493,2.354,2.354,0,0,1,7.062,7.847h.785a3.376,3.376,0,0,1,3.139,3.139ZM20.4,10.986H14.125V9.417H20.4Zm1.569-6.278H14.125V3.139h7.847Z" fill="#fff"/>
</svg>
