<svg xmlns="http://www.w3.org/2000/svg" width="32.557" height="32.557" viewBox="0 0 32.557 32.557">
  <path id="icon-application" d="M1284.056,784.79a16.166,16.166,0,0,1-16.068-18.773v-.423l.056.053a16.273,16.273,0,1,1,16.012,19.143Zm8.5-19.65a4.127,4.127,0,0,0-.036-1.44,36.636,36.636,0,0,1,5.151-.2,14.493,14.493,0,0,0-2.593-4.426,16.434,16.434,0,0,0-3.524,2.66,4.331,4.331,0,0,0-.939-.811,19.652,19.652,0,0,1,3.473-2.894,14.554,14.554,0,0,0-4.01-2.719,22.119,22.119,0,0,0-8.333,2.8,1.741,1.741,0,0,1,.079.439,27.824,27.824,0,0,1,4.106,2.421,4.277,4.277,0,0,0-.815.714,22.431,22.431,0,0,0-3.566-2.109,1.727,1.727,0,0,1-2.525.425,20.606,20.606,0,0,0-5.66,7.451,1.709,1.709,0,0,1,.4,2.095c.623.336,1.29.671,2,1a2.136,2.136,0,0,1,2.047-.537,23.658,23.658,0,0,1,6.427-4.15,4.258,4.258,0,0,0,.718,1.337,22.724,22.724,0,0,0-5.972,3.571,2.168,2.168,0,0,1,.474,1.222,33.062,33.062,0,0,0,5.858,1.354,19.321,19.321,0,0,1,.9-5.072,4.238,4.238,0,0,0,1.148.444,18.94,18.94,0,0,0-.776,4.775,32.343,32.343,0,0,0,4.11.132,2.2,2.2,0,0,1,1.178-1.254,17,17,0,0,0-1.306-4.186,4.3,4.3,0,0,0,1.087-.954,15.418,15.418,0,0,1,1.7,5.053,2.186,2.186,0,0,1,1.271.974c1.1-.167,2.229-.407,3.376-.7a14.245,14.245,0,0,0,.063-7.843A37.135,37.135,0,0,0,1292.553,765.14Zm-17.408,6.469c-.831-.407-1.591-.822-2.284-1.235a1.731,1.731,0,0,1-.653.129h-.008a30.255,30.255,0,0,0-1.03,4.681,14.43,14.43,0,0,0,1.327,2.086,20.511,20.511,0,0,1,2.7-4.453,2.007,2.007,0,0,1-.05-1.208Zm12.877,9.03a4.116,4.116,0,0,1-.438,1.046c.1.393.168.417.29.822a14.428,14.428,0,0,0,3.683-1.58,22.09,22.09,0,0,0,.6-4.437,2.19,2.19,0,0,1-1.565-1.684,32.768,32.768,0,0,1-4.019-.07,24.987,24.987,0,0,0,.6,4.828C1287.485,779.775,1288.022,780.23,1288.022,780.639Zm9.549-6.852c-.895.218-1.779.411-2.64.557,0,.014,0,.027,0,.04a2.187,2.187,0,0,1-1.475,2.064,22.663,22.663,0,0,1-.6,3.586A14.532,14.532,0,0,0,1297.571,773.787Zm-13.515,9.243a14.569,14.569,0,0,0,2.743-.267q-.142-.429-.273-.851h-.014a1.177,1.177,0,0,1-.579-2.205,24.893,24.893,0,0,1-.642-5.1,31.7,31.7,0,0,1-6.138-1.367,2.175,2.175,0,0,1-3.144.683,18.368,18.368,0,0,0-2.443,4.608A14.467,14.467,0,0,0,1284.056,783.03Zm-13.8-10.007a25.48,25.48,0,0,1,.767-2.986,1.736,1.736,0,0,1-.562-1.24c-.339-.248-.636-.479-.907-.7,0,.139-.02.273-.02.412A14.5,14.5,0,0,0,1270.26,773.023Zm-.634-6.094c.339.252.723.528,1.158.824a1.738,1.738,0,0,1,1.423-.74h.009a22.009,22.009,0,0,1,6.181-7.954,1.614,1.614,0,0,1-.026-.755c-1.1-.372-2.271-.71-3.539-1A14.5,14.5,0,0,0,1269.627,766.929Zm6.417-10.52c.642.168,1.654.461,2.892.919a1.72,1.72,0,0,1,2.165-.107,23.161,23.161,0,0,1,7.3-2.566,14.529,14.529,0,0,0-12.354,1.754Zm12.242,11.13a3.047,3.047,0,1,1,3.047-3.048A3.047,3.047,0,0,1,1288.286,767.539Zm0-5.028a1.981,1.981,0,1,0,1.981,1.98A1.98,1.98,0,0,0,1288.286,762.511Zm0,2.825a.984.984,0,1,1,.985-.985A.985.985,0,0,1,1288.286,765.336Z" transform="translate(-1267.777 -752.233)" fill="#fafafa" fill-rule="evenodd"/>
</svg>
