<svg xmlns="http://www.w3.org/2000/svg" xmlns:xlink="http://www.w3.org/1999/xlink" width="151.663" height="129.301" viewBox="0 0 151.663 129.301">
  <defs>
    <linearGradient id="linear-gradient" x1="0.5" y1="1" x2="0.5" gradientUnits="objectBoundingBox">
      <stop offset="0" stop-color="gray" stop-opacity="0.251"/>
      <stop offset="0.54" stop-color="gray" stop-opacity="0.122"/>
      <stop offset="1" stop-color="gray" stop-opacity="0.102"/>
    </linearGradient>
    <linearGradient id="linear-gradient-2" y2="0" xlink:href="#linear-gradient"/>
  </defs>
  <g id="img-time-managments" transform="translate(-168.176 -219.512)">
    <g id="Grass_Blue" data-name="Grass Blue" transform="translate(168.176 296.16)">
      <path id="Path" d="M23.328,12s-6.173-6.1-12.8-6.286A12.5,12.5,0,0,1,2.865,2.856,22.1,22.1,0,0,1,0,0" transform="translate(6.665 3.333)" fill="none" stroke="#535461" stroke-miterlimit="10" stroke-width="2"/>
      <path id="Path-2" data-name="Path" d="M1.086,3.109c.882.4,4.246.136,4.246.136S3.587.631,2.705.226A1.957,1.957,0,0,0,.845.245a1.577,1.577,0,0,0-.839,1.5A1.64,1.64,0,0,0,1.093,3.109Z" transform="translate(0 0)" fill="#accd00"/>
      <path id="Path-3" data-name="Path" d="M1.826,3.329c.946-.1,3.506-2.038,3.506-2.038S2.4-.091,1.466,0A1.683,1.683,0,0,0,.01,1.834a1.709,1.709,0,0,0,1.816,1.5Z" transform="translate(3.999 3.999)" fill="#accd00"/>
      <path id="Path-4" data-name="Path" d="M2.69,3.7C3.458,3.118,4.666,0,4.666,0S1.411.255.643.835A1.815,1.815,0,0,0,.336,3.273,1.7,1.7,0,0,0,2.69,3.7Z" transform="translate(11.331 8.665)" fill="#accd00"/>
      <path id="Path-5" data-name="Path" d="M2.681,3.12C3.566,2.718,5.332.1,5.332.1S1.961-.188,1.077.214A1.645,1.645,0,0,0,.005,1.58a1.585,1.585,0,0,0,.828,1.5A1.954,1.954,0,0,0,2.681,3.12Z" transform="translate(17.996 10.664)" fill="#accd00"/>
      <path id="Path-6" data-name="Path" d="M3.276,1.289c.273.906-.526,4.043-.526,4.043S.373,3.213.1,2.307A1.763,1.763,0,0,1,.425.572,1.631,1.631,0,0,1,2.058.049a1.692,1.692,0,0,1,1.218,1.24Z" transform="translate(7.998 1.333)" fill="#accd00"/>
      <path id="Path-7" data-name="Path" d="M3.329,1.7c0,.934-1.675,3.635-1.675,3.635S0,2.625,0,1.687A1.679,1.679,0,0,1,1.671,0,1.68,1.68,0,0,1,3.333,1.7Z" transform="translate(15.33 3.333)" fill="#accd00"/>
      <path id="Path-8" data-name="Path" d="M3.319,1.367c.154.943-1.054,3.965-1.054,3.965S.165,2.884.012,1.941A1.726,1.726,0,0,1,1.4.024,1.682,1.682,0,0,1,3.319,1.366Z" transform="translate(22.661 6.665)" fill="#accd00"/>
      <path id="Path-9" data-name="Path" d="M18.662,0S10.985,4.081,8.7,10.332a12.909,12.909,0,0,1-5.111,6.45A22.574,22.574,0,0,1,0,18.662" transform="translate(18.662 29.993)" fill="none" stroke="#535461" stroke-miterlimit="10" stroke-width="2"/>
      <path id="Path-10" data-name="Path" d="M2.7,3.58C3.324,2.952,4,0,4,0S1.041.69.414,1.32A1.608,1.608,0,0,0,2.7,3.58Z" transform="translate(14.663 48.655)" fill="#accd00"/>
      <path id="Path-11" data-name="Path" d="M3.31,3.911C3.5,3,2.422,0,2.422,0S.243,2.3.053,3.216A1.709,1.709,0,0,0,.535,4.882a1.648,1.648,0,0,0,1.674.358,1.686,1.686,0,0,0,1.1-1.327Z" transform="translate(19.329 46.655)" fill="#accd00"/>
      <path id="Path-12" data-name="Path" d="M3.238,3.025C2.947,2.108.516,0,.516,0S-.223,3.212.068,4.13A1.659,1.659,0,0,0,2.185,5.242,1.774,1.774,0,0,0,3.247,3.025Z" transform="translate(25.994 39.99)" fill="#accd00"/>
      <path id="Path-13" data-name="Path" d="M3.3,3.319C3.161,2.4,1.115,0,1.115,0S-.127,2.909.011,3.824A1.678,1.678,0,0,0,1.036,5.207a1.654,1.654,0,0,0,1.692-.259A1.687,1.687,0,0,0,3.3,3.32Z" transform="translate(30.659 34.658)" fill="#accd00"/>
      <path id="Path-14" data-name="Path" d="M1.711,0C2.645.013,5.332,1.71,5.332,1.71S2.606,3.342,1.673,3.332A1.679,1.679,0,0,1,0,1.647,1.68,1.68,0,0,1,1.711,0Z" transform="translate(17.996 43.323)" fill="#accd00"/>
      <path id="Path-15" data-name="Path" d="M2.329.1c.907.285,3,2.694,3,2.694s-3.169.755-4.076.47A1.7,1.7,0,0,1,.042,2.031,1.629,1.629,0,0,1,.591.413,1.783,1.783,0,0,1,2.329.1Z" transform="translate(21.328 36.658)" fill="#accd00"/>
      <path id="Path-16" data-name="Path" d="M2,.031C2.914.164,5.332,2.2,5.332,2.2S2.426,3.456,1.509,3.323A1.68,1.68,0,0,1,.128,2.3,1.653,1.653,0,0,1,.378.614,1.691,1.691,0,0,1,2,.03Z" transform="translate(28.66 30.659)" fill="#accd00"/>
    </g>
    <g id="G" transform="translate(189.205 219.512)">
      <ellipse id="Oval" cx="65.317" cy="64.651" rx="65.317" ry="64.651" fill="url(#linear-gradient)"/>
      <path id="Oval-2" data-name="Oval" d="M63.651,0A63.651,63.651,0,1,1,0,63.651,63.651,63.651,0,0,1,63.651,0Z" transform="translate(1.333 2)" fill="#838eeb"/>
      <ellipse id="Oval-3" data-name="Oval" cx="50.654" cy="50.321" rx="50.654" ry="50.321" transform="translate(14.663 15.33)" fill="#dde1ec"/>
    </g>
    <g id="Click_Handler" data-name="Click Handler" transform="translate(211.199 243.506)">
      <rect id="Rectangle" width="2.666" height="43.989" transform="translate(42.656)" fill="#535461" opacity="0.3"/>
      <g id="Group" transform="translate(0.011 26.062)" opacity="0.1">
        <rect id="Rectangle-2" data-name="Rectangle" width="40.422" height="3.558" transform="translate(0 13.371)"/>
        <path id="Rectangle-3" data-name="Rectangle" d="M0,28.686l3.562-.008L3.624,0,.062.008Z" transform="translate(45.208 16.519) rotate(-117.64)"/>
        <ellipse id="Oval-4" data-name="Oval" cx="5.366" cy="5.338" rx="5.366" ry="5.338" transform="translate(38.097 9.813)"/>
      </g>
      <rect id="Rectangle-4" data-name="Rectangle" width="40.657" height="3.333" transform="translate(0 39.324)" fill="#535461"/>
      <path id="Rectangle-5" data-name="Rectangle" d="M.015,3.567l28.8.122L28.8.122,0,0Z" transform="translate(70.747 29.136) rotate(152.36)" fill="#535461"/>
      <circle id="Oval-5" data-name="Oval" cx="4.999" cy="4.999" r="4.999" transform="translate(38.657 36.658)" fill="#535461"/>
    </g>
    <g id="Top_Shadow" data-name="Top Shadow" transform="translate(210.032 234.914)" opacity="0.1">
      <path id="Path-17" data-name="Path" d="M91.683,56.311c0-27.765-22.815-50.271-50.959-50.271A51.119,51.119,0,0,0,0,26.084,51.053,51.053,0,0,1,44.686,0C72.83,0,95.645,22.506,95.645,50.271A49.6,49.6,0,0,1,85.4,80.5,49.51,49.51,0,0,0,91.683,56.311Z" transform="translate(0)" fill="#accd00"/>
    </g>
    <g id="Woman" transform="translate(207.867 236.841)">
      <path id="Path-18" data-name="Path" d="M.1,10.792c.615-.573,5.79,3.193,5.79,3.193s1.843.326,1.4,1.552S9.22,23.63,9.22,23.63l.964-1.308a5.477,5.477,0,0,1,.767-3.3c.035-.055.07-.108.1-.158l-.168-.057c.064-.837,1.446-2.113,2.18-2.738V15.8c-.046-1-.459-2.056,0-2.963.52-1.034,2.041-1.554,2.169-2.69.077-.678-.4-1.29-.6-1.943-.5-1.561.536-3.154,1.524-4.5a6.354,6.354,0,0,1,1.21-1.352A5.934,5.934,0,0,1,18.818,1.6,38.06,38.06,0,0,1,23.24.36,7.254,7.254,0,0,1,27.449.278a2.086,2.086,0,0,1,.915.509,5.407,5.407,0,0,1,.619,1.361,4.952,4.952,0,0,0,1.852,1.616,2.584,2.584,0,0,1,1.4,1.9c0,1.134-1.336,1.847-1.782,2.9-.417.983,0,2.078.232,3.114a2.03,2.03,0,0,1,.027,1.027,2.191,2.191,0,0,1-.41.692c-.276.355-.573.685-.867,1.022l.135.051c2.456-.245,4.035,2.778,4.035,2.778-.113.023-.221.05-.328.08l.1.131a12.812,12.812,0,0,1,1.8,3.057L37.2,23.132s.439-6.54-.615-8.01.964-2.37.964-2.37,4.392-4.741,5-4.333-1.491,5.558-3.334,6.376a7.618,7.618,0,0,0,.183,2.7c.221.672,1.4,7.766,1.4,7.766s1.052,5.967-3.774,3.016A18.026,18.026,0,0,1,30.835,21q-.108-.218-.2-.417a4.851,4.851,0,0,0-.1.665l-.183,6.836a10.112,10.112,0,0,0,1.109,4.883l2.15,4.228-.24.071.145.2c1.416,2.021,3.825,6.564-1.133,8.88l-6.588.818.351,1.634a43.192,43.192,0,0,1,3.51,8.418,24.739,24.739,0,0,0,2.282,6.048l-.2.1c.042.046.086.094.128.144a3.045,3.045,0,0,1,.761,1.547l.893,1.228s.351,5.067-.351,6.295c-.384.671-1.66,1.1-2.745,1.345a1.768,1.768,0,0,1-2.055-2.571l.011-.018h.016a16.917,16.917,0,0,0,.56-4.357c-.051-.277-.1-.552-.123-.832a2.878,2.878,0,0,0-.34-1.052c-.029-.055-.06-.108-.091-.161l-.1.039c-.295.122-.586.238-.862.339.428.378.732,1.16.366,2.769a26.9,26.9,0,0,1-.351,4.659c-.317.633-3.86,1.471-4.474.818s.4-2.9.4-2.9l.031.021c.2-1.3.454-3.639-.163-4.558-.249-.371-.49-.754-.706-1.112l-.134-.222h0c-1.146.554-2.357.97-3.02.681,0,0-2.9-6.54-2.719-7.356s-4.474-10.054-4.474-10.054-3.947-4.258.877-7.192c1.532-.935,2.648-1.563,3.459-1.987l.679-3.442A12.209,12.209,0,0,0,17.023,30l-.732-2.707h0l-.06-.231s-1.843-3.678-1.755-5.4a1.206,1.206,0,0,0-.046-.4q-.03.122-.066.255a32.318,32.318,0,0,1-1.907,5.209c-1.4,3.062-3.477,2.819-4.615,2.384a1.542,1.542,0,0,1-.972-1.1C6.46,26.109,5.335,20.77,5.263,19.3a24.081,24.081,0,0,0-.439-3.433C1.936,14.225-.52,11.365.1,10.792Z" transform="translate(0 0.667)" fill="url(#linear-gradient-2)"/>
      <path id="Path-19" data-name="Path" d="M0,.893s.369.751.874,1.654c.2.355.418.737.643,1.1.8,1.3,0,5.436,0,5.436l1.748.243,1.748-.888.32-3v-2.2L3.34.981,2.466,0Z" transform="translate(21.328 62.651)" fill="#f8bdc5"/>
      <g id="Group-2" data-name="Group" transform="translate(20.815 62.059)" opacity="0.1">
        <path id="Path-20" data-name="Path" d="M0,.894s.335.752.793,1.655a19.419,19.419,0,0,0,2.028-1.4l.14-.11.075-.06L2.242,0Z"/>
      </g>
      <path id="Path-21" data-name="Path" d="M1.478,11.43S6,20.52,5.827,21.325s2.644,7.241,2.644,7.241c.642.285,1.822-.125,2.935-.669a23.293,23.293,0,0,0,2.427-1.409L14,26.379l.1-.067L6.677,6.922,13.242,2.38l.485-.336L16.663,0,7.7,1.529s-.312-.037-1.961.833C4.948,2.779,3.848,3.4,2.328,4.345-2.357,7.246,1.478,11.43,1.478,11.43Z" transform="translate(9.998 37.324)" fill="#acc913"/>
      <g id="Group-3" data-name="Group" transform="translate(10.028 37.349)" opacity="0.03">
        <path id="Path-22" data-name="Path" d="M1.466,11.409s4.482,9.074,4.312,9.878S8.4,28.515,8.4,28.515c.637.285,1.807-.125,2.91-.668a23.058,23.058,0,0,0,2.407-1.407l.163-.109.1-.067L6.62,6.91l6.51-4.535.481-.336L16.521,0,7.635,1.526s-.309-.037-1.944.832c-.785.417-1.875,1.041-3.382,1.98C-2.337,7.233,1.466,11.409,1.466,11.409Z" transform="translate(0)"/>
      </g>
      <path id="Path-23" data-name="Path" d="M3.175.008s2.052-.3,1.34,2.817A24.456,24.456,0,0,1,4.2,7.043C3.915,7.61.728,8.376.178,7.784s.356-2.63.356-2.63,2.326,1.593,2.958-.112S3.175.008,3.175.008Z" transform="translate(21.995 65.317)" fill="#5d3e53"/>
      <path id="Path-24" data-name="Path" d="M.087,1.621a2.574,2.574,0,0,1,.6.768,2.85,2.85,0,0,1,.339,1.045c.023.277.071.553.121.826C1.36,5.416.523,8.844.523,8.844l3.323.487L5.07,8.114l.262-2.678a9.078,9.078,0,0,1-.525-2.843A2.868,2.868,0,0,0,4.042.816,5.1,5.1,0,0,0,3.155,0S-.614,1.052.087,1.621Z" transform="translate(25.994 62.651)" fill="#f8bdc5"/>
      <g id="Group-4" data-name="Group" transform="translate(26.721 62.125)" opacity="0.1">
        <path id="Path-25" data-name="Path" d="M.069,1.624a2.589,2.589,0,0,1,.471.768C1.617,1.822,2.748,1.1,3.16.835l.032-.02A4.589,4.589,0,0,0,2.491,0S-.486,1.056.069,1.624Z" transform="translate(0)"/>
      </g>
      <path id="Path-26" data-name="Path" d="M.443,8.97S2.551,12.733,3.9,15.853c.887,2.05,2.72,6.932,3.88,10.041l.17.459c.51,1.376.85,2.306.85,2.306a2.308,2.308,0,0,0,.663-.093c.2-.051.423-.119.662-.2l.268-.1c.266-.1.554-.212.83-.331,1.342-.568,2.772-1.307,3.291-1.577l.2-.1a24.464,24.464,0,0,1-2.2-5.928,42.51,42.51,0,0,0-3.376-8.236L8.8,10.49l6.331-.8c4.769-2.261,2.452-6.717,1.09-8.7A11.716,11.716,0,0,0,15.467,0L10.4,1.051s-.8.242-2.572.987l-.815.35c-.994.433-2.217.99-3.7,1.705C-1.666,6.484.443,8.97.443,8.97Z" transform="translate(16.663 37.324)" fill="#accd00"/>
      <path id="Path-27" data-name="Path" d="M.253,6.129a1.581,1.581,0,0,0,.1,1.86,1.884,1.884,0,0,0,1.89.625c1.046-.241,2.285-.653,2.658-1.3.68-1.186.341-6.087.341-6.087L4.353,0s.468,5.416-.639,5.885A9.487,9.487,0,0,1,.264,6.1Z" transform="translate(26.66 65.317)" fill="#5d3e53"/>
      <path id="Path-28" data-name="Path" d="M14.049.277a1.992,1.992,0,0,1,.888.506,5.731,5.731,0,0,1,.6,1.352,4.775,4.775,0,0,0,1.782,1.6,2.547,2.547,0,0,1,1.348,1.884c0,1.127-1.294,1.834-1.716,2.881-.4.977,0,2.063.224,3.092a2.078,2.078,0,0,1,.026,1.02,2.193,2.193,0,0,1-.4.688,17.6,17.6,0,0,0-2.374,3.225,9.651,9.651,0,0,0-.638,2.941,14.211,14.211,0,0,0-.03,4.327.317.317,0,0,1-.216.439,4.6,4.6,0,0,1-3.477.165,4.369,4.369,0,0,1-2.531-2.3c-.37-.805-.512-1.777-1.244-2.3a.635.635,0,0,0-.3-.13.9.9,0,0,0-.481.155,4.91,4.91,0,0,1-3.162.306,2.985,2.985,0,0,1-1.718-.821c-.834-.953-.37-2.376-.425-3.618-.044-.993-.442-2.042,0-2.941.5-1.027,1.966-1.542,2.088-2.666.074-.672-.381-1.281-.582-1.928C1.233,6.6,2.228,5.023,3.178,3.689A6.25,6.25,0,0,1,4.341,2.347a5.651,5.651,0,0,1,1.4-.746A35.209,35.209,0,0,1,9.992.369,6.684,6.684,0,0,1,14.049.277Z" transform="translate(11.997 0)" fill="#85555c"/>
      <path id="Path-29" data-name="Path" d="M4.143,14H8.677V6.486A14.292,14.292,0,0,1,8.441,4.3V3.548a3.927,3.927,0,0,1,.7-2.335C10.391-.225,5.077.015,5.077.015a13.733,13.733,0,0,1-.633,1.934A11.834,11.834,0,0,1,2.922,4.69a6.242,6.242,0,0,1-2.065,1.8C-2.264,8.085,4.143,14,4.143,14Z" transform="translate(15.996 9.331)" fill="#f8bdc5"/>
      <g id="Group-5" data-name="Group" transform="translate(20.171 9.397)" opacity="0.1">
        <path id="Path-30" data-name="Path" d="M0,1.688A4.706,4.706,0,0,0,4.152,3.073a3.021,3.021,0,0,1,.727-2.022C6.178-.195.658.013.658.013A10.558,10.558,0,0,1,0,1.688Z"/>
      </g>
      <circle id="Oval-6" data-name="Oval" cx="3.999" cy="3.999" r="3.999" transform="translate(19.329 3.999)" fill="#f8bdc5"/>
      <path id="Path-31" data-name="Path" d="M4.8,5.133A24.252,24.252,0,0,1,5.231,8.57c.071,1.475,1.19,6.821,1.6,8.73A1.541,1.541,0,0,0,7.8,18.405c1.135.435,3.2.679,4.586-2.387a32.507,32.507,0,0,0,1.9-5.214,13.317,13.317,0,0,0,.382-1.824L11.606,7.425a3.573,3.573,0,0,0-.722.869,5.523,5.523,0,0,0-.764,3.3l-.955,1.31s-2.356-6.875-1.911-8.1-1.4-1.555-1.4-1.555S.706-.512.095.059,1.916,3.5,4.8,5.133Z" transform="translate(0 10.664)" fill="#f8bdc5"/>
      <path id="Path-32" data-name="Path" d="M0,10.711a18.539,18.539,0,0,0,.827,1.875,17.973,17.973,0,0,0,6.2,7.262C11.852,22.784,10.8,16.83,10.8,16.83S9.616,9.75,9.393,9.08a7.879,7.879,0,0,1-.175-2.692c1.843-.816,3.95-5.955,3.337-6.364s-5,4.324-5,4.324-2.02.893-.961,2.366.615,7.994.615,7.994L5.18,12.1a12.775,12.775,0,0,0-1.8-3.05c-.384-.488-.654-.782-.654-.782Z" transform="translate(27.993 8.665)" fill="#f8bdc5"/>
      <g id="Group-6" data-name="Group" transform="translate(12.089 18.137)" opacity="0.1">
        <path id="Path-33" data-name="Path" d="M0,.81c.533.207,2.6,1.081,2.826,2.333a13.688,13.688,0,0,0,.317-1.7L.6,0A3.266,3.266,0,0,0,0,.81Z"/>
      </g>
      <g id="Group-7" data-name="Group" transform="translate(28.137 17.433)" opacity="0.1">
        <path id="Path-34" data-name="Path" d="M0,2.19a16.449,16.449,0,0,0,.754,1.68A3.819,3.819,0,0,1,3.08.7c-.351-.437-.6-.7-.6-.7Z" transform="translate(0 0)"/>
      </g>
      <g id="Group-8" data-name="Group" transform="translate(16.161 14)" opacity="0.1">
        <path id="Path-35" data-name="Path" d="M4.034,9.238H8.449V2.083A13.33,13.33,0,0,1,8.219,0a2.746,2.746,0,0,0-.683,2.234L5.177,7.566,4.034,2.853l.38-.608L2.847.382A6.042,6.042,0,0,1,.836,2.093C-2.206,3.606,4.034,9.238,4.034,9.238Z" transform="translate(0)"/>
      </g>
      <g id="Group-9" data-name="Group" transform="translate(14.752 36.685)" opacity="0.1">
        <path id="Path-36" data-name="Path" d="M0,3.136s3.843-.323,7.178-.476l.335-.016c.474-.02.926-.035,1.368-.047A29.155,29.155,0,0,0,16.4,1.108,13.074,13.074,0,0,0,15.644,0L10.57,1.176s-.8.271-2.577,1.1L10.908,0,2.022,1.7S1.713,1.66.078,2.629Z"/>
      </g>
      <path id="Path-37" data-name="Path" d="M8.645,3.383l.411-.652L7.228.565S3.458,2.4,2.47,1.993c0,0-2.389,1.965-2.47,3.1,0,0,3.458,1.141,3.377,2.858s1.641,5.383,1.641,5.383l.721,2.933a12.934,12.934,0,0,1,.18,5.429l-.658,3.631s5.189-.407,8.654-.489a30.261,30.261,0,0,0,7.412-1.386l-2.021-4.213a10.631,10.631,0,0,1-1.042-4.872l.18-6.821s.164-3.425,2.885-4c0,0-1.482-3.018-3.786-2.774,0,0-3.357-1.388-4.354-.45a2.919,2.919,0,0,0-.752,2.407L9.883,8.448Z" transform="translate(10.664 13.997)" fill="#df88d9"/>
      <g id="Group-10" data-name="Group" transform="translate(18.153 2.773)" opacity="0.1">
        <path id="Path-38" data-name="Path" d="M7.977,4.979c-.6,0-1.072-.648-1.673-.615a1.691,1.691,0,0,0-.835.4,10.109,10.109,0,0,1-3.194,1.5,2.739,2.739,0,0,1-1.359.1A1.169,1.169,0,0,1,0,5.432a1.614,1.614,0,0,1,.079-.6A7.463,7.463,0,0,1,3.28.53,2.483,2.483,0,0,1,5.351.088a4.128,4.128,0,0,1,1.473,1.3,5.619,5.619,0,0,0,1.146.946c.327.2.819.333,1.007.7C9.332,3.727,8.774,4.972,7.977,4.979Z" transform="translate(0 0)"/>
      </g>
      <path id="Path-39" data-name="Path" d="M8.192,5.174c-.617,0-1.1-.674-1.718-.639a1.728,1.728,0,0,0-.857.416,10.326,10.326,0,0,1-3.28,1.559,2.781,2.781,0,0,1-1.4.1A1.209,1.209,0,0,1,0,5.645a1.7,1.7,0,0,1,.081-.629A7.749,7.749,0,0,1,3.369.551,2.526,2.526,0,0,1,5.5.092,4.255,4.255,0,0,1,7.008,1.442a5.786,5.786,0,0,0,1.177.984c.336.21.841.346,1.034.731C9.584,3.881,9.01,5.166,8.192,5.174Z" transform="translate(17.996 2)" fill="#85555c"/>
      <path id="Path-40" data-name="Path" d="M12.664,0S8.575,1.373,5.9.306L4.568.382A6.339,6.339,0,0,1,0,1.169" transform="translate(15.33 25.327)" opacity="0.05"/>
      <path id="Path-41" data-name="Path" d="M0,0S1.04,1.52.522,2" transform="translate(8.665 23.328)" opacity="0.05"/>
      <path id="Path-42" data-name="Path" d="M.233,0s-.447,1.52,0,2" transform="translate(34.525 23.328)" opacity="0.05"/>
    </g>
  </g>
</svg>
