<svg xmlns="http://www.w3.org/2000/svg" width="95.215" height="65.59" viewBox="0 0 95.215 65.59"><path d="M146.846,37.261a25.969,25.969,0,0,1-7.432,18.732c-5.866,6.12-12.005,11.977-17.917,18.055-1.5,1.54-2.426,1.835-4.047.125q-6.231-6.565-12.814-12.79c-1.72-1.619-1.156-2.432-.061-4.214,1.4-2.275,2.747-4.494,4.195-6.97.537-.918,1.584-3.821,4.821-1.794,5.464,3.426,12.732,1.29,16.369-4a12.709,12.709,0,0,0-2.448-17.07c-7.564-6.761-20.115-.885-20.807,9.4-.614,9.135-3.935,16.241-10.488,22.321C91.058,63.84,86.148,68.905,81.29,74c-1.733,1.818-2.72,1.628-4.374-.087-5.788-6-11.841-11.738-17.612-17.749A27.381,27.381,0,0,1,57.2,20.611a27.818,27.818,0,0,1,34.826-7.757c2.547,1.34,2.69,1.6,1.269,5.156-.166.415-.52,1.319-.751,1.835-2.236,5-4.067,8.436-11.59,5.126-6.416-2.825-13.591,3.443-14.471,10.387-1.894,17.3,23.7,20.168,25.282,2.85C92.72,1,145.417.193,146.846,37.261Z" transform="translate(-51.632 -9.744)" fill="#accd00"/></svg>