<svg xmlns="http://www.w3.org/2000/svg" width="103.445" height="86.581" viewBox="0 0 103.445 86.581"><path d="M146.846,37.261a25.969,25.969,0,0,1-7.432,18.732c-5.866,6.12-12.005,11.977-17.917,18.055-1.5,1.54-2.426,1.835-4.047.125q-6.231-6.565-12.814-12.79c-1.72-1.619-1.156-2.432-.061-4.214,1.4-2.275,2.747-4.494,4.195-6.97.537-.918,1.584-3.821,4.821-1.794,5.464,3.426,12.732,1.29,16.369-4a12.709,12.709,0,0,0-2.448-17.07c-7.564-6.761-20.115-.885-20.807,9.4-.614,9.135-3.935,16.241-10.488,22.321C91.058,63.84,86.148,68.905,81.29,74c-1.733,1.818-2.72,1.628-4.374-.087-5.788-6-11.841-11.738-17.612-17.749A27.381,27.381,0,0,1,57.2,20.611a27.818,27.818,0,0,1,34.826-7.757c2.547,1.34,2.69,1.6,1.269,5.156-.166.415-.52,1.319-.751,1.835-2.236,5-4.067,8.436-11.59,5.126-6.416-2.825-13.591,3.443-14.471,10.387-1.894,17.3,23.7,20.168,25.282,2.85C92.72,1,145.417.193,146.846,37.261Z" transform="translate(-49.5 -9.744)" fill="#accd00"/><g transform="translate(2.919 88.91)"><path d="M64.353,451.807a4.619,4.619,0,0,1-9.237.017v-7.536H57.5v7.519a2.237,2.237,0,0,0,4.474.017h-.017v-7.536h2.382v7.519Z" transform="translate(-58.035 -458.721)" fill="#b1b1b1"/><path d="M104.232,444.288v2.382h-3.3v9.544H98.55V446.67H95.233v-2.382Z" transform="translate(-87.382 -458.721)" fill="#b1b1b1"/><path d="M144.092,444.288v2.382h-3.3v9.544H138.41V446.67h-3.319v-2.382Z" transform="translate(-116.541 -458.721)" fill="#b1b1b1"/><path d="M182.587,446.67h-7.943v-2.382h7.943Zm-7.943,2.213h6.581v2.382h-6.582Zm0,4.951h7.893v2.382h-7.895Z" transform="translate(-145.475 -458.721)" fill="#b1b1b1"/><path d="M214.226,446.607v9.542h-2.382V444.225h4.663a3.587,3.587,0,0,1,1.48,6.839l2.365,5.1h-2.535l-2.228-4.781V449h.919a1.2,1.2,0,1,0,0-2.4Z" transform="translate(-172.689 -458.675)" fill="#b1b1b1"/><path d="M273.157,455.285l-4.973-11h2.432l2.871,6.244,2.855-6.244h2.432l-4.956,11Z" transform="translate(-218.238 -457.84)" fill="#accd00"/><path d="M314.448,455.27V444.288h2.2V455.27Z" transform="translate(-253.049 -457.84)" fill="#accd00"/><path d="M334.1,450.158a5.259,5.259,0,0,1-1.663-.69,3.017,3.017,0,0,1-1.412-2.478,2.943,2.943,0,0,1,.8-2.243c1.84-1.818,4.469-1.01,5.851.016l.361.235-1.145,1.867-.392-.251c-.841-.571-2.077-1.195-3.091-.345a.774.774,0,0,0-.188.627c.016.565.408.879,1.412,1.13.125.031.219.063.314.094a5.815,5.815,0,0,1,2.432,1.458,3.147,3.147,0,0,1-.016,4.33c-1.19,1.292-2.7,1.333-4.455.863a6.086,6.086,0,0,1-2.62-1.663l1.6-1.506a3.8,3.8,0,0,0,2.949,1.239,1.208,1.208,0,0,0,1.208-1.114c0-.6-.675-1.145-1.82-1.537l-.047-.016Z" transform="translate(-264.971 -457.372)" fill="#accd00"/><path d="M369.394,455.27V444.288h2.2V455.27Z" transform="translate(-294.393 -457.84)" fill="#accd00"/><path d="M394.179,449.16a5.694,5.694,0,1,1-5.695-5.694,5.7,5.7,0,0,1,5.695,5.694Zm-9.13,0a3.436,3.436,0,1,0,3.436-3.436A3.435,3.435,0,0,0,385.049,449.16Z" transform="translate(-304.495 -457.221)" fill="#accd00"/><path d="M444.7,455.285l-6.181-6.417v6.417h-2.2v-11h.69l6.071,6.149v-6.149h2.2v11Z" transform="translate(-344.75 -457.84)" fill="#accd00"/></g></svg>