<svg xmlns="http://www.w3.org/2000/svg" width="82.619" height="68.076" viewBox="0 0 82.619 68.076">
  <g id="save-btn" transform="translate(-404.804 -35.266)">
    <path id="Path_66363" data-name="Path 66363" d="M493.858,100.564a15.785,15.785,0,0,1-3.293,4.667,20.055,20.055,0,0,1-4.9,3.515l-.132.066c-.026.013-.052.029-.08.042l-.036.016c-.023.013-.047.024-.07.034a22.316,22.316,0,0,1-9.216,2.253,13.707,13.707,0,0,1-9.333-3.494.062.062,0,0,0-.013-.01,19.318,19.318,0,0,1-1.394-1.476l-4.034-4.506a7.122,7.122,0,0,1,.417-9.927l.179-.169a3.631,3.631,0,0,1,.713-.519l-.433-.867-1.3.957a4.536,4.536,0,0,1-2.692.883,4.537,4.537,0,0,1-3.739-1.945,4.7,4.7,0,0,1-.842-3.2,4.625,4.625,0,0,1-1.759.348H424.818a9.834,9.834,0,0,1-9.74-9.905V55.621a9.834,9.834,0,0,1,9.74-9.905h39.8a9.834,9.834,0,0,1,9.74,9.905v13.3a4.8,4.8,0,0,1-.915,2.822,4.6,4.6,0,0,1,3.436,1.934,4.71,4.71,0,0,1,.811,3.489,4.608,4.608,0,0,1-.093.453c.194-.018.389-.029.583-.029q.245,0,.49.016c.117.011.233.021.35.035a7.473,7.473,0,0,1,.837.158c.109-.066.218-.124.324-.179a6.851,6.851,0,0,1,9.3,3.086l2.456,4.917,1.218,2.438c.588,1.18.674,1.352.689,1.386.008.013.013.026.021.04A12.912,12.912,0,0,1,493.858,100.564Z" transform="translate(-7.683 -7.815)" fill="#bec6b9"/>
    <path id="Path_66364" data-name="Path 66364" d="M483.584,90.114a15.777,15.777,0,0,1-3.293,4.667,20.054,20.054,0,0,1-4.9,3.515l-.132.066c-.026.013-.052.029-.08.042l-.036.016c-.023.013-.047.024-.07.034a22.319,22.319,0,0,1-9.216,2.253,13.707,13.707,0,0,1-9.333-3.494.06.06,0,0,0-.013-.011,19.419,19.419,0,0,1-1.394-1.476l-4.034-4.506a7.122,7.122,0,0,1,.417-9.927l.179-.169a3.61,3.61,0,0,1,.712-.519l-.433-.867-1.3.957a4.537,4.537,0,0,1-2.692.883,4.538,4.538,0,0,1-3.739-1.945,4.694,4.694,0,0,1-.842-3.2,4.632,4.632,0,0,1-1.759.348H414.544a9.834,9.834,0,0,1-9.74-9.906V45.172a9.834,9.834,0,0,1,9.74-9.906h39.8a9.834,9.834,0,0,1,9.74,9.906v13.3a4.8,4.8,0,0,1-.915,2.822A4.6,4.6,0,0,1,466.6,63.23a4.71,4.71,0,0,1,.811,3.489,4.484,4.484,0,0,1-.093.453c.194-.018.389-.029.583-.029q.245,0,.49.016c.117.011.233.021.35.034a7.41,7.41,0,0,1,.837.158c.109-.066.218-.124.324-.179a6.851,6.851,0,0,1,9.3,3.086l2.456,4.917,1.218,2.438c.588,1.181.674,1.352.689,1.386.008.013.013.026.021.04A12.912,12.912,0,0,1,483.584,90.114Z" fill="#fff"/>
    <g id="Group_27821" data-name="Group 27821" transform="translate(408.435 38.956)">
      <g id="Group_27816" data-name="Group 27816" transform="translate(37.594 23.128)">
        <g id="Group_27759" data-name="Group 27759" transform="translate(3.745 1.872)">
          <path id="Path_66365" data-name="Path 66365" d="M586.553,154.472a.959.959,0,0,0,.57-.188,1.008,1.008,0,0,0,.221-1.39l-2.445-3.448a.97.97,0,0,0-.637-.4.959.959,0,0,0-.729.175.991.991,0,0,0-.394.648,1,1,0,0,0,.172.742l2.445,3.448a.975.975,0,0,0,.8.413Z" transform="translate(-583.126 -149.033)"/>
        </g>
        <g id="Group_27760" data-name="Group 27760" transform="translate(12.472 2.891)">
          <path id="Path_66366" data-name="Path 66366" d="M618.554,157.539a.96.96,0,0,0,.729-.175l3.391-2.487a.991.991,0,0,0,.394-.648,1,1,0,0,0-.172-.742h0a.969.969,0,0,0-1.366-.225l-3.391,2.487a1.008,1.008,0,0,0-.221,1.39A.97.97,0,0,0,618.554,157.539Z" transform="translate(-617.732 -153.075)"/>
        </g>
        <g id="Group_27761" data-name="Group 27761" transform="translate(0.954 11.329)">
          <path id="Path_66367" data-name="Path 66367" d="M576.587,186.547a.96.96,0,0,0-.729.175l-3.39,2.487a.99.99,0,0,0-.394.648,1,1,0,0,0,.172.741.97.97,0,0,0,.638.4.989.989,0,0,0,.158.013.961.961,0,0,0,.571-.188l3.39-2.487a.992.992,0,0,0,.394-.648,1,1,0,0,0-.172-.741A.969.969,0,0,0,576.587,186.547Z" transform="translate(-572.06 -186.534)"/>
        </g>
        <g id="Group_27762" data-name="Group 27762" transform="translate(0 7.39)">
          <path id="Path_66368" data-name="Path 66368" d="M573.383,173.587a.962.962,0,0,0,.571-.189.99.99,0,0,0,.394-.648,1,1,0,0,0-.173-.741.969.969,0,0,0-.637-.4l-4.126-.68a.96.96,0,0,0-.729.176.992.992,0,0,0-.394.648,1,1,0,0,0,.173.741.97.97,0,0,0,.637.4l4.126.68A.988.988,0,0,0,573.383,173.587Z" transform="translate(-568.276 -170.916)"/>
        </g>
        <g id="Group_27763" data-name="Group 27763" transform="translate(9.407)">
          <path id="Path_66369" data-name="Path 66369" d="M606.4,147.786a.958.958,0,0,0,.729-.175.991.991,0,0,0,.394-.648l.668-4.2a1,1,0,0,0-.81-1.142.982.982,0,0,0-1.123.823l-.669,4.2a1,1,0,0,0,.173.741A.97.97,0,0,0,606.4,147.786Z" transform="translate(-605.58 -141.612)"/>
        </g>
        <g id="Group_27815" data-name="Group 27815" transform="translate(6.69 6.886)">
          <g id="Group_27764" data-name="Group 27764" transform="translate(14.603 3.769)">
            <path id="Path_66370" data-name="Path 66370" d="M652.713,183.875l.027-.012Z" transform="translate(-652.713 -183.863)"/>
          </g>
          <g id="Group_27765" data-name="Group 27765" transform="translate(15.339 3.666)">
            <path id="Path_66371" data-name="Path 66371" d="M655.633,183.457l.031,0Z" transform="translate(-655.633 -183.457)"/>
          </g>
          <g id="Group_27766" data-name="Group 27766" transform="translate(14.729 3.714)">
            <path id="Path_66372" data-name="Path 66372" d="M653.214,183.664l.06-.018Z" transform="translate(-653.214 -183.646)"/>
          </g>
          <g id="Group_27767" data-name="Group 27767" transform="translate(15.161 11.971)">
            <path id="Path_66373" data-name="Path 66373" d="M654.924,216.387l.012,0Z" transform="translate(-654.924 -216.387)"/>
          </g>
          <g id="Group_27768" data-name="Group 27768" transform="translate(14.816 3.697)">
            <path id="Path_66374" data-name="Path 66374" d="M653.556,183.589l.04-.01Z" transform="translate(-653.556 -183.579)"/>
          </g>
          <g id="Group_27769" data-name="Group 27769" transform="translate(14.546 3.797)">
            <path id="Path_66375" data-name="Path 66375" d="M652.485,183.984l.02-.01Z" transform="translate(-652.485 -183.974)"/>
          </g>
          <g id="Group_27770" data-name="Group 27770" transform="translate(16.273 10.83)">
            <path id="Path_66376" data-name="Path 66376" d="M659.342,211.886l-.005-.02Z" transform="translate(-659.337 -211.866)"/>
          </g>
          <g id="Group_27771" data-name="Group 27771" transform="translate(15.178 3.659)">
            <path id="Path_66377" data-name="Path 66377" d="M654.992,183.427h0Z" transform="translate(-654.992 -183.427)"/>
          </g>
          <g id="Group_27772" data-name="Group 27772" transform="translate(15.106 3.659)">
            <path id="Path_66378" data-name="Path 66378" d="M654.709,183.431l.043,0Z" transform="translate(-654.709 -183.429)"/>
          </g>
          <g id="Group_27773" data-name="Group 27773" transform="translate(15.246 3.66)">
            <path id="Path_66379" data-name="Path 66379" d="M655.262,183.431l.04,0Z" transform="translate(-655.262 -183.431)"/>
          </g>
          <g id="Group_27774" data-name="Group 27774" transform="translate(14.952 3.672)">
            <path id="Path_66380" data-name="Path 66380" d="M654.095,183.485l.046-.007Z" transform="translate(-654.095 -183.478)"/>
          </g>
          <g id="Group_27775" data-name="Group 27775" transform="translate(14.885 3.683)">
            <path id="Path_66381" data-name="Path 66381" d="M653.83,183.531l.039-.008Z" transform="translate(-653.83 -183.523)"/>
          </g>
          <g id="Group_27776" data-name="Group 27776" transform="translate(15.018 3.663)">
            <path id="Path_66382" data-name="Path 66382" d="M654.359,183.448l.065-.006Z" transform="translate(-654.359 -183.442)"/>
          </g>
          <g id="Group_27777" data-name="Group 27777" transform="translate(14.666 3.744)">
            <path id="Path_66383" data-name="Path 66383" d="M652.961,183.775l.031-.011Z" transform="translate(-652.961 -183.764)"/>
          </g>
          <g id="Group_27778" data-name="Group 27778" transform="translate(11.181 13.269)">
            <path id="Path_66384" data-name="Path 66384" d="M639.144,221.571l.045-.036Z" transform="translate(-639.144 -221.535)"/>
          </g>
          <g id="Group_27779" data-name="Group 27779" transform="translate(11.291 13.166)">
            <path id="Path_66385" data-name="Path 66385" d="M639.579,221.171c.013-.013.026-.027.038-.042C639.6,221.143,639.592,221.157,639.579,221.171Z" transform="translate(-639.579 -221.129)"/>
          </g>
          <g id="Group_27780" data-name="Group 27780" transform="translate(11.335 13.109)">
            <path id="Path_66386" data-name="Path 66386" d="M639.755,220.953c.014-.016.026-.033.039-.05C639.781,220.92,639.769,220.937,639.755,220.953Z" transform="translate(-639.755 -220.903)"/>
          </g>
          <g id="Group_27781" data-name="Group 27781" transform="translate(11.121 13.31)">
            <path id="Path_66387" data-name="Path 66387" d="M638.9,221.736l.054-.036Z" transform="translate(-638.904 -221.7)"/>
          </g>
          <g id="Group_27782" data-name="Group 27782" transform="translate(11.381 12.989)">
            <path id="Path_66388" data-name="Path 66388" d="M639.937,220.536a.973.973,0,0,0,.068-.111A.973.973,0,0,1,639.937,220.536Z" transform="translate(-639.937 -220.425)"/>
          </g>
          <g id="Group_27783" data-name="Group 27783" transform="translate(11.507 12.649)">
            <path id="Path_66389" data-name="Path 66389" d="M640.435,219.28a.953.953,0,0,0,.045-.2A.953.953,0,0,1,640.435,219.28Z" transform="translate(-640.435 -219.076)"/>
          </g>
          <g id="Group_27784" data-name="Group 27784" transform="translate(11.453 12.858)">
            <path id="Path_66390" data-name="Path 66390" d="M640.222,220.027a.942.942,0,0,0,.052-.123A.942.942,0,0,1,640.222,220.027Z" transform="translate(-640.222 -219.904)"/>
          </g>
          <g id="Group_27785" data-name="Group 27785" transform="translate(11.521 12.287)">
            <path id="Path_66391" data-name="Path 66391" d="M640.5,217.662l-.006-.021Z" transform="translate(-640.491 -217.641)"/>
          </g>
          <g id="Group_27786" data-name="Group 27786" transform="translate(11.509 12.247)">
            <path id="Path_66392" data-name="Path 66392" d="M640.447,217.5l-.005-.016Z" transform="translate(-640.442 -217.482)"/>
          </g>
          <g id="Group_27787" data-name="Group 27787" transform="translate(11.531 12.326)">
            <path id="Path_66393" data-name="Path 66393" d="M640.537,217.823c0-.009,0-.017-.006-.025C640.533,217.807,640.535,217.815,640.537,217.823Z" transform="translate(-640.531 -217.798)"/>
          </g>
          <g id="Group_27788" data-name="Group 27788" transform="translate(11.494 12.206)">
            <path id="Path_66394" data-name="Path 66394" d="M640.388,217.331l0-.009Z" transform="translate(-640.385 -217.322)"/>
          </g>
          <g id="Group_27789" data-name="Group 27789" transform="translate(11.539 12.364)">
            <path id="Path_66395" data-name="Path 66395" d="M640.575,218.017c0,.023,0,.046.006.068a1,1,0,0,0-.017-.138C640.569,217.971,640.572,217.994,640.575,218.017Z" transform="translate(-640.564 -217.948)"/>
          </g>
          <g id="Group_27790" data-name="Group 27790" transform="translate(2.759 1.872)">
            <path id="Path_66396" data-name="Path 66396" d="M605.8,176.343l-.044.015-.01,0,.01,0Z" transform="translate(-605.747 -176.343)"/>
          </g>
          <g id="Group_27791" data-name="Group 27791" transform="translate(1.768 2.379)">
            <path id="Path_66397" data-name="Path 66397" d="M602.148,178.353a1.577,1.577,0,0,0-.279,1.365A1.579,1.579,0,0,1,602.148,178.353Z" transform="translate(-601.817 -178.353)"/>
          </g>
          <g id="Group_27792" data-name="Group 27792" transform="translate(7.911 9.183)">
            <path id="Path_66398" data-name="Path 66398" d="M628.07,209.126a.919.919,0,0,0,1.246.413c.02-.01.039-.022.058-.033-.019.012-.038.023-.058.033a.919.919,0,0,1-1.246-.413l-.269-.539-1.465-2.934-.159-.317.159.317Z" transform="translate(-626.177 -205.335)"/>
          </g>
          <g id="Group_27793" data-name="Group 27793" transform="translate(8.555 20.591)">
            <path id="Path_66399" data-name="Path 66399" d="M629.557,250.809h0a.837.837,0,0,0,.283-.238.837.837,0,0,1-.283.238h0a.825.825,0,0,1-.826-.04A.825.825,0,0,0,629.557,250.809Z" transform="translate(-628.731 -250.571)"/>
          </g>
          <g id="Group_27794" data-name="Group 27794" transform="translate(11.552 12.508)">
            <path id="Path_66400" data-name="Path 66400" d="M640.618,218.52a.954.954,0,0,1,0,.138A.954.954,0,0,0,640.618,218.52Z" transform="translate(-640.613 -218.52)"/>
          </g>
          <g id="Group_27795" data-name="Group 27795" transform="translate(8.976 7.156)">
            <path id="Path_66401" data-name="Path 66401" d="M630.4,197.294l.251.5,1.025,2.051-1.024-2.051Z" transform="translate(-630.4 -197.294)"/>
          </g>
          <g id="Group_27796" data-name="Group 27796" transform="translate(11.237 13.217)">
            <path id="Path_66402" data-name="Path 66402" d="M639.409,221.331l-.045.043Z" transform="translate(-639.364 -221.331)"/>
          </g>
          <g id="Group_27797" data-name="Group 27797" transform="translate(1.996 16.157)">
            <path id="Path_66403" data-name="Path 66403" d="M603.157,233.193a2.073,2.073,0,0,1,1.309-.167,2.121,2.121,0,0,1,1.1.551,2.123,2.123,0,0,0-1.1-.551,2.076,2.076,0,0,0-1.309.167,1.539,1.539,0,0,0-.437.739A1.54,1.54,0,0,1,603.157,233.193Z" transform="translate(-602.72 -232.988)"/>
          </g>
          <g id="Group_27798" data-name="Group 27798" transform="translate(3.863 20.242)">
            <path id="Path_66404" data-name="Path 66404" d="M610.124,249.188l2.526,2.822.093.1-.093-.1Z" transform="translate(-610.124 -249.188)"/>
          </g>
          <g id="Group_27799" data-name="Group 27799" transform="translate(15.41 3.675)">
            <path id="Path_66405" data-name="Path 66405" d="M655.928,183.493l-.014,0,.024,0Z" transform="translate(-655.914 -183.491)"/>
          </g>
          <g id="Group_27800" data-name="Group 27800" transform="translate(7.138 23.888)">
            <path id="Path_66406" data-name="Path 66406" d="M623.356,263.892c-.048-.043-.137-.135-.243-.248.106.113.195.2.243.248,2.8,2.519,6.415,2.483,9.813,1.468C629.771,266.375,626.156,266.411,623.356,263.892Z" transform="translate(-623.113 -263.644)"/>
          </g>
          <g id="Group_27801" data-name="Group 27801" transform="translate(20.163 21.155)">
            <path id="Path_66407" data-name="Path 66407" d="M674.831,256.086l-.072.037.072-.037a13.917,13.917,0,0,0,4.251-3.279A13.917,13.917,0,0,1,674.831,256.086Z" transform="translate(-674.759 -252.807)"/>
          </g>
          <g id="Group_27802" data-name="Group 27802" transform="translate(8.396 20.659)">
            <path id="Path_66408" data-name="Path 66408" d="M628.1,250.847l-.005-.006Z" transform="translate(-628.099 -250.841)"/>
          </g>
          <g id="Group_27803" data-name="Group 27803" transform="translate(18.728 8.86)">
            <path id="Path_66409" data-name="Path 66409" d="M670,205.851a.951.951,0,0,1-.13-.2l-.8-1.6.8,1.6A.946.946,0,0,0,670,205.851Z" transform="translate(-669.071 -204.052)"/>
          </g>
          <g id="Group_27804" data-name="Group 27804" transform="translate(19.736 6.718)">
            <path id="Path_66410" data-name="Path 66410" d="M673.068,195.557l1.444,2.891a.942.942,0,0,1,.077.213.962.962,0,0,0-.076-.213Z" transform="translate(-673.068 -195.557)"/>
          </g>
          <g id="Group_27805" data-name="Group 27805" transform="translate(18.81 3.532)">
            <path id="Path_66411" data-name="Path 66411" d="M669.7,182.926a1.591,1.591,0,0,0-.3,1.007A1.592,1.592,0,0,1,669.7,182.926Z" transform="translate(-669.394 -182.926)"/>
          </g>
          <g id="Group_27806" data-name="Group 27806" transform="translate(15.531 3.697)">
            <path id="Path_66412" data-name="Path 66412" d="M657.193,184.058a1.529,1.529,0,0,0-.664-.44q-.067-.022-.136-.038c.046.011.091.023.136.038A1.524,1.524,0,0,1,657.193,184.058Z" transform="translate(-656.393 -183.58)"/>
          </g>
          <g id="Group_27807" data-name="Group 27807" transform="translate(19.518 2.926)">
            <path id="Path_66413" data-name="Path 66413" d="M674.359,181.365l4.338,8.689a7.2,7.2,0,0,1,.581,1.785,7.2,7.2,0,0,0-.581-1.785l-4.339-8.689a1.513,1.513,0,0,0-2.044-.678c-.038.02-.076.042-.113.066.037-.023.075-.046.113-.066A1.513,1.513,0,0,1,674.359,181.365Z" transform="translate(-672.201 -180.52)"/>
          </g>
          <g id="Group_27808" data-name="Group 27808" transform="translate(9.507 4.297)">
            <path id="Path_66414" data-name="Path 66414" d="M633.577,186.073a1.462,1.462,0,0,0-1.071-.023h0A1.465,1.465,0,0,1,633.577,186.073Z" transform="translate(-632.505 -185.96)"/>
          </g>
          <g id="Group_27809" data-name="Group 27809" transform="translate(15.469 3.685)">
            <path id="Path_66415" data-name="Path 66415" d="M656.147,183.53l.047.01Z" transform="translate(-656.147 -183.53)"/>
          </g>
          <g id="Group_27810" data-name="Group 27810" transform="translate(10.947 4.625)">
            <path id="Path_66416" data-name="Path 66416" d="M638.667,187.813l.344.688-.344-.688a1.612,1.612,0,0,0-.453-.553A1.619,1.619,0,0,1,638.667,187.813Z" transform="translate(-638.214 -187.26)"/>
          </g>
          <g id="Group_27811" data-name="Group 27811" transform="translate(15.18 11.662)">
            <path id="Path_66417" data-name="Path 66417" d="M655.614,215.394a.927.927,0,0,0,.289-.232.922.922,0,0,1-.288.232.908.908,0,0,1-.614.081A.908.908,0,0,0,655.614,215.394Z" transform="translate(-655 -215.162)"/>
          </g>
          <g id="Group_27812" data-name="Group 27812" transform="translate(13.677 4.238)">
            <path id="Path_66418" data-name="Path 66418" d="M649.373,185.725a1.575,1.575,0,0,0-.235,1.515A1.576,1.576,0,0,1,649.373,185.725Z" transform="translate(-649.04 -185.725)"/>
          </g>
          <g id="Group_27813" data-name="Group 27813" transform="translate(16.223 10.853)">
            <path id="Path_66419" data-name="Path 66419" d="M659.192,211.954a.955.955,0,0,1-.056.578A.956.956,0,0,0,659.192,211.954Z" transform="translate(-659.136 -211.954)"/>
          </g>
          <g id="Group_27814" data-name="Group 27814">
            <path id="Path_66420" data-name="Path 66420" d="M622.409,180.6c-.016-.034-.1-.2-.68-1.366l-3.672-7.353a3.264,3.264,0,0,0-4.419-1.467,3.363,3.363,0,0,0-.342.2,3.248,3.248,0,0,0-.922.955c-.031.048-.06.1-.088.147-.075-.073-.154-.142-.234-.208a3.273,3.273,0,0,0-1.654-.7c-.055-.007-.11-.013-.166-.016a3.208,3.208,0,0,0-1.717.353,3.291,3.291,0,0,0-1.342,1.282,3.338,3.338,0,0,0-.833-.624,3.205,3.205,0,0,0-2.632-.181A3.283,3.283,0,0,0,602.1,172.9l-1.058-2.119a3.268,3.268,0,0,0-6.071.442,3.366,3.366,0,0,0,.192,2.551l1.939,3.882,1.331,2.663.516,1.034c.363.727.73,1.461,1.089,2.179l.156.312a3.87,3.87,0,0,0-.652-.312,3.925,3.925,0,0,0-2.778,0,3.366,3.366,0,0,0-.325.147l-.217.113-.18.168a3.388,3.388,0,0,0-.193,4.719l4.04,4.514c.882.985,1.055,1.14,1.128,1.207,3.544,3.189,8.612,3.409,14.656.639l.037-.018.13-.067a16.3,16.3,0,0,0,4.009-2.868,12.1,12.1,0,0,0,2.534-3.573A9.228,9.228,0,0,0,622.409,180.6Zm-7.369,12.757-.072.037-.022.011A22.664,22.664,0,0,1,612,194.523c-3.4,1.015-7.013,1.051-9.813-1.468-.048-.043-.137-.135-.243-.248-.216-.23-.5-.547-.657-.719l-.093-.1-2.526-2.822-1.518-1.7a1.567,1.567,0,0,1-.349-1.446,1.539,1.539,0,0,1,.437-.739,2.075,2.075,0,0,1,1.309-.167,2.123,2.123,0,0,1,1.1.551c.023.023.045.046.067.07l3.451,3.809.033.035.005.006.039.037a.844.844,0,0,0,.115.088.825.825,0,0,0,.826.04h0a.837.837,0,0,0,.283-.238.86.86,0,0,0,.084-.9l-2.535-5.074c-.351-.7-.718-1.438-1.088-2.179l-.749-1.5-1.006-2.015-2.437-4.878a1.541,1.541,0,0,1-.112-.3,1.577,1.577,0,0,1,.279-1.365,1.507,1.507,0,0,1,.5-.416,1.545,1.545,0,0,1,.161-.072l.01,0,.044-.015a1.54,1.54,0,0,1,1.847.806l3.25,6.506.159.317,1.465,2.934.269.539a.919.919,0,0,0,1.246.413c.02-.01.039-.022.058-.033l.012-.007.054-.036.007-.006.045-.036.01-.009.045-.043.009-.009c.013-.013.026-.027.038-.042l.006-.007c.014-.016.027-.033.039-.05l.007-.01a.98.98,0,0,0,.068-.111l0-.008a.966.966,0,0,0,.052-.123l0,0a.949.949,0,0,0,.045-.2v0a.963.963,0,0,0,0-.138v-.007c0-.023,0-.046-.006-.068s-.007-.046-.011-.069l0-.012-.006-.025,0-.018-.006-.021-.007-.024-.005-.016-.011-.032,0-.009c-.011-.029-.023-.057-.037-.086l-1.2-2.411-1.025-2.05-.251-.5-.306-.613a1.562,1.562,0,0,1,.667-2.079,1.489,1.489,0,0,1,.17-.076h0a1.462,1.462,0,0,1,1.071.023,1.578,1.578,0,0,1,.258.135c.038.024.074.051.11.079a1.612,1.612,0,0,1,.453.553l.344.688,2.63,5.265.174.349a.926.926,0,0,0,.613.49l.012,0h.007a.908.908,0,0,0,.614-.081.921.921,0,0,0,.288-.232.935.935,0,0,0,.141-.231.956.956,0,0,0,.056-.578v0l-.005-.02a.927.927,0,0,0-.074-.2l-.818-1.638-1.541-3.085a1.535,1.535,0,0,1-.066-.152,1.575,1.575,0,0,1,.235-1.515,1.512,1.512,0,0,1,.5-.413l.038-.018.02-.01.037-.016.027-.012.035-.014.031-.011.033-.012.06-.018.026-.007.04-.01.029-.006.039-.008.027,0,.046-.007.021,0,.065-.006h.024l.043,0h.1l.04,0,.054,0,.031,0,.04.005.014,0,.01,0,.035.006.047.01.015,0q.069.016.136.038a1.529,1.529,0,0,1,.664.44c.031.035.061.072.089.111a1.585,1.585,0,0,1,.132.218l1.015,2.031,1.161,2.325.8,1.6a.952.952,0,0,0,.13.2.917.917,0,0,0,1.114.217.948.948,0,0,0,.483-1.054.938.938,0,0,0-.077-.213l-1.444-2.891-.754-1.51a1.645,1.645,0,0,1-.171-.669,1.592,1.592,0,0,1,.3-1.007,1.47,1.47,0,0,1,.358-.344l.047-.03c.037-.024.075-.046.113-.066a1.513,1.513,0,0,1,2.044.678l4.339,8.689a7.2,7.2,0,0,1,.581,1.785,8.312,8.312,0,0,1-2.109,6.91A13.915,13.915,0,0,1,615.04,193.352Z" transform="translate(-594.806 -168.919)" fill="#accd00"/>
          </g>
        </g>
      </g>
      <g id="Group_27820" data-name="Group 27820" transform="translate(0 0)">
        <g id="Group_27819" data-name="Group 27819">
          <g id="Group_27818" data-name="Group 27818">
            <g id="Group_27817" data-name="Group 27817">
              <path id="Path_66421" data-name="Path 66421" d="M465.111,49.9h-39.8a6.164,6.164,0,0,0-6.112,6.215V77.823a6.164,6.164,0,0,0,6.112,6.215H452.39a1.08,1.08,0,0,0,1.07-1.089c0-.01,0-.019,0-.029a1.079,1.079,0,0,0-1.07-1.061H425.313a4,4,0,0,1-3.97-4.037V56.113a4,4,0,0,1,3.97-4.037h39.8a4,4,0,0,1,3.97,4.037v13.3a1.082,1.082,0,0,0,.973,1.085c.033,0,.065,0,.1,0a1.08,1.08,0,0,0,1.071-1.089v-13.3A6.164,6.164,0,0,0,465.111,49.9Z" transform="translate(-419.201 -49.898)" fill="#df88d9"/>
            </g>
          </g>
        </g>
        <text id="save" transform="translate(8.457 21.896)" fill="#accd00" font-size="16" font-family="ProximaNova-Bold, Proxima Nova" font-weight="700"><tspan x="0" y="0">save</tspan></text>
      </g>
    </g>
  </g>
</svg>
