<?xml version="1.0" standalone="no"?>
<!DOCTYPE svg PUBLIC "-//W3C//DTD SVG 1.1//EN" "http://www.w3.org/Graphics/SVG/1.1/DTD/svg11.dtd" >
<svg xmlns="http://www.w3.org/2000/svg">
<metadata>Generated by IcoMoon</metadata>
<defs>
<font id="uttericon" horiz-adv-x="1024">
<font-face units-per-em="1024" ascent="960" descent="-64" />
<missing-glyph horiz-adv-x="1024" />
<glyph unicode="&#x20;" horiz-adv-x="512" d="" />
<glyph unicode="&#xe900;" glyph-name="passport" horiz-adv-x="788" d="M0 960v-1024.047h787.729v1024.047zM78.773 881.227h630.183v-866.502h-630.183zM393.864 763.068c-130.515 0-236.319-105.803-236.319-236.319s105.803-236.319 236.319-236.319c130.515 0 236.319 105.803 236.319 236.319v0c-0.366 130.368-105.951 235.952-236.284 236.319h-0.035zM420.946 680.608c19.846-3.139 37.661-9.608 53.665-18.862l-0.745 0.397 2.458-28.358-18.464 7.389-14.762-12.304 2.458-35.684 38.158 11.028 46.775-14.762-12.304-20.922-28.358 17.236-30.769-4.915-29.54-22.151-17.236-51.691 33.226-27.082s35.070 6.144 36.929 6.144c5.011-8.853 9.976-19.394 14.189-30.308l0.573-1.689-19.693-60.309c-23.695-15.24-52.583-24.368-83.59-24.561h-0.051c-9.876 0.49-19.158 1.807-28.144 3.894l1.062-0.208-7.389 12.304 18.464 68.926-70.171 52.951h-65.224l-4.915 9.847c-0.158 3.387-1.229 6.459-1.229 9.847 0.206 8.845 1.092 17.331 2.608 25.597l-0.151-0.988 33.226 25.838 70.155 33.226-11.028 45.531 30.769 6.16 13.533-19.693 52.92 9.847zM278.163 419.618h12.304l23.38-28.358c-13.667 7.991-25.409 17.399-35.606 28.274l-0.079 0.085zM157.546 211.658v-78.773h472.637v78.773z" />
<glyph unicode="&#xe901;" glyph-name="submit" horiz-adv-x="1021" d="M508.679 960c-20.263-0.062-40.168-1.294-59.733-3.632l2.427 0.236 9.956-88.479c14.254 1.704 30.762 2.676 47.496 2.676 233.548 0 422.876-189.328 422.876-422.876s-189.328-422.876-422.876-422.876c-0.052 0-0.103 0-0.155 0h0.008c-16.639 0.041-33 1.026-49.089 2.906l1.997-0.19-9.82-88.52c16.945-1.989 36.574-3.124 56.469-3.124 282.736 0 511.939 229.203 511.939 511.939 0 282.58-228.95 511.686-511.471 511.939h-0.024zM339.613 930.919c-39.506-13.998-73.588-30.816-105.28-51.046l2.051 1.224 47.54-75.304c24.458 15.678 52.581 29.548 82.248 40.172l2.93 0.916zM146.573 810.031c-26.347-26.545-49.841-55.989-69.941-87.792l-1.247-2.113 75.344-47.431c17.616 28.051 37 52.401 58.767 74.388l-0.035-0.035zM464.141 715.155l-0.081-373.91-87.27 87.229-62.957-62.997 194.846-194.643 194.629 194.643-62.957 62.997-87.256-87.256 0.081 373.91zM25.699 616.828c-11.846-32.384-20.882-70.193-25.471-109.362l-0.227-2.385 88.479-9.834c3.989 34.293 11.463 65.491 22.18 95.137l-0.923-2.923zM88.574 400.385l-88.52-9.875c4.847-41.554 13.92-79.354 26.927-115.27l-1.119 3.537 84.037 29.434c-9.821 26.71-17.318 57.892-21.135 90.2l-0.19 1.973zM150.96 223.033l-75.304-47.54c21.346-33.867 44.834-63.271 71.201-89.81l-0.027 0.027 62.916 62.997c-21.756 21.959-41.158 46.318-57.753 72.625l-1.033 1.754zM284.072 90.030l-47.377-75.399c29.638-18.957 63.722-35.735 99.672-48.59l3.558-1.11 29.393 84.037c-32.62 11.555-60.76 25.434-86.93 42.128l1.698-1.013z" />
<glyph unicode="&#xe902;" glyph-name="dollar" d="M465.457 960c-256.985-0.106-465.271-208.458-465.271-465.457 0-257.065 208.392-465.457 465.457-465.457 32.884 0 64.971 3.41 95.928 9.896l-3.029-0.531v95.933c-28.408-7.739-61.026-12.185-94.682-12.185-206.53 0-373.956 167.426-373.956 373.956s167.426 373.956 373.956 373.956c206.53 0 373.956-167.426 373.956-373.956 0-33.656-4.446-66.273-12.783-97.297l0.598 2.616h95.933c5.953 27.929 9.362 60.018 9.362 92.903 0 257.103-208.379 465.537-465.462 465.625h-0.008zM452.088 790.092v-66.453c-15.776-1.995-104.095-18.593-104.095-125.185 0-155.518 161-109.516 161-213.276 0-51.941-33.607-53.189-40.459-53.189-6.243 0-47.205-3.32-47.205 76.137h-87.969c0-134.611 97.669-145.27 112.181-147.265v-61.915h46.642v61.96c15.73 1.949 104.734 16.552 104.734 124.865 0 149.229-160.954 120.678-161 212.179 0 52.459 28.856 54.088 35.023 54.088 11.405 0 38.556-10.004 38.556-73.914h87.999c0 122.276-83.599 141.341-98.552 144.189v67.777zM791.279 308.357v-139.636h-139.636v-93.085h139.636v-139.636h93.085v139.636h139.636v93.085h-139.636v139.636z" />
<glyph unicode="&#xe903;" glyph-name="upload" d="M512 960c-282.77 0-512-229.23-512-512s229.23-512 512-512c282.77 0 512 229.23 512 512v0c0 0.081 0 0.177 0 0.273 0 282.619-229.108 511.727-511.727 511.727-0.096 0-0.192 0-0.287 0h0.015zM512-3.998c-249.632 0-451.998 202.366-451.998 451.998s202.366 451.998 451.998 451.998c249.632 0 451.998-202.366 451.998-451.998v0c-0.294-249.513-202.485-451.703-451.969-451.998h-0.029zM292.501 667.512c-30.215-0.23-54.648-24.663-54.878-54.856v-329.29c0.23-30.215 24.663-54.648 54.856-54.878h439.033c30.215 0.23 54.648 24.663 54.878 54.856v329.29c-0.23 30.215-24.663 54.648-54.856 54.878h-0.022zM292.501 612.634h439.011v-329.268h-439.011zM484.568 557.756v-82.31h192.066v82.31zM347.379 530.324v-54.878h82.31v54.878zM347.379 420.568v-54.878h82.31v54.878zM484.568 420.568v-82.31h192.066v82.31z" />
<glyph unicode="&#xe904;" glyph-name="account" d="M512 960c-282.77 0-512-229.23-512-512s229.23-512 512-512c282.77 0 512 229.23 512 512v0c0 0.081 0 0.177 0 0.273 0 282.619-229.108 511.727-511.727 511.727-0.096 0-0.192 0-0.287 0h0.015zM512-3.998c-249.632 0-451.998 202.366-451.998 451.998s202.366 451.998 451.998 451.998c249.632 0 451.998-202.366 451.998-451.998v0c-0.294-249.513-202.485-451.703-451.969-451.998h-0.029zM512.395 714.745c-112.917-0.039-204.44-91.586-204.44-204.508 0-70.369 35.541-132.437 89.652-169.233l0.712-0.457c-105.194-45.707-177.518-148.514-177.975-268.267v-0.059h58.408c0 0.097 0 0.212 0 0.327 0 73.523 34.012 139.103 87.16 181.863l0.452 0.351 125.946-115.916 20.073-19.16 20.032 19.16 125.946 115.916c53.6-43.111 87.612-108.691 87.612-182.214 0-0.115 0-0.23 0-0.344v0.018h58.408c-0.45 119.803-72.758 222.607-176.045 267.593l-1.89 0.733c54.823 37.253 90.364 99.321 90.364 169.69 0 112.913-91.507 204.454-204.407 204.508h-0.005zM512.395 656.338c0.004 0 0.009 0 0.014 0 80.652 0 146.033-65.381 146.033-146.033s-65.381-146.033-146.033-146.033c-80.652 0-146.033 65.381-146.033 146.033 0 0.010 0 0.019 0 0.029v-0.002c0 0.126-0.001 0.274-0.001 0.423 0 80.403 65.18 145.583 145.583 145.583 0.154 0 0.307 0 0.461-0.001h-0.024zM512.395 305.865c0.378 0.002 0.825 0.003 1.272 0.003 33.535 0 65.421-7.057 94.256-19.766l-1.498 0.589-94.030-87.611-94.030 87.611c27.369 12.154 59.298 19.231 92.88 19.231 0.404 0 0.808-0.001 1.212-0.003h-0.062z" />
<glyph unicode="&#xe905;" glyph-name="account_circle" d="M512 21.333c-235.641 0-426.667 191.025-426.667 426.667s191.025 426.667 426.667 426.667c235.641 0 426.667-191.025 426.667-426.667v0c-0.267-235.534-191.133-426.4-426.641-426.667h-0.025zM393.813 405.333c-50.753-0.221-94.545-29.799-115.292-72.62l-0.335-0.766-8.96-18.773c-2.74-5.475-4.343-11.928-4.343-18.755 0-8.924 2.74-17.209 7.424-24.058l-0.095 0.146c55.030-73.529 141.91-120.61 239.787-120.61s184.757 47.081 239.229 119.832l0.558 0.778c4.65 6.733 7.427 15.069 7.427 24.055 0 6.939-1.656 13.49-4.595 19.282l0.112-0.243-9.771 20.053c-21.104 42.774-64.408 71.68-114.464 71.68-0.109 0-0.217 0-0.326 0h0.017zM512 746.667c-70.692 0-128-57.308-128-128s57.308-128 128-128c70.692 0 128 57.308 128 128v0c0 70.692-57.308 128-128 128v0z" />
<glyph unicode="&#xe906;" glyph-name="actions-heart" d="M938.667 597.333c0 129.603-105.064 234.667-234.667 234.667v0c-76.164-2.446-144.058-35.914-191.814-88.114l-0.186-0.206c-47.942 52.406-115.837 85.874-191.57 88.309l-0.43 0.011c-129.603 0-234.667-105.064-234.667-234.667v0c0-167.253 202.667-352 298.667-448l97.28-97.28c5.786-5.793 13.78-9.379 22.612-9.387h16.215c8.833 0.008 16.828 3.594 22.613 9.386v0l97.28 97.28c96 96 298.667 280.747 298.667 448z" />
<glyph unicode="&#xe907;" glyph-name="actions-label" d="M532.693 64c-11.739 0.003-22.369 4.745-30.082 12.418l-362.238 362.195c-7.655 7.71-12.386 18.332-12.386 30.059s4.731 22.349 12.388 30.061l308.051 308.094c15.517 15.5 36.923 25.107 60.574 25.173h339.213c11.773-0.155 22.422-4.841 30.31-12.389l5.147-5.147c7.509-7.861 12.169-18.5 12.288-30.227v-339.223c-0.066-23.663-9.673-45.070-25.174-60.587l-308.052-308.052c-7.663-7.646-18.241-12.373-29.923-12.373-0.040 0-0.080 0-0.121 0h0.006zM682.624 704c-47.128 0-85.333-38.205-85.333-85.333s38.205-85.333 85.333-85.333c47.128 0 85.333 38.205 85.333 85.333v0c0 47.128-38.205 85.333-85.333 85.333v0z" />
<glyph unicode="&#xe908;" glyph-name="alerts-notifications_on" d="M511.957 21.333c-47.128 0-85.333 38.205-85.333 85.333v0h170.667c0-47.128-38.205-85.333-85.333-85.333v0zM810.624 192h-597.333c-23.564 0-42.667 19.103-42.667 42.667v0 25.173c0.090 11.649 4.797 22.181 12.378 29.872l35.408 35.408c23.092 23.193 37.41 55.138 37.547 90.427v117.786c0.132 57.907 19.342 111.301 51.675 154.259l-0.475-0.659 38.4 51.2c23.663 31.153 60.692 51.093 102.382 51.2h21.351v64c0 11.782 9.551 21.333 21.333 21.333v0h42.667c11.782 0 21.333-9.551 21.333-21.333v0-64h21.333c41.708-0.107 78.737-20.046 102.169-50.882l0.231-0.318 38.4-51.2c31.858-42.298 51.068-95.693 51.2-153.569v-117.791c0.137-35.316 14.455-67.26 37.551-90.458l35.408-35.408c7.577-7.686 12.284-18.218 12.373-29.849v-25.19c0-23.564-19.103-42.667-42.667-42.667v0zM106.624 533.333c-6.044 0.010-11.473 2.637-15.215 6.808l-0.017 0.019c-3.792 3.64-6.149 8.752-6.149 14.413 0 0.483 0.017 0.962 0.051 1.437l-0.004-0.064c5.070 88.533 36.343 168.891 86.104 234.446l-0.771-1.059c2.239 3.394 5.658 5.854 9.662 6.805l0.108 0.022h1.835c0.010 0 0.022 0 0.033 0 4.152 0 7.958-1.483 10.917-3.948l-0.028 0.022 42.667-33.28c3.479-2.854 5.681-7.154 5.681-11.967 0-3.538-1.19-6.798-3.191-9.402l0.027 0.037c-38.3-50.951-63-114.099-67.654-182.747l-0.058-1.061c-0.747-11.294-9.957-20.207-21.307-20.479l-0.026-0.001h-42.667zM916.907 533.333h-42.667c-11.325 0.201-20.485 9.197-20.948 20.438l-0.001 0.042c-5.369 69.97-30.837 133.113-70.572 184.702l0.598-0.808c-1.954 2.565-3.131 5.814-3.131 9.337 0 4.825 2.206 9.134 5.664 11.974l0.027 0.022 42.667 33.28c3.157 2.435 7.165 3.909 11.516 3.925h1.668c4.811-0.56 8.925-3.142 11.528-6.859l0.035-0.053c48.807-64.574 80.041-144.881 85.276-232.194l0.057-1.193c-0.073-6.128-2.497-11.676-6.41-15.797l0.010 0.010c-3.835-4.128-9.263-6.731-15.3-6.826h-0.017z" />
<glyph unicode="&#xe909;" glyph-name="apple_watch" d="M610.688-21.333h-184.576c-21.151 0.003-38.707 15.396-42.078 35.591l-0.034 0.249-25.173 137.387c-58.955 12.29-102.641 63.736-102.827 125.42v341.353c0 0.086 0 0.189 0 0.291 0 60.312 41.866 110.845 98.122 124.123l0.865 0.172 22.613 138.24c3.405 20.444 20.961 35.837 42.112 35.84h184.107c0.011 0 0.024 0 0.038 0 21.154 0 38.712-15.394 42.083-35.591l0.034-0.249 23.040-138.24c57.123-13.467 98.987-64.009 98.987-124.329 0-0.090 0-0.181 0-0.271v0.014-341.333c0-0.003 0-0.007 0-0.011 0-58.025-38.443-107.071-91.25-123.058l-0.91-0.237-23.040-139.52c-3.405-20.444-20.961-35.837-42.112-35.84v0zM384 661.333c-23.564 0-42.667-19.103-42.667-42.667v0-341.333c0-23.564 19.103-42.667 42.667-42.667v0h256c23.564 0 42.667 19.103 42.667 42.667v0 341.333c0 23.564-19.103 42.667-42.667 42.667v0z" />
<glyph unicode="&#xe90a;" glyph-name="arrows-arrow_backward" d="M938.667 469.248v-42.667c0-11.782-9.551-21.333-21.333-21.333v0h-689.92l189.867-189.44c3.898-3.867 6.31-9.225 6.31-15.147s-2.413-11.28-6.309-15.145l-0.001-0.001-30.293-29.867c-3.867-3.898-9.225-6.31-15.147-6.31s-11.28 2.413-15.145 6.309l-0.001 0.001-261.973 261.632c-5.793 5.786-9.379 13.78-9.387 22.612v16.215c0.106 8.817 3.668 16.781 9.392 22.619l-0.005-0.005 261.973 261.547c3.867 3.898 9.225 6.31 15.147 6.31s11.28-2.413 15.145-6.309l30.294-30.294c3.874-3.798 6.275-9.085 6.275-14.933s-2.401-11.136-6.272-14.93l-0.003-0.003-189.867-189.525h689.92c11.782 0 21.333-9.551 21.333-21.333v0z" />
<glyph unicode="&#xe90b;" glyph-name="arrows-arrow_forward" d="M85.333 426.581v42.667c0 11.782 9.551 21.333 21.333 21.333v0h689.92l-189.867 189.44c-3.898 3.867-6.31 9.225-6.31 15.147s2.413 11.28 6.309 15.145l0.001 0.001 30.293 29.867c3.867 3.898 9.225 6.31 15.147 6.31s11.28-2.413 15.145-6.309l0.001-0.001 261.973-261.547c5.793-5.786 9.379-13.78 9.387-22.612v-16.215c-0.106-8.817-3.668-16.781-9.392-22.619l0.005 0.005-261.973-261.547c-3.867-3.898-9.225-6.31-15.147-6.31s-11.28 2.413-15.145 6.309l-30.294 30.294c-3.874 3.798-6.275 9.085-6.275 14.933s2.401 11.136 6.272 14.93l0.003 0.003 189.867 189.44h-689.92c-11.782 0-21.333 9.551-21.333 21.333v0z" />
<glyph unicode="&#xe90c;" glyph-name="arrows-expand_all" d="M520.107 64h-16.213c-8.816 0.11-16.779 3.672-22.619 9.392l0.006-0.005-176.213 176.555c-3.885 3.865-6.289 9.214-6.289 15.125s2.404 11.261 6.288 15.124l30.294 30.294c3.803 3.863 9.088 6.257 14.933 6.257s11.131-2.394 14.931-6.254l0.003-0.003 146.859-146.688 146.773 147.115c3.867 3.898 9.225 6.31 15.147 6.31s11.28-2.413 15.145-6.309l0.001-0.001 29.867-30.72c3.885-3.865 6.289-9.214 6.289-15.125s-2.404-11.261-6.288-15.124l-0.001-0.001-176.299-176.555c-5.798-5.774-13.784-9.354-22.607-9.387h-0.006zM349.952 579.2c-0.011 0-0.025 0-0.038 0-5.924 0-11.284 2.415-15.15 6.313l-0.001 0.001-29.867 30.293c-3.885 3.865-6.289 9.214-6.289 15.125s2.404 11.261 6.288 15.124l176.385 176.556c5.798 5.774 13.784 9.354 22.607 9.387h16.219c8.818-0.096 16.786-3.661 22.618-9.391l-0.005 0.005 176.213-176.555c3.885-3.865 6.289-9.214 6.289-15.125s-2.404-11.261-6.288-15.124l-30.294-30.294c-3.803-3.863-9.088-6.257-14.933-6.257s-11.131 2.394-14.931 6.254l-0.003 0.003-146.688 147.157-146.859-147.157c-3.867-3.9-9.227-6.315-15.151-6.315-0.043 0-0.087 0-0.13 0h0.007z" />
<glyph unicode="&#xe90d;" glyph-name="attachment_diagonal" d="M567.467 96.427c-46.743-46.509-111.192-75.259-182.357-75.259s-135.615 28.751-182.368 75.27l0.011-0.011c-46.26 46.316-74.868 110.27-74.868 180.907s28.608 134.591 74.871 180.909l-0.003-0.003 362.667 360.107c35.124 34.823 83.486 56.341 136.875 56.341s101.751-21.518 136.889-56.355l-0.014 0.014c35.038-34.579 56.74-82.595 56.74-135.68s-21.703-101.101-56.72-135.659l-0.021-0.021-332.8-330.24c-23.582-25.602-57.27-41.586-94.69-41.586-71.022 0-128.597 57.575-128.597 128.597 0 37.23 15.821 70.764 41.106 94.248l0.081 0.074 210.987 209.067c3.869 3.91 9.236 6.332 15.168 6.332s11.299-2.422 15.166-6.33l0.002-0.002 23.083-22.613c3.898-3.867 6.31-9.225 6.31-15.147s-2.413-11.28-6.309-15.145l-211.073-209.068c-7.689-9.237-12.356-21.227-12.356-34.307 0-29.714 24.088-53.803 53.803-53.803 13.207 0 25.303 4.759 34.666 12.655l-0.081-0.066 332.8 329.813c21.369 21.178 34.599 50.537 34.599 82.987s-13.23 61.809-34.591 82.978l-0.009 0.008c-21.467 21.328-51.050 34.511-83.712 34.511s-62.245-13.182-83.718-34.517l0.006 0.006-363.563-360.107c-32.713-32.779-52.942-78.027-52.942-128s20.229-95.221 52.945-128.003l-0.003 0.003c33.269-32.611 78.882-52.737 129.195-52.737s95.925 20.126 129.225 52.767l-0.030-0.030 241.365 239.36c3.942 3.924 9.378 6.35 15.381 6.35s11.439-2.426 15.382-6.351l22.612-22.612c3.984-3.745 6.465-9.050 6.465-14.933s-2.481-11.188-6.454-14.923l-0.011-0.010z" />
<glyph unicode="&#xe90e;" glyph-name="audiovisual-pause" d="M693.333 192h-64c-17.615 0.144-31.856 14.385-32 31.986v448.014c0.144 17.615 14.385 31.856 31.986 32h64.014c17.615-0.144 31.856-14.385 32-31.986v-448.014c-0.144-17.615-14.385-31.856-31.986-32h-0.014zM394.667 192h-64c-17.615 0.144-31.856 14.385-32 31.986v448.014c0.351 17.53 14.47 31.649 31.967 31.999l0.033 0.001h64c17.615-0.144 31.856-14.385 32-31.986v-448.014c-0.144-17.615-14.385-31.856-31.986-32h-0.014z" />
<glyph unicode="&#xe90f;" glyph-name="audiovisual-play" d="M768 453.973v-11.947c-0.037-11.727-6.293-21.985-15.642-27.652l-0.144-0.081-381.867-222.293c-23.040-13.653-34.987-13.653-45.227-7.68l-10.667 5.973c-9.26 5.6-15.439 15.482-15.785 26.831l-0.001 0.049v461.653c0.037 11.727 6.293 21.985 15.642 27.652l0.144 0.081 10.667 5.973c10.24 5.973 22.187 5.973 52.053-11.52l375.040-219.307c9.493-5.748 15.75-16.006 15.787-27.728v-0.005z" />
<glyph unicode="&#xe910;" glyph-name="audiovisual-skip_next" d="M293.973 181.504c-6.332 0.001-12.232 1.845-17.194 5.026l0.128-0.076-5.12 2.517c-9.452 5.789-15.688 16.022-15.787 27.719v462.99c0.654 11.065 6.757 20.574 15.641 25.945l0.145 0.082 5.12 2.517c4.809 3.191 10.716 5.092 17.067 5.092s12.257-1.901 17.182-5.164l-0.115 0.072 314.453-222.251c8.238-5.835 13.572-15.299 13.653-26.014v-26.466c-0.082-10.727-5.415-20.192-13.554-25.96l-0.1-0.067-314.453-221.013c-4.824-3.105-10.713-4.949-17.034-4.949-0.012 0-0.023 0-0.035 0h0.002zM746.667 192h-42.667c-11.782 0-21.333 9.551-21.333 21.333v0 469.333c0 11.782 9.551 21.333 21.333 21.333v0h42.667c11.782 0 21.333-9.551 21.333-21.333v0-469.333c0-11.782-9.551-21.333-21.333-21.333v0z" />
<glyph unicode="&#xe911;" glyph-name="audiovisual-skip_previous" d="M730.027 183.083c-0.014 0-0.031 0-0.048 0-6.333 0-12.223 1.895-17.134 5.149l0.115-0.072-314.453 221.013c-8.232 5.833-13.555 15.303-13.611 26.018v26.462c0.056 10.724 5.379 20.193 13.511 25.96l0.099 0.067 314.453 222.251c4.809 3.191 10.716 5.092 17.067 5.092s12.257-1.901 17.182-5.164l-0.115 0.072 5.12-2.517c9.464-5.777 15.705-16.017 15.787-27.721v-461.281c-0.072-11.718-6.317-21.962-15.643-27.652l-0.143-0.081-5.12-2.517c-4.796-3.182-10.686-5.077-17.019-5.077-0.017 0-0.034 0-0.050 0h0.003zM320 192h-42.667c-11.782 0-21.333 9.551-21.333 21.333v0 469.291c0 11.782 9.551 21.333 21.333 21.333v0h42.667c11.782 0 21.333-9.551 21.333-21.333v0-469.333c-0.024-11.764-9.566-21.291-21.333-21.291 0 0 0 0 0 0v0z" />
<glyph unicode="&#xe912;" glyph-name="brightness_1" d="M533.333 21.333h-42.667c-11.782 0-21.333 9.551-21.333 21.333v0 85.333c0 11.782 9.551 21.333 21.333 21.333v0h42.667c11.782 0 21.333-9.551 21.333-21.333v0-85.333c0-11.782-9.551-21.333-21.333-21.333v0zM783.104 125.099c-5.907 0.013-11.248 2.425-15.103 6.313l-60.161 60.161c-3.899 3.866-6.313 9.224-6.315 15.146v0c0.001 5.922 2.416 11.281 6.313 15.145l29.868 29.868c3.867 3.898 9.225 6.31 15.147 6.31s11.28-2.413 15.145-6.309l60.118-60.161c3.898-3.867 6.31-9.225 6.31-15.147s-2.413-11.28-6.309-15.145l-29.868-29.868c-3.856-3.889-9.197-6.301-15.101-6.315h-0.003zM240.384 125.525c-5.928 0.013-11.286 2.443-15.144 6.355l-29.869 29.869c-3.898 3.867-6.31 9.225-6.31 15.147s2.413 11.28 6.309 15.145l60.204 59.692c3.867 3.898 9.225 6.31 15.147 6.31s11.28-2.413 15.145-6.309l0.001-0.001 29.867-29.44c3.898-3.867 6.31-9.225 6.31-15.147s-2.413-11.28-6.309-15.145l-60.161-60.161c-3.866-3.899-9.224-6.313-15.146-6.315v0zM512 234.667c-117.821 0-213.333 95.513-213.333 213.333s95.513 213.333 213.333 213.333c117.821 0 213.333-95.513 213.333-213.333v0c-0.146-117.762-95.571-213.188-213.319-213.333h-0.014zM917.333 405.333h-85.333c-11.782 0-21.333 9.551-21.333 21.333v0 42.667c0 11.782 9.551 21.333 21.333 21.333v0h85.333c11.782 0 21.333-9.551 21.333-21.333v0-42.667c0-11.782-9.551-21.333-21.333-21.333v0zM192 405.333h-85.333c-11.782 0-21.333 9.551-21.333 21.333v0 42.667c0 11.782 9.551 21.333 21.333 21.333v0h85.333c11.782 0 21.333-9.551 21.333-21.333v0-42.667c0-11.782-9.551-21.333-21.333-21.333v0zM753.28 637.952c-5.922 0.001-11.281 2.416-15.145 6.313l-0.001 0.001-29.867 29.44c-3.898 3.867-6.31 9.225-6.31 15.147s2.413 11.28 6.309 15.145l60.161 60.161c3.867 3.898 9.225 6.31 15.147 6.31s11.28-2.413 15.145-6.309l29.868-29.868c3.885-3.865 6.289-9.214 6.289-15.125s-2.404-11.261-6.288-15.124l-60.161-59.777c-3.866-3.899-9.224-6.313-15.146-6.315v0zM271.147 637.952c-5.922 0.001-11.281 2.416-15.145 6.313l-60.161 60.161c-3.898 3.867-6.31 9.225-6.31 15.147s2.413 11.28 6.309 15.145l29.868 29.868c3.867 3.898 9.225 6.31 15.147 6.31s11.28-2.413 15.145-6.309l0.001-0.001 59.733-60.587c3.9-3.867 6.315-9.227 6.315-15.151 0-5.71-2.243-10.895-5.896-14.724l-29.859-29.859c-3.866-3.899-9.224-6.313-15.146-6.315v0zM533.333 746.667h-42.667c-11.782 0-21.333 9.551-21.333 21.333v0 85.333c0 11.782 9.551 21.333 21.333 21.333v0h42.667c11.782 0 21.333-9.551 21.333-21.333v0-85.333c0-11.782-9.551-21.333-21.333-21.333v0z" />
<glyph unicode="&#xe913;" glyph-name="castle" d="M853.333 810.667v-224.427c-0.032-35.333-14.375-67.31-37.545-90.452l-78.081-78.081c-7.606-7.667-12.323-18.211-12.373-29.857v-302.517c0-11.782-9.551-21.333-21.333-21.333v0h-85.333c-11.782 0-21.333 9.551-21.333 21.333v0 174.507c-0.051 11.656-4.767 22.2-12.376 29.869l-17.917 17.917c-7.667 7.606-18.211 12.323-29.857 12.373h-50.357c-11.656-0.051-22.2-4.767-29.869-12.376l-17.917-17.917c-7.606-7.667-12.323-18.211-12.373-29.857v-174.517c0-11.782-9.551-21.333-21.333-21.333v0h-85.333c-11.782 0-21.333 9.551-21.333 21.333v0 302.507c-0.051 11.656-4.767 22.2-12.376 29.869l-78.077 78.077c-23.171 23.143-37.515 55.12-37.547 90.447v224.433c0 11.782 9.551 21.333 21.333 21.333v0h85.333c11.782 0 21.333-9.551 21.333-21.333v0-85.333c0-11.782 9.551-21.333 21.333-21.333v0h85.333c11.782 0 21.333 9.551 21.333 21.333v0 85.333c0 11.782 9.551 21.333 21.333 21.333v0h128c11.782 0 21.333-9.551 21.333-21.333v0-85.333c0-11.782 9.551-21.333 21.333-21.333v0h85.333c11.782 0 21.333 9.551 21.333 21.333v0 85.333c0 11.782 9.551 21.333 21.333 21.333v0h85.333c11.782 0 21.333-9.551 21.333-21.333v0z" />
<glyph unicode="&#xe914;" glyph-name="chat" d="M960-21.333c-5.85 0.074-11.122 2.491-14.931 6.355l-0.002 0.003-85.333 85.333c-23.267 23.095-55.286 37.4-90.646 37.504h-470.164c-47.128 0-85.333 38.205-85.333 85.333v0h512.384c0 0 0 0 0 0 94.167 0 170.521 76.264 170.666 170.397v340.665c46.797-0.435 84.565-38.472 84.565-85.33 0-0.001 0-0.003 0-0.004v0-618.923c0 0 0 0 0 0 0-11.737-9.478-21.26-21.198-21.333h-0.007zM64 150.357c-11.782 0-21.333 9.551-21.333 21.333v0 532.565c0.146 94.146 76.5 170.411 170.666 170.411 0 0 0 0 0 0h427.094c0 0 0 0 0 0 94.167 0 170.521-76.264 170.666-170.397v-255.673c-0.146-94.146-76.5-170.411-170.666-170.411h-386.688c-0.092 0-0.2 0-0.309 0-34.652 0-66.076-13.82-89.061-36.25l0.026 0.025-85.333-85.333c-3.852-3.864-9.176-6.259-15.059-6.272h-0.003z" />
<glyph unicode="&#xe915;" glyph-name="clap" d="M401.067-21.163h-2.133c-0.059 0-0.129 0-0.199 0-35.195 0-67.037 14.358-89.988 37.536l-0.010 0.010-57.856 57.6c-23.386 25.147-37.738 58.973-37.738 96.15 0 2.589 0.070 5.161 0.207 7.716l-0.015-0.356v174.933c2.793 45.015 15.873 86.437 36.896 122.678l-0.714-1.334c15.935 29.511 28.789 63.711 36.794 99.736l0.497 2.664 19.157 110.933c1.925 9.965 10.578 17.389 20.966 17.389 1.306 0 2.585-0.117 3.826-0.342l-0.13 0.020c29.921-5.258 52.42-30.883 52.778-61.829v-179.665l322.517 321.707c7.726 7.751 18.413 12.546 30.219 12.546 3.926 0 7.728-0.53 11.339-1.523l-0.3 0.070c18.4-5.097 31.683-21.693 31.683-41.392 0-11.825-4.786-22.531-12.527-30.288l-198.271-198.399c-3.898-3.867-6.31-9.225-6.31-15.147s2.413-11.28 6.309-15.145l0.001-0.001c3.862-3.872 9.203-6.267 15.104-6.267s11.242 2.396 15.104 6.267l225.92 226.56c7.657 7.892 18.36 12.792 30.206 12.8h0.002c0.048 0 0.105 0 0.162 0 23.564 0 42.667-19.103 42.667-42.667 0-11.844-4.826-22.56-12.618-30.291l-225.923-225.71c-3.899-3.866-6.313-9.224-6.315-15.146v0c0.165-11.656 9.652-21.041 21.331-21.041 5.713 0 10.901 2.245 14.73 5.902l-0.008-0.008 177.451 177.067c7.68 7.831 18.344 12.713 30.149 12.8h0.016c11.848-0.008 22.551-4.908 30.198-12.789l0.010-0.011c7.655-7.71 12.386-18.332 12.386-30.059s-4.731-22.349-12.388-30.061l0.002 0.002-175.317-176c-4.641-3.939-7.567-9.776-7.567-16.297 0-11.782 9.551-21.333 21.333-21.333 6.415 0 12.168 2.831 16.079 7.312l0.022 0.025 85.077 85.333h-2.133c7.727 7.757 18.418 12.556 30.229 12.556s22.502-4.8 30.228-12.555l0.001-0.001c7.703-7.776 12.462-18.479 12.462-30.293s-4.759-22.518-12.465-30.297l-220.84-220.968c-13.684-13.757-29.206-25.664-46.173-35.327l-1.059-0.555-131.328-73.387c-35.711-19.954-78.336-31.739-123.706-31.829h-0.027zM149.333 168.107v0l-26.709 26.368c-23.099 25.11-37.259 58.758-37.259 95.714 0 2.802 0.081 5.586 0.242 8.348l-0.018-0.382v174.933c2.733 44.462 15.711 85.368 36.58 121.101l-0.698-1.293c16.265 29.945 29.28 64.647 37.24 101.235l0.477 2.615 19.157 110.507c1.925 9.965 10.578 17.389 20.966 17.389 1.306 0 2.585-0.117 3.826-0.342l-0.13 0.020c25.657-3.684 46.158-22.223 52.677-46.488l0.102-0.445c0.618-2.628 0.972-5.646 0.972-8.747s-0.354-6.118-1.024-9.015l0.052 0.269-42.453-249.6c-38.992-41.129-63.218-96.595-63.998-157.713l-0.002-0.154v-174.933c-0.090-1.39-0.141-3.015-0.141-4.651s0.051-3.26 0.152-4.871l-0.011 0.22zM448 654.080v0c-3.461 31.827-18.125 59.703-39.905 80.060l-0.073 0.068 170.197 170.667c7.725 7.744 18.407 12.535 30.208 12.535s22.483-4.791 30.207-12.534l0.001-0.001c7.733-7.762 12.514-18.469 12.514-30.293s-4.781-22.532-12.516-30.295l0.001 0.001-190.635-190.165z" />
<glyph unicode="&#xe916;" glyph-name="clinic" d="M810.667 64h-597.333c-47.128 0-85.333 38.205-85.333 85.333v0 597.333c0 47.128 38.205 85.333 85.333 85.333v0h597.333c47.128 0 85.333-38.205 85.333-85.333v0-597.333c0-47.128-38.205-85.333-85.333-85.333v0zM277.333 533.333c-11.782 0-21.333-9.551-21.333-21.333v0-128c0-11.782 9.551-21.333 21.333-21.333v0h149.333v-149.333c0-11.782 9.551-21.333 21.333-21.333v0h128c11.782 0 21.333 9.551 21.333 21.333v0 149.333h149.333c11.782 0 21.333 9.551 21.333 21.333v0 128c0 11.782-9.551 21.333-21.333 21.333v0h-149.333v149.333c0 11.782-9.551 21.333-21.333 21.333v0h-128c-11.782 0-21.333-9.551-21.333-21.333v0-149.333z" />
<glyph unicode="&#xe917;" glyph-name="command_key" d="M746.667 64c-82.475 0-149.333 66.859-149.333 149.333v0 64h-170.667v-64c0-82.475-66.859-149.333-149.333-149.333s-149.333 66.859-149.333 149.333c0 82.475 66.859 149.333 149.333 149.333v0h64v170.667h-64c-82.475 0-149.333 66.859-149.333 149.333s66.859 149.333 149.333 149.333c82.475 0 149.333-66.859 149.333-149.333v0-64h170.667v64c0 82.475 66.859 149.333 149.333 149.333s149.333-66.859 149.333-149.333c0-82.475-66.859-149.333-149.333-149.333v0h-64v-170.667h64c82.475 0 149.333-66.859 149.333-149.333s-66.859-149.333-149.333-149.333v0zM682.667 277.333v-64c0-35.346 28.654-64 64-64s64 28.654 64 64c0 35.346-28.654 64-64 64v0zM277.333 277.333c-35.346 0-64-28.654-64-64s28.654-64 64-64c35.346 0 64 28.654 64 64v0 64zM426.667 533.333v-170.667h170.667v170.667zM746.667 746.667c-35.346 0-64-28.654-64-64v0-64h64c35.346 0 64 28.654 64 64s-28.654 64-64 64v0zM277.333 746.667c-35.346 0-64-28.654-64-64s28.654-64 64-64v0h64v64c0 35.346-28.654 64-64 64v0z" />
<glyph unicode="&#xe918;" glyph-name="communication-conference_call" d="M981.333 106.667h-938.667c-23.564 0-42.667 19.103-42.667 42.667v0 21.333c0 11.782 9.551 21.333 21.333 21.333v0h64v554.667c0 23.564 19.103 42.667 42.667 42.667v0h768c23.564 0 42.667-19.103 42.667-42.667v0-554.667h64c11.782 0 21.333-9.551 21.333-21.333v0-21.333c0-23.564-19.103-42.667-42.667-42.667v0zM416.853 405.333c-32.877-0.2-61.31-19.027-75.297-46.452l-0.223-0.482-39.253-77.227c-2.192-4.22-3.477-9.213-3.477-14.507 0-17.651 14.29-31.963 31.932-32h362.671c17.332 0.439 31.215 14.593 31.215 31.99 0 5.297-1.287 10.294-3.566 14.695l0.084-0.178-38.272 77.227c-14.21 27.906-42.643 46.733-75.493 46.933h-0.027zM511.573 672c-0.081 0-0.176 0-0.272 0-26.307 0-50.114-10.7-67.308-27.986l-0.004-0.004c-17.51-17.421-28.346-41.536-28.346-68.181 0-53.114 43.057-96.171 96.171-96.171s96.171 43.057 96.171 96.171c0 53.048-42.951 96.064-95.974 96.17h-0.010z" />
<glyph unicode="&#xe919;" glyph-name="communication-send" d="M894.592 791.509l-255.531-713.472c-3.064-8.248-10.861-14.021-20.009-14.037h-6.829c-8.59 0.008-16.011 5.002-19.527 12.244l-0.057 0.129-100.523 212.949c-5.118 10.634-8.108 23.12-8.108 36.305 0 22.335 8.581 42.665 22.625 57.875l127.734 139.675c3.635 3.818 5.872 8.997 5.872 14.699s-2.237 10.88-5.88 14.707l0.008-0.009-16.171 16.171c-3.818 3.635-8.997 5.872-14.699 5.872s-10.88-2.237-14.707-5.88l0.009 0.008-139.691-127.787c-15.136-13.924-35.418-22.46-57.695-22.46-13.233 0-25.762 3.012-36.94 8.388l0.512-0.222-212.949 100.352c-8.089 3.075-13.796 10.623-14.122 19.545l-0.001 0.039v6.784c-0.041 0.497-0.065 1.075-0.065 1.659 0 9.22 5.849 17.074 14.039 20.054l0.148 0.047 713.387 255.531c2.178 0.821 4.695 1.296 7.323 1.296 5.761 0 10.989-2.284 14.827-5.995l11.087-11.087c4.45-3.929 7.242-9.647 7.242-16.017 0-2.644-0.481-5.175-1.36-7.511l0.049 0.147z" />
<glyph unicode="&#xe91a;" glyph-name="conference_call" d="M981.333 106.667h-938.667c-23.564 0-42.667 19.103-42.667 42.667v0 21.333c0 11.782 9.551 21.333 21.333 21.333v0h64v554.667c0 23.564 19.103 42.667 42.667 42.667v0h768c23.564 0 42.667-19.103 42.667-42.667v0-554.667h64c11.782 0 21.333-9.551 21.333-21.333v0-21.333c0-23.564-19.103-42.667-42.667-42.667v0zM416.853 405.333c-32.877-0.2-61.31-19.027-75.297-46.452l-0.223-0.482-39.253-77.227c-2.192-4.22-3.477-9.213-3.477-14.507 0-17.651 14.29-31.963 31.932-32h362.671c17.332 0.439 31.215 14.593 31.215 31.99 0 5.297-1.287 10.294-3.566 14.695l0.084-0.178-38.272 77.227c-14.21 27.906-42.643 46.733-75.493 46.933h-0.027zM511.573 672c-0.081 0-0.176 0-0.272 0-26.307 0-50.114-10.7-67.308-27.986l-0.004-0.004c-17.51-17.421-28.346-41.536-28.346-68.181 0-53.114 43.057-96.171 96.171-96.171s96.171 43.057 96.171 96.171c0 53.048-42.951 96.064-95.974 96.17h-0.010z" />
<glyph unicode="&#xe91b;" glyph-name="credit_card_outlined" d="M853.333 106.667h-682.667c-47.128 0-85.333 38.205-85.333 85.333v0 512c0 47.128 38.205 85.333 85.333 85.333v0h682.667c47.128 0 85.333-38.205 85.333-85.333v0-512c0-47.128-38.205-85.333-85.333-85.333v0zM170.667 448v-256h682.667v256zM170.667 704v-128h682.667v128zM405.333 277.333h-128c-11.782 0-21.333 9.551-21.333 21.333v0 42.667c0 11.782 9.551 21.333 21.333 21.333v0h128c11.782 0 21.333-9.551 21.333-21.333v0-42.667c0-11.782-9.551-21.333-21.333-21.333v0z" />
<glyph unicode="&#xe91c;" glyph-name="delete" d="M335.573 21.333c-44.975 0.131-81.78 34.931-85.103 79.074l-0.017 0.286-37.12 517.973h597.333l-36.267-517.973c-3.34-44.429-40.145-79.229-85.107-79.36h-353.72zM832 704h-640c-11.782 0-21.333 9.551-21.333 21.333v0 42.667c0 11.782 9.551 21.333 21.333 21.333v0h192v42.667c0 23.564 19.103 42.667 42.667 42.667v0h170.667c23.564 0 42.667-19.103 42.667-42.667v0-42.667h192c11.782 0 21.333-9.551 21.333-21.333v0-42.667c0-11.782-9.551-21.333-21.333-21.333v0z" />
<glyph unicode="&#xe91d;" glyph-name="devices-apple_watch" d="M610.688-21.333h-184.576c-21.151 0.003-38.707 15.396-42.078 35.591l-0.034 0.249-25.173 137.387c-58.955 12.29-102.641 63.736-102.827 125.42v341.353c0 0.086 0 0.189 0 0.291 0 60.312 41.866 110.845 98.122 124.123l0.865 0.172 22.613 138.24c3.405 20.444 20.961 35.837 42.112 35.84h184.107c0.011 0 0.024 0 0.038 0 21.154 0 38.712-15.394 42.083-35.591l0.034-0.249 23.040-138.24c57.123-13.467 98.987-64.009 98.987-124.329 0-0.090 0-0.181 0-0.271v0.014-341.333c0-0.003 0-0.007 0-0.011 0-58.025-38.443-107.071-91.25-123.058l-0.91-0.237-23.040-139.52c-3.405-20.444-20.961-35.837-42.112-35.84v0zM384 661.333c-23.564 0-42.667-19.103-42.667-42.667v0-341.333c0-23.564 19.103-42.667 42.667-42.667v0h256c23.564 0 42.667 19.103 42.667 42.667v0 341.333c0 23.564-19.103 42.667-42.667 42.667v0z" />
<glyph unicode="&#xe91e;" glyph-name="devices-iphone" d="M682.667-21.333h-341.333c-70.692 0-128 57.308-128 128v0 682.667c0 70.692 57.308 128 128 128v0h341.333c70.692 0 128-57.308 128-128v0-682.667c0-70.692-57.308-128-128-128v0zM341.333 832c-23.564 0-42.667-19.103-42.667-42.667v0-682.667c0-23.564 19.103-42.667 42.667-42.667v0h341.333c23.564 0 42.667 19.103 42.667 42.667v0 682.667c0 23.564-19.103 42.667-42.667 42.667s-42.667-19.103-42.667-42.667v0c0-23.564-19.103-42.667-42.667-42.667v0h-170.667c-23.564 0-42.667 19.103-42.667 42.667v0c0 23.564-19.103 42.667-42.667 42.667v0z" />
<glyph unicode="&#xe91f;" glyph-name="direction" d="M515.84-21.333h-7.68c-11.649 0.090-22.181 4.797-29.872 12.378l-423.248 423.248c-7.629 7.653-12.352 18.206-12.373 29.863v7.684c0.090 11.649 4.797 22.181 12.378 29.872l423.248 423.248c7.686 7.577 18.218 12.284 29.849 12.373h7.697c11.661-0.021 22.214-4.744 29.868-12.374l423.252-423.252c7.577-7.686 12.284-18.218 12.373-29.849v-7.697c-0.021-11.661-4.744-22.214-12.374-29.868l-423.252-423.252c-7.653-7.629-18.206-12.352-29.863-12.373h-0.004zM341.333 533.333c-23.564 0-42.667-19.103-42.667-42.667v0-149.333c0-11.782 9.551-21.333 21.333-21.333v0h42.667c11.782 0 21.333 9.551 21.333 21.333v0 106.667h213.333v-85.333c0-0.038 0-0.084 0-0.129 0-11.782 9.551-21.333 21.333-21.333 6.029 0 11.474 2.501 15.354 6.523l128.006 128.006c3.539 3.863 5.707 9.031 5.707 14.706 0 5.894-2.339 11.242-6.139 15.166l-127.994 127.994c-3.845 3.771-9.117 6.098-14.933 6.098-2.94 0-5.741-0.595-8.29-1.671l0.14 0.053c-7.713-3.248-13.056-10.691-13.184-19.397v-85.349z" />
<glyph unicode="&#xe920;" glyph-name="document_outlined" d="M544.427 21.333h-288.427c-47.128 0-85.333 38.205-85.333 85.333v0 682.667c0 47.128 38.205 85.333 85.333 85.333v0h512c47.128 0 85.333-38.205 85.333-85.333v0-459.093c0-0.072 0-0.157 0-0.242 0-35.263-14.355-67.173-37.54-90.205l-180.914-180.914c-23.046-23.192-54.961-37.547-90.229-37.547-0.079 0-0.157 0-0.236 0h0.012zM256 789.333v-682.667h256v213.333c0 23.564 19.103 42.667 42.667 42.667v0h213.333v426.667z" />
<glyph unicode="&#xe921;" glyph-name="drink_outlined" d="M661.333 21.333h-298.667c-11.782 0-21.333 9.551-21.333 21.333v0 42.667c0 11.782 9.551 21.333 21.333 21.333v0h106.667v341.333l-273.493 273.493c-15.5 15.517-25.107 36.923-25.173 60.574v49.933c0 23.564 19.103 42.667 42.667 42.667v0h597.333c23.564 0 42.667-19.103 42.667-42.667v0-49.92c-0.066-23.663-9.673-45.070-25.174-60.587l-273.492-273.492v-341.333h106.667c11.782 0 21.333-9.551 21.333-21.333v0-42.667c0-11.782-9.551-21.333-21.333-21.333v0zM256 789.333v-7.253l120.747-120.747h270.507l120.747 120.747v7.253z" />
<glyph unicode="&#xe922;" glyph-name="earth_west" d="M512 21.333c-235.641 0-426.667 191.025-426.667 426.667s191.025 426.667 426.667 426.667c235.641 0 426.667-191.025 426.667-426.667v0c-0.267-235.534-191.133-426.4-426.641-426.667h-0.025zM216.747 618.667c-29.478-49.298-46.908-108.744-46.908-172.262 0-187.641 152.113-339.755 339.755-339.755 15.894 0 31.534 1.091 46.848 3.203l-1.774-0.2v146.347c0.011 0.255 0.018 0.554 0.018 0.854 0 11.257-9.082 20.393-20.319 20.479h-0.605c-0.037 0-0.081 0-0.125 0-5.818 0-11.092 2.329-14.94 6.105l0.003-0.003c-4.007 3.869-6.543 9.24-6.698 15.203l-0.001 0.029v64h64c11.782 0 21.333-9.551 21.333-21.333v0c0-11.782 9.551-21.333 21.333-21.333v0h42.667c11.782 0 21.333-9.551 21.333-21.333v0c0-11.782 9.551-21.333 21.333-21.333v0h21.333c23.564 0 42.667-19.103 42.667-42.667v0-11.52c49.582 58.86 79.711 135.527 79.711 219.231 0 188.513-152.82 341.333-341.333 341.333-83.704 0-160.371-30.129-219.747-80.135l0.516 0.423h288.853c11.782 0 21.333-9.551 21.333-21.333v0-42.667c0-11.782-9.551-21.333-21.333-21.333v0h-21.333c-23.564 0-42.667-19.103-42.667-42.667v0-42.667c0-23.564-19.103-42.667-42.667-42.667v0h-21.333c-11.782 0-21.333-9.551-21.333-21.333s9.551-21.333 21.333-21.333v0h42.667c11.782 0 21.333-9.551 21.333-21.333v0-64h-128c-23.564 0-42.667 19.103-42.667 42.667v0 21.333c0 11.782-9.551 21.333-21.333 21.333v0h-21.333c-23.564 0-42.667 19.103-42.667 42.667v0 106.667c0 11.782-9.551 21.333-21.333 21.333v0z" />
<glyph unicode="&#xe923;" glyph-name="email" d="M853.333 106.667h-682.667c-47.128 0-85.333 38.205-85.333 85.333v0 512c0 47.128 38.205 85.333 85.333 85.333v0h682.667c47.128 0 85.333-38.205 85.333-85.333v0-512c0-47.128-38.205-85.333-85.333-85.333v0zM170.667 580.267v-89.6l270.933-189.867c19.62-13.879 44.040-22.185 70.4-22.185s50.78 8.306 70.785 22.443l-0.385-0.258 270.933 189.867v89.6l-313.6-219.733c-7.742-5.427-17.359-8.672-27.733-8.672s-19.991 3.245-27.89 8.776l0.157-0.104z" />
<glyph unicode="&#xe924;" glyph-name="flash_off" d="M444.971 21.333h-8.533c-6.217 0.006-11.822 2.625-15.777 6.816l-0.010 0.011c-3.491 3.733-5.635 8.763-5.635 14.295 0 0.676 0.032 1.344 0.094 2.003l-0.006-0.084 24.747 275.328h-152.32c-11.802 0.177-22.066 6.6-27.65 16.103l-0.083 0.153-3.84 8.533c-2.716 4.725-4.317 10.389-4.317 16.427s1.602 11.702 4.404 16.59l-0.086-0.163 104.533 170.667-183.467 182.4c-3.972 3.751-6.445 9.053-6.445 14.933s2.473 11.182 6.435 14.924l0.010 0.009 22.613 22.613c3.751 3.972 9.053 6.445 14.933 6.445s11.182-2.473 14.924-6.435l0.009-0.010 617.387-617.685c3.972-3.751 6.445-9.053 6.445-14.933s-2.473-11.182-6.435-14.924l-0.010-0.009-22.613-22.613c-3.74-3.995-9.046-6.485-14.933-6.485s-11.193 2.489-14.923 6.473l-170.678 170.678-151.467-246.699c-5.727-9.247-15.803-15.324-27.301-15.36h-0.005zM704.384 413.611v0l-264.064 264.789 110.933 180.907c5.727 9.247 15.803 15.324 27.301 15.36h8.538c6.214-0.023 11.814-2.637 15.777-6.817l0.009-0.010c3.491-3.733 5.635-8.763 5.635-14.295 0-0.676-0.032-1.344-0.094-2.003l0.006 0.084-24.363-275.627h152.32c0.036 0 0.078 0 0.12 0 11.378 0 21.379-5.899 27.11-14.806l0.077-0.128 5.12-8.533c2.716-4.725 4.317-10.389 4.317-16.427s-1.602-11.702-4.404-16.59l0.086 0.163-64.384-105.813z" />
<glyph unicode="&#xe925;" glyph-name="folder" d="M853.333 704h-238.507c-11.656 0.051-22.2 4.767-29.869 12.376l-60.584 60.584c-7.667 7.606-18.211 12.323-29.857 12.373h-323.85c-47.128 0-85.333-38.205-85.333-85.333v0-512c0-47.128 38.205-85.333 85.333-85.333v0h682.667c47.128 0 85.333 38.205 85.333 85.333v0 426.667c0 47.128-38.205 85.333-85.333 85.333v0z" />
<glyph unicode="&#xe926;" glyph-name="gas_station" d="M789.333 106.752c-58.91 0-106.667 47.756-106.667 106.667v0 192c0 11.782-9.551 21.333-21.333 21.333v0h-64v-277.333c0-23.564-19.103-42.667-42.667-42.667v0h-341.333c-23.564 0-42.667 19.103-42.667 42.667v0 597.333c0 47.128 38.205 85.333 85.333 85.333v0h256c47.128 0 85.333-38.205 85.333-85.333v0-256h64c47.128 0 85.333-38.205 85.333-85.333v0-192c0-23.564 19.103-42.667 42.667-42.667s42.667 19.103 42.667 42.667v0 264.875l-66.56 66.987c-11.553 11.576-18.715 27.538-18.773 45.173v101.216l-88.747 88.747c-3.816 3.904-6.171 9.25-6.171 15.147s2.355 11.243 6.175 15.151l-0.004-0.004 15.36 14.933c3.751 3.972 9.053 6.445 14.933 6.445s11.182-2.473 14.924-6.435l0.009-0.010 174.080-173.696c11.564-11.729 18.722-27.829 18.773-45.601v-392.927c0-58.91-47.756-106.667-106.667-106.667v0zM256 746.752v-170.667h256v170.667z" />
<glyph unicode="&#xe927;" glyph-name="gesturesemotions-thumbs_down" d="M368.64 64h-5.973c-0.002 0-0.004 0-0.006 0-35.346 0-64 28.654-64 64 0 0.3 0.002 0.6 0.006 0.899v-0.045 15.787c-0.044 1.47-0.069 3.2-0.069 4.935 0 29.338 7.123 57.012 19.734 81.388l-0.465-0.989 66.133 132.693h-213.333c-47.128 0-85.333 38.205-85.333 85.333v0 121.173c0.042 34.28 6.777 66.976 18.967 96.867l-0.621-1.72 45.653 113.92c12.771 31.728 43.279 53.724 78.929 53.76h266.244c0.090 0 0.196 0 0.302 0 40.075 0 76.34-16.312 102.517-42.659l0.008-0.008c26.367-26.246 62.682-42.517 102.798-42.667h25.202v-339.2h-38.4c-0.072 0-0.157 0-0.242 0-30.286 0-56.865-15.873-71.871-39.754l-0.207-0.353-52.053-85.333c-19.251-30.531-47.004-54.16-79.928-67.847l-1.138-0.419-18.347-7.253c-23.086-9.544-40.741-28.245-48.675-51.453l-0.178-0.601-25.6-75.947c-2.918-8.456-10.778-14.436-20.045-14.507h-0.009zM917.333 362.667h-85.333c-11.782 0-21.333 9.551-21.333 21.333v0 384c0 11.782 9.551 21.333 21.333 21.333v0h85.333c11.782 0 21.333-9.551 21.333-21.333v0-384c0-11.782-9.551-21.333-21.333-21.333v0z" />
<glyph unicode="&#xe928;" glyph-name="gesturesemotions-thumbs_up" d="M795.733 64h-266.24c-0.084 0-0.184 0-0.284 0-40.080 0-76.351 16.312-102.535 42.66l-0.007 0.007c-26 25.107-61.447 40.576-100.508 40.576-0.095 0-0.19 0-0.286 0h-27.206v341.333h38.144c0.092 0 0.201-0.001 0.311-0.001 30.269 0 56.834 15.855 71.845 39.713l0.207 0.352 52.053 85.333c19.264 30.52 47.012 54.144 79.928 67.846l1.139 0.42 18.347 7.253c23.172 9.495 40.909 28.207 48.888 51.453l0.179 0.6 25.6 75.947c2.918 8.456 10.778 14.436 20.045 14.507h5.982c35.346 0 64-28.654 64-64v0-16.64c0.042-1.438 0.066-3.131 0.066-4.829 0-29.374-7.122-57.084-19.732-81.499l0.467 0.994-66.133-132.693h213.333c47.128 0 85.333-38.205 85.333-85.333v0-121.173c-0.027-34.264-6.763-66.948-18.966-96.818l0.619 1.714-45.653-113.963c-12.79-31.713-43.287-53.699-78.926-53.76h-0.008zM192 106.667h-85.333c-11.782 0-21.333 9.551-21.333 21.333v0 384c0 11.782 9.551 21.333 21.333 21.333v0h85.333c11.782 0 21.333-9.551 21.333-21.333v0-384c0-11.782-9.551-21.333-21.333-21.333v0z" />
<glyph unicode="&#xe929;" glyph-name="glove" d="M926.293 504.32c7.753 7.753 12.548 18.463 12.548 30.293 0 23.661-19.181 42.841-42.841 42.841-11.83 0-22.541-4.795-30.293-12.548l-85.333-85.333c-3.689-3.132-8.505-5.036-13.766-5.036-11.782 0-21.333 9.551-21.333 21.333 0 5.368 1.982 10.272 5.255 14.021l-0.022-0.025 133.12 133.12c7.662 7.715 12.397 18.344 12.397 30.080 0 23.577-19.113 42.691-42.691 42.691-11.842 0-22.557-4.821-30.291-12.608l-133.122-133.122c-3.689-3.132-8.505-5.036-13.766-5.036-11.782 0-21.333 9.551-21.333 21.333 0 5.368 1.982 10.272 5.255 14.021l-0.022-0.025 183.893 183.893c7.662 7.715 12.397 18.344 12.397 30.080 0 23.577-19.113 42.691-42.691 42.691-11.842 0-22.557-4.821-30.291-12.608l-0.002-0.002-183.893-182.869c-3.876-3.876-9.232-6.274-15.147-6.274-11.83 0-21.421 9.59-21.421 21.421 0 5.915 2.398 11.27 6.274 15.147v0l156.16 152.576c7.753 7.753 12.548 18.463 12.548 30.293 0 23.661-19.181 42.841-42.841 42.841-11.83 0-22.541-4.795-30.293-12.548v0l-238.080-236.373v179.627c-0.618 30.83-23.089 56.233-52.526 61.385l-0.381 0.055c-1.136 0.215-2.443 0.337-3.778 0.337-10.393 0-19.050-7.431-20.947-17.27l-0.022-0.134-19.2-110.507c-15.36-87.040-73.813-142.507-73.813-223.573v-56.32c-0.298-38.692-17.717-73.257-45.046-96.533l-0.18-0.15-110.507-94.464c-9.173-7.873-14.948-19.48-14.948-32.436 0-0.387 0.005-0.772 0.015-1.157l-0.001 0.057v-26.027c0-0.026 0-0.058 0-0.089 0-16.394 9.246-30.628 22.807-37.773l0.233-0.112c21.531-6.279 40.119-16.861 55.59-30.83l-0.124 0.11c31.573-32 16.64-46.933 48.213-78.507s46.933-16.64 78.507-48.64c13.925-15.172 24.519-33.634 30.478-54.072l0.242-0.968c7.257-13.795 21.491-23.040 37.885-23.040 0.031 0 0.062 0 0.094 0h24.742c11.656 0.051 22.2 4.767 29.869 12.376l511.997 511.997z" />
<glyph unicode="&#xe92a;" glyph-name="group_senior" d="M896.128 149.333h-135.168c4.537 12.613 7.16 27.166 7.16 42.332 0 20.961-5.010 40.751-13.897 58.24l0.338-0.732-56.789 113.493h81.536c0.129 0 0.281 0.001 0.433 0.001 49.576 0 92.537-28.326 113.579-69.677l0.334-0.723 40.533-81.067c2.92-5.601 4.633-12.233 4.633-19.264 0-8.254-2.36-15.957-6.443-22.471l0.104 0.177c-7.691-12.218-21.077-20.235-36.341-20.309h-0.011zM640.128 149.333h-512c-23.518 0.061-42.559 19.14-42.559 42.667 0 7.019 1.695 13.642 4.698 19.482l-0.112-0.24 61.44 123.307c21.306 42.285 64.377 70.784 114.104 70.784 0.1 0 0.201 0 0.301 0h236.187c0.132 0 0.288 0.001 0.445 0.001 49.729 0 92.797-28.521 113.739-70.097l0.333-0.73 61.483-123.307c2.877-5.59 4.564-12.198 4.564-19.2 0-23.549-19.078-42.642-42.62-42.667h-0.002zM704.128 448c-58.91 0-106.667 47.756-106.667 106.667s47.756 106.667 106.667 106.667c58.91 0 106.667-47.756 106.667-106.667v0c0-58.91-47.756-106.667-106.667-106.667v0zM384.128 490.667c-70.692 0-128 57.308-128 128s57.308 128 128 128c70.692 0 128-57.308 128-128v0c0-70.692-57.308-128-128-128v0z" />
<glyph unicode="&#xe92b;" glyph-name="hand_basic" d="M896 725.333v-422.827c0.001-0.304 0.002-0.665 0.002-1.025 0-46.713-12.511-90.503-34.366-128.203l0.657 1.228-112.213-195.84c-15.029-25.687-42.482-42.667-73.901-42.667-0.119 0-0.238 0-0.357 0.001h-228.675c-42.668 0.507-81.484 16.594-111.113 42.823l0.18-0.157-176.213 149.333c-45.823 39.362-74.667 97.372-74.667 162.119 0 0.005 0 0.010 0 0.015v-0.001 243.2c0 0.051 0 0.112 0 0.173 0 22.212 16.974 40.46 38.658 42.481l0.169 0.013c1.146 0.055 2.489 0.086 3.84 0.086 47.128 0 85.333-38.205 85.333-85.333 0-0.030 0-0.061 0-0.091v0.005-113.067c0.017-25.681 11.375-48.706 29.337-64.339l0.103-0.088 13.227-11.52v551.68c0 35.346 28.654 64 64 64s64-28.654 64-64v0-341.333c0-11.782 9.551-21.333 21.333-21.333s21.333 9.551 21.333 21.333v0 384c0 35.346 28.654 64 64 64s64-28.654 64-64v0-384c0-11.782 9.551-21.333 21.333-21.333s21.333 9.551 21.333 21.333v0 341.333c0 35.346 28.654 64 64 64s64-28.654 64-64v0-341.333c0-11.782 9.551-21.333 21.333-21.333s21.333 9.551 21.333 21.333v0 213.333c0 35.346 28.654 64 64 64s64-28.654 64-64v0z" />
<glyph unicode="&#xe92c;" glyph-name="hand_disinfection" d="M276.267 21.333c-11.667 0.028-22.222 4.768-29.867 12.416v0l-106.027 105.728c-7.668 7.712-12.407 18.343-12.407 30.080s4.74 22.368 12.409 30.082l-0.002-0.002 120.789 124.16c25.278 24.369 59.72 39.382 97.668 39.382 0.164 0 0.327 0 0.491-0.001h-0.025c4.267 0 8.533 0 12.544-0.555h202.112c33.508-0.279 61.154-25.025 65.96-57.231l0.045-0.369c0.249-2.119 0.391-4.573 0.391-7.061 0-32.006-23.494-58.525-54.177-63.251l-0.358-0.045h-180.523c-11.782 0-21.333-9.551-21.333-21.333s9.551-21.333 21.333-21.333v0h170.667c0.119 0 0.259-0.001 0.399-0.001 57.492 0 104.326 45.63 106.263 102.65l0.005 0.177 140.373 140.8c7.733 7.795 18.45 12.621 30.293 12.621s22.56-4.826 30.291-12.618l0.003-0.003c7.782-7.731 12.599-18.439 12.599-30.272s-4.817-22.541-12.597-30.27l-237.229-237.229c-19.293-19.246-45.922-31.147-75.329-31.147-0.067 0-0.134 0-0.201 0h-174.070c-11.661-0.021-22.214-4.744-29.868-12.374l-60.586-60.586c-7.668-7.671-18.263-12.416-29.965-12.416-0.025 0-0.051 0-0.076 0h0.004zM639.957 448c-0.063 0-0.137 0-0.212 0-23.496 0-44.76 9.558-60.115 24.999l-0.004 0.004c-15.406 15.463-24.947 36.777-25.003 60.32v0.011c15.555 51.833 45.366 95.447 84.863 127.629l0.47 0.371c39.605-32.852 69.314-76.351 84.826-126.112l0.507-1.888c0-47.128-38.205-85.333-85.333-85.333v0zM362.624 618.667c-58.91 0-106.667 47.756-106.667 106.667v0c0 36.608 49.664 92.928 82.517 130.219 4.267 4.992 8.533 9.685 12.245 13.995 2.515 3.132 6.344 5.12 10.638 5.12 0.025 0 0.050 0 0.075 0h2.897c3.856-0.076 7.319-1.695 9.81-4.263l0.003-0.004 6.869-7.637c33.024-36.821 88.277-98.432 88.277-137.429 0-58.91-47.756-106.667-106.667-106.667v0z" />
<glyph unicode="&#xe92d;" glyph-name="hand_piece" d="M490.24-63.957c-35.333 0.032-67.31 14.375-90.452 37.545l-154.454 154.454c-45.823 39.362-74.667 97.372-74.667 162.119 0 0.005 0 0.010 0 0.015v-0.001 72.533c0 47.128 38.205 85.333 85.333 85.333v0 0-70.4c0.017-25.681 11.375-48.706 29.337-64.339l0.103-0.088 13.227-13.227v200.917l-57.173 325.12c-1.065 4.372-1.676 9.39-1.676 14.552 0 35.346 28.654 64 64 64 32.655 0 59.599-24.457 63.512-56.054l0.031-0.311 60.16-341.333c1.697-9.986 10.285-17.495 20.626-17.495 0.099 0 0.197 0.001 0.295 0.002h-0.015c10.047 0.071 18.369 7.365 20.036 16.944l0.018 0.122 60.16 341.333c3.944 31.908 30.888 56.365 63.543 56.365 35.346 0 64-28.654 64-64 0-5.162-0.611-10.18-1.765-14.988l0.088 0.436-36.693-206.891c31.789-2.294 60.029-15.873 81.078-36.704l116.896-116.896c23.198-23.169 37.549-55.193 37.549-90.568 0-0.26-0.001-0.519-0.002-0.778v0.040-71.253c0.001-0.304 0.002-0.665 0.002-1.025 0-46.713-12.511-90.503-34.366-128.203l0.657 1.228-112.213-195.84c-15.029-25.687-42.482-42.667-73.901-42.667-0.119 0-0.238 0-0.357 0.001h0.018z" />
<glyph unicode="&#xe92e;" glyph-name="healthmedical-quarantine" d="M810.667 64h-597.333c-23.564 0-42.667 19.103-42.667 42.667v0 298.667h-64c-11.782 0-21.333 9.551-21.333 21.333v0 46.507c0.016 11.661 4.741 22.216 12.374 29.867l316.586 316.586c7.651 7.633 18.205 12.357 29.864 12.373h135.683c11.649-0.090 22.181-4.797 29.872-12.378l316.582-316.582c7.633-7.651 12.357-18.205 12.373-29.864v-46.51c0-11.782-9.551-21.333-21.333-21.333v0h-64v-298.667c0-23.564-19.103-42.667-42.667-42.667v0zM416.853 362.667c-32.88-0.19-61.317-19.021-75.297-46.451l-0.223-0.482-39.253-77.227c-2.192-4.22-3.477-9.213-3.477-14.507 0-17.673 14.327-32 32-32 0.022 0 0.045 0 0.067 0h362.664c17.351 0.415 31.257 14.579 31.257 31.991 0 5.297-1.287 10.293-3.565 14.694l0.084-0.178-38.443 77.227c-14.217 27.9-42.646 46.723-75.491 46.933h-0.029zM511.573 629.333c-0.081 0-0.176 0-0.272 0-26.307 0-50.114-10.7-67.308-27.986l-0.004-0.004c-17.51-17.421-28.346-41.536-28.346-68.181 0-53.114 43.057-96.171 96.171-96.171s96.171 43.057 96.171 96.171c0 53.048-42.951 96.064-95.974 96.17h-0.010z" />
<glyph unicode="&#xe92f;" glyph-name="inbox" d="M853.333 106.667h-682.667c-47.128 0-85.333 38.205-85.333 85.333v0 512c0 47.128 38.205 85.333 85.333 85.333v0h682.667c47.128 0 85.333-38.205 85.333-85.333v0-512c0-47.128-38.205-85.333-85.333-85.333v0zM170.667 704v-341.333h160.427c27.627-0.080 51.129-17.653 60.019-42.221l0.141-0.446c18.049-50.24 65.277-85.524 120.747-85.524s102.698 35.283 120.466 84.631l0.281 0.892c9.026 25.001 32.507 42.568 60.105 42.667h160.481v341.333z" />
<glyph unicode="&#xe930;" glyph-name="instagram" d="M682.667 64h-341.333c-117.762 0.146-213.188 95.571-213.333 213.319v341.347c0.146 117.762 95.571 213.188 213.319 213.333h341.348c117.762-0.146 213.188-95.571 213.333-213.319v-341.347c-0.146-117.762-95.571-213.188-213.319-213.333h-0.014zM341.333 757.333c-76.38-0.504-138.162-62.287-138.666-138.619v-341.381c0.504-76.38 62.287-138.162 138.619-138.666h341.381c76.38 0.504 138.162 62.287 138.666 138.619v341.381c-0.504 76.38-62.287 138.162-138.619 138.666h-0.048zM512 256c-106.039 0-192 85.961-192 192s85.961 192 192 192v0h0.427c105.947-0.122 191.787-86.036 191.787-192 0-106.039-85.961-192-192-192-0.075 0-0.15 0-0.225 0h0.012zM512 565.333c-64.801 0-117.333-52.532-117.333-117.333s52.532-117.333 117.333-117.333c64.801 0 117.333 52.532 117.333 117.333v0c-0.097 64.762-52.571 117.236-117.324 117.333h-0.009zM714.667 608c-23.564 0-42.667 19.103-42.667 42.667s19.103 42.667 42.667 42.667c23.564 0 42.667-19.103 42.667-42.667v0c0-23.564-19.103-42.667-42.667-42.667v0z" />
<glyph unicode="&#xe931;" glyph-name="keyboard" d="M896 149.333h-768c-47.128 0-85.333 38.205-85.333 85.333v0 426.667c0 47.128 38.205 85.333 85.333 85.333v0h768c47.128 0 85.333-38.205 85.333-85.333v0-426.667c0-47.128-38.205-85.333-85.333-85.333v0zM320 320c-11.782 0-21.333-9.551-21.333-21.333v0-42.667c0-11.782 9.551-21.333 21.333-21.333v0h384c11.782 0 21.333 9.551 21.333 21.333v0 42.667c0 11.782-9.551 21.333-21.333 21.333v0zM832 490.667c-11.782 0-21.333-9.551-21.333-21.333v0-42.667c0-11.782 9.551-21.333 21.333-21.333v0h42.667c11.782 0 21.333 9.551 21.333 21.333v0 42.667c0 11.782-9.551 21.333-21.333 21.333v0zM661.333 490.667c-11.782 0-21.333-9.551-21.333-21.333v0-42.667c0-11.782 9.551-21.333 21.333-21.333v0h42.667c11.782 0 21.333 9.551 21.333 21.333v0 42.667c0 11.782-9.551 21.333-21.333 21.333v0zM490.667 490.667c-11.782 0-21.333-9.551-21.333-21.333v0-42.667c0-11.782 9.551-21.333 21.333-21.333v0h42.667c11.782 0 21.333 9.551 21.333 21.333v0 42.667c0 11.782-9.551 21.333-21.333 21.333v0zM320 490.667c-11.782 0-21.333-9.551-21.333-21.333v0-42.667c0-11.782 9.551-21.333 21.333-21.333v0h42.667c11.782 0 21.333 9.551 21.333 21.333v0 42.667c0 11.782-9.551 21.333-21.333 21.333v0zM149.333 490.667c-11.782 0-21.333-9.551-21.333-21.333v0-42.667c0-11.782 9.551-21.333 21.333-21.333v0h42.667c11.782 0 21.333 9.551 21.333 21.333v0 42.667c0 11.782-9.551 21.333-21.333 21.333v0zM832 661.333c-11.782 0-21.333-9.551-21.333-21.333v0-42.667c0-11.782 9.551-21.333 21.333-21.333v0h42.667c11.782 0 21.333 9.551 21.333 21.333v0 42.667c0 11.782-9.551 21.333-21.333 21.333v0zM661.333 661.333c-11.782 0-21.333-9.551-21.333-21.333v0-42.667c0-11.782 9.551-21.333 21.333-21.333v0h42.667c11.782 0 21.333 9.551 21.333 21.333v0 42.667c0 11.782-9.551 21.333-21.333 21.333v0zM490.667 661.333c-11.782 0-21.333-9.551-21.333-21.333v0-42.667c0-11.782 9.551-21.333 21.333-21.333v0h42.667c11.782 0 21.333 9.551 21.333 21.333v0 42.667c0 11.782-9.551 21.333-21.333 21.333v0zM320 661.333c-11.782 0-21.333-9.551-21.333-21.333v0-42.667c0-11.782 9.551-21.333 21.333-21.333v0h42.667c11.782 0 21.333 9.551 21.333 21.333v0 42.667c0 11.782-9.551 21.333-21.333 21.333v0zM149.333 661.333c-11.782 0-21.333-9.551-21.333-21.333v0-42.667c0-11.782 9.551-21.333 21.333-21.333v0h42.667c11.782 0 21.333 9.551 21.333 21.333v0 42.667c0 11.782-9.551 21.333-21.333 21.333v0z" />
<glyph unicode="&#xe932;" glyph-name="monitor" d="M704 21.333h-384c-11.782 0-21.333 9.551-21.333 21.333v0 42.667c0 11.782 9.551 21.333 21.333 21.333v0h64v85.333h-341.333c-23.564 0-42.667 19.103-42.667 42.667v0 597.333c0 23.564 19.103 42.667 42.667 42.667v0h938.667c23.564 0 42.667-19.103 42.667-42.667v0-597.333c0-23.564-19.103-42.667-42.667-42.667v0h-341.333v-85.333h64c11.782 0 21.333-9.551 21.333-21.333v0-42.667c0-11.782-9.551-21.333-21.333-21.333v0zM85.333 789.333v-512h853.333v512z" />
<glyph unicode="&#xe933;" glyph-name="museum" d="M874.667 64h-725.333c-11.782 0-21.333 9.551-21.333 21.333v0 42.667c0 11.782 9.551 21.333 21.333 21.333v0h725.333c11.782 0 21.333-9.551 21.333-21.333v0-42.667c0-11.782-9.551-21.333-21.333-21.333v0zM832 234.667h-640c-11.782 0-21.333 9.551-21.333 21.333v0 85.333c0 11.782 9.551 21.333 21.333 21.333v0h64v298.667h-64c-11.782 0-21.333 9.551-21.333 21.333v0 78.080c0.091 17.632 10.863 32.726 26.172 39.149l0.281 0.105 273.067 110.933c9.567 4.048 20.691 6.4 32.365 6.4 0.022 0 0.043 0 0.065 0h19.623c0.023 0 0.051 0 0.079 0 11.668 0 22.786-2.352 32.907-6.609l-0.559 0.209 272.213-110.933c15.59-6.527 26.363-21.621 26.453-39.242v-78.092c0-11.782-9.551-21.333-21.333-21.333v0h-64v-298.667h64c11.782 0 21.333-9.551 21.333-21.333v0-85.333c0-11.782-9.551-21.333-21.333-21.333v0zM554.667 661.333v-298.667h128v298.667zM341.333 661.333v-298.667h128v298.667z" />
<glyph unicode="&#xe934;" glyph-name="my_location" d="M533.333 21.333h-42.667c-11.782 0-21.333 9.551-21.333 21.333v0 66.987c-154.513 20.152-275.528 141.167-295.496 293.958l-0.184 1.722h-66.987c-11.782 0-21.333 9.551-21.333 21.333v0 42.667c0 11.782 9.551 21.333 21.333 21.333v0h66.987c20.152 154.513 141.167 275.528 293.958 295.496l1.722 0.184v66.987c0 11.782 9.551 21.333 21.333 21.333v0h42.667c11.782 0 21.333-9.551 21.333-21.333v0-66.987c154.513-20.152 275.528-141.167 295.496-293.958l0.184-1.722h66.987c11.782 0 21.333-9.551 21.333-21.333v0-42.667c0-11.782-9.551-21.333-21.333-21.333v0h-66.987c-20.152-154.513-141.167-275.528-293.958-295.496l-1.722-0.184v-66.987c0-11.782-9.551-21.333-21.333-21.333v0zM512 704c-141.385 0-256-114.615-256-256s114.615-256 256-256c141.385 0 256 114.615 256 256v0c-0.17 141.316-114.683 255.83-255.983 256h-0.017zM512 362.667c-47.128 0-85.333 38.205-85.333 85.333s38.205 85.333 85.333 85.333c47.128 0 85.333-38.205 85.333-85.333v0c0-47.128-38.205-85.333-85.333-85.333v0z" />
<glyph unicode="&#xe935;" glyph-name="pet" d="M725.333 64h-426.667c-47.128 0-85.333 38.205-85.333 85.333v0 7.253c0.066 23.663 9.673 45.070 25.174 60.587l68.692 68.692c22.068 21.922 40.72 47.247 55.109 75.129l0.784 1.671 40.107 80.64c14.138 28.281 42.878 47.361 76.074 47.361 0.105 0 0.21 0 0.315-0.001h64.837c33.482-0.058 62.407-19.505 76.152-47.711l0.221-0.503 40.107-79.787c15.173-29.553 33.825-54.878 55.877-76.784l68.709-68.709c15.5-15.517 25.107-36.923 25.173-60.574v-7.266c0-47.128-38.205-85.333-85.333-85.333v0zM810.667 362.667c-47.128 0-85.333 38.205-85.333 85.333v0 42.667c0 47.128 38.205 85.333 85.333 85.333s85.333-38.205 85.333-85.333v0-42.667c0-47.128-38.205-85.333-85.333-85.333v0zM213.333 362.667c-47.128 0-85.333 38.205-85.333 85.333v0 42.667c0 47.128 38.205 85.333 85.333 85.333s85.333-38.205 85.333-85.333v0-42.667c0-47.128-38.205-85.333-85.333-85.333v0zM640 576c-47.128 0-85.333 38.205-85.333 85.333v0 85.333c0 47.128 38.205 85.333 85.333 85.333s85.333-38.205 85.333-85.333v0-85.333c0-47.128-38.205-85.333-85.333-85.333v0zM384 576c-47.128 0-85.333 38.205-85.333 85.333v0 85.333c0 47.128 38.205 85.333 85.333 85.333s85.333-38.205 85.333-85.333v0-85.333c0-47.128-38.205-85.333-85.333-85.333v0z" />
<glyph unicode="&#xe936;" glyph-name="photo_landscape" d="M853.333 106.667h-682.667c-47.128 0-85.333 38.205-85.333 85.333v0 512c0 47.128 38.205 85.333 85.333 85.333v0h682.667c47.128 0 85.333-38.205 85.333-85.333v0-512c0-47.128-38.205-85.333-85.333-85.333v0zM356.523 448h-0.256c-6.055-0.662-11.304-3.663-14.902-8.067l-0.032-0.040-123.307-156.587c-2.943-3.413-4.736-7.89-4.736-12.786 0-0.005 0-0.010 0-0.015v0.001-14.507c0-11.782 9.551-21.333 21.333-21.333v0h554.667c11.782 0 21.333 9.551 21.333 21.333v0 14.507c-0.048 4.822-1.642 9.262-4.309 12.859l0.042-0.059-181.291 241.92c-4.021 5.051-10.169 8.261-17.067 8.261s-13.046-3.21-17.033-8.217l-0.034-0.044-122.88-158.72c-3.933-5.205-10.111-8.533-17.067-8.533v0c-0.013 0-0.028 0-0.043 0-6.505 0-12.315 2.977-16.141 7.643l-0.029 0.037-61.867 74.667c-3.939 4.705-9.814 7.677-16.384 7.68v0zM405.333 661.333c-35.346 0-64-28.654-64-64s28.654-64 64-64c35.346 0 64 28.654 64 64v0c0 35.346-28.654 64-64 64v0z" />
<glyph unicode="&#xe937;" glyph-name="pizza_outlined" d="M654.635 64h-4.651c-93.483 0-229.717 105.387-326.016 203.989-50.635 51.199-96.349 107.472-136.246 167.922l-2.548 4.11c-30.084 40.493-50.544 89.833-57.071 143.473l-0.145 1.466v2.987c-0.022 0.51-0.034 1.108-0.034 1.709 0 19.304 12.82 35.613 30.41 40.88l0.302 0.078 684.757 201.387h8.96c8.713-0.080 16.577-3.653 22.27-9.385l11.095-11.095c6.396-5.892 10.388-14.307 10.388-23.656 0-2.828-0.365-5.571-1.052-8.184l0.050 0.224-199.68-685.184c-5.325-17.842-21.552-30.641-40.78-30.72h-0.009zM558.891 658.773v0l-302.933-88.747c50.56-113.493 254.123-328.405 376.96-378.027l157.653 534.187-108.629-32c0.2-1.728 0.314-3.731 0.314-5.76s-0.114-4.032-0.337-6.002l0.022 0.242c-0.325-35.099-28.853-63.426-63.997-63.426-26.519 0-49.271 16.129-58.981 39.113l-0.158 0.42zM554.069 362.667c-47.128 0-85.333 38.205-85.333 85.333s38.205 85.333 85.333 85.333c47.128 0 85.333-38.205 85.333-85.333v0c0-47.128-38.205-85.333-85.333-85.333v0z" />
<glyph unicode="&#xe938;" glyph-name="poi" d="M528.341 21.333h-28.416c-18.681 0.015-34.551 12.032-40.315 28.756l-0.090 0.3-21.76 65.664c-24.344 56.653-63.792 102.923-113.304 134.97l-1.171 0.71c-75.008 59.435-152.619 121.003-152.619 281.6 0 188.513 152.82 341.333 341.333 341.333s341.333-152.82 341.333-341.333v0c0-160.256-76.416-221.867-150.357-281.6-50.096-32.783-88.925-79.084-111.749-133.735l-0.72-1.945-21.76-65.707c-5.869-17.006-21.735-29.005-40.404-29.013h-0.001zM512 661.333c-70.692 0-128-57.308-128-128s57.308-128 128-128c70.692 0 128 57.308 128 128v0c0 70.692-57.308 128-128 128v0z" />
<glyph unicode="&#xe939;" glyph-name="print" d="M725.333 64h-426.667c-47.128 0-85.333 38.205-85.333 85.333v0 170.667h-64c-11.782 0-21.333 9.551-21.333 21.333v0 234.667c0 47.128 38.205 85.333 85.333 85.333v0 85.333c0 47.128 38.205 85.333 85.333 85.333v0h426.667c47.128 0 85.333-38.205 85.333-85.333v0-85.333c47.128 0 85.333-38.205 85.333-85.333v0-234.667c0-11.782-9.551-21.333-21.333-21.333v0h-64v-170.667c0-47.128-38.205-85.333-85.333-85.333v0zM298.667 405.333v-256h426.667v256zM746.667 576c-11.782 0-21.333-9.551-21.333-21.333v0-42.667c0-11.782 9.551-21.333 21.333-21.333v0h42.667c11.782 0 21.333 9.551 21.333 21.333v0 42.667c0 11.782-9.551 21.333-21.333 21.333v0zM298.667 746.667v-85.333h426.667v85.333z" />
<glyph unicode="&#xe93a;" glyph-name="receipt_outlined" d="M291.243 21.333h-12.8c-5.78 0.018-10.988 2.454-14.668 6.348l-0.009 0.010-80.725 80.256c-7.532 7.871-12.218 18.52-12.373 30.263v693.79c0 23.564 19.103 42.667 42.667 42.667v0h597.333c23.564 0 42.667-19.103 42.667-42.667v0-695.467c-0.021-11.661-4.744-22.214-12.374-29.868l0.001 0.001-81.493-77.227c-3.67-3.94-8.886-6.397-14.677-6.4h-12.801c-5.788 0.020-10.999 2.473-14.667 6.389l-0.010 0.011-77.312 77.227c-3.61 3.665-8.516 6.045-13.974 6.397l-0.064 0.003c-5.861-0.056-11.142-2.496-14.928-6.395l-0.005-0.005-77.696-77.227c-3.658-3.934-8.858-6.39-14.633-6.4h-12.802c-5.788 0.020-10.999 2.473-14.667 6.389l-0.010 0.011-77.355 77.227c-3.827 3.848-9.085 6.27-14.909 6.4h-0.024c-5.856-0.086-11.127-2.518-14.93-6.397l-0.003-0.003-78.080-78.933c-3.675-3.932-8.888-6.386-14.675-6.4h-0.003zM367.36 192h61.867c11.661-0.021 22.214-4.744 29.868-12.374l52.906-52.906 55.040 52.907c7.653 7.629 18.206 12.352 29.863 12.373h60.164c11.661-0.016 22.216-4.741 29.867-12.374l21.332-21.332 31.573-31.147 28.16 28.16v634.027h-512v-633.173l29.013-29.013 52.48 52.48c7.686 7.577 18.218 12.284 29.849 12.373h0.017zM533.333 362.667h-170.667c-11.782 0-21.333 9.551-21.333 21.333v0 42.667c0 11.782 9.551 21.333 21.333 21.333v0h170.667c11.782 0 21.333-9.551 21.333-21.333v0-42.667c0-11.782-9.551-21.333-21.333-21.333v0zM661.333 533.333h-298.667c-11.782 0-21.333 9.551-21.333 21.333v0 42.667c0 11.782 9.551 21.333 21.333 21.333v0h298.667c11.782 0 21.333-9.551 21.333-21.333v0-42.667c0-11.782-9.551-21.333-21.333-21.333v0z" />
<glyph unicode="&#xe93b;" glyph-name="save" d="M810.667 64h-597.333c-47.128 0-85.333 38.205-85.333 85.333v0 597.333c0 47.128 38.205 85.333 85.333 85.333v0h476.587c23.666-0.051 45.077-9.662 60.587-25.173l120.32-120.32c15.512-15.509 25.122-36.921 25.173-60.577v-476.597c0-47.128-38.205-85.333-85.333-85.333v0zM320 490.667c-11.782 0-21.333-9.551-21.333-21.333v0-320h426.667v320c0 11.782-9.551 21.333-21.333 21.333v0zM384 746.667v-64c0-11.782 9.551-21.333 21.333-21.333v0h213.333c11.782 0 21.333 9.551 21.333 21.333v0 64zM618.667 234.667h-213.333c-11.782 0-21.333 9.551-21.333 21.333v0 42.667c0 11.782 9.551 21.333 21.333 21.333v0h213.333c11.782 0 21.333-9.551 21.333-21.333v0-42.667c0-11.782-9.551-21.333-21.333-21.333v0z" />
<glyph unicode="&#xe93c;" glyph-name="saving" d="M810.667 21.333h-597.333c-47.128 0-85.333 38.205-85.333 85.333v0 555.477c0 70.692 57.308 128 128 128v0h108.8c30.192 50.793 84.783 84.3 147.2 84.3s117.008-33.507 146.767-83.515l0.433-0.785h66.133c47.128 0 85.333-38.205 85.333-85.333v0h-128c-0.198-31.486-8.891-60.9-23.899-86.118l0.433 0.785h151.467c47.128 0 85.333-38.205 85.333-85.333v0-427.477c0-47.128-38.205-85.333-85.333-85.333v0zM512 448.512c-23.564 0-42.667-19.103-42.667-42.667v0-170.667c0-23.564 19.103-42.667 42.667-42.667v0h298.667v256zM512 790.272c-47.128 0-85.333-38.205-85.333-85.333s38.205-85.333 85.333-85.333c47.128 0 85.333 38.205 85.333 85.333v0c0 47.128-38.205 85.333-85.333 85.333v0zM256 704.939c-23.564 0-42.667-19.103-42.667-42.667s19.103-42.667 42.667-42.667v0h108.8c-14.576 24.433-23.269 53.848-23.466 85.277v0.056zM618.667 277.76h-42.667c-11.782 0-21.333 9.551-21.333 21.333v0 42.667c0 11.782 9.551 21.333 21.333 21.333v0h42.667c11.782 0 21.333-9.551 21.333-21.333v0-42.667c0-0.025 0-0.055 0-0.085 0-11.782-9.551-21.333-21.333-21.333 0 0 0 0 0 0v0z" />
<glyph unicode="&#xe93d;" glyph-name="settings" d="M562.901 21.333h-99.243c-21.176 0.010-38.744 15.445-42.078 35.678l-0.034 0.248-7.253 42.667c-4.659 27.236-21.576 49.749-44.758 61.982l-0.469 0.226c-12.204 5.93-22.547 12.035-32.352 18.86l0.779-0.513c-13.022 8.501-28.965 13.558-46.089 13.558-10.726 0-20.988-1.984-30.44-5.605l0.583 0.196-42.667-15.403c-4.41-1.687-9.511-2.664-14.839-2.664-15.595 0-29.237 8.367-36.679 20.857l-0.108 0.196-49.493 85.333c-3.533 6.079-5.619 13.378-5.619 21.164 0 13.373 6.152 25.308 15.78 33.131l0.079 0.062 34.133 28.203c18.895 15.878 30.82 39.522 30.82 65.951 0 1.46-0.036 2.911-0.108 4.353l0.008-0.203v36.779c0.064 1.244 0.101 2.701 0.101 4.167 0 26.411-11.927 50.036-30.689 65.784l-0.132 0.108-34.133 28.203c-9.707 7.885-15.859 19.821-15.859 33.193 0 7.786 2.086 15.085 5.729 21.369l-0.11-0.205 49.493 85.333c7.582 12.543 21.145 20.799 36.637 20.799 5.066 0 9.926-0.883 14.434-2.503l-0.298 0.093 42.667-15.403c8.875-3.419 19.143-5.4 29.874-5.4 17.112 0 33.047 5.037 46.404 13.708l-0.332-0.202c9.042 6.365 19.385 12.498 30.199 17.821l1.374 0.611c22.944 12.805 39.217 35.207 43.455 61.631l0.065 0.492 7.253 42.667c3.33 20.517 20.911 35.994 42.11 36.011h99.116c21.176-0.010 38.744-15.445 42.078-35.678l0.034-0.248 7.253-42.667c4.663-27.278 21.655-49.812 44.924-61.983l0.473-0.225c12.191-5.921 22.534-12.040 32.33-18.89l-0.756 0.501c13.026-8.47 28.961-13.507 46.073-13.507 10.731 0 20.999 1.981 30.459 5.596l-0.585-0.196 42.667 15.403c4.41 1.687 9.511 2.664 14.839 2.664 15.595 0 29.237-8.367 36.679-20.857l0.108-0.196 49.493-85.333c3.523-6.072 5.602-13.361 5.602-21.135 0-13.365-6.145-25.295-15.764-33.118l-0.078-0.062-34.133-28.203c-18.894-15.878-30.818-39.521-30.818-65.949 0-1.445 0.036-2.882 0.106-4.31l-0.008 0.201v-36.779c-0.062-1.222-0.097-2.653-0.097-4.093 0-26.446 11.923-50.107 30.687-65.901l0.131-0.107 34.133-28.203c9.697-7.885 15.842-19.815 15.842-33.18 0-7.774-2.079-15.063-5.712-21.34l0.11 0.205-49.493-85.333c-7.636-12.277-21.053-20.328-36.351-20.328-4.54 0-8.914 0.709-13.017 2.022l0.302-0.083-42.667 15.403c-8.869 3.424-19.131 5.408-29.857 5.408-17.124 0-33.067-5.057-46.417-13.758l0.328 0.2c-9.027-6.312-19.37-12.417-30.175-17.726l-1.398-0.621c-23.612-12.426-40.517-34.869-45.153-61.524l-0.074-0.514-7.211-42.667c-3.239-20.63-20.887-36.224-42.177-36.224-0.007 0-0.014 0-0.021 0h0.001zM512 576.256c-0.089 0-0.194 0-0.299 0-70.857 0-128.299-57.441-128.299-128.299s57.441-128.299 128.299-128.299c70.857 0 128.299 57.441 128.299 128.299 0 0.015 0 0.030 0 0.045v-0.002c0 0 0 0 0 0 0 70.744-57.276 128.11-127.986 128.256h-0.014z" />
<glyph unicode="&#xe93e;" glyph-name="shopping" d="M810.667 21.333h-597.333c-47.128 0-85.333 38.205-85.333 85.333v0 512c0 23.564 19.103 42.667 42.667 42.667v0h128c0 117.821 95.513 213.333 213.333 213.333s213.333-95.513 213.333-213.333v0h128c23.564 0 42.667-19.103 42.667-42.667v0-512c0-47.128-38.205-85.333-85.333-85.333v0zM661.333 576c-11.782 0-21.333-9.551-21.333-21.333v0-42.667c0-11.782 9.551-21.333 21.333-21.333v0h42.667c11.782 0 21.333 9.551 21.333 21.333v0 42.667c0 11.782-9.551 21.333-21.333 21.333v0zM320 576c-11.782 0-21.333-9.551-21.333-21.333v0-42.667c0-11.782 9.551-21.333 21.333-21.333v0h42.667c11.782 0 21.333 9.551 21.333 21.333v0 42.667c0 11.782-9.551 21.333-21.333 21.333v0zM512 789.333c-70.692 0-128-57.308-128-128v0h256c0 70.692-57.308 128-128 128v0z" />
<glyph unicode="&#xe93f;" glyph-name="shopping_cart" d="M768 21.333c-47.128 0-85.333 38.205-85.333 85.333s38.205 85.333 85.333 85.333c47.128 0 85.333-38.205 85.333-85.333v0c0-47.128-38.205-85.333-85.333-85.333v0zM341.333 21.333c-47.128 0-85.333 38.205-85.333 85.333s38.205 85.333 85.333 85.333c47.128 0 85.333-38.205 85.333-85.333v0c0-47.128-38.205-85.333-85.333-85.333v0zM297.941 234.667v0c-11.767 0.025-22.068 6.281-27.78 15.643l-0.081 0.143-9.387 16.256c-2.335 4.396-3.705 9.611-3.705 15.147s1.371 10.751 3.791 15.325l-0.086-0.178 79.36 157.824c-4.2 4.425-8 9.31-11.293 14.547l-0.227 0.387-182.613 319.573h-39.253c-11.782 0-21.333 9.551-21.333 21.333v0 42.667c0 11.782 9.551 21.333 21.333 21.333v0h39.552c0.012 0 0.026 0 0.040 0 31.419 0 58.872-16.98 73.683-42.264l0.218-0.403 23.893-42.667h673.28c11.782 0 21.333-9.551 21.333-21.333v0-21.333c-0.356-37.169-10.612-71.868-28.251-101.682l0.518 0.946-100.267-176.171c-21.495-37.961-61.211-63.401-106.951-64.424l-0.142-0.003h-265.813c-9.79 0.199-19.169 1.588-28.114 4.028l0.808-0.188-42.667-89.173h464.213c11.782 0 21.333-9.551 21.333-21.333v0-42.667c0-11.782-9.551-21.333-21.333-21.333v0h-534.059z" />
<glyph unicode="&#xe940;" glyph-name="standing" d="M618.667-21.333h-42.667c-11.782 0-21.333 9.551-21.333 21.333v0 320h-85.333v-320c0-11.782-9.551-21.333-21.333-21.333v0h-42.667c-11.782 0-21.333 9.551-21.333 21.333v0 543.573l-124.16-150.187c-4.012-4.62-9.896-7.525-16.458-7.525-5.272 0-10.106 1.875-13.872 4.994l0.036-0.029-32.427 27.307c-4.743 3.941-7.74 9.842-7.74 16.442 0 5.105 1.793 9.792 4.784 13.464l-0.031-0.039 161.323 194.56c31.417 37.654 78.359 61.44 130.856 61.44 0.046 0 0.092 0 0.138 0h51.193c0.052 0 0.112 0 0.173 0 52.497 0 99.439-23.786 130.636-61.169l0.22-0.271 161.195-194.56c2.726-3.546 4.368-8.049 4.368-12.935 0-6.403-2.821-12.147-7.288-16.058l-0.025-0.021-32.469-27.307c-3.73-3.090-8.564-4.965-13.836-4.965-6.562 0-12.445 2.905-16.435 7.498l-0.023 0.027-124.16 149.333v-543.573c0-11.782-9.551-21.333-21.333-21.333v0zM512.043 746.667c-47.128 0-85.333 38.205-85.333 85.333s38.205 85.333 85.333 85.333c47.128 0 85.333-38.205 85.333-85.333v0c0-47.128-38.205-85.333-85.333-85.333v0z" />
<glyph unicode="&#xe941;" glyph-name="user" d="M810.795 106.667h-597.333c-23.509 0.073-42.538 19.148-42.538 42.666 0 7.002 1.687 13.61 4.676 19.441l-0.112-0.24 61.483 123.307c21.287 42.308 64.362 70.827 114.099 70.827 0.132 0 0.264 0 0.396-0.001h321.132c0.175 0.001 0.382 0.001 0.59 0.001 49.783 0 92.901-28.534 113.892-70.14l0.334-0.731 61.483-123.307c2.864-5.579 4.543-12.172 4.543-19.157 0-23.556-19.090-42.654-42.643-42.667h-0.001zM512.128 448c-94.257 0-170.667 76.41-170.667 170.667s76.41 170.667 170.667 170.667c94.257 0 170.667-76.41 170.667-170.667v0c0.002-0.318 0.003-0.694 0.003-1.070 0-93.667-75.933-169.6-169.6-169.6-0.376 0-0.752 0.001-1.128 0.004h0.058z" />
<glyph unicode="&#xe942;" glyph-name="video_camera" d="M682.667 149.333h-512c-47.128 0-85.333 38.205-85.333 85.333v0 426.667c0 47.128 38.205 85.333 85.333 85.333v0h512c47.128 0 85.333-38.205 85.333-85.333v0-128l115.627 115.627c7.653 7.629 18.206 12.352 29.863 12.373h3.844c11.782 0 21.333-9.551 21.333-21.333v0-384c0-11.782-9.551-21.333-21.333-21.333v0h-3.84c-11.661 0.021-22.214 4.744-29.868 12.374l-115.626 115.626v-128c0-47.128-38.205-85.333-85.333-85.333v0zM234.667 570.88c-11.782 0-21.333-9.551-21.333-21.333v0-32.427c0-11.782 9.551-21.333 21.333-21.333v0h170.667c11.782 0 21.333 9.551 21.333 21.333v0 32.427c0 11.782-9.551 21.333-21.333 21.333v0z" />
<glyph unicode="&#xe943;" glyph-name="volume_up" d="M512.427 106.667h-25.216c-11.661 0.021-22.214 4.744-29.868 12.374l0.001-0.001-163.627 163.413c-23.104 23.194-55.070 37.547-90.389 37.547-0.053 0-0.105 0-0.158 0h0.008c-41.48 0.024-75.106 33.62-75.179 75.086v105.82c0.073 41.474 33.698 75.069 75.176 75.093h0.002c0.044 0 0.097 0 0.15 0 35.319 0 67.285 14.352 90.385 37.543l0.004 0.004 163.584 163.413c7.653 7.629 18.206 12.352 29.863 12.373h25.263c23.564 0 42.667-19.103 42.667-42.667v0-597.333c0-23.564-19.103-42.667-42.667-42.667v0zM795.435 215.893v0c-5.974 0.024-11.373 2.467-15.273 6.399l-30.294 30.294c-3.527 3.795-5.691 8.898-5.691 14.507s2.164 10.712 5.704 14.52l-0.012-0.013c38.24 44.439 61.524 102.7 61.524 166.4s-23.285 121.961-61.807 166.736l0.283-0.336c-3.527 3.795-5.691 8.898-5.691 14.507s2.164 10.712 5.704 14.52l-0.012-0.013 30.293 30.293c3.94 3.947 9.385 6.392 15.401 6.4h0.429c6.046-0.578 11.381-3.241 15.358-7.252l0.002-0.002c52.561-59.695 84.64-138.528 84.64-224.853s-32.078-165.159-84.965-225.23l0.325 0.377c-3.927-4.092-9.291-6.78-15.278-7.248l-0.082-0.005zM675.029 337.451c-0.025 0-0.054 0-0.084 0-5.883 0-11.231 2.29-15.202 6.027l0.011-0.011-30.336 30.72c-3.967 3.877-6.428 9.282-6.428 15.262 0 4.32 1.284 8.339 3.491 11.699l-0.050-0.081c8.815 13.215 14.066 29.461 14.066 46.933s-5.251 33.719-14.262 47.246l0.196-0.313c-2.157 3.278-3.441 7.298-3.441 11.618 0 5.98 2.46 11.385 6.424 15.258l0.004 0.004 30.336 30.72c4.061 3.984 9.629 6.443 15.773 6.443 0.020 0 0.040 0 0.060 0h0.85c6.376-0.765 11.902-3.905 15.756-8.496l0.030-0.037c21.31-28.168 34.133-63.786 34.133-102.4s-12.824-74.232-34.444-102.829l0.311 0.429c-3.82-4.628-9.41-7.676-15.718-8.103l-0.068-0.004z" />
<glyph unicode="&#xe944;" glyph-name="walking" d="M664.747-21.333h-43.477c-10.159 0.036-18.609 7.312-20.459 16.936l-0.021 0.131-48.683 237.013c-1.856 9.188-6.406 17.104-12.778 23.105l-0.022 0.020-142.080 134.528c-8.278 7.801-13.433 18.837-13.433 31.078 0 2.587 0.23 5.121 0.671 7.581l-0.038-0.259 27.307 159.104-53.76-35.968c-8.397-5.626-14.605-13.954-17.419-23.72l-0.074-0.301-30.72-108.416c-2.656-8.966-10.816-15.397-20.479-15.403h-42.667c-0.024 0-0.052 0-0.080 0-11.782 0-21.333 9.551-21.333 21.333 0 2.176 0.326 4.275 0.931 6.253l-0.040-0.151 36.736 135.381c6.027 20.213 18.734 36.866 35.51 47.798l0.33 0.202 79.787 53.504c32.992 22.291 73.656 35.584 117.426 35.584 0.058 0 0.115 0 0.173 0h21.922c0.014 0 0.030 0 0.046 0 39.087 0 74.075-17.555 97.507-45.211l0.154-0.186 71.253-83.157c6.103-7.307 14.506-12.51 24.086-14.501l0.277-0.048 82.347-16.299c9.817-2.046 17.087-10.627 17.087-20.907 0-0.33-0.008-0.659-0.022-0.985l0.002 0.046v-42.667c0-0.014 0-0.030 0-0.047 0-11.782-9.551-21.333-21.333-21.333-1.51 0-2.984 0.157-4.406 0.455l0.139-0.024-91.307 18.389c-28.988 6.362-53.737 21.527-71.97 42.505l-0.137 0.161-42.667 48-34.56-200.96 61.867-59.136c11.806-11.289 20.472-25.769 24.615-42.055l0.132-0.611 54.144-261.163c0.315-1.374 0.495-2.951 0.495-4.57 0-5.11-1.797-9.8-4.792-13.474l0.031 0.039c-3.855-4.653-9.634-7.595-16.101-7.595-0.040 0-0.079 0-0.118 0h0.006zM321.92 64c-5.321 0.007-10.172 2.014-13.843 5.308l-32.407 28.57c-3.771 3.845-6.098 9.117-6.098 14.933s2.327 11.088 6.102 14.937l-0.003-0.003 116.48 130.987c4.96 5.716 8.443 12.841 9.778 20.698l0.035 0.252v4.693l66.133-64.427c-2.159-3.189-4.403-5.975-6.855-8.564l0.028 0.030-123.349-140.16c-3.564-4.146-8.684-6.867-14.444-7.25l-0.063-0.003zM554.667 746.667c-47.128 0-85.333 38.205-85.333 85.333s38.205 85.333 85.333 85.333c47.128 0 85.333-38.205 85.333-85.333v0c0-47.128-38.205-85.333-85.333-85.333v0z" />
<glyph unicode="&#xe945;" glyph-name="washing_hands" d="M401.493-21.333h-2.091c-0.084 0-0.184 0-0.284 0-35.242 0-67.135 14.338-90.164 37.498l-0.006 0.006-58.027 57.6c-23.396 25.072-37.759 58.835-37.759 95.954 0 2.718 0.077 5.418 0.229 8.098l-0.017-0.371v174.933c2.864 44.991 16.015 86.363 37.106 122.537l-0.711-1.321c15.973 29.511 28.856 63.709 36.878 99.739l0.498 2.661 19.2 110.507c0.993 5.779 4.192 10.669 8.681 13.865l0.065 0.044c3.385 2.428 7.611 3.883 12.177 3.883 0.024 0 0.048 0 0.072 0h-0.004c0.057 0.001 0.125 0.001 0.192 0.001 1.258 0 2.491-0.109 3.69-0.318l-0.128 0.018c29.949-5.251 52.483-30.866 52.906-61.822v-179.672l321.28 321.707c7.943 8.22 19.066 13.324 31.381 13.324 24.089 0 43.617-19.528 43.617-43.617 0-11.774-4.665-22.459-12.248-30.306l0.012 0.012-196.736-196.267c-3.867-3.873-6.259-9.22-6.259-15.125 0-11.822 9.584-21.406 21.406-21.406 5.916 0 11.272 2.4 15.146 6.28v0l226.56 226.56c7.736 7.789 18.452 12.611 30.293 12.611 23.577 0 42.691-19.113 42.691-42.691 0-11.736-4.735-22.365-12.4-30.082l-226.558-226.558c-3.9-3.867-6.315-9.227-6.315-15.151 0-0.013 0-0.027 0-0.040v0.002c0.001-5.922 2.416-11.281 6.313-15.145l0.001-0.001c3.845-3.771 9.117-6.098 14.933-6.098s11.088 2.327 14.937 6.102l175.784 175.784c7.732 7.78 18.44 12.596 30.272 12.596 23.569 0 42.676-19.106 42.676-42.676 0-11.737-4.738-22.367-12.406-30.082l-175.742-175.785c-3.251-3.724-5.233-8.629-5.233-13.996 0-11.782 9.551-21.333 21.333-21.333 5.261 0 10.077 1.904 13.797 5.062l-0.031-0.025 85.333 85.333c7.616 7.174 17.907 11.582 29.227 11.582s21.611-4.408 29.248-11.602l-0.022 0.020c7.795-7.733 12.621-18.45 12.621-30.293s-4.826-22.56-12.618-30.291l-0.003-0.003-221.44-221.013c-13.728-13.729-29.291-25.622-46.289-35.28l-1.071-0.56-131.883-73.387c-35.811-20.061-78.571-31.911-124.091-32h-0.027zM149.76 168.107v0l-26.837 26.453c-23.396 25.072-37.759 58.835-37.759 95.954 0 2.718 0.077 5.418 0.229 8.098l-0.017-0.371v174.933c2.732 44.5 15.742 85.437 36.664 121.18l-0.696-1.287c16.284 29.893 29.326 64.534 37.322 101.062l0.481 2.618 21.333 110.464c1.919 9.973 10.576 17.404 20.968 17.404 1.335 0 2.642-0.123 3.91-0.357l-0.132 0.020c24.788-4.512 44.355-22.795 50.672-46.486l0.101-0.447c0.618-2.628 0.972-5.646 0.972-8.747s-0.354-6.118-1.024-9.015l0.052 0.269-45.653-249.557c-37.553-41.298-60.546-96.42-60.546-156.912 0-0.336 0.001-0.672 0.002-1.007v0.052-174.933c-0.107-1.385-0.169-3-0.169-4.629s0.061-3.244 0.182-4.842l-0.013 0.213zM512 704c-23.55 0.075-44.858 9.612-60.334 25.006l0.004-0.004c-15.445 15.365-25.003 36.635-25.003 60.137 0 0.068 0 0.136 0 0.205v-0.011c15.555 51.833 45.366 95.447 84.863 127.629l0.47 0.371c39.59-32.864 69.294-76.359 84.825-126.11l0.508-1.89c0-47.128-38.205-85.333-85.333-85.333v0z" />
<glyph unicode="&#xe946;" glyph-name="home2" d="M512 928l-512-512 96-96 96 96v-416h256v192h128v-192h256v416l96-96 96 96-512 512zM512 512c-35.346 0-64 28.654-64 64s28.654 64 64 64c35.346 0 64-28.654 64-64s-28.654-64-64-64z" />
<glyph unicode="&#xe947;" glyph-name="book" d="M896 832v-832h-672c-53.026 0-96 42.98-96 96s42.974 96 96 96h608v768h-640c-70.398 0-128-57.6-128-128v-768c0-70.4 57.602-128 128-128h768v896h-64zM224.056 128v0c-0.018-0.002-0.038 0-0.056 0-17.672 0-32-14.326-32-32s14.328-32 32-32c0.018 0 0.038 0.002 0.056 0.002v-0.002h607.89v64h-607.89z" />
<glyph unicode="&#xe948;" glyph-name="books" horiz-adv-x="1152" d="M224 832h-192c-17.6 0-32-14.4-32-32v-704c0-17.6 14.4-32 32-32h192c17.6 0 32 14.4 32 32v704c0 17.6-14.4 32-32 32zM192 640h-128v64h128v-64zM544 832h-192c-17.6 0-32-14.4-32-32v-704c0-17.6 14.4-32 32-32h192c17.6 0 32 14.4 32 32v704c0 17.6-14.4 32-32 32zM512 640h-128v64h128v-64zM765.088 782.52l-171.464-86.394c-15.716-7.918-22.096-27.258-14.178-42.976l287.978-571.548c7.918-15.718 27.258-22.098 42.976-14.178l171.464 86.392c15.716 7.92 22.096 27.26 14.178 42.974l-287.978 571.55c-7.92 15.718-27.26 22.1-42.976 14.18z" />
<glyph unicode="&#xe949;" glyph-name="file-zip" d="M917.806 730.924c-22.208 30.292-53.174 65.7-87.178 99.704s-69.412 64.964-99.704 87.178c-51.574 37.82-76.592 42.194-90.924 42.194h-496c-44.112 0-80-35.888-80-80v-864c0-44.112 35.884-80 80-80h736c44.112 0 80 35.888 80 80v624c0 14.332-4.372 39.35-42.194 90.924v0 0zM785.374 785.374c30.7-30.7 54.8-58.398 72.58-81.374h-153.954v153.946c22.98-17.78 50.678-41.878 81.374-72.572v0 0zM896 16c0-8.672-7.328-16-16-16h-736c-8.672 0-16 7.328-16 16v864c0 8.672 7.328 16 16 16 0 0 495.956 0.002 496 0v-224c0-17.672 14.322-32 32-32h224v-624zM256 896h128v-64h-128v64zM384 832h128v-64h-128v64zM256 768h128v-64h-128v64zM384 704h128v-64h-128v64zM256 640h128v-64h-128v64zM384 576h128v-64h-128v64zM256 512h128v-64h-128v64zM384 448h128v-64h-128v64zM256 112c0-26.4 21.6-48 48-48h160c26.4 0 48 21.6 48 48v160c0 26.4-21.6 48-48 48h-80v64h-128v-272zM448 192v-64h-128v64h128z" />
<glyph unicode="&#xe94a;" glyph-name="coin-dollar" d="M480 896c-265.096 0-480-214.904-480-480 0-265.098 214.904-480 480-480 265.098 0 480 214.902 480 480 0 265.096-214.902 480-480 480zM480 32c-212.078 0-384 171.922-384 384s171.922 384 384 384c212.078 0 384-171.922 384-384s-171.922-384-384-384zM512 448v128h128v64h-128v64h-64v-64h-128v-256h128v-128h-128v-64h128v-64h64v64h128.002l-0.002 256h-128zM448 448h-64v128h64v-128zM576.002 256h-64.002v128h64.002v-128z" />
<glyph unicode="&#xe973;" glyph-name="user-plus" d="M384 224c0 151.234 95.874 280.486 230.032 330.2 16.28 36.538 25.968 77.164 25.968 117.8 0 159.058 0 288-192 288s-192-128.942-192-288c0-99.060 57.502-198.104 128-237.832v-52.78c-217.102-17.748-384-124.42-384-253.388h397.306c-8.664 30.53-13.306 62.732-13.306 96zM736 512c-159.058 0-288-128.942-288-288s128.942-288 288-288c159.056 0 288 128.942 288 288s-128.942 288-288 288zM896 192h-128v-128h-64v128h-128v64h128v128h64v-128h128v-64z" />
<glyph unicode="&#xe974;" glyph-name="user-minus" d="M384 224c0 151.234 95.874 280.486 230.032 330.2 16.28 36.538 25.968 77.164 25.968 117.8 0 159.058 0 288-192 288s-192-128.942-192-288c0-99.060 57.502-198.104 128-237.832v-52.78c-217.102-17.748-384-124.42-384-253.388h397.306c-8.664 30.53-13.306 62.732-13.306 96zM736 512c-159.058 0-288-128.942-288-288s128.942-288 288-288c159.056 0 288 128.942 288 288s-128.942 288-288 288zM896 192h-320v64h320v-64z" />
<glyph unicode="&#xe975;" glyph-name="user-check" d="M960 352l-288-288-96 96-64-64 160-160 352 352zM448 192h320v115.128c-67.22 39.2-156.308 66.11-256 74.26v52.78c70.498 39.728 128 138.772 128 237.832 0 159.058 0 288-192 288s-192-128.942-192-288c0-99.060 57.502-198.104 128-237.832v-52.78c-217.102-17.748-384-124.42-384-253.388h448v64z" />
<glyph unicode="&#xe9a5;" glyph-name="rocket" d="M704 896l-320-320h-192l-192-256c0 0 203.416 56.652 322.066 30.084l-322.066-414.084 421.902 328.144c58.838-134.654-37.902-328.144-37.902-328.144l256 192v192l320 320 64 320-320-64z" />
<glyph unicode="&#xe9b2;" glyph-name="accessibility" d="M416 864c0 53.018 42.98 96 96 96s96-42.982 96-96c0-53.020-42.98-96-96-96s-96 42.98-96 96zM640 640l329.596 142.172-23.77 59.424-401.826-137.596h-64l-401.826 137.596-23.77-59.424 329.596-142.172v-256l-131.27-424.57 59.84-22.7 185.716 415.27h27.428l185.716-415.27 59.84 22.7-131.27 424.57z" />
<glyph unicode="&#xe9b8;" glyph-name="clipboard" d="M928 832h-288c0 70.692-57.306 128-128 128-70.692 0-128-57.308-128-128h-288c-17.672 0-32-14.328-32-32v-832c0-17.674 14.328-32 32-32h832c17.674 0 32 14.326 32 32v832c0 17.672-14.326 32-32 32zM512 896c35.346 0 64-28.654 64-64s-28.654-64-64-64c-35.346 0-64 28.654-64 64s28.654 64 64 64zM896 0h-768v768h128v-96c0-17.672 14.328-32 32-32h448c17.674 0 32 14.328 32 32v96h128v-768zM448 101.49l-205.254 237.254 58.508 58.51 146.746-114.744 274.742 242.744 58.514-58.508z" />
<glyph unicode="&#xe9dc;" glyph-name="man" d="M576 864c0-53.019-42.981-96-96-96s-96 42.981-96 96c0 53.019 42.981 96 96 96s96-42.981 96-96zM576 704h-192c-35.346 0-64-28.654-64-64v-320h64v-384h80v384h32v-384h80v384h64v320c0 35.346-28.652 64-64 64z" />
<glyph unicode="&#xe9de;" glyph-name="man-woman" d="M256 864c0-53.019-42.981-96-96-96s-96 42.981-96 96c0 53.019 42.981 96 96 96s96-42.981 96-96zM832 864c0-53.019-42.981-96-96-96s-96 42.981-96 96c0 53.019 42.981 96 96 96s96-42.981 96-96zM256 704h-192c-35.346 0-64-28.654-64-64v-320h64v-384h80v384h32v-384h80v384h64v320c0 35.346-28.652 64-64 64zM975 448l49 35.5-133.286 206.116c-5.92 8.98-15.958 14.384-26.714 14.384h-256c-10.756 0-20.792-5.404-26.714-14.384l-133.286-206.116 49-35.5 110.644 143.596 38.458-89.74-134.102-245.856h122.666l21.334-320h64v320h32v-320h64l21.334 320h122.666l-134.104 245.858 38.458 89.74 110.646-143.598z" />
<glyph unicode="&#xea0c;" glyph-name="info" d="M448 656c0 26.4 21.6 48 48 48h32c26.4 0 48-21.6 48-48v-32c0-26.4-21.6-48-48-48h-32c-26.4 0-48 21.6-48 48v32zM640 192h-256v64h64v192h-64v64h192v-256h64zM512 960c-282.77 0-512-229.23-512-512s229.23-512 512-512 512 229.23 512 512-229.23 512-512 512zM512 32c-229.75 0-416 186.25-416 416s186.25 416 416 416 416-186.25 416-416-186.25-416-416-416z" />
</font>
</defs>
</svg>
