<svg id="en-lang" xmlns="http://www.w3.org/2000/svg" width="17" height="17" viewBox="0 0 17 17">
  <path id="Path" d="M14.922,0H2.078A2.011,2.011,0,0,0,0,1.946v9.766a2.011,2.011,0,0,0,2.078,1.946h1.36v2.89a.471.471,0,0,0,.283.416A.407.407,0,0,0,3.929,17a.637.637,0,0,0,.321-.094l4.288-3.249h6.384A2.011,2.011,0,0,0,17,11.711V1.946A2.011,2.011,0,0,0,14.922,0Z" fill="#accd00"/>
  <path id="EN" d="M6.32,5H5V0H6.243L8.7,3.01,8.691,0H10V5H8.768L6.32,2.011V5ZM4.334,5H0V0H4.257V1.041H1.408v.934H3.98V3.01l-2.571.007v.941H4.334V5Z" transform="translate(3 4.519)" fill="#fff"/>
</svg>
