<?xml version="1.0" encoding="utf-8"?>
<!-- Generator: Adobe Illustrator 25.2.3, SVG Export Plug-In . SVG Version: 6.00 Build 0)  -->
<svg version="1.1" id="Layer_1" xmlns="http://www.w3.org/2000/svg" xmlns:xlink="http://www.w3.org/1999/xlink" x="0px" y="0px"
	 viewBox="0 0 30 19.7" style="enable-background:new 0 0 30 19.7;" xml:space="preserve">
<style type="text/css">
	.st0{fill:#41479B;}
	.st1{fill:#F5F5F5;}
	.st2{fill:#FF4B55;}
</style>
<path class="st0" d="M27.8,0H2.2C1,0,0,1,0,2.2v15.2c0,1.2,1,2.2,2.2,2.2h25.5c1.2,0,2.2-1,2.2-2.2V2.2C30,1,29,0,27.8,0z"/>
<path class="st1" d="M0.5,9.8h0.9l4.8-3.1v3.1h2.6V6.7l4.8,3.1h0.9c0.3,0,0.5-0.2,0.5-0.5V8.9l-4.1-2.7H15V3.6h-4.1L15,0.9V0.5
	C15,0.2,14.8,0,14.5,0h-0.9L8.8,3.1V0H6.2v3.1l-4.6-3c-0.5,0.2-1,0.5-1.3,1l3.8,2.5H0v2.6h4.1L0,8.9v0.4C0,9.6,0.2,9.8,0.5,9.8z"/>
<g>
	<polygon class="st2" points="15,4.1 8.3,4.1 8.3,0 6.7,0 6.7,4.1 0,4.1 0,5.7 6.7,5.7 6.7,9.8 8.3,9.8 8.3,5.7 15,5.7 	"/>
	<path class="st2" d="M0.5,0.9l4.3,2.8h1L0.9,0.5C0.7,0.6,0.6,0.7,0.5,0.9z"/>
	<path class="st2" d="M9.7,3.6l5.2-3.4C14.8,0.1,14.7,0,14.5,0h-0.1L8.8,3.6H9.7z"/>
	<path class="st2" d="M5.2,6.2L0.1,9.6c0.1,0.2,0.3,0.3,0.4,0.3h0.1l5.6-3.6L5.2,6.2L5.2,6.2z"/>
	<path class="st2" d="M15,9.4l-4.8-3.1h-1l5.5,3.6C14.9,9.7,15,9.5,15,9.4z"/>
</g>
<g>
	<path class="st1" d="M7.7,12.6L8,13.9l1.3-0.5c0.1,0,0.2,0.1,0.1,0.2l-0.8,1.1l1.2,0.7c0.1,0.1,0.1,0.2,0,0.2l-1.3,0.1L8.7,17
		c0,0.1-0.1,0.2-0.2,0.1l-0.9-1l-0.9,1c-0.1,0.1-0.2,0-0.2-0.1l0.2-1.3l-1.3-0.1c-0.1,0-0.1-0.2,0-0.2l1.2-0.7l-0.8-1.1
		c-0.1-0.1,0-0.2,0.1-0.2L7,13.9l0.4-1.3C7.5,12.5,7.6,12.5,7.7,12.6z"/>
	<path class="st1" d="M23,3.5l0.2,0.6l0.6-0.2c0.1,0,0.1,0,0.1,0.1l-0.4,0.5l0.6,0.3c0,0,0,0.1,0,0.1l-0.7,0l0.1,0.6
		c0,0.1-0.1,0.1-0.1,0L23,5.2l-0.4,0.5c0,0-0.1,0-0.1,0L22.5,5l-0.7,0c-0.1,0-0.1-0.1,0-0.1l0.6-0.3L22.1,4c0,0,0-0.1,0.1-0.1
		l0.6,0.2l0.2-0.6C23,3.4,23,3.4,23,3.5z"/>
	<path class="st1" d="M18.8,8.3L19,8.9l0.6-0.2c0.1,0,0.1,0,0.1,0.1l-0.4,0.5l0.6,0.3c0,0,0,0.1,0,0.1l-0.7,0l0.1,0.6
		c0,0.1-0.1,0.1-0.1,0L18.7,10l-0.4,0.5c0,0-0.1,0-0.1,0l0.1-0.6l-0.7,0c-0.1,0-0.1-0.1,0-0.1l0.6-0.3l-0.4-0.5c0,0,0-0.1,0.1-0.1
		l0.6,0.2l0.2-0.6C18.7,8.3,18.8,8.3,18.8,8.3z"/>
	<path class="st1" d="M27.1,6.2l0.2,0.6l0.6-0.2c0.1,0,0.1,0,0.1,0.1l-0.4,0.5l0.6,0.3c0,0,0,0.1,0,0.1l-0.7,0l0.1,0.6
		c0,0.1-0.1,0.1-0.1,0L27,8l-0.4,0.5c0,0-0.1,0-0.1,0l0.1-0.6l-0.7,0c-0.1,0-0.1-0.1,0-0.1l0.6-0.3l-0.4-0.5c0,0,0-0.1,0.1-0.1
		l0.6,0.2L27,6.2C27,6.2,27.1,6.2,27.1,6.2z"/>
	<path class="st1" d="M23,14.5l0.2,0.6l0.6-0.2c0.1,0,0.1,0,0.1,0.1l-0.4,0.5l0.6,0.3c0,0,0,0.1,0,0.1l-0.7,0l0.1,0.6
		c0,0.1-0.1,0.1-0.1,0L23,16.2l-0.4,0.5c0,0-0.1,0-0.1,0l0.1-0.6l-0.7,0c-0.1,0-0.1-0.1,0-0.1l0.6-0.3L22.1,15c0,0,0-0.1,0.1-0.1
		l0.6,0.2l0.2-0.6C23,14.5,23,14.5,23,14.5z"/>
	<path class="st1" d="M24.5,9.4l-0.2,0.5l-0.5,0c-0.1,0-0.1,0.1,0,0.1l0.4,0.3l-0.1,0.5c0,0.1,0,0.1,0.1,0.1l0.4-0.3l0.4,0.3
		c0.1,0,0.1,0,0.1-0.1l-0.1-0.5l0.4-0.3c0.1,0,0-0.1,0-0.1l-0.5,0l-0.2-0.5C24.6,9.4,24.5,9.4,24.5,9.4z"/>
</g>
</svg>
