<?xml version="1.0" encoding="utf-8"?>
<!-- Generator: Adobe Illustrator 25.2.3, SVG Export Plug-In . SVG Version: 6.00 Build 0)  -->
<svg version="1.1" id="canada-flag" xmlns="http://www.w3.org/2000/svg" xmlns:xlink="http://www.w3.org/1999/xlink" x="0px"
	 y="0px" viewBox="0 0 30 20" style="enable-background:new 0 0 30 20;" xml:space="preserve">
<style type="text/css">
	.st0{fill:#F5F5F5;}
	.st1{fill:#FF4B55;}
	.st2{fill:#41479B;}
</style>
<path class="st0" d="M27.7,0.1H2.1c-1.2,0-2.3,1-2.3,2.3v15.2c0,1.2,1,2.3,2.3,2.3h25.6c1.2,0,2.3-1,2.3-2.3V2.4
	C30,1.1,29,0.1,27.7,0.1z"/>
<g>
	<path class="st1" d="M0,1.6h29.9c-0.3-0.9-1.1-1.5-2.1-1.5H2.1C1.1,0.1,0.3,0.8,0,1.6z"/>
	<rect x="-0.1" y="6.2" class="st1" width="30.1" height="1.5"/>
	<rect x="-0.1" y="3.2" class="st1" width="30.1" height="1.5"/>
	<path class="st1" d="M-0.1,10.2c0,0.3,0.2,0.5,0.5,0.5H30V9.2H-0.1V10.2z"/>
	<rect x="-0.1" y="15.3" class="st1" width="30.1" height="1.5"/>
	<path class="st1" d="M29.9,18.4H0c0.3,0.9,1.1,1.5,2.1,1.5h25.6C28.7,19.9,29.6,19.2,29.9,18.4z"/>
	<rect x="-0.1" y="12.3" class="st1" width="30.1" height="1.5"/>
</g>
<path class="st2" d="M0.4,10.8h13c0.3,0,0.5-0.2,0.5-0.5V0.6c0-0.3-0.2-0.5-0.5-0.5H2.1c-1.2,0-2.3,1-2.3,2.3v7.9
	C-0.1,10.5,0.1,10.8,0.4,10.8z"/>
<g>
	<path class="st0" d="M1.3,1.3l0.1,0.3l0.4,0c0,0,0.1,0.1,0,0.1L1.5,2l0.1,0.3c0,0,0,0.1-0.1,0.1L1.3,2.2L1,2.4c0,0-0.1,0-0.1-0.1
		L1,2L0.7,1.8c0,0,0-0.1,0-0.1l0.4,0L1.3,1.3C1.2,1.3,1.3,1.3,1.3,1.3z"/>
	<path class="st0" d="M1.3,3.1l0.1,0.3l0.4,0c0,0,0.1,0.1,0,0.1L1.5,3.8l0.1,0.3c0,0,0,0.1-0.1,0.1L1.3,4L1,4.2c0,0-0.1,0-0.1-0.1
		L1,3.8L0.7,3.6c0,0,0-0.1,0-0.1l0.4,0L1.3,3.1C1.2,3.1,1.3,3.1,1.3,3.1z"/>
	<path class="st0" d="M1.3,4.9l0.1,0.3l0.4,0c0,0,0.1,0.1,0,0.1L1.5,5.6l0.1,0.3c0,0,0,0.1-0.1,0.1L1.3,5.8L1,6c0,0-0.1,0-0.1-0.1
		L1,5.6L0.7,5.4c0,0,0-0.1,0-0.1l0.4,0L1.3,4.9C1.2,4.9,1.3,4.9,1.3,4.9z"/>
	<path class="st0" d="M1.3,6.7l0.1,0.3l0.4,0c0,0,0.1,0.1,0,0.1L1.5,7.4l0.1,0.3c0,0,0,0.1-0.1,0.1L1.3,7.6L1,7.8c0,0-0.1,0-0.1-0.1
		L1,7.4L0.7,7.2c0,0,0-0.1,0-0.1l0.4,0L1.3,6.7C1.2,6.7,1.3,6.7,1.3,6.7z"/>
	<path class="st0" d="M1.3,8.5l0.1,0.3l0.4,0c0,0,0.1,0.1,0,0.1L1.5,9.2l0.1,0.3c0,0,0,0.1-0.1,0.1L1.3,9.4L1,9.6c0,0-0.1,0-0.1-0.1
		L1,9.2L0.7,9c0,0,0-0.1,0-0.1l0.4,0L1.3,8.5C1.2,8.5,1.3,8.5,1.3,8.5z"/>
	<path class="st0" d="M2.7,2.2l0.1,0.3l0.4,0c0,0,0.1,0.1,0,0.1L2.9,2.9l0.1,0.3c0,0,0,0.1-0.1,0.1L2.7,3L2.4,3.3c0,0-0.1,0-0.1-0.1
		l0.1-0.3L2.1,2.6c0,0,0-0.1,0-0.1l0.4,0L2.7,2.2C2.6,2.2,2.7,2.2,2.7,2.2z"/>
	<path class="st0" d="M2.7,4l0.1,0.3l0.4,0c0,0,0.1,0.1,0,0.1L2.9,4.7L3.1,5c0,0,0,0.1-0.1,0.1L2.7,4.9L2.4,5.1c0,0-0.1,0-0.1-0.1
		l0.1-0.3L2.1,4.4c0,0,0-0.1,0-0.1l0.4,0L2.7,4C2.6,4,2.7,4,2.7,4z"/>
	<path class="st0" d="M2.7,5.8l0.1,0.3l0.4,0c0,0,0.1,0.1,0,0.1L2.9,6.5l0.1,0.3c0,0,0,0.1-0.1,0.1L2.7,6.7L2.4,6.9
		c0,0-0.1,0-0.1-0.1l0.1-0.3L2.1,6.3c0,0,0-0.1,0-0.1l0.4,0L2.7,5.8C2.6,5.8,2.7,5.8,2.7,5.8z"/>
	<path class="st0" d="M2.7,7.6L2.8,8l0.4,0c0,0,0.1,0.1,0,0.1L2.9,8.3l0.1,0.3c0,0,0,0.1-0.1,0.1L2.7,8.5L2.4,8.7c0,0-0.1,0-0.1-0.1
		l0.1-0.3L2.1,8.1c0,0,0-0.1,0-0.1l0.4,0L2.7,7.6C2.6,7.6,2.7,7.6,2.7,7.6z"/>
	<path class="st0" d="M4.1,1.3l0.1,0.3l0.4,0c0,0,0.1,0.1,0,0.1L4.3,2l0.1,0.3c0,0,0,0.1-0.1,0.1L4.1,2.2L3.8,2.4c0,0-0.1,0-0.1-0.1
		L3.8,2L3.5,1.8c0,0,0-0.1,0-0.1l0.4,0L4.1,1.3C4,1.3,4.1,1.3,4.1,1.3z"/>
	<path class="st0" d="M4.1,3.1l0.1,0.3l0.4,0c0,0,0.1,0.1,0,0.1L4.3,3.8l0.1,0.3c0,0,0,0.1-0.1,0.1L4.1,4L3.8,4.2c0,0-0.1,0-0.1-0.1
		l0.1-0.3L3.5,3.6c0,0,0-0.1,0-0.1l0.4,0L4.1,3.1C4,3.1,4.1,3.1,4.1,3.1z"/>
	<path class="st0" d="M4.1,4.9l0.1,0.3l0.4,0c0,0,0.1,0.1,0,0.1L4.3,5.6l0.1,0.3c0,0,0,0.1-0.1,0.1L4.1,5.8L3.8,6c0,0-0.1,0-0.1-0.1
		l0.1-0.3L3.5,5.4c0,0,0-0.1,0-0.1l0.4,0L4.1,4.9C4,4.9,4.1,4.9,4.1,4.9z"/>
	<path class="st0" d="M4.1,6.7l0.1,0.3l0.4,0c0,0,0.1,0.1,0,0.1L4.3,7.4l0.1,0.3c0,0,0,0.1-0.1,0.1L4.1,7.6L3.8,7.8
		c0,0-0.1,0-0.1-0.1l0.1-0.3L3.5,7.2c0,0,0-0.1,0-0.1l0.4,0L4.1,6.7C4,6.7,4.1,6.7,4.1,6.7z"/>
	<path class="st0" d="M4.1,8.5l0.1,0.3l0.4,0c0,0,0.1,0.1,0,0.1L4.3,9.2l0.1,0.3c0,0,0,0.1-0.1,0.1L4.1,9.4L3.8,9.6
		c0,0-0.1,0-0.1-0.1l0.1-0.3L3.5,9c0,0,0-0.1,0-0.1l0.4,0L4.1,8.5C4,8.5,4.1,8.5,4.1,8.5z"/>
	<path class="st0" d="M5.5,2.2l0.1,0.3l0.4,0c0,0,0.1,0.1,0,0.1L5.7,2.9l0.1,0.3c0,0,0,0.1-0.1,0.1L5.5,3L5.2,3.3c0,0-0.1,0-0.1-0.1
		l0.1-0.3L4.9,2.6c0,0,0-0.1,0-0.1l0.4,0L5.5,2.2C5.4,2.2,5.5,2.2,5.5,2.2z"/>
	<path class="st0" d="M5.5,4l0.1,0.3l0.4,0c0,0,0.1,0.1,0,0.1L5.7,4.7L5.9,5c0,0,0,0.1-0.1,0.1L5.5,4.9L5.2,5.1c0,0-0.1,0-0.1-0.1
		l0.1-0.3L4.9,4.4c0,0,0-0.1,0-0.1l0.4,0L5.5,4C5.4,4,5.5,4,5.5,4z"/>
	<path class="st0" d="M5.5,5.8l0.1,0.3l0.4,0c0,0,0.1,0.1,0,0.1L5.7,6.5l0.1,0.3c0,0,0,0.1-0.1,0.1L5.5,6.7L5.2,6.9
		c0,0-0.1,0-0.1-0.1l0.1-0.3L4.9,6.3c0,0,0-0.1,0-0.1l0.4,0L5.5,5.8C5.4,5.8,5.5,5.8,5.5,5.8z"/>
	<path class="st0" d="M5.5,7.6L5.6,8L6,8c0,0,0.1,0.1,0,0.1L5.7,8.3l0.1,0.3c0,0,0,0.1-0.1,0.1L5.5,8.5L5.2,8.7c0,0-0.1,0-0.1-0.1
		l0.1-0.3L4.9,8.1c0,0,0-0.1,0-0.1l0.4,0L5.5,7.6C5.4,7.6,5.5,7.6,5.5,7.6z"/>
	<path class="st0" d="M6.9,1.3L7,1.7l0.4,0c0,0,0.1,0.1,0,0.1L7.1,2l0.1,0.3c0,0,0,0.1-0.1,0.1L6.9,2.2L6.6,2.4c0,0-0.1,0-0.1-0.1
		L6.6,2L6.3,1.8c0,0,0-0.1,0-0.1l0.4,0L6.9,1.3C6.8,1.3,6.9,1.3,6.9,1.3z"/>
	<path class="st0" d="M6.9,3.1L7,3.5l0.4,0c0,0,0.1,0.1,0,0.1L7.1,3.8l0.1,0.3c0,0,0,0.1-0.1,0.1L6.9,4L6.6,4.2c0,0-0.1,0-0.1-0.1
		l0.1-0.3L6.3,3.6c0,0,0-0.1,0-0.1l0.4,0L6.9,3.1C6.8,3.1,6.9,3.1,6.9,3.1z"/>
	<path class="st0" d="M6.9,4.9L7,5.3l0.4,0c0,0,0.1,0.1,0,0.1L7.1,5.6l0.1,0.3c0,0,0,0.1-0.1,0.1L6.9,5.8L6.6,6c0,0-0.1,0-0.1-0.1
		l0.1-0.3L6.3,5.4c0,0,0-0.1,0-0.1l0.4,0L6.9,4.9C6.8,4.9,6.9,4.9,6.9,4.9z"/>
	<path class="st0" d="M6.9,6.7L7,7.1l0.4,0c0,0,0.1,0.1,0,0.1L7.1,7.4l0.1,0.3c0,0,0,0.1-0.1,0.1L6.9,7.6L6.6,7.8c0,0-0.1,0-0.1-0.1
		l0.1-0.3L6.3,7.2c0,0,0-0.1,0-0.1l0.4,0L6.9,6.7C6.8,6.7,6.9,6.7,6.9,6.7z"/>
	<path class="st0" d="M6.9,8.5L7,8.9l0.4,0c0,0,0.1,0.1,0,0.1L7.1,9.2l0.1,0.3c0,0,0,0.1-0.1,0.1L6.9,9.4L6.6,9.6c0,0-0.1,0-0.1-0.1
		l0.1-0.3L6.3,9c0,0,0-0.1,0-0.1l0.4,0L6.9,8.5C6.8,8.5,6.9,8.5,6.9,8.5z"/>
	<path class="st0" d="M8.3,2.2l0.1,0.3l0.4,0c0,0,0.1,0.1,0,0.1L8.5,2.9l0.1,0.3c0,0,0,0.1-0.1,0.1L8.3,3L8,3.3c0,0-0.1,0-0.1-0.1
		L8,2.9L7.7,2.6c0,0,0-0.1,0-0.1l0.4,0L8.3,2.2C8.3,2.2,8.3,2.2,8.3,2.2z"/>
	<path class="st0" d="M8.3,4l0.1,0.3l0.4,0c0,0,0.1,0.1,0,0.1L8.5,4.7L8.7,5c0,0,0,0.1-0.1,0.1L8.3,4.9L8,5.1c0,0-0.1,0-0.1-0.1
		L8,4.7L7.7,4.4c0,0,0-0.1,0-0.1l0.4,0L8.3,4C8.3,4,8.3,4,8.3,4z"/>
	<path class="st0" d="M8.3,5.8l0.1,0.3l0.4,0c0,0,0.1,0.1,0,0.1L8.5,6.5l0.1,0.3c0,0,0,0.1-0.1,0.1L8.3,6.7L8,6.9c0,0-0.1,0-0.1-0.1
		L8,6.5L7.7,6.3c0,0,0-0.1,0-0.1l0.4,0L8.3,5.8C8.3,5.8,8.3,5.8,8.3,5.8z"/>
	<path class="st0" d="M8.3,7.6L8.4,8l0.4,0c0,0,0.1,0.1,0,0.1L8.5,8.3l0.1,0.3c0,0,0,0.1-0.1,0.1L8.3,8.5L8,8.7c0,0-0.1,0-0.1-0.1
		L8,8.3L7.7,8.1c0,0,0-0.1,0-0.1l0.4,0L8.3,7.6C8.3,7.6,8.3,7.6,8.3,7.6z"/>
	<path class="st0" d="M9.7,1.3l0.1,0.3l0.4,0c0,0,0.1,0.1,0,0.1L9.9,2l0.1,0.3c0,0,0,0.1-0.1,0.1L9.7,2.2L9.4,2.4c0,0-0.1,0-0.1-0.1
		L9.4,2L9.1,1.8c0,0,0-0.1,0-0.1l0.4,0L9.7,1.3C9.7,1.3,9.7,1.3,9.7,1.3z"/>
	<path class="st0" d="M9.7,3.1l0.1,0.3l0.4,0c0,0,0.1,0.1,0,0.1L9.9,3.8l0.1,0.3c0,0,0,0.1-0.1,0.1L9.7,4L9.4,4.2c0,0-0.1,0-0.1-0.1
		l0.1-0.3L9.1,3.6c0,0,0-0.1,0-0.1l0.4,0L9.7,3.1C9.7,3.1,9.7,3.1,9.7,3.1z"/>
	<path class="st0" d="M9.7,4.9l0.1,0.3l0.4,0c0,0,0.1,0.1,0,0.1L9.9,5.6l0.1,0.3C10.1,6,10,6,10,6L9.7,5.8L9.4,6c0,0-0.1,0-0.1-0.1
		l0.1-0.3L9.1,5.4c0,0,0-0.1,0-0.1l0.4,0L9.7,4.9C9.7,4.9,9.7,4.9,9.7,4.9z"/>
	<path class="st0" d="M9.7,6.7l0.1,0.3l0.4,0c0,0,0.1,0.1,0,0.1L9.9,7.4l0.1,0.3c0,0,0,0.1-0.1,0.1L9.7,7.6L9.4,7.8
		c0,0-0.1,0-0.1-0.1l0.1-0.3L9.1,7.2c0,0,0-0.1,0-0.1l0.4,0L9.7,6.7C9.7,6.7,9.7,6.7,9.7,6.7z"/>
	<path class="st0" d="M9.7,8.5l0.1,0.3l0.4,0c0,0,0.1,0.1,0,0.1L9.9,9.2l0.1,0.3c0,0,0,0.1-0.1,0.1L9.7,9.4L9.4,9.6
		c0,0-0.1,0-0.1-0.1l0.1-0.3L9.1,9c0,0,0-0.1,0-0.1l0.4,0L9.7,8.5C9.7,8.5,9.7,8.5,9.7,8.5z"/>
	<path class="st0" d="M11.1,2.2l0.1,0.3l0.4,0c0,0,0.1,0.1,0,0.1l-0.3,0.2l0.1,0.3c0,0,0,0.1-0.1,0.1L11.1,3l-0.3,0.2
		c0,0-0.1,0-0.1-0.1l0.1-0.3l-0.3-0.2c0,0,0-0.1,0-0.1l0.4,0L11.1,2.2C11.1,2.2,11.1,2.2,11.1,2.2z"/>
	<path class="st0" d="M11.1,4l0.1,0.3l0.4,0c0,0,0.1,0.1,0,0.1l-0.3,0.2L11.5,5c0,0,0,0.1-0.1,0.1l-0.3-0.2l-0.3,0.2
		c0,0-0.1,0-0.1-0.1l0.1-0.3l-0.3-0.2c0,0,0-0.1,0-0.1l0.4,0L11.1,4C11.1,4,11.1,4,11.1,4z"/>
	<path class="st0" d="M11.1,5.8l0.1,0.3l0.4,0c0,0,0.1,0.1,0,0.1l-0.3,0.2l0.1,0.3c0,0,0,0.1-0.1,0.1l-0.3-0.2l-0.3,0.2
		c0,0-0.1,0-0.1-0.1l0.1-0.3l-0.3-0.2c0,0,0-0.1,0-0.1l0.4,0L11.1,5.8C11.1,5.8,11.1,5.8,11.1,5.8z"/>
	<path class="st0" d="M11.1,7.6L11.2,8l0.4,0c0,0,0.1,0.1,0,0.1l-0.3,0.2l0.1,0.3c0,0,0,0.1-0.1,0.1l-0.3-0.2l-0.3,0.2
		c0,0-0.1,0-0.1-0.1l0.1-0.3l-0.3-0.2c0,0,0-0.1,0-0.1l0.4,0L11.1,7.6C11.1,7.6,11.1,7.6,11.1,7.6z"/>
	<path class="st0" d="M12.5,1.3l0.1,0.3l0.4,0c0,0,0.1,0.1,0,0.1L12.7,2l0.1,0.3c0,0,0,0.1-0.1,0.1l-0.3-0.2l-0.3,0.2
		c0,0-0.1,0-0.1-0.1L12.2,2l-0.3-0.2c0,0,0-0.1,0-0.1l0.4,0L12.5,1.3C12.5,1.3,12.5,1.3,12.5,1.3z"/>
	<path class="st0" d="M12.5,3.1l0.1,0.3l0.4,0c0,0,0.1,0.1,0,0.1l-0.3,0.2l0.1,0.3c0,0,0,0.1-0.1,0.1L12.5,4l-0.3,0.2
		c0,0-0.1,0-0.1-0.1l0.1-0.3l-0.3-0.2c0,0,0-0.1,0-0.1l0.4,0L12.5,3.1C12.5,3.1,12.5,3.1,12.5,3.1z"/>
	<path class="st0" d="M12.5,4.9l0.1,0.3l0.4,0c0,0,0.1,0.1,0,0.1l-0.3,0.2l0.1,0.3c0,0,0,0.1-0.1,0.1l-0.3-0.2L12.2,6
		c0,0-0.1,0-0.1-0.1l0.1-0.3l-0.3-0.2c0,0,0-0.1,0-0.1l0.4,0L12.5,4.9C12.5,4.9,12.5,4.9,12.5,4.9z"/>
	<path class="st0" d="M12.5,6.7l0.1,0.3l0.4,0c0,0,0.1,0.1,0,0.1l-0.3,0.2l0.1,0.3c0,0,0,0.1-0.1,0.1l-0.3-0.2l-0.3,0.2
		c0,0-0.1,0-0.1-0.1l0.1-0.3l-0.3-0.2c0,0,0-0.1,0-0.1l0.4,0L12.5,6.7C12.5,6.7,12.5,6.7,12.5,6.7z"/>
	<path class="st0" d="M12.5,8.5l0.1,0.3l0.4,0c0,0,0.1,0.1,0,0.1l-0.3,0.2l0.1,0.3c0,0,0,0.1-0.1,0.1l-0.3-0.2l-0.3,0.2
		c0,0-0.1,0-0.1-0.1l0.1-0.3L11.9,9c0,0,0-0.1,0-0.1l0.4,0L12.5,8.5C12.5,8.5,12.5,8.5,12.5,8.5z"/>
</g>
</svg>
