<svg id="canada-flag" xmlns="http://www.w3.org/2000/svg" width="20.947" height="15" viewBox="0 0 20.947 15">
  <path id="Shape" d="M0,0H10.473V15H0Z" transform="translate(5.237)" fill="#fff"/>
  <path id="Shape-2" data-name="Shape" d="M15.71,15V0h5.237V15ZM0,15V0H5.236V15ZM10.17,9.595l-2.054.265c.122-.228.315-.355.172-.787L6.4,7.389l.407-.14h0c.252-.254-.146-1.027-.273-1.493a3.766,3.766,0,0,0,1.094.224c.166-.075.251-.408.377-.612l.96,1.105a.131.131,0,0,0,.207-.068L8.749,4.086l.7.4c.046.037.1.031.156-.023l.729-1.493.707,1.437a.124.124,0,0,0,.164.069l.734-.419-.464,2.337c.025.094.072.138.182.112l1-1.119.282.548c.072.2,1.176-.184,1.176-.184-.059.509-.446,1.317-.175,1.528l.331.122L12.383,8.995a.971.971,0,0,0,.122.852L10.449,9.6l.093,2.077-.425.013Z" fill="#bf0a30"/>
</svg>
