<?xml version="1.0" encoding="utf-8"?>
<!-- Generator: Adobe Illustrator 25.2.3, SVG Export Plug-In . SVG Version: 6.00 Build 0)  -->
<svg version="1.1" id="canada-flag" xmlns="http://www.w3.org/2000/svg" xmlns:xlink="http://www.w3.org/1999/xlink" x="0px"
	 y="0px" viewBox="0 0 30 20" style="enable-background:new 0 0 30 20;" xml:space="preserve">
<style type="text/css">
	.st0{fill:#FFFFFF;}
	.st1{fill:#73AF00;}
	.st2{fill:#FFE15A;}
	.st3{fill:#41479B;}
	.st4{fill:#F5F5F5;}
</style>
<path id="Shape" class="st0" d="M8.5-0.6h14.4V20H8.5V-0.6z"/>
<path class="st1" d="M27.8,0.3H2.2C1,0.3,0,1.3,0,2.5v15.2C0,18.9,1,20,2.2,20h25.5c1.2,0,2.2-1,2.2-2.2V2.5C30,1.3,29,0.3,27.8,0.3
	z"/>
<path class="st2" d="M14.7,3L3.8,9.7c-0.3,0.2-0.3,0.7,0,0.9l10.9,6.6c0.2,0.1,0.4,0.1,0.5,0l10.9-6.6c0.3-0.2,0.3-0.7,0-0.9L15.3,3
	C15.1,2.9,14.9,2.9,14.7,3z"/>
<circle class="st3" cx="15" cy="10.1" r="4.1"/>
<g>
	<path class="st4" d="M11.4,8c-0.2,0.3-0.3,0.7-0.4,1.1c2.3-0.2,5.7,0.5,7.8,2.6c0.1-0.4,0.2-0.7,0.3-1.1C16.9,8.6,13.8,7.9,11.4,8z
		"/>
	<path class="st4" d="M15.2,11.5l0.1,0.3l0.3,0c0,0,0.1,0.1,0,0.1l-0.3,0.2l0.1,0.3c0,0,0,0.1-0.1,0.1l-0.3-0.2l-0.3,0.2
		c0,0-0.1,0-0.1-0.1l0.1-0.3L14.6,12c0,0,0-0.1,0-0.1l0.3,0L15.2,11.5C15.1,11.5,15.2,11.5,15.2,11.5z"/>
	<path class="st4" d="M16.5,12.4l0,0.1l0.1,0c0,0,0,0,0,0l-0.1,0.1l0,0.1c0,0,0,0,0,0l-0.1-0.1l-0.1,0.1c0,0,0,0,0,0l0-0.1l-0.1-0.1
		c0,0,0,0,0,0l0.1,0L16.5,12.4C16.5,12.4,16.5,12.4,16.5,12.4z"/>
	<path class="st4" d="M14.6,10.9l0,0.1l0.1,0c0,0,0,0,0,0l-0.1,0.1l0,0.1c0,0,0,0,0,0l-0.1-0.1l-0.1,0.1c0,0,0,0,0,0l0-0.1l-0.1-0.1
		c0,0,0,0,0,0l0.1,0L14.6,10.9C14.6,10.9,14.6,10.9,14.6,10.9z"/>
	<path class="st4" d="M12,10.7l0,0.1l0.1,0c0,0,0,0,0,0L12,11l0,0.1c0,0,0,0,0,0l-0.1-0.1l-0.1,0.1c0,0,0,0,0,0l0-0.1l-0.1-0.1
		c0,0,0,0,0,0l0.1,0L12,10.7C11.9,10.7,12,10.7,12,10.7z"/>
	<path class="st4" d="M14.2,12.3l0,0.1l0.1,0c0,0,0,0,0,0l-0.1,0.1l0,0.1c0,0,0,0,0,0l-0.1-0.1L14,12.8c0,0,0,0,0,0l0-0.1l-0.1-0.1
		c0,0,0,0,0,0l0.1,0L14.2,12.3C14.1,12.3,14.2,12.3,14.2,12.3z"/>
	<path class="st4" d="M12.9,10.6l0,0.1l0.1,0c0,0,0,0,0,0L13,10.9l0,0.1c0,0,0,0,0,0l-0.1-0.1L12.8,11c0,0,0,0,0,0l0-0.1l-0.1-0.1
		c0,0,0,0,0,0l0.1,0L12.9,10.6C12.9,10.6,12.9,10.6,12.9,10.6z"/>
	<path class="st4" d="M16.6,8.2l0,0.1l0.2,0c0,0,0,0,0,0l-0.1,0.1l0,0.1c0,0,0,0,0,0l-0.1-0.1l-0.1,0.1c0,0,0,0,0,0l0-0.1l-0.1-0.1
		c0,0,0,0,0,0l0.2,0L16.6,8.2C16.6,8.2,16.6,8.2,16.6,8.2z"/>
	<path class="st4" d="M12.1,9.9l0,0.1l0.1,0c0,0,0,0,0,0l-0.1,0.1l0,0.1c0,0,0,0,0,0l-0.1-0.1L12,10.3c0,0,0,0,0,0l0-0.1l-0.1-0.1
		c0,0,0,0,0,0l0.1,0L12.1,9.9C12.1,9.9,12.1,9.9,12.1,9.9z"/>
	<path class="st4" d="M12.7,11.6l0.1,0.2l0.2,0c0,0,0,0,0,0l-0.1,0.1l0.1,0.2c0,0,0,0,0,0L12.7,12l-0.2,0.1c0,0,0,0,0,0l0.1-0.2
		l-0.1-0.1c0,0,0,0,0,0l0.2,0L12.7,11.6C12.7,11.5,12.7,11.5,12.7,11.6z"/>
	<path class="st4" d="M17.3,12.4l0,0.1l0.1,0c0,0,0,0,0,0l-0.1,0.1l0,0.1c0,0,0,0,0,0l-0.1-0.1l-0.1,0.1c0,0,0,0,0,0l0-0.1l-0.1-0.1
		c0,0,0,0,0,0l0.1,0L17.3,12.4C17.3,12.4,17.3,12.4,17.3,12.4z"/>
	<path class="st4" d="M17.7,11.6l0,0.1l0.1,0c0,0,0,0,0,0l-0.1,0.1l0,0.1c0,0,0,0,0,0l-0.1-0.1L17.5,12c0,0,0,0,0,0l0-0.1l-0.1-0.1
		c0,0,0,0,0,0l0.1,0L17.7,11.6C17.7,11.6,17.7,11.6,17.7,11.6z"/>
</g>
</svg>
