<?xml version="1.0" encoding="utf-8"?>
<!-- Generator: Adobe Illustrator 25.2.3, SVG Export Plug-In . SVG Version: 6.00 Build 0)  -->
<svg version="1.1" id="canada-flag" xmlns="http://www.w3.org/2000/svg" xmlns:xlink="http://www.w3.org/1999/xlink" x="0px"
	 y="0px" viewBox="0 0 30 20" style="enable-background:new 0 0 30 20;" xml:space="preserve">
<style type="text/css">
	.st0{fill:#FAB446;}
	.st1{fill:#73AF00;}
	.st2{fill:#F5F5F5;}
	.st3{fill:#41479B;}
</style>
<path class="st0" d="M27.8,0.2H2.3C1,0.2,0,1.2,0,2.4v4.3h30.1V2.4C30.1,1.2,29,0.2,27.8,0.2z"/>
<path class="st1" d="M0,17.6c0,1.2,1,2.3,2.3,2.3h25.6c1.2,0,2.3-1,2.3-2.3v-4.3H0V17.6z"/>
<rect y="6.7" class="st2" width="30.1" height="6.6"/>
<g>
	<path class="st3" d="M15,12.8c-1.5,0-2.8-1.2-2.8-2.8s1.2-2.8,2.8-2.8s2.8,1.2,2.8,2.8S16.6,12.8,15,12.8z M15,7.7
		c-1.3,0-2.3,1-2.3,2.3s1,2.3,2.3,2.3s2.3-1,2.3-2.3S16.3,7.7,15,7.7z"/>
	<circle class="st3" cx="15" cy="10" r="0.3"/>
	<polygon class="st3" points="15,10 14.2,10.1 12.5,10 12.5,10 14.2,9.9 15,10 	"/>
	<polygon class="st3" points="15,10 15.8,10.1 17.6,10 17.6,10 15.8,9.9 15,10 	"/>
	<polygon class="st3" points="15,10 14.9,9.2 15,7.5 15.1,7.5 15.2,9.2 15.1,10 	"/>
	<polygon class="st3" points="15,10 14.9,10.8 15,12.5 15.1,12.5 15.2,10.8 15.1,10 	"/>
	<polygon class="st3" points="15,10 14.4,9.5 13.2,8.2 13.3,8.2 14.5,9.3 15.1,10 	"/>
	<polygon class="st3" points="15,10 15.5,10.7 16.8,11.8 16.8,11.8 15.7,10.5 15.1,10 	"/>
	<polygon class="st3" points="15,10 15.5,9.3 16.8,8.2 16.8,8.2 15.7,9.5 15.1,10 	"/>
	<polygon class="st3" points="15,10 14.4,10.5 13.2,11.8 13.3,11.8 14.5,10.7 15.1,10 	"/>
	<polygon class="st3" points="15,10 14.3,10.4 12.7,11 12.7,10.9 14.2,10.2 15,10 	"/>
	<polygon class="st3" points="15,10 15.8,9.8 17.4,9.1 17.3,9 15.7,9.6 15,10 	"/>
	<polygon class="st3" points="15,10 14.6,9.3 14,7.7 14.1,7.6 14.8,9.2 15.1,10 	"/>
	<polygon class="st3" points="15,10 15.2,10.8 15.9,12.4 16,12.3 15.5,10.7 15.1,10 	"/>
	<polygon class="st3" points="15,10 14.2,9.8 12.7,9.1 12.7,9 14.3,9.6 15,10 	"/>
	<polygon class="st3" points="15,10 15.7,10.4 17.3,11 17.4,10.9 15.8,10.2 15,10 	"/>
	<polygon class="st3" points="15,10 15.2,9.2 15.9,7.6 16,7.7 15.5,9.3 15.1,10 	"/>
	<polygon class="st3" points="15,10 14.6,10.7 14,12.3 14.1,12.4 14.8,10.8 15.1,10 	"/>
</g>
<circle class="st2" cx="15" cy="10" r="0.4"/>
<circle class="st3" cx="15" cy="10" r="0.3"/>
</svg>
