<svg id="footer-loho" xmlns="http://www.w3.org/2000/svg" width="177.859" height="165.426" viewBox="0 0 177.859 165.426">
  <path id="SmokeBK" d="M211,258.622c0,.428-28.411,8.538-44.247,10.845-26.881,3.917-50.86,5.824-76.655-4.024-42.493-15.592-47.885-53.861-7.281-76.7C80.3,198.449,81,207.392,73.347,215.1c-10.473,10.542-9.024,24.523,1.595,35.527,28.747,27.092,85.541,17.873,102.686,15.344C187.307,264.544,211,258.622,211,258.622Z" transform="translate(-53.646 -113.262)" fill="#a5a5a5"/>
  <g id="Plane" transform="translate(80.062 124.083)">
    <path id="Path_13515" data-name="Path 13515" d="M285.354,325.2l-25.6-19.484c3.956-2.39,7.32-1.981,10.776-.621,17.734,5.767,34.351,18.013,53.907,10.677,3.476-1.338,7.888-.3,11.867-.223,1.322.027,2.86.493,2.979,2.061.11,1.437-1.1,2.322-2.388,2.863-37.7,10.789-72.927,22.12-82.5,22.036-5.827-.052-1.771-.621-1.078-2.778.683-2.133-1.624-3.156-2.917-4.266-2.616-2.245-5.51-4.168-8.9-6.68,4.423-2.394,6.935-4.027,9.4-1.977C262.2,336.221,272.764,329.6,285.354,325.2Z" transform="translate(-241.493 -304)" fill="#a5a5a5"/>
    <path id="Path_13516" data-name="Path 13516" d="M340.738,377.726c-3.844,5.391-5.884,9.932-11.82,10.242-3.026.158-5.445-1.245-5.711-3.562-.245-2.137,2.372-2.607,4.1-3.122C331.17,380.141,335.089,379.2,340.738,377.726Z" transform="translate(-288.74 -346.637)" fill="#a5a5a5"/>
  </g>
  <path id="Lication" d="M229.49,61.146a48.509,48.509,0,0,1-13.882,34.991c-10.958,11.432-22.426,22.373-33.468,33.727-2.8,2.876-4.531,3.428-7.561.234q-11.639-12.263-23.937-23.891c-3.212-3.025-2.16-4.544-.115-7.872,2.61-4.249,5.132-8.4,7.836-13.019,1-1.716,2.958-7.138,9.006-3.352,10.206,6.4,23.783,2.41,30.578-7.481A23.741,23.741,0,0,0,193.374,42.6c-14.129-12.629-37.575-1.652-38.868,17.567-1.147,17.064-7.35,30.338-19.592,41.695-9.636,8.939-18.808,18.4-27.883,27.919-3.237,3.4-5.08,3.042-8.17-.162-10.813-11.2-22.118-21.927-32.9-33.155a51.148,51.148,0,0,1-3.935-66.415C76.96,10.162,105.08,3.974,127.083,15.555c4.757,2.5,5.024,3,2.371,9.631-.31.775-.971,2.464-1.4,3.428-4.176,9.333-7.6,15.759-21.65,9.576-11.984-5.276-25.388,6.432-27.032,19.4-3.538,32.323,44.267,37.673,47.227,5.325C128.384-6.588,226.821-8.1,229.49,61.146Z" transform="translate(-51.632 -9.744)" fill="#accd00"/>
</svg>
