<svg xmlns="http://www.w3.org/2000/svg" width="1361.88" height="995.706" viewBox="0 0 1361.88 995.706">
  <g id="header-bg" transform="translate(-1508.321 -2312.826)">
    <g id="Group_1706" data-name="Group 1706">
      <path id="Rectangle_6-2" data-name="Rectangle 6-2" d="M1512.325,2314.677c11.143-.1,1001.726-.1,1002.866-1.057,2.561.424,48.544,0,49.6,0l277.591.793c.192.147,29.292-1.062,27.759,0-2.094,2.423-46.985,45.233-49.3,47.444l-947.106,867.068c-106.148,92.36-105.311,99.084-225.725,47.213s-135.237-61.416-135.237-61.416c-.2-4.474-.139-133.4-4.452-206.724Z" fill="#f5f5f5"/>
    </g>
    <g id="Group_1707" data-name="Group 1707">
      <path id="BG-2" d="M1512.59,2313.884c.749-.251,307.2.264,307.73-.264,3.172.529,10.278-1.619,11.9,0l951.741-.793a5.384,5.384,0,0,1,0,1.058L1851.9,3243.925c-61.534,52.753-57.546,110.355-339.264-28.9-.206-65.378-.206-110.5,0-183.308Z" fill="#ecf4e1" opacity="0.54" style="isolation: isolate"/>
    </g>
  </g>
</svg>
