<svg id="Component_3_1" data-name="Component 3 – 1" xmlns="http://www.w3.org/2000/svg" width="85.855" height="78.062" viewBox="0 0 85.855 78.062">
  <g id="Group_27148" data-name="Group 27148">
    <path id="Path_65274" data-name="Path 65274" d="M1222.772,1080.2a19.337,19.337,0,0,0-16.861,28.794l-2.316,8.643a.455.455,0,0,0,.557.557l8.4-2.25a19.333,19.333,0,1,0,10.22-35.744Zm-9.8,21.988a2.656,2.656,0,1,1,2.656-2.656A2.656,2.656,0,0,1,1212.973,1102.189Zm9.8,0a2.656,2.656,0,1,1,2.656-2.656A2.656,2.656,0,0,1,1222.772,1102.189Zm9.8,0a2.656,2.656,0,1,1,2.657-2.656A2.656,2.656,0,0,1,1232.57,1102.189Z" transform="translate(-1179.494 -1060.502)" fill="#a5a5a5"/>
    <g id="Group_27147" data-name="Group 27147" transform="translate(0 0)">
      <g id="Group_27146" data-name="Group 27146">
        <path id="Path_65275" data-name="Path 65275" d="M910.46,809.84a16.529,16.529,0,0,0-3.87-2.94v-.932a33.55,33.55,0,0,0-67.093-.694,13.4,13.4,0,0,0-10.2,12.995A16.5,16.5,0,0,0,839.489,833.5v2.692a10.368,10.368,0,0,0,10.355,10.359h11.868a6.429,6.429,0,0,0,5.918,3.935h8.716a6.419,6.419,0,1,0,0-12.837H867.63a6.429,6.429,0,0,0-6.274,5.062H849.844a6.524,6.524,0,0,1-6.514-6.519v-1.635a16.615,16.615,0,0,0,2.044.175l1.966.047V804.892h-3.99a29.71,29.71,0,0,1,59.394.5,16.567,16.567,0,0,0-3.662-.5l-1.966-.047V834.73h4.661a13.392,13.392,0,0,0,13.377-13.377A16.37,16.37,0,0,0,910.46,809.84Zm-42.83,31.646h8.716a2.578,2.578,0,1,1,0,5.157H867.63a2.578,2.578,0,0,1,0-5.157ZM843.5,808.732v21.955a12.719,12.719,0,0,1-10.358-12.418,9.548,9.548,0,0,1,9.537-9.537Zm58.279,22.157h-.821V808.935a12.719,12.719,0,0,1,10.358,12.418A9.548,9.548,0,0,1,901.777,830.889Z" transform="translate(-829.3 -772.422)" fill="#accd00"/>
      </g>
    </g>
  </g>
</svg>
