<svg id="img-abour-why-1" xmlns="http://www.w3.org/2000/svg" width="132.425" height="161.91" viewBox="0 0 132.425 161.91">
  <g id="Group_3152" data-name="Group 3152">
    <path id="Path_15471" data-name="Path 15471" d="M946.277,445.922v75.616c0,3.728,1.441,6.173,3.621,6.809v.013l15.057,4.5-3.015-9.74,47.584-27.473a4.646,4.646,0,0,0,.47.416l20.4,15.418a8.265,8.265,0,0,0,2.431,1.218l0,.008,15.284,4.579-4.827-12.686-1.495.54c0-.077,0-.156,0-.235V477.019l14.1-8.139c4.4-2.542,7.965-9.356,7.965-15.223V383.405l2.087,6.745,9.874,31.9-.542-36.849-.139-9.5-14.5-4.332a5.34,5.34,0,0,0-4.74.651L959.426,427.71l-3.505,2.022-1.676.968a12.374,12.374,0,0,0-3.032,2.547,18.529,18.529,0,0,0-1.933,2.634,21.336,21.336,0,0,0-2.554,6.265A16.932,16.932,0,0,0,946.277,445.922Z" transform="translate(-946.277 -371.062)" fill="#adafaf"/>
    <path id="Path_15472" data-name="Path 15472" d="M950.947,435.88a18.343,18.343,0,0,1,1.933-2.634h0v0q.335-.377.685-.724c.059-.058.119-.114.178-.171s.107-.1.161-.153.133-.121.2-.18l.148-.13c.068-.059.137-.116.205-.172l.152-.123q.1-.081.2-.159l.165-.123c.065-.047.13-.095.195-.141s.131-.089.2-.133.112-.076.169-.112c.123-.078.246-.154.371-.226l1.675-.968,3.505-2.022,96.457-55.693a5.341,5.341,0,0,1,4.74-.651l14.5,4.332.139,9.5-9.332,4.953-2.087,1.106-90.951,48.277,5.148,2.973-7.673,6.914-23.646-7.275A21.339,21.339,0,0,1,950.947,435.88Z" transform="translate(-947.945 -371.062)" fill="#cfd1cf"/>
    <path id="Path_15473" data-name="Path 15473" d="M1024.371,451.736l101.638-58.681c4.4-2.54,7.967.156,7.967,6.023v75.616c0,5.866-3.567,12.682-7.968,15.223l-14.1,8.139c0,10.856,0,21.333,0,27.884,0,10.16-8.247,8.957-11.393,6.578l-20.4-15.42a4.419,4.419,0,0,1-.47-.416l-55.28,31.916c-4.4,2.54-7.967-.156-7.967-6.023V466.958C1016.4,461.091,1019.971,454.276,1024.371,451.736Z" transform="translate(-1001.552 -387.643)" fill="#e7f2d9"/>
  </g>
  <path id="Path_15474" data-name="Path 15474" d="M1284.554,622.239a10.331,10.331,0,0,0,2.028-5.564l1.94-1.475-3.081-1.637a2.659,2.659,0,0,0-.291-.154l-.075-.04-.01,0a5.747,5.747,0,0,0-4.677.576c-1.739,1.047-7.174,4.929-7.05,2.62s4-7.244,4.438-12.884a13.771,13.771,0,0,0-.33-4.483l.888-1.831L1275.4,595.8c-.047-.028-.094-.053-.141-.075l-.015-.008h0a1.13,1.13,0,0,0-.973-.05c-1.43.66-2.06,4.723-2.309,5.944a56.669,56.669,0,0,1-2.083,7.089c-1.679,4.2-4.01,6.647-4.881,8.725s-4.58,12.807-6.436,15.26a16.059,16.059,0,0,1-2.922,2.091,1.27,1.27,0,0,0-.793,1.3c0,1.057.093,21.833.093,21.833s-.233,1.751.7,1.213,1.228-.792,1.57-.678a1.791,1.791,0,0,0,2.238.1l20.768-11.99s3.467-2.209,3.467-5.235c0-2.363-.9-2.837-.9-2.837s2.394-2.346,2.394-4.8c0-2.881-1.228-2.913-1.228-2.913a9.628,9.628,0,0,0,2.472-6.044A2.2,2.2,0,0,0,1284.554,622.239Z" transform="translate(-1189.495 -548.028)" fill="#ce665d"/>
  <path id="Path_15475" data-name="Path 15475" d="M1269.882,665.871s-.234,1.752.7,1.213,1.228-.792,1.57-.678a1.792,1.792,0,0,0,2.238.1l20.768-11.99s3.466-2.209,3.466-5.235c0-2.363-.9-2.837-.9-2.837s2.394-2.346,2.394-4.8c0-2.881-1.228-2.913-1.228-2.913a9.628,9.628,0,0,0,2.472-6.044,2.2,2.2,0,0,0-1.866-2.477,10.419,10.419,0,0,0,2.052-6.429c-.046-3.352-4.127-3.12-6.218-1.861-1.739,1.047-7.174,4.93-7.05,2.619s4-7.244,4.438-12.884-2.075-8.678-3.505-8.018-2.06,4.723-2.308,5.944a56.793,56.793,0,0,1-2.083,7.089c-1.679,4.2-4.01,6.647-4.881,8.725s-4.581,12.807-6.436,15.26a16.041,16.041,0,0,1-2.923,2.092,1.27,1.27,0,0,0-.792,1.3C1269.788,645.095,1269.882,665.871,1269.882,665.871Z" transform="translate(-1201.271 -554.304)" fill="#f29c90"/>
  <path id="Path_15476" data-name="Path 15476" d="M1215.486,778.867l-3-1.61-.034-.018-.022-.012h0a1.2,1.2,0,0,0-1.078.019,1.456,1.456,0,0,0-.167.084l-8.167,4.715c-1.2.691-2.116,2.73-2.116,4.591v21.739c0,1.2.392,2.028.991,2.278h0l3.125,1.675,0-2.958,6.053-3.495c.02-.011.038-.025.058-.038s.039-.018.059-.029c1.2-.691,2.168-2.76,2.168-4.621V780.492Z" transform="translate(-1146.974 -691.111)" fill="#1a4877"/>
  <path id="Path_15477" data-name="Path 15477" d="M1226.291,785.21a1.476,1.476,0,0,0-.167.083l-8.167,4.715c-1.2.691-2.116,2.73-2.116,4.591v21.739c0,1.861.936,2.829,2.133,2.138l8.033-4.638c.02-.012.037-.026.057-.038s.039-.018.059-.029c1.2-.692,2.169-2.761,2.169-4.622V787.411C1228.293,785.637,1227.41,784.7,1226.291,785.21Z" transform="translate(-1158.75 -697.387)" fill="#64acc5"/>
  <path id="Path_15478" data-name="Path 15478" d="M1251.159,807.028a3.8,3.8,0,0,1-1.585,3.029c-.875.506-1.586-.031-1.586-1.2a3.8,3.8,0,0,1,1.586-3.029C1250.45,805.324,1251.159,805.861,1251.159,807.028Z" transform="translate(-1184.088 -713.6)" fill="#fff"/>
</svg>
