<svg id="img-contact" xmlns="http://www.w3.org/2000/svg" width="840.388" height="519.058" viewBox="0 0 840.388 519.058">
  <path id="svg-bg" d="M356.835,416.1c81.1,0,148.583,54.856,315.049,0s10.207-122.865,49.539-192.518S755.882,12.018,565.2,113.039c-59.259,31.395-126.033-57.784-208.362-57.784-50.34,0-91.36-8.368-129.831-24.641C-20.191-73.947-55.533,113.039,72.757,235.679s-6.549,56.349,165.3,96.451C374.384,363.941,304.332,416.1,356.835,416.1Z" transform="translate(0 76.511)" fill="#e7f2d9"/>
  <path id="Path_15248" data-name="Path 15248" d="M2781.1,1213.448s146.141-224.276-9.012-285.615c-39.082-15.451-52.715-231.762-226.309-123.606-69.035,43.011-168.441-9.039-263.636,19.41-87.425,26.127-89.435,101.494-78.381,128.626,12.078,29.647-36.088,65.092-85.416,89.435-77.376,38.186-20.478,172.386,52.62,173.027S2781.1,1213.448,2781.1,1213.448Z" transform="translate(-2003.079 -695.852)" fill="#eaeaea"/>
  <g id="Group_3103" data-name="Group 3103" transform="translate(-2003.079 -695.852)">
    <path id="Path_15249" data-name="Path 15249" d="M2456.094,924.451l-12.715-.291c4.085,5.294,5,10.172,2.459,14.3-2.543,4.211-8.63,7.671-17.718,10.3a164.35,164.35,0,0,0-217.831-208.743c-2.418,1.042-4.836,2.126-7.171,3.252l-.022.01c-7.062-2.155-13.942-3.921-20.579-5.266-33.507-6.8-57.285-2.1-66.943,13.232-9.191,14.582-4.188,36.533,14.051,62.134l-.007.013c-2.46,4.544-4.669,9.213-6.712,14.049-1.543,3.627-2.918,7.254-4.169,10.965-34.269,2.043-52.613,8.074-59.283,19-7.755,12.715,2.835,29.78,36.729,46.373,4.669,2.293,9.672,4.544,14.925,6.8a160.589,160.589,0,0,0,11.8,44.692,164.266,164.266,0,0,0,301.962,1.542c16.718-3.46,27.724-8.88,32.1-16.051C2460.013,935.791,2459.638,930.288,2456.094,924.451Zm-39.23,26.891c-11.132,2-25.015,3.168-41.232,3.335-25.165.307-54.066-1.681-84.523-5.7q3.843-8.368,7.525-17.175a232.487,232.487,0,0,0,27.372,7.441,138.6,138.6,0,0,0,27.33,3.039c19.133,0,32.842-5.524,39.612-16.271a28.059,28.059,0,0,0,2.724-5.63h-9.754c-.161.3-.333.59-.513.876-5.029,7.983-16.268,12.107-32.048,12.1a130.161,130.161,0,0,1-25.581-2.859,222.848,222.848,0,0,1-25.761-6.968q3.524-8.814,6.837-17.944c5.946-16.394,11.036-32.645,15.153-48.25a414.394,414.394,0,0,0,60.307,4.155q19.986,0,41.411-1.614a155.529,155.529,0,0,1,3.189,31.464A153.74,153.74,0,0,1,2416.864,951.342Zm-203.212,81.411c-4.744-1.72-7.152-8.529-8.337-13.938-1.873-8.548-2.211-20.554-.979-34.721.623-7.165,1.624-14.783,2.973-22.751a422.563,422.563,0,0,1,57.449,19.88c-4.223,7.282-8.493,14.035-12.764,20.156-8.136,11.663-16.092,20.661-23.009,26.021C2224.609,1030.791,2218.4,1034.474,2213.652,1032.753Zm55.4-59.153a431.1,431.1,0,0,0-60.183-20.842q1.077-5.547,2.361-11.281,8.5,1.932,17.234,3.736c17.029,3.483,34.017,6.44,50.647,8.833Q2274.172,964.267,2269.054,973.6Zm-36.836-34.557q-9.87-2.031-19.437-4.237c3-12.483,6.686-25.5,10.988-38.758a380.313,380.313,0,0,0,66.645,32.868q-4.053,9.675-8.311,18.826C2265.745,945.4,2249.009,942.486,2232.218,939.043Zm-54.624-168.505a102.019,102.019,0,0,0,6.047,10.638c11.306,17.473,26.238,30.14,36.774,37.688a180.016,180.016,0,0,0,19.35,12.047c-6.246,13.611-12.195,28.136-17.665,43.219q-1.53,4.218-2.981,8.42c-32.673-21.267-60.335-45.671-78.481-69.288l-.007-.01a155.308,155.308,0,0,1,15.586-21.959c2.418-2.835,4.919-5.587,7.546-8.255l1.083-1.084A156.49,156.49,0,0,1,2177.594,770.538ZM2317.3,746.971c4.743,1.72,7.152,8.529,8.337,13.938,1.872,8.548,2.211,20.554.979,34.72a346.389,346.389,0,0,1-9.076,51.872q-8.372-1.44-16.34-3.267A234.938,234.938,0,0,1,2251.207,827c8.91-18.581,18.331-35.152,27.751-48.655,8.136-11.662,16.092-20.66,23.009-26.02,3.609-2.8,8.466-5.791,12.719-5.791A7.619,7.619,0,0,1,2317.3,746.971Zm-18.645,105.6q8.151,1.893,16.723,3.376c-4.01,15.091-8.95,30.807-14.7,46.676q-3.328,9.176-6.879,18.04c-21.62-7.938-44.568-19.291-67.128-33.315q1.749-5.113,3.612-10.256c5.347-14.743,11.151-28.933,17.236-42.222A243.264,243.264,0,0,0,2298.656,852.575Zm84.939-70.621a154.133,154.133,0,0,1,40.1,69.353c-35.656,2.608-68.33,1.789-97.536-2.438a353.908,353.908,0,0,0,9.123-52.486c1.511-17.376,1.327-37.957-5.718-49.539q2.45.942,4.876,1.967A153.584,153.584,0,0,1,2383.595,781.954Zm-109.353-45.317a154.916,154.916,0,0,1,31.557,3.218c-12.152,5.289-24.559,20.012-33.976,33.512-9.639,13.816-19.264,30.726-28.353,49.654a171.312,171.312,0,0,1-17.383-10.8c-18.078-12.825-28.908-26.255-34.81-35.263a91.473,91.473,0,0,1-6.592-11.78,154.693,154.693,0,0,1,19.994-12.063l.006,0q4.261-2.151,8.677-4.034c.213-.091.423-.184.637-.274.049-.022.1-.042.149-.063q.94-.4,1.887-.778l.507-.2A153.645,153.645,0,0,1,2274.242,736.637ZM2123.117,756c5.03-7.983,16.268-12.1,32.048-12.1a130.161,130.161,0,0,1,25.581,2.859q5.377,1.089,10.971,2.562l.01,0a161.431,161.431,0,0,0-33.634,25.925c-2.126,2.085-4.17,4.253-6.171,6.5-2.5,2.751-4.877,5.628-7.17,8.546a165.571,165.571,0,0,0-10.173,14.55l-.007.013C2120.628,784.151,2116.436,766.6,2123.117,756Zm8.544,75.153c1.376-3.169,2.793-6.295,4.336-9.339l0-.008c19.107,23.883,47.27,48.3,80.177,69.472-4.666,14.2-8.647,28.158-11.86,41.532a636.2,636.2,0,0,1-65.57-19.361c-4.085-1.459-8.046-2.96-11.84-4.461-2.251-.875-4.461-1.793-6.628-2.709-.334-3.336-.584-6.713-.667-10.09-.042-1.626-.084-3.21-.084-4.836,0-1.876.042-3.794.084-5.67a156.425,156.425,0,0,1,7.087-41.023c.709-2.251,1.459-4.461,2.293-6.67C2129.827,835.693,2130.7,833.4,2131.661,831.149Zm-27.891,67.705c-29.558-14.425-43.066-28.35-37.021-38.23,4.878-8.005,22.638-13.425,49.82-15.426a159.694,159.694,0,0,0-6.17,34.687c-.25,3.5-.375,7-.417,10.547v.917c0,3.544.125,7.088.334,10.59C2108.064,900.938,2105.9,899.9,2103.77,898.854Zm22.43,17.718c4,1.5,8.088,3,12.3,4.461,19.356,6.707,41.054,12.941,64.264,18.472q-1.265,5.64-2.334,11.114-2.845-.69-5.694-1.342c-32.087-7.3-56.166-8.789-67.327-9.041a151.193,151.193,0,0,1-6.085-25.54Zm5.461,34.978c-.354-.84-.7-1.683-1.036-2.527a356.968,356.968,0,0,1,62.5,8.811q2.864.654,5.722,1.356c-1.451,8.463-2.521,16.55-3.182,24.151-1.253,14.4-1.342,31,2.675,42.861a155.585,155.585,0,0,1-66.683-74.652Zm202.781,82.338a155.222,155.222,0,0,1-107.109,4.935c11.444-6,22.942-19.773,31.8-32.466,4.567-6.547,9.131-13.792,13.636-21.612a437.225,437.225,0,0,1,74.423,43.055Q2340.979,1031.119,2334.442,1033.888Zm49.153-33.143a153.507,153.507,0,0,1-28.137,22.3,446.414,446.414,0,0,0-78.421-45.917c3.772-6.911,7.49-14.211,11.119-21.832a668.475,668.475,0,0,0,71.3,5.842c5.754.166,11.34.166,16.76.125a298.288,298.288,0,0,0,37.271-2.5A153.7,153.7,0,0,1,2383.595,1000.745Z" fill="#b8c1c9"/>
    <g id="Group_3101" data-name="Group 3101">
      <path id="Path_15250" data-name="Path 15250" d="M2238.654,717.356l-38.854,6.6,25.414-18.327,1.466,5.621,9.53,1.466Z" fill="#016eb9"/>
      <path id="Path_15251" data-name="Path 15251" d="M2199.8,723.953l32.012-17.594,31.768-2.444Z" fill="#00a3fe"/>
      <path id="Path_15252" data-name="Path 15252" d="M2225.214,705.626,2199.8,723.953l19.305-28.1Z" fill="#00a3fe"/>
    </g>
    <g id="Group_3102" data-name="Group 3102">
      <path id="Path_15253" data-name="Path 15253" d="M2068.038,812.141l36.776,14.166-21.278-23-2.551,5.218-9.632-.451Z" fill="#016eb9"/>
      <path id="Path_15254" data-name="Path 15254" d="M2104.815,826.307l-27.891-23.589-30.653-8.69Z" fill="#00a3fe"/>
      <path id="Path_15255" data-name="Path 15255" d="M2083.536,803.307l21.278,23-13.354-31.37Z" fill="#00a3fe"/>
    </g>
  </g>
  <path id="Path_15256" data-name="Path 15256" d="M2777.111,1212.885H2056.917s79.488-52.944,116.05-31.908,99.4-4.978,118.038-32.288,45.3,39.394,69.6,22.777,34.273-86.6,66.573-71.386,18.508,100.236,40.25,53.921,65.581-72.4,75.769-16S2665.94,1126.39,2777.111,1212.885Z" transform="translate(-2003.079 -695.852)" fill="#d5d6da"/>
  <g id="Group_3110" data-name="Group 3110" transform="translate(-2003.079 -695.852)">
    <rect id="Rectangle_129" data-name="Rectangle 129" width="23.336" height="18.189" transform="translate(2625.503 834.541)" fill="#fff"/>
    <path id="Path_15257" data-name="Path 15257" d="M2663.664,853.336l-4.125,16.546h-31.694l6.524-24.153a15.135,15.135,0,0,1,14.611-11.188h0A15.134,15.134,0,0,1,2663.664,853.336Z" fill="#d5d6da"/>
    <g id="Group_3104" data-name="Group 3104">
      <path id="Path_15258" data-name="Path 15258" d="M2503.43,984.1l18.212,216.545s1.908,13.126-7.856,13.149c-16.054.039-79.9,0-79.9,0s12.082-2.732,11.936-8.88c-.173-7.247-21.286-222.864-21.286-222.864Z" fill="#364154"/>
      <path id="Path_15259" data-name="Path 15259" d="M2508.477,1209.865c-15.635.2-76.619.01-79.778,0,1.188,0,10.36-.226,11.657-7.128a9.2,9.2,0,0,0,.153-1.752c-.007-1.35-.749-9.918-1.953-22.973-1.076-11.709-2.526-27.022-4.15-43.973-6.29-65.685-15.183-155.917-15.183-155.917l78.9,2.048,12.941,153.869,2.525,30.032,2.271,27.018.475,5.629S2518.561,1209.738,2508.477,1209.865Z" fill="#657285"/>
      <path id="Path_15260" data-name="Path 15260" d="M2695.041,866.264l-44.361,178.19-6.074,24.4-20.661,83H2240.09l76.154-285.589Z" fill="#657285"/>
      <path id="Path_15261" data-name="Path 15261" d="M2695.042,866.263l6.148,2.049-69.072,289.739-8.174-6.2Z" fill="#364154"/>
      <path id="Path_15262" data-name="Path 15262" d="M2632.118,1158.052H2250.626l-10.535-6.2h383.852Z" fill="#364154"/>
      <rect id="Rectangle_130" data-name="Rectangle 130" width="82.599" height="3.925" transform="translate(2415.551 1209.952)" fill="#364154"/>
      <path id="Path_15263" data-name="Path 15263" d="M2514.1,1157.927l-.516,6.144-.019.226s-53.655,5.144-75.014,13.715c-.538-5.87-1.172-12.648-1.876-20.085Z" fill="#364154"/>
      <path id="Path_15264" data-name="Path 15264" d="M2692.146,870.039l-54.744,225.75h-377.78l61.347-225.75Z" fill="#b8c1c9"/>
      <path id="Path_15265" data-name="Path 15265" d="M2254.952,1095.789h4.671l-.935,3.441-4.519-.511Z" fill="#657285"/>
      <path id="Path_15266" data-name="Path 15266" d="M2695.654,866.262v3.777h-3.508l.915-3.777Z" fill="#657285"/>
    </g>
    <path id="Path_15267" data-name="Path 15267" d="M2290.124,1183.576h259.648l87.023-349.035H2391.9a18.883,18.883,0,0,0-18.323,14.316Z" fill="#f4f4f4"/>
    <g id="Group_3106" data-name="Group 3106">
      <g id="Group_3105" data-name="Group 3105">
        <path id="Path_15268" data-name="Path 15268" d="M2381.753,995.411h172a5.311,5.311,0,0,0,4.842-3.876l.363-1.453a2.936,2.936,0,0,0-2.91-3.877h-172a5.313,5.313,0,0,0-4.843,3.877l-.362,1.453A2.935,2.935,0,0,0,2381.753,995.411Z" fill="#eaeaea" stroke="#727272" stroke-miterlimit="10" stroke-width="1"/>
        <path id="Path_15269" data-name="Path 15269" d="M2397.056,934.036h172a5.311,5.311,0,0,0,4.843-3.876l.362-1.453a2.935,2.935,0,0,0-2.909-3.876h-172a5.311,5.311,0,0,0-4.842,3.876l-.363,1.453A2.935,2.935,0,0,0,2397.056,934.036Z" fill="#eaeaea" stroke="#727272" stroke-miterlimit="10" stroke-width="1"/>
        <path id="Path_15270" data-name="Path 15270" d="M2391.74,955.356h172a5.313,5.313,0,0,0,4.843-3.876l.362-1.453a2.936,2.936,0,0,0-2.91-3.877h-172a5.312,5.312,0,0,0-4.843,3.877l-.362,1.453A2.935,2.935,0,0,0,2391.74,955.356Z" fill="#eaeaea" stroke="#727272" stroke-miterlimit="10" stroke-width="1"/>
        <path id="Path_15271" data-name="Path 15271" d="M2386.747,975.384h172a5.313,5.313,0,0,0,4.842-3.877l.363-1.453a2.936,2.936,0,0,0-2.91-3.876h-172a5.313,5.313,0,0,0-4.843,3.876l-.362,1.453A2.936,2.936,0,0,0,2386.747,975.384Z" fill="#eaeaea" stroke="#727272" stroke-miterlimit="10" stroke-width="1"/>
        <path id="Path_15272" data-name="Path 15272" d="M2371.577,1036.228h172a5.314,5.314,0,0,0,4.843-3.876l.362-1.453a2.936,2.936,0,0,0-2.91-3.877h-172a5.313,5.313,0,0,0-4.843,3.877l-.362,1.453A2.935,2.935,0,0,0,2371.577,1036.228Z" fill="#eaeaea" stroke="#727272" stroke-miterlimit="10" stroke-width="1"/>
        <path id="Path_15273" data-name="Path 15273" d="M2376.57,1016.2h172a5.315,5.315,0,0,0,4.843-3.877l.362-1.453a2.935,2.935,0,0,0-2.91-3.876h-172a5.311,5.311,0,0,0-4.842,3.876l-.363,1.453A2.936,2.936,0,0,0,2376.57,1016.2Z" fill="#eaeaea" stroke="#727272" stroke-miterlimit="10" stroke-width="1"/>
      </g>
      <path id="Path_15274" data-name="Path 15274" d="M2356.611,1099.165h41.776a6.308,6.308,0,0,0,5.751-4.6h0a3.486,3.486,0,0,0-3.455-4.6h-41.776a6.31,6.31,0,0,0-5.751,4.6h0A3.486,3.486,0,0,0,2356.611,1099.165Z" fill="#00a3fe"/>
      <path id="Path_15275" data-name="Path 15275" d="M2484.591,1099.165h41.777a6.308,6.308,0,0,0,5.75-4.6h0a3.486,3.486,0,0,0-3.455-4.6h-41.776a6.311,6.311,0,0,0-5.751,4.6h0A3.486,3.486,0,0,0,2484.591,1099.165Z" fill="#00a3fe"/>
    </g>
    <g id="Group_3107" data-name="Group 3107">
      <path id="Path_15276" data-name="Path 15276" d="M2405.449,1108.964h-60.924a4.758,4.758,0,0,1-3.862-1.756,5.042,5.042,0,0,1-.784-4.42l4.393-17.615a8.288,8.288,0,0,1,7.574-6.059h60.923a4.76,4.76,0,0,1,3.862,1.756,5.045,5.045,0,0,1,.784,4.421l-4.392,17.615A8.289,8.289,0,0,1,2405.449,1108.964Zm-53.6-29.36a7.775,7.775,0,0,0-7.1,5.687l-4.392,17.615a4.566,4.566,0,0,0,.7,4,4.28,4.28,0,0,0,3.476,1.568h60.924a7.775,7.775,0,0,0,7.1-5.687l4.392-17.615a4.566,4.566,0,0,0-.695-4,4.277,4.277,0,0,0-3.476-1.568Z" fill="#476ba7"/>
    </g>
    <g id="Group_3108" data-name="Group 3108">
      <path id="Path_15277" data-name="Path 15277" d="M2532.584,1108.964h-60.923a4.758,4.758,0,0,1-3.862-1.756,5.039,5.039,0,0,1-.783-4.42l4.392-17.615a8.288,8.288,0,0,1,7.574-6.059h60.923a4.76,4.76,0,0,1,3.862,1.756,5.045,5.045,0,0,1,.784,4.421l-4.393,17.615A8.287,8.287,0,0,1,2532.584,1108.964Zm-53.6-29.36a7.773,7.773,0,0,0-7.1,5.687l-4.393,17.615a4.566,4.566,0,0,0,.7,4,4.28,4.28,0,0,0,3.476,1.568h60.923a7.775,7.775,0,0,0,7.1-5.687l4.392-17.615a4.566,4.566,0,0,0-.695-4,4.275,4.275,0,0,0-3.476-1.568Z" fill="#476ba7"/>
    </g>
    <g id="Group_3109" data-name="Group 3109">
      <path id="Path_15278" data-name="Path 15278" d="M2409.574,870.2c2.07-6.31,8.522-11.479,15.34-11.479,4.186,0,6.012,1.586,7.408,3.615l-4.02,3.361a5.4,5.4,0,0,0-4.9-2.473c-3.741,0-7.456,3.107-8.725,6.976-1.249,3.806.343,6.976,4.149,6.976,2.536,0,4.423-1.014,6.687-2.6l2.016,3.33a15.438,15.438,0,0,1-10.339,3.773C2410.66,881.678,2407.463,876.637,2409.574,870.2Z" fill="#657285"/>
      <path id="Path_15279" data-name="Path 15279" d="M2432.344,870.2c2.07-6.31,8.744-11.479,15.593-11.479s10.09,5.106,8,11.479c-2.07,6.311-8.744,11.479-15.594,11.479S2430.253,876.573,2432.344,870.2Zm18.487,0c1.249-3.8-.5-6.976-4.434-6.976s-7.678,3.107-8.947,6.976c-1.249,3.806.5,6.976,4.434,6.976S2449.562,874.068,2450.831,870.2Z" fill="#657285"/>
      <path id="Path_15280" data-name="Path 15280" d="M2463.924,859.1h4.5l5.918,13.668,4.483-13.668h4.82l-7.281,22.2h-4.154l-6.121-14.111-4.629,14.111h-4.82Z" fill="#657285"/>
      <path id="Path_15281" data-name="Path 15281" d="M2492.668,863.6h-6.754l1.477-4.5h18.392l-1.477,4.5h-6.754l-5.8,17.695h-4.883Z" fill="#657285"/>
      <path id="Path_15282" data-name="Path 15282" d="M2517.418,858.942h4.5l2.18,22.356H2519l-.4-5.792-9.387.813-3.662,4.979h-4.979Zm.851,13.065-.588-7.2-5.31,7.2Z" fill="#657285"/>
      <path id="Path_15283" data-name="Path 15283" d="M2528.757,870.2c2.07-6.31,8.522-11.479,15.34-11.479,4.186,0,6.012,1.586,7.407,3.615l-4.019,3.361a5.4,5.4,0,0,0-4.9-2.473c-3.741,0-7.457,3.107-8.725,6.976-1.249,3.806.343,6.976,4.148,6.976,2.537,0,4.424-1.014,6.688-2.6l2.016,3.33a15.44,15.44,0,0,1-10.339,3.773C2529.843,881.678,2526.646,876.637,2528.757,870.2Z" fill="#657285"/>
      <path id="Path_15284" data-name="Path 15284" d="M2560.476,863.6h-6.754l1.477-4.5h18.392l-1.477,4.5h-6.754l-5.8,17.695h-4.884Z" fill="#657285"/>
    </g>
  </g>
  <g id="Group_3111" data-name="Group 3111" transform="translate(-2003.079 -695.852)">
    <path id="Path_15285" data-name="Path 15285" d="M2274.614,844.5s-2-28.5-39-17.706c-8.4,2.448-7.305,27.8,13.03,37.451Z" fill="#131f2d"/>
    <path id="Path_15286" data-name="Path 15286" d="M2259.818,882.123s14.486,2.623,19.858,7.995,18.048,21.219,10.072,74.057c0,0-.639,15.925-18.546,17.46S2259.818,882.123,2259.818,882.123Z" fill="#00a3fe"/>
    <path id="Path_15287" data-name="Path 15287" d="M2226.528,1013.525c2.492,17.339,19.2,62.407,18.716,77.984-.385,12.274-.182,40.632,1.438,59.469a116.277,116.277,0,0,0,1.641,12.721c1.438,6.948,3.282,14.948,4.274,19.992,2.208,11.323,1.053,17.926,2.856,24,1.985,6.643,24.772,5.428,17.906,1.4a20.156,20.156,0,0,1-7.778-8.446c-6.4-14.341,2.572-76.181,5.246-100.022.344-2.977.587-5.347.689-6.967.891-14.726,11-112.828,11-112.828C2257.966,967.176,2224.057,996.187,2226.528,1013.525Z" fill="#ff7955"/>
    <path id="Path_15288" data-name="Path 15288" d="M2226.528,1013.525c2.492,17.339,19.2,62.407,18.716,77.984-.385,12.274-.182,40.632,1.438,59.469l24.145-50.355c.344-2.977.587-5.347.689-6.967.891-14.726,11.253-112.865,11.253-112.865C2258.219,967.139,2224.057,996.187,2226.528,1013.525Z" fill="#ef6343"/>
    <path id="Path_15289" data-name="Path 15289" d="M2279.787,984.015s-21.083,96.918-23.479,111.468-21.6,83.066-17.411,100.234c2.468,10.128,6.773,13.124,6.773,13.124,1.012,1.857-15.664,5.545-17.011-1.561-1.71-9.023-2.069-21.688-4.574-43.158-4.314-36.968,4.241-58.006,6.315-73.455s-6.963-64.559-1.947-81.341C2237.23,979.955,2256.779,967.914,2279.787,984.015Z" fill="#ff7955"/>
    <path id="Path_15290" data-name="Path 15290" d="M2223.522,1073.074s5.489.851,13.571,1.418l4.4-17.622,1.54,17.947c12.984.526,29.937-.122,42.435-5.287l-2.694-88.739s-18.1,4.775-39.876-3.59C2242.893,977.2,2214.576,999.311,2223.522,1073.074Z" fill="#016eb9"/>
    <path id="Path_15291" data-name="Path 15291" d="M2248.97,1212.845h-19.527c-1.561-2.275-3.749-11.462-5.4-13.306-.11-.121-.231-.266-.359-.428l-.165,13.734h-1.779c-.027-2.147-.21-12.877-1.246-18.764-1.067-2.037-1.826-4.008-1.495-4.84.691-1.734,7.067-5.58,7.067-5.58s4.323,23.515,6.961,24.178a30.906,30.906,0,0,0,12.05.464s2.823,1.232,3.721,2.657v0A1.793,1.793,0,0,1,2248.97,1212.845Z" fill="#131f2d"/>
    <path id="Path_15292" data-name="Path 15292" d="M2275.641,1212.845h-19.527c-1.543-2.25-3.7-11.244-5.345-13.226l-.159,13.226h-1.778c0-.383-.013-1.032-.034-1.881v0a150.38,150.38,0,0,0-1.036-15.781c-1.36-2.389-2.482-4.954-2.092-5.938.69-1.734,6.927-5.55,6.927-5.55s4.459,23.485,7.1,24.148a35.955,35.955,0,0,0,12.623.6S2276.812,1210.626,2275.641,1212.845Z" fill="#131f2d"/>
    <path id="Path_15293" data-name="Path 15293" d="M2283.1,981.686s8.586-29.349,5.881-57.609-24.246-42.705-24.246-42.705-22.191,1.867-25.049,8.076,6.727,76.834,1.679,89.157C2241.365,978.6,2257.992,990.083,2283.1,981.686Z" fill="#364154"/>
    <path id="Path_15294" data-name="Path 15294" d="M2268.422,884.341a.049.049,0,0,1,0-.017,35.081,35.081,0,0,1-.607-10.337v0c.1-1.133.21-1.806.21-1.806l-.21-.066-17.829-5.43c-.259,5.662-.587,9.86-.935,12.974-.166,1.474-.332,2.707-.5,3.732a73.1,73.1,0,0,0,8.662,3.232c6.394,1.857,9.163,1.118,10.351,0A2.779,2.779,0,0,0,2268.422,884.341Z" fill="#ff7955"/>
    <path id="Path_15295" data-name="Path 15295" d="M2267.809,872.113v1.875s-11.885.134-18.764,5.669c.351-3.115.679-7.312.938-12.974Z" fill="#ef6343"/>
    <path id="Path_15296" data-name="Path 15296" d="M2272.732,873.4s-21.6,4.337-24.091-9.154-6.962-22.018,6.722-25.357,17.323,1.311,19.251,5.612S2278.286,871.926,2272.732,873.4Z" fill="#ff7955"/>
    <path id="Path_15297" data-name="Path 15297" d="M2266.276,834.258a31.035,31.035,0,0,0-4.11.308c-4.743-1.51-13.8-2.708-21.026,6.359-10.274,12.9,11.9,34.536,11.9,34.536-2.96-3.934-3.815-17.924,7.325-24.918,6.906-4.336,7.184-8.923,6.4-11.785l.306.091s8.9,1.093,9.408,11.366C2276.479,850.215,2280.375,833.931,2266.276,834.258Z" fill="#131f2d"/>
    <path id="Path_15298" data-name="Path 15298" d="M2228.284,983.426c7.413,1.519,19.242.749,28.013-1.762a30.469,30.469,0,0,0,7.434-3.059c7.839-4.821,11.647-40.511,10.289-54.021-1.337-13.49-25.41-41.61-25.41-41.61-5.57,4.132-6.674,14.164-10.016,26.783C2230.552,940.12,2228.284,983.426,2228.284,983.426Z" fill="#00a3fe"/>
    <path id="Path_15299" data-name="Path 15299" d="M2228.284,983.426c7.413,1.519,19.242.749,28.013-1.762a44.449,44.449,0,0,0,7.171-16.995c3.989-19.688-11.749-41.057-24.874-54.912C2230.552,940.12,2228.284,983.426,2228.284,983.426Z" fill="#016eb9"/>
    <path id="Path_15300" data-name="Path 15300" d="M2232.87,975.679l17.466,12.607a4.86,4.86,0,0,0,6.765-1.093l19.481-26.989a4.861,4.861,0,0,0-1.094-6.765l-17.466-12.607a4.86,4.86,0,0,0-6.765,1.093l-19.48,26.99A4.858,4.858,0,0,0,2232.87,975.679Z" fill="#131f2d"/>
    <path id="Path_15301" data-name="Path 15301" d="M2260.01,966.957s8.538-.863,9.593.576.1,7-4.7,7.578-10.265-3.357-10.265-3.357Z" fill="#ef6343"/>
    <path id="Path_15302" data-name="Path 15302" d="M2248.61,882.974a29.594,29.594,0,0,0-20.411,15.875c-6.583,13.673-13.672,48.867-11.9,52.158s23.041,21.015,40.511,23.294c0,0,3.8-4.811,3.545-9.115,0,0-23.547-14.685-25.573-18.737s17.977-37.725,17.724-43.549S2248.61,882.974,2248.61,882.974Z" fill="#00a3fe"/>
  </g>
  <g id="Group_3112" data-name="Group 3112" transform="translate(-2003.079 -695.852)">
    <path id="Path_15303" data-name="Path 15303" d="M2127.387,877.022s-29.826,30.791-31.258,42.4S2110.32,949.2,2110.32,949.2Z" fill="#131f2d"/>
    <path id="Path_15304" data-name="Path 15304" d="M2140.14,1196.44s1.014,16.369,4.181,16.6c.422.031,16.062.031,16.062.031l19.967-.116s-.131-4.811-5.967-5.828-15.6-5.119-19.141-12.832C2151.523,1186.184,2140.14,1196.44,2140.14,1196.44Z" fill="#131f2d"/>
    <path id="Path_15305" data-name="Path 15305" d="M2095.668,1196.44s1.015,16.369,4.182,16.6c.421.031,16.062.031,16.062.031l20.026-.071s-.191-4.856-6.027-5.873-15.6-5.119-19.14-12.832C2107.051,1186.184,2095.668,1196.44,2095.668,1196.44Z" fill="#131f2d"/>
    <path id="Path_15306" data-name="Path 15306" d="M2162.252,1020.907s-5.222,33.4-24.7,92.686-22.135,84.96-22.135,84.96a85.8,85.8,0,0,1-10.835.764,68.621,68.621,0,0,1-10.063-1.35s-.179-64.794,8.8-94.607,1.938-107.481,1.938-107.481Z" fill="#016eb9"/>
    <path id="Path_15307" data-name="Path 15307" d="M2172.422,997.709a810.665,810.665,0,0,1-7.969,112.124c-8.708,61.8-5.756,88.027-5.756,88.027s-7.169,1.284-9.687,1.368c-2.7.089-11.169-.675-11.169-.675s-12.464-61.818-8.89-92.748-17.067-106.135-17.067-106.135Z" fill="#00a3fe"/>
    <path id="Path_15308" data-name="Path 15308" d="M2132.048,879.932l9.836,7.285,14.217-2.993c-.2-1.3-1.136-6.669-1.99-11.536-.052-.287-.1-.574-.152-.855-.732-4.141-1.364-7.7-1.364-7.7l-13.278-6.618-4.95-2.467c.013.087.383,4.6.435,5.253C2135.731,871.991,2132.048,879.932,2132.048,879.932Z" fill="#ff7955"/>
    <path id="Path_15309" data-name="Path 15309" d="M2155.106,876.256c-.312-.132-19.339-5.746-21.406-5.064s-3.291,4.682-3.291,4.682l31.122,7.036S2159.082,877.929,2155.106,876.256Z" fill="#131f2d"/>
    <path id="Path_15310" data-name="Path 15310" d="M2103.87,1003.922c3.225,14.713,56.9,16.458,70.737,3.1,1.573-1.522,1.651-8.6,1.057-18.154-1.161-18.657-4.889-46.722-5.034-61.061a113.5,113.5,0,0,0-2.29-20.438,165.969,165.969,0,0,0-6.808-24.463s-26.217-8.475-31.123-7.034C2106.775,882.818,2100.644,989.209,2103.87,1003.922Z" fill="#364154"/>
    <path id="Path_15311" data-name="Path 15311" d="M2175.664,988.87c-1.161-18.657-4.889-46.722-5.034-61.061a113.5,113.5,0,0,0-2.29-20.438l-15.771-2.783S2137.15,967.568,2175.664,988.87Z" fill="#131f2d"/>
    <path id="Path_15312" data-name="Path 15312" d="M2167.124,962.864a3.711,3.711,0,0,0,1.183,4.295c2.257,1.725,3.721,4.521,3.2,6.563s-5.469,5.375-7.185,4.838-5.211-3.228-4.835-4.306-2.35-9.455,1.835-12.68S2167.124,962.864,2167.124,962.864Z" fill="#ff7955"/>
    <path id="Path_15313" data-name="Path 15313" d="M2149.489,879.134s15.381,2.878,27.637,20.939,20.318,31.488,18.06,38-22.836,29.085-26.384,29.085-9.272-2.58-9.595-8.385c0,0,14.489-21.715,11.634-24.967-1.219-1.39-18.809-15.67-21.321-9.219C2145.365,935.256,2149.489,879.134,2149.489,879.134Z" fill="#364154"/>
    <path id="Path_15314" data-name="Path 15314" d="M2135.8,860.51c2.916,5.579,13.781,10.4,18.313,12.178-.052-.287-.1-.574-.152-.855-.732-4.141-1.364-7.7-1.364-7.7l-13.278-6.618C2136.382,857.472,2134.6,858.214,2135.8,860.51Z" fill="#ef6343"/>
    <path id="Path_15315" data-name="Path 15315" d="M2156.827,865.512s-23.449,2.695-24.9-11.933-5.46-24.134,9.45-26.473,18.379,2.952,20.052,7.717S2162.89,864.433,2156.827,865.512Z" fill="#ff7955"/>
    <path id="Path_15316" data-name="Path 15316" d="M2160.81,833.323s-4.477,15.851-7.677,14.517-6.125-2.427-6.561,2.524,3.12,11.442-7.317,10.348-20.166-30.4-16.39-34.876C2133.76,812.911,2175.937,817.905,2160.81,833.323Z" fill="#131f2d"/>
  </g>
  <g id="Group_3115" data-name="Group 3115" transform="translate(-2003.079 -695.852)">
    <path id="Path_15317" data-name="Path 15317" d="M2707.08,1173.453l-5.527,23.278-8.279-.047-.3-23.232Z" fill="#ff7955"/>
    <path id="Path_15318" data-name="Path 15318" d="M2637.441,1174.445l-15.726,22.286-6.129-7.87,9.465-17.48Z" fill="#ff7955"/>
    <path id="Path_15319" data-name="Path 15319" d="M2678.327,867.555a16.038,16.038,0,0,1,8.679-1.66,4.059,4.059,0,0,0-1.831-.869c1.486-.221,4.8,1.253,4.8,1.253,20.664-7.962,23.912,22.463,23.477,29.532s6.944,9.377,17.695,14.946c20.513,10.627,22.314,24.856,22.314,24.856-.159.094-.326.2-.5.324-1.017-1.724-3.113-4.962-4.879-5.451a73.394,73.394,0,0,1,2.842,6.923c-6.052,4.6-17.372,14.8-25.262,22.034a11.578,11.578,0,0,0-.538-4.479l-.975,5.87c-4.221,3.881-7.133,6.611-7.133,6.611.522-5.712-25.835-35.856-39.585-44.884-3.348-4.928-4.537-13.634-4.626-14.319.577,6.9,1.758,10.775,2.814,12.955C2663.973,910.48,2670.752,871.86,2678.327,867.555Z" fill="#131f2d"/>
    <path id="Path_15320" data-name="Path 15320" d="M2678.243,923.01c-.069.031,6.639,3.514,11.685,2.134,4.746-1.294,7.847-7.448,7.782-7.462-2.01-.4-2.59-3.161-2.547-15.03l-.909.179-15.278,3.025s.348,4.808.358,9.338C2679.344,919,2679.114,922.6,2678.243,923.01Z" fill="#ff7955"/>
    <path id="Path_15321" data-name="Path 15321" d="M2678.976,905.856s.348,4.808.358,9.338c8.549-.241,13.068-8.04,14.92-12.363Z" fill="#ef6343"/>
    <path id="Path_15322" data-name="Path 15322" d="M2695.832,901.167s4.48-7.079,5.556-13.132c.768-4.322-1.434-20.341-17.531-18.034a21.87,21.87,0,0,0-9.07,3.429c-3.5,2.361-8.539,7.457-2.9,21.435l1.465,4.723Z" fill="#131f2d"/>
    <path id="Path_15323" data-name="Path 15323" d="M2618.081,1182.753l8.1.247,8.766.269s20.248-22.544,31.606-58.683q.4-1.26.84-2.55c6.216-18.125,19.1-40.875,25.893-61.468,1.08-3.28,2.051-6.367,2.922-9.289.278-.936.55-1.855.809-2.76a218.392,218.392,0,0,0,7.788-41l-49.035.393S2647.853,1091.2,2618.081,1182.753Z" fill="#364154"/>
    <path id="Path_15324" data-name="Path 15324" d="M2662.634,979.732c.123,23.334-3.423,33.345-3.423,33.345a65.89,65.89,0,0,0,45.948,2.815c.294-.092,20.661-4.741,20.661-4.741-.418-.944-4.131-16.669-4.538-17.536-5.268-11.313-9.269-16.274-9.894-19.752a73.985,73.985,0,0,1-.606-19.55,156.86,156.86,0,0,1,6.05-30.7c-6.8-1.547-13.342-4.193-20.418-6.847-1.628,2.027-6.428,4.076-10.744,3.979-4.971-.11-6.523-2.212-6.341-4.58-5.3,2.948-9.507,5.751-9.507,5.751-4.5,7.82-13.632,15.413-14.293,27.409C2655.365,952.274,2662.63,979.079,2662.634,979.732Z" fill="#eaeaea"/>
    <path id="Path_15325" data-name="Path 15325" d="M2704.8,982.333c2.143,3.034,6.253,21.473,16.477,23.791-5.268-13.142-9.269-18.9-9.894-22.944a99.668,99.668,0,0,1-.606-22.708c-3.423-6-5.977-10.112-5.977-10.112-.269-.97-5.439-16.957-7.1-2.667S2702.41,978.94,2704.8,982.333Z" fill="#5f9aa8"/>
    <path id="Path_15326" data-name="Path 15326" d="M2676.121,910.145s20.228.334,20.242-12.266,2.634-21.043-10.281-21.789-15.429,4.059-16.456,8.264S2670.859,909.733,2676.121,910.145Z" fill="#ff7955"/>
    <path id="Path_15327" data-name="Path 15327" d="M2670.227,877.348c3.122-3.784,5.482-2.961,6.807-1.825,4.371-6.531,18.187,2.915,18.187,2.915a24.073,24.073,0,0,0,7.873,14.22s-3.687,2.277-12.187.091c-6.689-1.72-11.543-11.24-13.308-15.219-1.2,1.069-3.741,3.54-4.5,5.96-1.009,3.209-1.462,9.814-3.388,9.589C2669.71,893.079,2665.538,883.032,2670.227,877.348Z" fill="#131f2d"/>
    <path id="Path_15328" data-name="Path 15328" d="M2701.831,1195.43a22.43,22.43,0,0,0,1.054,9.544s1.355,6.174-4.726,6.289-7.572-.459-6.883-4.245,2-10.333,2-10.333Z" fill="#ff7955"/>
    <path id="Path_15329" data-name="Path 15329" d="M2690.7,1214.293a.108.108,0,0,1,.02.013H2703.3a.108.108,0,0,1,.02-.013c.687-3.23-.437-9.312-.437-9.312-6.886,6.583-11.2-.166-11.2-.166C2690.573,1207.631,2690.7,1214.293,2690.7,1214.293Z" fill="#131f2d"/>
    <path id="Path_15330" data-name="Path 15330" d="M2600.933,1207.924s11.211-12.731,14.653-19.062l8.336,4.27-18.634,17.5-4.36-.574Z" fill="#ff7955"/>
    <path id="Path_15331" data-name="Path 15331" d="M2594.057,1214.271h15.554c1.369-1.234,2.676-3.721,4.276-6.982.917-1.868,2.97-2.9,5.077-3.462v10.444h3.218l2.98-11.106c1.984-3.721.494-7.133-.9-10.073-1.624,0-6.334,1.17-14.616,10.685-2.722,3.125-5.725,4.24-8.711,4.147a.691.691,0,0,1-.122.066C2596.094,1210.153,2594.556,1212.812,2594.057,1214.271Z" fill="#131f2d"/>
    <path id="Path_15332" data-name="Path 15332" d="M2594.811,931.057s13.279,7.424,18.021,9.564c1.687.761,4.743,2.183,7.865,3.641,1.885.88,3.793,1.776,5.444,2.553a6.843,6.843,0,0,0,8.109-1.749c7.19-8.395,25.8-26.591,45.013-28.872l.066-.029-.008.022.024,0-.106.207c-1.08,2.686-11.615,29.005-11.941,34.556-.344,5.851-1.377,95.683-1.377,95.683s.689,4.13-7.228,2.409-9.981-3.442-9.981-3.442,7.572-55.413,5.507-74.687a42.875,42.875,0,0,1,.806-12.422c-11.7,7.088-25.5,10.242-25.5,10.242a116.16,116.16,0,0,1-13.143-7.2,82.553,82.553,0,0,1-11.083-8.918c-4.63-4.244-12.6-14.5-12.6-14.5Z" fill="#00a3fe"/>
    <path id="Path_15333" data-name="Path 15333" d="M2626.18,1183l8.766.269s20.248-22.544,31.606-58.683q.4-1.26.84-2.55c6.216-18.125,19.1-40.875,25.893-61.468,1.08-3.28,2.051-6.367,2.922-9.289.278-.936.55-1.855.809-2.76l-7.221-5.48s-21.68,35.107-28.392,68.145C2655.573,1139.882,2632.223,1174.413,2626.18,1183Z" fill="#131f2d"/>
    <path id="Path_15334" data-name="Path 15334" d="M2689.041,1114.261c-.124,16.066.688,53,2.781,68.3h7.765c4.291,0,6.432-.062,6.432-.062,5.249-26.588,8.983-48.588,11.7-67.546,2.23-15.557,4.212-28.894,5.737-40.376,1.535-11.554,2.6-21.229,2.984-29.4q.088-1.932.127-3.755t.021-3.563l-42.369-4.13C2684.756,1061.873,2689.11,1104.923,2689.041,1114.261Z" fill="#364154"/>
    <path id="Path_15335" data-name="Path 15335" d="M2699.587,1182.557c4.291,0,6.432-.062,6.432-.062,5.249-26.588,8.983-48.588,11.7-67.546,2.23-15.557,4.212-28.894,5.737-40.376,1.535-11.554,2.6-21.229,2.984-29.4l-15.547,9.145s9.923,3.5,6.137,30S2704.856,1178.805,2699.587,1182.557Z" fill="#131f2d"/>
    <path id="Path_15336" data-name="Path 15336" d="M2697.586,1044.909s2.984,10.783,13.309,9.406,25.009-7.572,25.009-7.572-4.413-13.943-9.9-32.26c-6.643-22.175-14.865-50.763-18.741-68.795a111.6,111.6,0,0,1-2.106-12.294l-8.744-16.628s-12.595,28.674-13.284,35.9S2697.586,1044.909,2697.586,1044.909Z" fill="#00a3fe"/>
    <path id="Path_15337" data-name="Path 15337" d="M2698.044,967.812c.461,11.7,3.214,34.418,27.765,46.578.065.031.131.066.2.093-6.643-22.175-14.865-50.763-18.741-68.795C2702.755,952.427,2697.792,961.369,2698.044,967.812Z" fill="#016eb9"/>
    <g id="Group_3113" data-name="Group 3113">
      <path id="Path_15338" data-name="Path 15338" d="M2612.832,940.621c1.687.761,4.743,2.183,7.865,3.641-1.67,2.967-3.76,8.358-4.316,17.268a72.067,72.067,0,0,1-11.413-9.194,151.308,151.308,0,0,1-12.267-14.222l2.11-7.057S2608.09,938.481,2612.832,940.621Z" fill="#ff7955"/>
    </g>
    <g id="Group_3114" data-name="Group 3114">
      <path id="Path_15339" data-name="Path 15339" d="M2562.629,903.449h0a.817.817,0,0,0,.267,1.125l4.874,3,.859-1.392-4.875-3A.817.817,0,0,0,2562.629,903.449Z" fill="#163560"/>
      <path id="Path_15340" data-name="Path 15340" d="M2735.764,1002.823l-.959,1.556-5.889-3.629-4.561,7.4,5.519,3.4a14.7,14.7,0,0,1-15.94,3.121c-10.7-4.4-25.906-13.4-46.285-27.423-2.406-5.543-8.482-5.942-8.525-5.945-.467-.329-.931-.656-1.4-.99a2.1,2.1,0,0,0-2.432,3.432c25.715,18.222,44.374,29.611,57.045,34.817a18.89,18.89,0,0,0,21.2-4.753l.127.078a4.344,4.344,0,0,0,4.715-7.295l.964-1.564a2.1,2.1,0,0,0-3.581-2.207Z" fill="#131f2d"/>
      <path id="Path_15341" data-name="Path 15341" d="M2567.32,905.016a1.288,1.288,0,0,0-1.115,1.808c7.975,17.673,130.28,99.724,146.1,105.644q1.131.423,2.206.757c14.078,4.385,24.758-12.944,14.513-23.549q-.781-.81-1.668-1.63C2714.958,976.574,2586.692,904.2,2567.32,905.016Z" fill="#364154"/>
      <path id="Path_15342" data-name="Path 15342" d="M2572,908.206s49.894,21.082,113.575,56.819C2685.57,965.025,2624.526,925.727,2572,908.206Z" fill="#b8c1c9"/>
    </g>
    <path id="Path_15343" data-name="Path 15343" d="M2659.543,962.524c4.97.653,8.042,1.506,8.655,5.069a15.14,15.14,0,0,0,2.164,5.165c4.95.265,16.739.907,26.644,1.534l.816,12.991a148.328,148.328,0,0,1-29.641-7.016,7.75,7.75,0,0,1-3.374-1.834c-7.13-5.84-11.638-11.114-11.651-12.514S2654.574,961.871,2659.543,962.524Z" fill="#ff7955"/>
    <path id="Path_15344" data-name="Path 15344" d="M2696.414,916.766s21,1.489,26.048,12.733,6.654,48.644.23,59.658c0,0-8.846,2.519-24.49-.407-.192-.036-.385-.072-.578-.11,0,0-4.991-12.218-.517-14.627,0,0,13.194.688,11.817-3.672S2696.414,916.766,2696.414,916.766Z" fill="#00a3fe"/>
    <path id="Path_15345" data-name="Path 15345" d="M2592.7,938.114s-10.437-11.036-6.063-13.222,10.321,1.632,7.833,8.581S2597.038,935.57,2592.7,938.114Z" fill="#ff7955"/>
  </g>
  <path id="Path_15346" data-name="Path 15346" d="M2821.706,1214.909H2045.579a.984.984,0,0,1-.92-1.032h0a.984.984,0,0,1,.92-1.032h776.127a.984.984,0,0,1,.92,1.032h0A.984.984,0,0,1,2821.706,1214.909Z" transform="translate(-2003.079 -695.852)" fill="#131f2d"/>
</svg>
