<svg id="img-contact-1" xmlns="http://www.w3.org/2000/svg" width="1000.399" height="622.948" viewBox="0 0 1000.399 622.948">
  <path id="Path_15347" data-name="Path 15347" d="M1979.441,1249.429s-191.834-294.4,11.83-374.917c51.3-20.282,69.2-304.225,297.066-162.253,90.621,56.46,221.107-11.864,346.066,25.48,114.76,34.3,117.4,133.227,102.889,168.842-15.855,38.916,47.37,85.443,112.122,117.4,101.569,50.125,26.88,226.285-69.073,227.127S1979.441,1249.429,1979.441,1249.429Z" transform="translate(-1897.582 -628.33)" fill="#eaeaea"/>
  <g id="Group_3117" data-name="Group 3117" transform="translate(-1897.582 -628.33)">
    <path id="Path_15348" data-name="Path 15348" d="M1988.82,760.717h106.029a4.525,4.525,0,0,0,4.512-4.512V710.334a4.525,4.525,0,0,0-4.512-4.512h-6.016V693.791l-18.755,12.031H1988.82a4.525,4.525,0,0,0-4.512,4.512v45.871A4.525,4.525,0,0,0,1988.82,760.717Z" fill="#00a3fe"/>
    <g id="Group_3116" data-name="Group 3116">
      <path id="Path_15349" data-name="Path 15349" d="M1999.347,742.294h84.975a3.016,3.016,0,0,1,3.007,3.008h0a3.017,3.017,0,0,1-3.007,3.008h-84.975a3.017,3.017,0,0,1-3.007-3.008h0A3.016,3.016,0,0,1,1999.347,742.294Z" fill="#fff"/>
      <path id="Path_15350" data-name="Path 15350" d="M1999.347,731.39h84.975a3.016,3.016,0,0,1,3.007,3.008h0a3.017,3.017,0,0,1-3.007,3.008h-84.975a3.017,3.017,0,0,1-3.007-3.008h0A3.016,3.016,0,0,1,1999.347,731.39Z" fill="#fff"/>
      <path id="Path_15351" data-name="Path 15351" d="M1999.347,720.486h84.975a3.017,3.017,0,0,1,3.007,3.008h0a3.017,3.017,0,0,1-3.007,3.008h-84.975a3.017,3.017,0,0,1-3.007-3.008h0A3.017,3.017,0,0,1,1999.347,720.486Z" fill="#fff"/>
    </g>
  </g>
  <path id="Path_15352" data-name="Path 15352" d="M2794.235,1151c-38.152-20.321-69.255,72.158-83.769,40.64s-29.84-75.89-60.745-60.961-43.325,72.573-66.974,62.2-116.54,20.044-92.9,56.261h253.382S2832.388,1171.323,2794.235,1151Z" transform="translate(-1897.582 -628.33)" fill="#d5d6da"/>
  <g id="Group_3149" data-name="Group 3149" transform="translate(-1897.582 -628.33)">
    <path id="Path_15353" data-name="Path 15353" d="M2317.244,1250.388H2026.2s-114.452-62.836-100.768-135.2,74.643,71.32,80.241-26.337-101.345-179.263-49.14-186.1c97.658-12.8,78.392,97.034,148.009,83C2332.536,939.785,2317.244,1250.388,2317.244,1250.388Z" fill="#d5d6da"/>
    <g id="Group_3120" data-name="Group 3120">
      <path id="Path_15354" data-name="Path 15354" d="M2379,931.307l15.273-.35c-4.907,6.36-6.009,12.219-2.954,17.176,3.054,5.058,10.365,9.214,21.282,12.369a197.071,197.071,0,0,1,45.369-208.419,197.584,197.584,0,0,1,216.281-42.314c2.9,1.252,5.809,2.554,8.613,3.906l.026.013c8.484-2.589,16.747-4.711,24.72-6.327,40.246-8.167,68.807-2.522,80.409,15.895,11.04,17.515,5.03,43.882-16.878,74.633l.008.014c2.955,5.459,5.609,11.068,8.063,16.876,1.852,4.357,3.5,8.714,5.008,13.171,41.162,2.453,63.2,9.7,71.208,22.818,9.315,15.273-3.405,35.771-44.118,55.7-5.608,2.755-11.617,5.459-17.927,8.163a192.925,192.925,0,0,1-14.171,53.682,197.309,197.309,0,0,1-362.705,1.853c-20.08-4.157-33.3-10.666-38.559-19.28C2374.3,944.928,2374.746,938.318,2379,931.307Zm47.122,32.3c13.37,2.4,30.046,3.8,49.526,4.006,30.227.369,64.942-2.019,101.526-6.84q-4.619-10.053-9.04-20.631a279.051,279.051,0,0,1-32.877,8.939,166.594,166.594,0,0,1-32.828,3.65c-22.982,0-39.449-6.635-47.581-19.544a33.775,33.775,0,0,1-3.271-6.763H2463.3c.193.357.4.709.616,1.052,6.041,9.589,19.54,14.543,38.494,14.538a156.305,156.305,0,0,0,30.727-3.434,267.668,267.668,0,0,0,30.943-8.37q-4.232-10.587-8.212-21.554c-7.142-19.691-13.255-39.211-18.2-57.956a497.666,497.666,0,0,1-72.438,4.991q-24.008,0-49.741-1.938a186.846,186.846,0,0,0-3.831,37.794A184.645,184.645,0,0,0,2426.125,963.607Zm244.09,97.788c5.7-2.067,8.59-10.245,10.014-16.742,2.249-10.267,2.655-24.689,1.176-41.7-.749-8.606-1.952-17.757-3.572-27.328a507.458,507.458,0,0,0-69.005,23.879c5.072,8.748,10.2,16.859,15.331,24.211,9.773,14.009,19.33,24.816,27.638,31.255C2657.054,1059.039,2664.516,1063.461,2670.215,1061.4Zm-66.547-71.053a518.078,518.078,0,0,1,72.29-25.034q-1.295-6.663-2.837-13.551-10.211,2.322-20.7,4.488c-20.455,4.184-40.861,7.736-60.835,10.61Q2597.52,979.132,2603.668,990.342Zm44.246-41.508q11.854-2.439,23.346-5.089c-3.6-14.995-8.03-30.627-13.2-46.555-26.864,16.514-54.183,29.947-80.051,39.48q4.868,11.621,9.983,22.614C2607.642,956.465,2627.745,952.969,2647.914,948.834Zm65.611-202.4a122.545,122.545,0,0,1-7.262,12.778c-13.581,20.988-31.517,36.2-44.172,45.27a216.3,216.3,0,0,1-23.243,14.47c7.5,16.348,14.648,33.8,21.219,51.912q1.838,5.067,3.58,10.115c39.246-25.546,72.472-54.859,94.268-83.227l.009-.011a186.475,186.475,0,0,0-18.721-26.377c-2.9-3.4-5.909-6.71-9.064-9.915-.45-.451-.851-.852-1.3-1.3A187.342,187.342,0,0,0,2713.525,746.433Zm-167.809-28.308c-5.7,2.066-8.591,10.245-10.014,16.742-2.249,10.267-2.656,24.688-1.176,41.705,1.62,18.626,5.35,39.781,10.9,62.306q10.054-1.73,19.628-3.924a282.189,282.189,0,0,0,60.05-20.7c-10.7-22.319-22.019-42.223-33.334-58.442-9.772-14.009-19.329-24.817-27.637-31.255-4.335-3.36-10.169-6.956-15.277-6.956A9.145,9.145,0,0,0,2545.716,718.125Zm22.4,126.848q-9.791,2.272-20.087,4.055c4.817,18.126,10.751,37,17.664,56.065q4,11.02,8.262,21.669c25.97-9.535,53.533-23.172,80.632-40.017q-2.1-6.141-4.339-12.319c-6.423-17.709-13.394-34.753-20.7-50.715A292.179,292.179,0,0,1,2568.111,844.973Zm-102.025-84.827a185.088,185.088,0,0,0-48.168,83.3c42.828,3.132,82.074,2.148,117.156-2.929-5.567-22.746-9.315-44.144-10.959-63.044-1.815-20.871-1.594-45.592,6.869-59.5q-2.943,1.131-5.858,2.362A184.445,184.445,0,0,0,2466.086,760.146Zm131.351-54.433a186.085,186.085,0,0,0-37.905,3.865c14.6,6.353,29.5,24.037,40.81,40.253,11.578,16.6,23.139,36.907,34.056,59.643a206.283,206.283,0,0,0,20.88-12.97c21.714-15.406,34.723-31.537,41.812-42.357a109.718,109.718,0,0,0,7.918-14.15,185.786,185.786,0,0,0-24.015-14.49l-.008,0q-5.118-2.585-10.422-4.846c-.256-.108-.509-.221-.766-.329-.058-.026-.119-.049-.178-.075-.753-.319-1.509-.628-2.267-.935l-.609-.242A184.537,184.537,0,0,0,2597.437,705.713Zm181.524,23.253c-6.041-9.589-19.54-14.538-38.494-14.538a156.33,156.33,0,0,0-30.728,3.434q-6.459,1.308-13.177,3.078l-.012,0a193.963,193.963,0,0,1,40.4,31.14c2.554,2.5,5.008,5.108,7.412,7.812,3,3.306,5.858,6.761,8.612,10.266a198.911,198.911,0,0,1,12.219,17.477l.009.015C2781.951,762.784,2786.986,741.7,2778.961,728.966Zm-10.263,90.27c-1.652-3.806-3.354-7.561-5.207-11.217l0-.009c-22.952,28.686-56.78,58.013-96.305,83.446,5.6,17.058,10.386,33.822,14.245,49.887a763.9,763.9,0,0,0,78.759-23.256c4.908-1.752,9.665-3.555,14.223-5.358,2.7-1.052,5.357-2.153,7.961-3.255.4-4.006.7-8.063.8-12.119.05-1.953.1-3.855.1-5.808,0-2.254-.05-4.558-.1-6.811a187.9,187.9,0,0,0-8.514-49.275c-.85-2.7-1.752-5.358-2.754-8.012C2770.9,824.694,2769.85,821.94,2768.7,819.236Zm33.5,81.324c35.5-17.326,51.729-34.052,44.468-45.92-5.859-9.615-27.192-16.124-59.842-18.528a191.867,191.867,0,0,1,7.412,41.663c.3,4.207.45,8.413.5,12.67v1.1c0,4.256-.15,8.513-.4,12.719C2797.042,903.064,2799.646,901.812,2802.2,900.56Zm-26.942,21.283c-4.806,1.8-9.714,3.6-14.772,5.358-23.25,8.057-49.313,15.544-77.191,22.188q1.52,6.776,2.8,13.35,3.417-.828,6.838-1.613c38.543-8.773,67.465-10.556,80.872-10.859a181.526,181.526,0,0,0,7.308-30.678Zm-6.56,42.014q.638-1.513,1.245-3.035c-16.3.665-43.4,3.345-75.077,10.583q-3.439.786-6.873,1.629c1.743,10.165,3.028,19.879,3.823,29.009,1.5,17.3,1.61,37.24-3.214,51.483a186.909,186.909,0,0,0,80.1-89.669Zm-243.572,98.9a186.449,186.449,0,0,0,128.655,5.928c-13.745-7.2-27.556-23.751-38.192-39-5.486-7.864-10.968-16.566-16.38-25.96a525.125,525.125,0,0,0-89.394,51.717Q2517.275,1059.433,2525.126,1062.758Zm-59.04-39.811a184.364,184.364,0,0,0,33.8,26.788,536.1,536.1,0,0,1,94.2-55.153c-4.531-8.3-9-17.07-13.356-26.224a802.8,802.8,0,0,1-85.643,7.017c-6.91.2-13.62.2-20.131.15a358.328,358.328,0,0,1-44.767-3.005A184.593,184.593,0,0,0,2466.086,1022.947Z" fill="#b8c1c9"/>
      <g id="Group_3118" data-name="Group 3118">
        <path id="Path_15355" data-name="Path 15355" d="M2640.183,682.553l46.67,7.925-30.527-22.014-1.761,6.751-11.447,1.761Z" fill="#364154"/>
        <path id="Path_15356" data-name="Path 15356" d="M2686.853,690.478,2648.4,669.344l-38.158-2.935Z" fill="#00a3fe"/>
        <path id="Path_15357" data-name="Path 15357" d="M2656.326,668.464l30.527,22.014-23.188-33.755Z" fill="#00a3fe"/>
      </g>
      <g id="Group_3119" data-name="Group 3119">
        <path id="Path_15358" data-name="Path 15358" d="M2845.119,796.405l-44.174,17.016,25.558-27.626,3.064,6.268,11.57-.542Z" fill="#364154"/>
        <path id="Path_15359" data-name="Path 15359" d="M2800.945,813.421l33.5-28.334,36.82-10.438Z" fill="#00a3fe"/>
        <path id="Path_15360" data-name="Path 15360" d="M2826.5,785.794l-25.558,27.626,16.04-37.68Z" fill="#00a3fe"/>
      </g>
    </g>
    <g id="Group_3121" data-name="Group 3121">
      <path id="Path_15361" data-name="Path 15361" d="M2376.727,963.807l22.714,270.077s2.38,16.371-9.8,16.4c-20.022.048-99.658,0-99.658,0s15.069-3.408,14.887-11.075c-.216-9.039-26.548-277.958-26.548-277.958Z" fill="#364154"/>
      <path id="Path_15362" data-name="Path 15362" d="M2383.022,1245.384c-19.5.25-95.56.012-99.5,0,1.481,0,12.922-.282,14.539-8.89a11.505,11.505,0,0,0,.19-2.185c-.008-1.684-.933-12.37-2.435-28.653-1.342-14.6-3.15-33.7-5.176-54.843-7.845-81.923-18.936-194.461-18.936-194.461l98.4,2.555,16.14,191.906,3.15,37.456,2.832,33.7.592,7.019S2395.6,1245.225,2383.022,1245.384Z" fill="#657285"/>
      <path id="Path_15363" data-name="Path 15363" d="M2615.706,816.841l-55.327,222.24-7.575,30.436-25.77,103.513H2048.288l94.98-356.189Z" fill="#657285"/>
      <path id="Path_15364" data-name="Path 15364" d="M2615.707,816.841l7.667,2.556-86.146,361.366-10.2-7.73Z" fill="#131f2d"/>
      <path id="Path_15365" data-name="Path 15365" d="M2537.228,1180.762h-475.8l-13.139-7.73h478.743Z" fill="#364154"/>
      <rect id="Rectangle_131" data-name="Rectangle 131" width="103.018" height="4.895" transform="translate(2267.124 1245.492)" fill="#364154"/>
      <path id="Path_15366" data-name="Path 15366" d="M2612.1,821.55l-68.277,281.557h-471.17l76.512-281.557Z" fill="#d5d6da"/>
      <path id="Path_15367" data-name="Path 15367" d="M2066.823,1103.107h5.826l-1.167,4.292-5.636-.638Z" fill="#657285"/>
      <path id="Path_15368" data-name="Path 15368" d="M2616.471,816.84v4.71H2612.1l1.141-4.71Z" fill="#657285"/>
    </g>
    <g id="Group_3128" data-name="Group 3128">
      <path id="Path_15369" data-name="Path 15369" d="M2153.059,1082.279h175.594l58.852-236.044H2211.911Z" fill="#f7f7f7"/>
      <g id="Group_3127" data-name="Group 3127">
        <g id="Group_3123" data-name="Group 3123" opacity="0.5">
          <g id="Group_3122" data-name="Group 3122">
            <path id="Path_15370" data-name="Path 15370" d="M2211.663,972.593h116.322a3.592,3.592,0,0,0,3.274-2.622l.246-.982a1.986,1.986,0,0,0-1.968-2.622H2213.215a3.594,3.594,0,0,0-3.275,2.622l-.245.982A1.986,1.986,0,0,0,2211.663,972.593Z" fill="#d5d6da" stroke="#4c4c4c" stroke-miterlimit="10" stroke-width="1"/>
            <path id="Path_15371" data-name="Path 15371" d="M2222.012,931.086h116.321a3.591,3.591,0,0,0,3.275-2.621l.245-.983a1.985,1.985,0,0,0-1.968-2.621H2223.564a3.591,3.591,0,0,0-3.275,2.621l-.245.983A1.985,1.985,0,0,0,2222.012,931.086Z" fill="#d5d6da" stroke="#4c4c4c" stroke-miterlimit="10" stroke-width="1"/>
            <path id="Path_15372" data-name="Path 15372" d="M2218.417,945.505h116.321a3.594,3.594,0,0,0,3.276-2.622l.244-.983a1.985,1.985,0,0,0-1.967-2.621H2219.969a3.591,3.591,0,0,0-3.275,2.621l-.245.983A1.985,1.985,0,0,0,2218.417,945.505Z" fill="#d5d6da" stroke="#4c4c4c" stroke-miterlimit="10" stroke-width="1"/>
            <path id="Path_15373" data-name="Path 15373" d="M2215.04,959.049h116.321a3.594,3.594,0,0,0,3.276-2.622l.244-.983a1.985,1.985,0,0,0-1.967-2.621H2216.592a3.594,3.594,0,0,0-3.275,2.621l-.245.983A1.985,1.985,0,0,0,2215.04,959.049Z" fill="#d5d6da" stroke="#4c4c4c" stroke-miterlimit="10" stroke-width="1"/>
            <path id="Path_15374" data-name="Path 15374" d="M2204.781,1000.2H2321.1a3.591,3.591,0,0,0,3.275-2.621l.245-.983a1.985,1.985,0,0,0-1.968-2.621H2206.333a3.591,3.591,0,0,0-3.275,2.621l-.245.983A1.985,1.985,0,0,0,2204.781,1000.2Z" fill="#d5d6da" stroke="#4c4c4c" stroke-miterlimit="10" stroke-width="1"/>
            <path id="Path_15375" data-name="Path 15375" d="M2208.157,986.652h116.322a3.591,3.591,0,0,0,3.275-2.622l.245-.982a1.985,1.985,0,0,0-1.968-2.622H2209.71a3.592,3.592,0,0,0-3.275,2.622l-.245.982A1.985,1.985,0,0,0,2208.157,986.652Z" fill="#d5d6da" stroke="#4c4c4c" stroke-miterlimit="10" stroke-width="1"/>
          </g>
          <path id="Path_15376" data-name="Path 15376" d="M2194.66,1042.759h28.252a4.267,4.267,0,0,0,3.889-3.113h0a2.358,2.358,0,0,0-2.337-3.113h-28.252a4.268,4.268,0,0,0-3.889,3.113h0A2.358,2.358,0,0,0,2194.66,1042.759Z" fill="#00a3fe"/>
          <path id="Path_15377" data-name="Path 15377" d="M2281.21,1042.759h28.252a4.267,4.267,0,0,0,3.889-3.113h0a2.357,2.357,0,0,0-2.336-3.113h-28.253a4.268,4.268,0,0,0-3.889,3.113h0A2.358,2.358,0,0,0,2281.21,1042.759Z" fill="#00a3fe"/>
        </g>
        <g id="Group_3124" data-name="Group 3124">
          <path id="Path_15378" data-name="Path 15378" d="M2229.156,1049.74h-41.2a3.217,3.217,0,0,1-2.612-1.188,3.407,3.407,0,0,1-.53-2.989l2.97-11.913a5.606,5.606,0,0,1,5.123-4.1h41.2a3.218,3.218,0,0,1,2.612,1.188,3.409,3.409,0,0,1,.53,2.989l-2.97,11.913A5.606,5.606,0,0,1,2229.156,1049.74Zm-36.25-19.856a5.259,5.259,0,0,0-4.8,3.846l-2.97,11.913a3.082,3.082,0,0,0,.47,2.705,2.894,2.894,0,0,0,2.351,1.061h41.2a5.26,5.26,0,0,0,4.8-3.846l2.97-11.913a3.084,3.084,0,0,0-.47-2.706,2.893,2.893,0,0,0-2.351-1.06Z" fill="#364154"/>
        </g>
        <g id="Group_3125" data-name="Group 3125">
          <path id="Path_15379" data-name="Path 15379" d="M2313.223,1049.74h-41.2a3.219,3.219,0,0,1-2.612-1.188,3.41,3.41,0,0,1-.529-2.989l2.97-11.913a5.606,5.606,0,0,1,5.122-4.1h41.2a3.218,3.218,0,0,1,2.612,1.188,3.412,3.412,0,0,1,.53,2.989l-2.97,11.913A5.608,5.608,0,0,1,2313.223,1049.74Zm-36.25-19.856a5.257,5.257,0,0,0-4.8,3.846l-2.97,11.913a3.086,3.086,0,0,0,.469,2.705,2.9,2.9,0,0,0,2.351,1.061h41.2a5.257,5.257,0,0,0,4.8-3.846L2321,1033.65a3.088,3.088,0,0,0-.47-2.706,2.893,2.893,0,0,0-2.351-1.06Z" fill="#364154"/>
        </g>
        <g id="Group_3126" data-name="Group 3126">
          <path id="Path_15380" data-name="Path 15380" d="M2240.485,870.349a11.48,11.48,0,0,1,10.374-7.763c2.831,0,4.066,1.073,5.01,2.445l-2.719,2.273a3.65,3.65,0,0,0-3.312-1.673c-2.53,0-5.042,2.1-5.9,4.718-.845,2.574.232,4.718,2.8,4.718a7.555,7.555,0,0,0,4.523-1.758l1.363,2.251a10.435,10.435,0,0,1-6.992,2.552C2241.22,878.112,2239.057,874.7,2240.485,870.349Z" fill="#364154"/>
          <path id="Path_15381" data-name="Path 15381" d="M2255.884,870.349a11.682,11.682,0,0,1,10.545-7.763c4.632,0,6.824,3.453,5.41,7.763a11.681,11.681,0,0,1-10.546,7.763C2256.661,878.112,2254.47,874.66,2255.884,870.349Zm12.5,0c.844-2.573-.339-4.718-3-4.718a6.784,6.784,0,0,0-6.051,4.718c-.844,2.574.34,4.718,3,4.718A6.78,6.78,0,0,0,2268.386,870.349Z" fill="#364154"/>
          <path id="Path_15382" data-name="Path 15382" d="M2277.24,862.843h3.045l4,9.244,3.032-9.244h3.26l-4.924,15.012h-2.81l-4.139-9.543-3.13,9.543h-3.26Z" fill="#364154"/>
          <path id="Path_15383" data-name="Path 15383" d="M2296.679,865.889h-4.567l1-3.046h12.438l-1,3.046h-4.568l-3.925,11.966h-3.3Z" fill="#364154"/>
          <path id="Path_15384" data-name="Path 15384" d="M2314.111,862.736h3.045l1.475,15.119h-3.453l-.268-3.367h-6.348l-2.477,3.367h-3.367Zm.576,8.836-.4-4.868-3.591,4.868Z" fill="#364154"/>
          <path id="Path_15385" data-name="Path 15385" d="M2321.78,870.349a11.48,11.48,0,0,1,10.374-7.763c2.831,0,4.066,1.073,5.009,2.445l-2.718,2.273a3.65,3.65,0,0,0-3.312-1.673c-2.53,0-5.042,2.1-5.9,4.718-.845,2.574.232,4.718,2.805,4.718a7.555,7.555,0,0,0,4.523-1.758l1.363,2.251a10.436,10.436,0,0,1-6.992,2.552C2322.514,878.112,2320.352,874.7,2321.78,870.349Z" fill="#364154"/>
          <path id="Path_15386" data-name="Path 15386" d="M2343.231,865.889h-4.568l1-3.046H2352.1l-1,3.046h-4.567l-3.925,11.966h-3.3Z" fill="#364154"/>
        </g>
      </g>
    </g>
    <g id="Group_3135" data-name="Group 3135">
      <path id="Path_15387" data-name="Path 15387" d="M2399.378,959.253h84.075l28.179-113.019h-84.075Z" fill="#f7f7f7"/>
      <g id="Group_3134" data-name="Group 3134">
        <g id="Group_3130" data-name="Group 3130" opacity="0.5">
          <g id="Group_3129" data-name="Group 3129">
            <path id="Path_15388" data-name="Path 15388" d="M2432.669,878.219h55.7a1.72,1.72,0,0,0,1.568-1.255l.118-.471a.951.951,0,0,0-.943-1.255h-55.695a1.721,1.721,0,0,0-1.568,1.255l-.117.471A.95.95,0,0,0,2432.669,878.219Z" fill="#00a3fe"/>
            <path id="Path_15389" data-name="Path 15389" d="M2437.624,858.345h55.7a1.719,1.719,0,0,0,1.568-1.255l.118-.47a.951.951,0,0,0-.943-1.255h-55.7a1.72,1.72,0,0,0-1.568,1.255l-.117.47A.95.95,0,0,0,2437.624,858.345Z" fill="#00a3fe"/>
            <path id="Path_15390" data-name="Path 15390" d="M2435.9,865.249H2491.6a1.721,1.721,0,0,0,1.568-1.255l.117-.471a.95.95,0,0,0-.942-1.255h-55.7a1.72,1.72,0,0,0-1.568,1.255l-.118.471A.951.951,0,0,0,2435.9,865.249Z" fill="#00a3fe"/>
            <path id="Path_15391" data-name="Path 15391" d="M2434.286,871.734h55.7a1.721,1.721,0,0,0,1.568-1.255l.117-.471a.951.951,0,0,0-.942-1.255h-55.7a1.721,1.721,0,0,0-1.568,1.255l-.117.471A.95.95,0,0,0,2434.286,871.734Z" fill="#00a3fe"/>
            <path id="Path_15392" data-name="Path 15392" d="M2429.374,891.436h55.7a1.72,1.72,0,0,0,1.568-1.255l.117-.471a.95.95,0,0,0-.942-1.255h-55.7a1.719,1.719,0,0,0-1.568,1.255l-.117.471A.95.95,0,0,0,2429.374,891.436Z" fill="#00a3fe"/>
            <path id="Path_15393" data-name="Path 15393" d="M2430.991,884.951h55.694a1.722,1.722,0,0,0,1.569-1.255l.117-.471a.951.951,0,0,0-.942-1.255h-55.7a1.722,1.722,0,0,0-1.569,1.255l-.117.471A.951.951,0,0,0,2430.991,884.951Z" fill="#00a3fe"/>
          </g>
          <path id="Path_15394" data-name="Path 15394" d="M2420.907,931.92h13.527a2.041,2.041,0,0,0,1.862-1.49h0a1.128,1.128,0,0,0-1.119-1.49H2421.65a2.041,2.041,0,0,0-1.862,1.49h0A1.128,1.128,0,0,0,2420.907,931.92Z" fill="#00a3fe"/>
          <path id="Path_15395" data-name="Path 15395" d="M2462.347,931.92h13.527a2.044,2.044,0,0,0,1.863-1.49h0a1.129,1.129,0,0,0-1.119-1.49h-13.527a2.041,2.041,0,0,0-1.862,1.49h0A1.128,1.128,0,0,0,2462.347,931.92Z" fill="#00a3fe"/>
        </g>
        <g id="Group_3131" data-name="Group 3131">
          <path id="Path_15396" data-name="Path 15396" d="M2432.543,947.963h-19.727a1.538,1.538,0,0,1-1.25-.569,1.63,1.63,0,0,1-.254-1.431l1.422-5.7a2.684,2.684,0,0,1,2.453-1.962h19.727a1.538,1.538,0,0,1,1.25.569,1.632,1.632,0,0,1,.254,1.432L2435,946A2.685,2.685,0,0,1,2432.543,947.963Zm-17.356-9.507a2.517,2.517,0,0,0-2.3,1.842l-1.423,5.7a1.48,1.48,0,0,0,.226,1.295,1.385,1.385,0,0,0,1.125.508h19.727a2.517,2.517,0,0,0,2.3-1.842l1.422-5.7a1.48,1.48,0,0,0-.224-1.295,1.385,1.385,0,0,0-1.126-.508Z" fill="#364154"/>
        </g>
        <g id="Group_3132" data-name="Group 3132">
          <path id="Path_15397" data-name="Path 15397" d="M2474.054,947.963h-19.727a1.542,1.542,0,0,1-1.251-.569,1.633,1.633,0,0,1-.253-1.431l1.422-5.7a2.683,2.683,0,0,1,2.452-1.962h19.727a1.54,1.54,0,0,1,1.251.569,1.635,1.635,0,0,1,.254,1.432l-1.422,5.7A2.685,2.685,0,0,1,2474.054,947.963Zm-17.357-9.507a2.517,2.517,0,0,0-2.3,1.842l-1.422,5.7a1.477,1.477,0,0,0,.224,1.295,1.388,1.388,0,0,0,1.126.508h19.727a2.517,2.517,0,0,0,2.3-1.842l1.422-5.7a1.475,1.475,0,0,0-.225-1.295,1.385,1.385,0,0,0-1.126-.508Z" fill="#364154"/>
        </g>
        <path id="Path_15398" data-name="Path 15398" d="M2478.326,937.54q-4.494,1.857-8.922,4.059c.116-.331.222-.661.314-.992.075-.267-.284-.443-.505-.151a4.822,4.822,0,0,1-.313.371c.074-.238-.207-.37-.448-.2-.016.011-.03.024-.045.036.117-.32-.381-.368-.567-.058l-.276.462a1.94,1.94,0,0,1-.894.6,1.519,1.519,0,0,1-.131-.5.221.221,0,0,0-.23-.211c-.005-.163-.152-.259-.37-.162a2.041,2.041,0,0,0-.679.5c-.148-.277-.622-.079-.876.186l.022-.045c.119-.256-.1-.548-.4-.29a3.632,3.632,0,0,0-1.1,1.617,6.316,6.316,0,0,1-.564.556c-.1.084-.555.508-.661.471s-.047-.3,0-.483l.048-.068c.381-.528,2.214-3.02.922-3a.463.463,0,0,0-.359.219,8.569,8.569,0,0,0-1.058,2.255c-.043.147-.1.336-.15.533-.037.051-.075.1-.113.151a5.869,5.869,0,0,1-2.053,1.974,9.181,9.181,0,0,1,.856-3.4q.259-.716.542-1.429a.384.384,0,0,0,.178-.093,2.269,2.269,0,0,0,.859-2.629c-.118-.218-.476-.02-.578.21q-.929,2.082-1.682,4.177a8.025,8.025,0,0,0-.763,3.689c.019.12.16.165.291.137a4.829,4.829,0,0,0,2.439-1.892.4.4,0,0,0,.259.23c.442.13,1.044-.36,1.477-.771a1.749,1.749,0,0,0,.078.417c.047.145.2.177.373.107a3.435,3.435,0,0,0,1.115-.746,2.411,2.411,0,0,0,1.117-.9,5.934,5.934,0,0,0,.55-.549.865.865,0,0,0,.153.281c.162.184.568.017.828-.1a2.706,2.706,0,0,0,.682-.448,1.346,1.346,0,0,0,.469-.127.394.394,0,0,0,.111.116.488.488,0,0,0,.542-.051c-.043.12-.086.24-.132.361q-.643.324-1.288.657c-.283.146-.349.58-.032.555l1.182-.089a.468.468,0,0,0,.4-.3c.071-.158.136-.315.2-.473q4.62-2.316,9.326-4.261C2478.858,937.89,2478.725,937.376,2478.326,937.54Zm-13.729,4.534a1.874,1.874,0,0,1-.1.246c-.027.056-.057.111-.088.165A2.058,2.058,0,0,1,2464.6,942.074Zm-.867.739a.736.736,0,0,0-.01.449,2.74,2.74,0,0,1-.3.195,1.7,1.7,0,0,1,.034-.551c.137-.161.265-.328.384-.5A2.966,2.966,0,0,0,2463.73,942.813Z" fill="#365da2"/>
        <g id="Group_3133" data-name="Group 3133">
          <path id="Path_15399" data-name="Path 15399" d="M2423.19,935.705c-1.061,1.971-1.656,3.994-2.518,5.989a16.068,16.068,0,0,1-1.557,2.862c-.448.639-1.423,2.029-2.249,1.728-.206-.075-.264-.252-.2-.492.015-.053.033-.108.052-.163a.457.457,0,0,0,.429-.05,1.54,1.54,0,0,0,.61-.679c.124-.268.1-.548-.113-.667a.608.608,0,0,0-.672.189,2.247,2.247,0,0,0-.432.763,2.364,2.364,0,0,0-.291.959c.03.455.521.617,1,.511a3.061,3.061,0,0,0,1.493-1.1,12.8,12.8,0,0,0,1.223-1.725,23.883,23.883,0,0,0,1.707-3.714,36.5,36.5,0,0,1,1.836-4.312C2423.638,935.571,2423.314,935.472,2423.19,935.705Zm-5.743,8.951c.036.14-.1.322-.209.451a.778.778,0,0,1-.126.124.412.412,0,0,1-.09.053.13.13,0,0,0-.028.007.118.118,0,0,0-.111-.063c.046-.1.095-.207.142-.306C2417.094,944.776,2417.371,944.364,2417.447,944.656Z" fill="#365da2"/>
          <path id="Path_15400" data-name="Path 15400" d="M2430.293,941.864a2.389,2.389,0,0,1-.673.28.706.706,0,0,1-.172.005,1.062,1.062,0,0,0,.332-.523c.04-.286-.275-.351-.542-.2a.822.822,0,0,0-.408.616.416.416,0,0,0,.033.2,1.5,1.5,0,0,1-.869.349,3.179,3.179,0,0,0,.8-.791.166.166,0,0,0,.011-.179.524.524,0,0,0-.673-.052,1.348,1.348,0,0,0-.579.7,1.029,1.029,0,0,0-.074.255,2,2,0,0,1-.855.193v-.005c.09-.084.178-.168.264-.254.13-.129.053-.261-.068-.278a.551.551,0,0,0-.549.431,8.276,8.276,0,0,1-1.355.981c-.12.069-.283.208-.363.12a4.164,4.164,0,0,0,.55-.486c.325-.343.649-.957.263-1.169a.224.224,0,0,0-.274.066c-.17.225-.339.449-.508.675a2.942,2.942,0,0,0-.391.606.754.754,0,0,0-.055.212,3.861,3.861,0,0,1-.538.278l-.046.018q.15-.118.3-.24a1.236,1.236,0,0,0,.549-.813.914.914,0,0,0-.354-.681c-.048-.047-.163-.024-.233.029a3.667,3.667,0,0,0-1.2,1.547.606.606,0,0,0-.017.507q-.724.552-1.465,1.078c-.052.037-.179.153-.23.136s-.028-.128-.029-.179a3.637,3.637,0,0,1,.024-.415,4.167,4.167,0,0,1,.225-.926,5.072,5.072,0,0,1,.376-.8.2.2,0,0,0,.207-.038,1.261,1.261,0,0,0,.52-1.07c-.013-.13-.221-.11-.318,0a5.2,5.2,0,0,0-1.419,3.463c.011.249.124.457.456.319a2.389,2.389,0,0,0,.431-.276q.271-.193.539-.39.506-.369,1-.749a1.723,1.723,0,0,0,.594-.134,4.08,4.08,0,0,0,.685-.327.342.342,0,0,0,.36.171,1.914,1.914,0,0,0,.6-.3c.2-.121.4-.249.589-.386s.367-.274.543-.421c.04.056.111.072.231.076a2.038,2.038,0,0,0,.507-.055,2.641,2.641,0,0,0,.546-.193.332.332,0,0,0,.09.062.982.982,0,0,0,.739-.045,2.829,2.829,0,0,0,.7-.391.673.673,0,0,0,.2.053,2.027,2.027,0,0,0,1.078-.332C2430.616,942.055,2430.536,941.736,2430.293,941.864Zm-7.218,1.671a3.192,3.192,0,0,1,.769-.953.428.428,0,0,1,.074.6,2.344,2.344,0,0,1-.4.352l-.457.361-.121.093C2422.889,943.882,2423.018,943.648,2423.075,943.535Zm2.074-.972a1.519,1.519,0,0,1-.4.567c-.024.024-.049.048-.074.071A7.629,7.629,0,0,1,2425.149,942.563Zm3.223-.731a2.428,2.428,0,0,1-.47.441C2428,942.062,2428.222,941.82,2428.372,941.832Zm.885-.01c.023-.037.128-.155.111-.075a.642.642,0,0,1-.15.185A.279.279,0,0,1,2429.257,941.822Z" fill="#365da2"/>
        </g>
      </g>
    </g>
    <g id="Group_3142" data-name="Group 3142">
      <path id="Path_15401" data-name="Path 15401" d="M2367.724,1083.679H2451.8l28.179-113.019H2395.9Z" fill="#f7f7f7"/>
      <g id="Group_3141" data-name="Group 3141">
        <g id="Group_3137" data-name="Group 3137" opacity="0.5">
          <g id="Group_3136" data-name="Group 3136">
            <path id="Path_15402" data-name="Path 15402" d="M2402.691,1003.684h55.7a1.72,1.72,0,0,0,1.568-1.256l.118-.47a.952.952,0,0,0-.943-1.255h-55.695a1.721,1.721,0,0,0-1.568,1.255l-.117.47A.951.951,0,0,0,2402.691,1003.684Z" fill="#00a3fe"/>
            <path id="Path_15403" data-name="Path 15403" d="M2407.646,983.81h55.7a1.72,1.72,0,0,0,1.568-1.255l.117-.471a.95.95,0,0,0-.942-1.255h-55.7a1.72,1.72,0,0,0-1.568,1.255l-.117.471A.95.95,0,0,0,2407.646,983.81Z" fill="#00a3fe"/>
            <path id="Path_15404" data-name="Path 15404" d="M2405.925,990.714h55.7a1.72,1.72,0,0,0,1.568-1.256l.117-.47a.95.95,0,0,0-.942-1.255h-55.7a1.719,1.719,0,0,0-1.568,1.255l-.118.47A.951.951,0,0,0,2405.925,990.714Z" fill="#00a3fe"/>
            <path id="Path_15405" data-name="Path 15405" d="M2404.308,997.2H2460a1.72,1.72,0,0,0,1.568-1.256l.117-.47a.95.95,0,0,0-.942-1.255h-55.7a1.72,1.72,0,0,0-1.568,1.255l-.117.47A.951.951,0,0,0,2404.308,997.2Z" fill="#00a3fe"/>
            <path id="Path_15406" data-name="Path 15406" d="M2399.4,1016.9h55.7a1.72,1.72,0,0,0,1.568-1.255l.117-.471a.95.95,0,0,0-.942-1.254h-55.7a1.719,1.719,0,0,0-1.568,1.254l-.117.471A.95.95,0,0,0,2399.4,1016.9Z" fill="#00a3fe"/>
            <path id="Path_15407" data-name="Path 15407" d="M2401.013,1010.415h55.7a1.721,1.721,0,0,0,1.568-1.255l.117-.471a.951.951,0,0,0-.942-1.255h-55.695a1.72,1.72,0,0,0-1.568,1.255l-.118.471A.951.951,0,0,0,2401.013,1010.415Z" fill="#00a3fe"/>
          </g>
          <path id="Path_15408" data-name="Path 15408" d="M2389.253,1056.347h13.528a2.044,2.044,0,0,0,1.862-1.491h0a1.129,1.129,0,0,0-1.119-1.49H2390a2.043,2.043,0,0,0-1.861,1.49h0A1.129,1.129,0,0,0,2389.253,1056.347Z" fill="#00a3fe"/>
          <path id="Path_15409" data-name="Path 15409" d="M2430.694,1056.347h13.527a2.042,2.042,0,0,0,1.862-1.491h0a1.128,1.128,0,0,0-1.119-1.49h-13.527a2.043,2.043,0,0,0-1.862,1.49h0A1.129,1.129,0,0,0,2430.694,1056.347Z" fill="#00a3fe"/>
        </g>
        <g id="Group_3138" data-name="Group 3138">
          <path id="Path_15410" data-name="Path 15410" d="M2400.89,1072.389h-19.727a1.544,1.544,0,0,1-1.251-.568,1.636,1.636,0,0,1-.254-1.432l1.423-5.7a2.684,2.684,0,0,1,2.452-1.962h19.727a1.544,1.544,0,0,1,1.251.569,1.633,1.633,0,0,1,.253,1.431l-1.421,5.7A2.686,2.686,0,0,1,2400.89,1072.389Zm-17.357-9.507a2.517,2.517,0,0,0-2.3,1.841l-1.422,5.7a1.478,1.478,0,0,0,.225,1.3,1.387,1.387,0,0,0,1.126.507h19.727a2.518,2.518,0,0,0,2.3-1.841l1.422-5.7a1.479,1.479,0,0,0-.225-1.3,1.384,1.384,0,0,0-1.126-.508Z" fill="#364154"/>
        </g>
        <g id="Group_3139" data-name="Group 3139">
          <path id="Path_15411" data-name="Path 15411" d="M2442.4,1072.389h-19.727a1.542,1.542,0,0,1-1.251-.568,1.636,1.636,0,0,1-.254-1.432l1.422-5.7a2.687,2.687,0,0,1,2.453-1.962h19.727a1.544,1.544,0,0,1,1.251.569,1.637,1.637,0,0,1,.254,1.431l-1.423,5.7A2.684,2.684,0,0,1,2442.4,1072.389Zm-17.357-9.507a2.518,2.518,0,0,0-2.3,1.841l-1.422,5.7a1.478,1.478,0,0,0,.225,1.3,1.387,1.387,0,0,0,1.126.507H2442.4a2.515,2.515,0,0,0,2.3-1.841l1.423-5.7a1.479,1.479,0,0,0-.225-1.3,1.385,1.385,0,0,0-1.126-.508Z" fill="#364154"/>
        </g>
        <path id="Path_15412" data-name="Path 15412" d="M2446.672,1061.966q-4.494,1.859-8.922,4.059.175-.5.315-.993c.075-.265-.284-.442-.506-.15a4.514,4.514,0,0,1-.313.371c.075-.238-.206-.37-.447-.2-.016.011-.031.024-.046.036.117-.32-.38-.368-.566-.058l-.277.463a1.943,1.943,0,0,1-.893.6,1.52,1.52,0,0,1-.132-.5.221.221,0,0,0-.23-.211c-.005-.162-.152-.259-.369-.162a2.031,2.031,0,0,0-.679.5c-.148-.275-.622-.078-.876.187l.021-.045c.12-.256-.1-.548-.4-.289a3.62,3.62,0,0,0-1.1,1.616,5.906,5.906,0,0,1-.564.556c-.1.085-.555.508-.66.471s-.047-.3,0-.482l.049-.069c.38-.529,2.213-3.02.922-3a.464.464,0,0,0-.36.219,8.615,8.615,0,0,0-1.058,2.255c-.042.147-.1.335-.149.533l-.113.152a5.879,5.879,0,0,1-2.054,1.973,9.178,9.178,0,0,1,.857-3.4q.259-.716.541-1.429a.4.4,0,0,0,.179-.092,2.272,2.272,0,0,0,.858-2.63c-.117-.217-.475-.02-.578.21q-.929,2.08-1.682,4.177a8.025,8.025,0,0,0-.763,3.689c.02.12.16.165.292.136a4.813,4.813,0,0,0,2.438-1.891.4.4,0,0,0,.26.23c.441.13,1.044-.36,1.477-.771a1.7,1.7,0,0,0,.077.417c.047.145.2.177.373.107a3.438,3.438,0,0,0,1.116-.746,2.412,2.412,0,0,0,1.117-.9,5.943,5.943,0,0,0,.549-.549.849.849,0,0,0,.154.281c.161.184.568.017.828-.1a2.77,2.77,0,0,0,.682-.447,1.368,1.368,0,0,0,.469-.128.371.371,0,0,0,.111.116.486.486,0,0,0,.542-.051c-.043.12-.086.24-.132.361q-.645.326-1.288.657c-.283.146-.35.579-.032.555q.591-.044,1.181-.09a.467.467,0,0,0,.4-.3c.07-.157.136-.315.2-.473q4.622-2.316,9.326-4.261C2447.205,1062.316,2447.071,1061.8,2446.672,1061.966Zm-13.728,4.534a1.912,1.912,0,0,1-.1.246c-.026.056-.056.111-.087.165A1.991,1.991,0,0,1,2432.944,1066.5Zm-.868.739a.729.729,0,0,0-.01.449,2.738,2.738,0,0,1-.295.2,1.7,1.7,0,0,1,.033-.551q.205-.242.385-.5A3.058,3.058,0,0,0,2432.076,1067.239Z" fill="#365da2"/>
        <g id="Group_3140" data-name="Group 3140">
          <path id="Path_15413" data-name="Path 15413" d="M2391.536,1060.131c-1.061,1.971-1.656,3.995-2.518,5.99a16.034,16.034,0,0,1-1.557,2.861c-.447.639-1.423,2.029-2.249,1.728-.206-.075-.263-.252-.2-.492.015-.054.032-.108.052-.163a.455.455,0,0,0,.428-.05,1.535,1.535,0,0,0,.61-.679c.124-.268.1-.548-.112-.667a.609.609,0,0,0-.673.189,2.268,2.268,0,0,0-.431.764,2.358,2.358,0,0,0-.291.958c.03.456.521.617,1,.511a3.063,3.063,0,0,0,1.494-1.1,12.9,12.9,0,0,0,1.223-1.726,23.881,23.881,0,0,0,1.707-3.713,36.325,36.325,0,0,1,1.835-4.312C2391.984,1060,2391.661,1059.9,2391.536,1060.131Zm-5.743,8.951c.036.14-.1.323-.209.451a.776.776,0,0,1-.126.124.474.474,0,0,1-.089.053.1.1,0,0,0-.028.007.12.12,0,0,0-.112-.063c.047-.1.095-.207.142-.305C2385.44,1069.2,2385.718,1068.79,2385.793,1069.082Z" fill="#365da2"/>
          <path id="Path_15414" data-name="Path 15414" d="M2398.64,1066.29a2.366,2.366,0,0,1-.673.28.661.661,0,0,1-.173.005,1.064,1.064,0,0,0,.333-.522c.04-.286-.276-.352-.542-.2a.817.817,0,0,0-.408.616.417.417,0,0,0,.033.2,1.5,1.5,0,0,1-.87.349,3.15,3.15,0,0,0,.8-.791.164.164,0,0,0,.012-.179.527.527,0,0,0-.674-.052,1.346,1.346,0,0,0-.578.7.952.952,0,0,0-.074.255,1.991,1.991,0,0,1-.855.192v0c.09-.083.178-.168.265-.254.129-.129.052-.262-.069-.278a.552.552,0,0,0-.549.43,8.174,8.174,0,0,1-1.355.982c-.12.069-.282.209-.362.12a4.294,4.294,0,0,0,.549-.486c.326-.344.649-.957.263-1.169a.225.225,0,0,0-.274.066q-.253.338-.508.675a2.944,2.944,0,0,0-.391.606.809.809,0,0,0-.055.212,3.633,3.633,0,0,1-.537.277l-.047.02c.1-.08.2-.16.3-.241a1.232,1.232,0,0,0,.549-.813.907.907,0,0,0-.354-.68c-.048-.048-.162-.025-.233.028a3.658,3.658,0,0,0-1.2,1.547.6.6,0,0,0-.017.507q-.724.552-1.465,1.078c-.052.037-.179.153-.231.136s-.027-.128-.028-.179a3.488,3.488,0,0,1,.024-.415,4.051,4.051,0,0,1,.225-.926,4.894,4.894,0,0,1,.376-.8.2.2,0,0,0,.206-.038,1.263,1.263,0,0,0,.521-1.07c-.013-.13-.222-.111-.319,0a5.2,5.2,0,0,0-1.418,3.462c.011.249.123.457.456.319a2.426,2.426,0,0,0,.431-.276l.539-.389c.336-.247.671-.5,1-.75a1.708,1.708,0,0,0,.594-.134,4.016,4.016,0,0,0,.685-.327.342.342,0,0,0,.359.171,1.919,1.919,0,0,0,.6-.3c.2-.121.4-.248.59-.385s.367-.275.542-.422c.041.056.111.073.232.076a2.075,2.075,0,0,0,.506-.055,2.644,2.644,0,0,0,.547-.193.326.326,0,0,0,.089.062.985.985,0,0,0,.74-.045,2.8,2.8,0,0,0,.7-.391.71.71,0,0,0,.2.054,2.036,2.036,0,0,0,1.078-.333C2398.963,1066.481,2398.883,1066.161,2398.64,1066.29Zm-7.218,1.672a3.176,3.176,0,0,1,.768-.955.43.43,0,0,1,.074.6,2.336,2.336,0,0,1-.4.351c-.152.121-.3.242-.458.361l-.12.093C2391.236,1068.308,2391.364,1068.074,2391.422,1067.962Zm2.073-.973a1.53,1.53,0,0,1-.4.567l-.075.071C2393.161,1067.411,2393.33,1067.2,2393.5,1066.989Zm3.223-.731a2.453,2.453,0,0,1-.47.441C2396.344,1066.488,2396.569,1066.246,2396.718,1066.258Zm.886-.01c.022-.038.127-.155.11-.075a.616.616,0,0,1-.15.185A.285.285,0,0,1,2397.6,1066.248Z" fill="#365da2"/>
        </g>
      </g>
    </g>
    <g id="man_2" data-name="man 2">
      <path id="Path_15415" data-name="Path 15415" d="M2465.311,1232.929s1.037,17.168-2.091,17.417c-.416.033-15.861.033-15.861.033l-19.717-.123a6.736,6.736,0,0,1,5.892-6.18c5.763-1.079,15.889-5.034,17.6-13.844S2465.311,1232.929,2465.311,1232.929Z" fill="#131f2d"/>
      <path id="Path_15416" data-name="Path 15416" d="M2427.768,1232.929s1.036,17.168-2.091,17.417c-.416.033-15.862.033-15.862.033l-19.717-.123a6.737,6.737,0,0,1,5.893-6.18c5.763-1.079,15.888-5.034,17.6-13.844S2427.768,1232.929,2427.768,1232.929Z" fill="#131f2d"/>
      <path id="Path_15417" data-name="Path 15417" d="M2510.136,1108.506l17.279,5.958s11-22.383,13.673-25.423c3.055-3.468,5.251-30.151,6.634-54.288,1.207-21.108,1.8-40.268,1.8-40.268s-5.881,1.337-9.721,11.268c-6.582,17.022-6.534,50.26-10.2,67.4C2527.492,1083.018,2513.694,1107.1,2510.136,1108.506Z" fill="#00a3fe"/>
      <path id="Path_15418" data-name="Path 15418" d="M2527.415,1114.464c6.588-7.664,11-22.383,13.673-25.423,3.055-3.468,17.51-23.173,4-54.158-6.62,19.6-1.1,30.276-3.178,41.844C2539.849,1088.2,2528.017,1106.8,2527.415,1114.464Z" fill="#016eb9"/>
      <path id="Path_15419" data-name="Path 15419" d="M2577.3,1242.768s1.616,1.435,5.444,1.435c4.338,0,5.443-1.435,5.443-1.435v-60.922H2577.3Z" fill="#364154"/>
      <path id="Path_15420" data-name="Path 15420" d="M2517.4,1157.093c.008.042.012.092.019.137a57.141,57.141,0,0,0,1.562,7.547,44.809,44.809,0,0,0,4.4,10.7c5.9,9.945,17.079,21.013,43.893,24.625,1.3.173,2.638.337,4.014.474q3.752.384,7.893.573c.176.008.352.015.527.019s.352.015.531.019c7.8-.194,16.525-1.623,26.261-3.934,19.977-4.739,32.992-14.5,41.222-26.366l0,0q1.048-1.512,2-3.067a65.523,65.523,0,0,0,4.282-8.333c4.572-10.678,6.32-22.189,6.485-32.863a108.538,108.538,0,0,0-3.472-25.779,46.809,46.809,0,0,0-6.351-14.138,38.218,38.218,0,0,0-2.429-3.227,35.882,35.882,0,0,0-9.853-8.3c-9.544-5.439-40.933-10.858-67.521,3.173C2521.92,1104.172,2514.553,1136.073,2517.4,1157.093Z" fill="#131f2d"/>
      <path id="Path_15421" data-name="Path 15421" d="M2525.624,1178.92c7.806,9.085,14.834,18.392,41.648,21.374,1.3.142,2.638.276,4.014.386q3.752.321,7.893.474c.176.008.352.015.527.015s.352.015.531.019c7.8-.194,16.525-1.623,26.261-3.934,19.977-4.739,32.992-14.5,41.222-26.366l0,0q1.048-1.512,2-3.067c-15.157-3.616-47.532-9.956-79.7-7.367-17.449,1.406-35.548,2.96-51.046,4.327C2518.456,1164.823,2523.051,1175.926,2525.624,1178.92Z" fill="#131f2d"/>
      <path id="Path_15422" data-name="Path 15422" d="M2617.43,1019.623q-.375-1.543-.8-3.035c-3.834-13.554-10.078-23.382-19.89-24.99-1.232,3.352-13.244,8.922-23.755,8.378-1.16-.06-2.873-1.637-2.892-1.641-8.3-1.172-12.251-5.621-11.861-6.221-.35.028-8.716,2.372-8.716,2.372-7.262,31.755-8.132,49.4.607,94.686,3.19,16.541-1.688,25.526-.607,26.611,1.891,1.9,22.809,2.439,39.628,3.09,2.018.076,4.012.147,5.951.211,12.294.4,22.42.544,22.42.544.834-1.04,2.372-10.638,3.421-24.152C2622.618,1073.9,2623.059,1042.334,2617.43,1019.623Z" fill="#00a3fe"/>
      <path id="Path_15423" data-name="Path 15423" d="M2590.965,993.123l-10,8.283-15.226-2.352c.143-1.466.9-7.821,1.553-13.244.536-4.429,1-8.231,1-8.231l18.19-7.278.548-.217c-.008.091-.012.182-.016.273-.052.727-.083,1.438-.1,2.137C2586.608,984.925,2590.965,993.123,2590.965,993.123Z" fill="#ff7955"/>
      <path id="Path_15424" data-name="Path 15424" d="M2548.989,1164.171c-50.9,3.655-66.746,2.995-68.533,5.442-11.237,15.4-12.373,18.054-35.165,48.908-4.35,5.887-9.484,12.8-15.631,21.022h-23.8s25.674-48.991,46.2-82.181c8.1-13.1,15.4-23.739,20.007-27.934,15.909-14.5,79.285-14.161,79.285-14.161s55.029-1.331,59.36,6.82C2611.655,1123.859,2587.313,1161.414,2548.989,1164.171Z" fill="#364154"/>
      <path id="Path_15425" data-name="Path 15425" d="M2548.989,1164.171c-50.9,3.655-66.746,2.995-68.533,5.442-11.237,15.4-12.373,18.054-35.165,48.908l6.773-61.159c8.1-13.1,15.4-23.739,20.007-27.934,15.909-14.5,79.285-14.161,79.285-14.161s55.029-1.331,59.36,6.82C2611.655,1123.859,2587.313,1161.414,2548.989,1164.171Z" fill="#131f2d"/>
      <path id="Path_15426" data-name="Path 15426" d="M2578.226,1000.171l-10.015-1.063a1.484,1.484,0,0,0-1.014,1.853c.241,1.577,3.543,5.849,4.787,6.062S2580.94,1003.073,2578.226,1000.171Z" fill="#364154"/>
      <path id="Path_15427" data-name="Path 15427" d="M2615.419,1130.542s-1.7,30.823-40.025,33.577c-50.9,3.658-61.4,2.45-64.73,5.562-16.362,15.294-5.549,18.537-43.906,69.864h-24.092s29.406-97.407,42.722-109.059c16.174-14.154,82.245-15.22,82.245-15.22s44.037-3.391,48.367,4.76C2616.941,1121.8,2615.419,1130.542,2615.419,1130.542Z" fill="#364154"/>
      <g id="Group_3143" data-name="Group 3143">
        <path id="Path_15428" data-name="Path 15428" d="M2567.27,1200.1a54.289,54.289,0,0,0,8.161,1.039c1.165.054,2.349.073,3.56.061q.155.006.309,0c.309-.007.622-.011.936-.019,7.8-.2,16.525-1.623,26.26-3.934,26.095-6.19,40.31-20.947,47.5-37.77,4.572-10.678,6.32-22.189,6.485-32.863a108.518,108.518,0,0,0-3.472-25.779,46.821,46.821,0,0,0-6.351-14.138q-.848-1.26-1.8-2.456c-.2-.259-.413-.516-.627-.772C2630.254,1102.28,2575.92,1162.063,2567.27,1200.1Z" fill="#364154"/>
        <path id="Path_15429" data-name="Path 15429" d="M2568.633,1200.1a54.284,54.284,0,0,0,8.162,1.039c.725.035,1.455.054,2.2.061q.155.006.309,0c.309-.007.622-.011.936-.019,7.8-.2,16.525-1.623,26.26-3.934,26.095-6.19,40.31-20.947,47.5-37.77,4.572-10.678,6.32-22.189,6.485-32.863a108.518,108.518,0,0,0-3.472-25.779,46.821,46.821,0,0,0-6.351-14.138q-.848-1.26-1.8-2.456C2630.181,1103.865,2577.169,1162.568,2568.633,1200.1Z" fill="#657285"/>
      </g>
      <g id="Group_3144" data-name="Group 3144">
        <path id="Path_15430" data-name="Path 15430" d="M2566.921,988.932s1.667,7.443,6.062,11.043l-6.779,8.819s-8.213-9.722-7.972-16.681C2558.232,992.113,2564.746,989.19,2566.921,988.932Z" fill="#016eb9"/>
        <path id="Path_15431" data-name="Path 15431" d="M2566.921,988.932s1.269,7.006,5.665,10.606l-6.514,8.02s-7.149-8.311-7.841-15.445C2558.231,992.113,2564.746,989.19,2566.921,988.932Z" fill="#00a3fe"/>
        <path id="Path_15432" data-name="Path 15432" d="M2589.737,988.932s-10.369,9.825-17.151,10.606l4.641,11.586s20.2-11.966,20.258-19.134C2597.485,991.99,2591.926,988.995,2589.737,988.932Z" fill="#016eb9"/>
        <path id="Path_15433" data-name="Path 15433" d="M2589,988.539s-9.628,10.218-16.41,11l3.758,10.678s20.341-11.451,20.4-18.619C2596.744,991.6,2591.186,988.6,2589,988.539Z" fill="#00a3fe"/>
      </g>
      <path id="Path_15434" data-name="Path 15434" d="M2620.938,1095.476c-1.049,13.514-.767,20.577-4.938,24.55,0,0-8.442,3.177-20.9-.942-4.254-2.173-7.575-5.164-9.22-9.256-8.211-20.39,7.414-37.339,8.208-50.845s13.176-23.371,13.176-23.371S2622.618,1073.9,2620.938,1095.476Z" fill="#016eb9"/>
      <path id="Path_15435" data-name="Path 15435" d="M2573.535,1005.852s1.9,17.918,2.236,23.914c.949,16.864,1.3,67.553,1.3,67.553a11.516,11.516,0,0,1-2.454,7.954,45.35,45.35,0,0,1-6.038,5.945,22.333,22.333,0,0,1-6.053-10.916c-1.144-4.741,1.6-44.54,4.371-71.052a237.643,237.643,0,0,1,3.691-23.759S2572.85,1005.1,2573.535,1005.852Z" fill="#364154"/>
      <path id="Path_15436" data-name="Path 15436" d="M2644.359,1250.32H2525.274c5.669-12.394,30.17-21.717,59.542-21.717S2638.69,1237.926,2644.359,1250.32Z" fill="#657285"/>
      <path id="Path_15437" data-name="Path 15437" d="M2583.095,1098.177s-8.077,2.119-10.725,3.575-7.962,8.442-6.77,9.534c5.98,5.482,6.9-.6,14.251-2.582,1.334-.361,7.481-7.216,7.481-7.216Z" fill="#ff7955"/>
      <path id="Path_15438" data-name="Path 15438" d="M2576.529,1115.082l-12.127-41.931h-69.3l12.511,43.63h90.969v-1.7Z" fill="#131f2d"/>
      <path id="Path_15439" data-name="Path 15439" d="M2529.656,1094.258a2.021,2.021,0,0,1,1.981-2.777,3.978,3.978,0,0,1,3.573,2.777,2.021,2.021,0,0,1-1.98,2.777A3.981,3.981,0,0,1,2529.656,1094.258Z" fill="#fff"/>
      <path id="Path_15440" data-name="Path 15440" d="M2596.744,991.6s13.761,2.239,20.646,9.389,18.538,65.677,15.625,73.887-26.218,24.893-42.9,31.779c0,0-8.209-3.708-8.74-10.063,0,0,28.337-23.835,29.661-30.191S2596.744,991.6,2596.744,991.6Z" fill="#00a3fe"/>
      <path id="Path_15441" data-name="Path 15441" d="M2587.017,970.357c-.052.727-.083,1.438-.1,2.137-3.52,3.794-11.794,11.882-19.624,13.316.536-4.429,1-8.231,1-8.231l18.19-7.278Z" fill="#ef6343"/>
      <path id="Path_15442" data-name="Path 15442" d="M2566.4,979.044s21.814,1,22.225-12.6,3.5-22.62-10.406-23.831-16.774,3.894-18.014,8.4S2560.734,978.434,2566.4,979.044Z" fill="#ff7955"/>
      <path id="Path_15443" data-name="Path 15443" d="M2588.623,966.447s-1.63-18.139-21.062-17.489-11.026-17.729,5.671-20.437c0,0-1.743,6.476,8.761,7.5C2604.04,938.167,2590.582,963.569,2588.623,966.447Z" fill="#131f2d"/>
    </g>
    <g id="Group_3148" data-name="Group 3148">
      <g id="Group_3145" data-name="Group 3145">
        <path id="Path_15444" data-name="Path 15444" d="M2171.125,901.9a3.213,3.213,0,0,0-.747,3.4.025.025,0,0,0,.008.017c.711,2.331,3.317,5.026,6.365,7.74.389.348.735.664,1.036.956.079.077.158.154.232.231.061.059.119.121.178.178,2.824,2.882,1.677,3.451,6.719,9.266,5.749,6.625,9.923,6.952,11.141,6.437,1.031-.439-.842-3.893-2.915-7.774-.1-.187-.2-.376-.3-.566-.276-.515-.55-1.039-.824-1.557-2.423-4.667-1.633-6.759-.66-13.47.79-5.454,10.084-30.182,10.084-30.182l-11.531-2.6s-4.523,19.837-8.539,22.723c-2.148,1.538-4.46,1.441-6.506,2.558-.144.078-.286.157-.426.24A15.306,15.306,0,0,0,2171.125,901.9Z" fill="#ff7955"/>
        <path id="Path_15445" data-name="Path 15445" d="M2171.125,901.9a3.213,3.213,0,0,0-.747,3.4.025.025,0,0,0,.008.017c.9,2.338,3.435,5.016,6.377,7.717.385.353.723.677,1.024.979.079.077.158.154.232.231.061.059.119.121.178.178,2.824,2.882,1.677,3.451,6.719,9.266,5.749,6.625,9.923,6.952,11.141,6.437,1.031-.439-.842-3.893-2.915-7.774a25.9,25.9,0,0,1-10.415-8.524c-3.418-4.851-5.55-10.968-7.863-14.567-.144.078-.286.157-.426.24A15.306,15.306,0,0,0,2171.125,901.9Z" fill="#131f2d"/>
        <path id="Path_15446" data-name="Path 15446" d="M2265.3,899.413c.536,3.627,5.685,3.289,11.475,2.183s4.346.486,12.53,0,10.806-3.4,11.116-4.593c.276-1.063-3.726-1.646-8.014-2.363-.539-.088-1.081-.183-1.623-.278-4.839-.859-8.245-4.183-12.538-6.989-4.065-2.659-9.812-12.937-9.812-12.937l-11.206.315s5.4,9.2,7.472,13.178c1.217,2.343.993,5.348.709,7.662A14.353,14.353,0,0,0,2265.3,899.413Z" fill="#ff7955"/>
        <path id="Path_15447" data-name="Path 15447" d="M2276.775,901.6c5.79-1.106,4.346.486,12.53,0s10.806-3.4,11.116-4.593c.276-1.063-3.726-1.646-8.014-2.363l-.045.081a22.979,22.979,0,0,1-11.84,3.03c-5.529-.147-11.3-2.027-15.113-2.16a14.353,14.353,0,0,0-.109,3.823C2265.836,903.04,2270.985,902.7,2276.775,901.6Z" fill="#131f2d"/>
        <path id="Path_15448" data-name="Path 15448" d="M2248.813,734.207s2.99-6.381,5.929-6.5,12.322-1.106,12.919.258-.312,6.116-2.394,7.743-14.591,3.79-14.591,3.79Z" fill="#ff7955"/>
        <path id="Path_15449" data-name="Path 15449" d="M2226.159,825.862l-27.353,63.515a22.069,22.069,0,0,1-7.2-1.032,31.209,31.209,0,0,1-6.823-3.763s9.133-61.858,20.732-74.23S2226.159,825.862,2226.159,825.862Z" fill="#016eb9"/>
        <path id="Path_15450" data-name="Path 15450" d="M2132.345,794.827s70.313-19.853,85.476-14.1,56.76,100.205,56.76,100.205a8.952,8.952,0,0,1-4.021,2.26c-2.7.86-9.12.469-9.12.469s-39.949-37.932-44.39-48.628-5.924-20.744-10.948-20-65.391,21.1-78.108,6.492-8.285-32.52-8.285-32.52Z" fill="#00a3fe"/>
        <path id="Path_15451" data-name="Path 15451" d="M2180.123,688.246c1.219-2.223,2.66-6.208,3.632-13.394-.13.712-1.837,9.75-5.6,14.723-14.856,8.707-44.014,38.818-43.774,44.817,0,0-8.867-16.955-9.029-17.062,0,0-16.744-23.678,5.139-35.638,11.122-6.078,11.5-14.587,11.426-22s4.937-39.048,26.116-29.624c0,0,3.545-1.364,5.087-1.054a4.25,4.25,0,0,0-1.96.811,16.782,16.782,0,0,1,8.984,2.2C2187.836,636.926,2192.867,677.662,2180.123,688.246Z" fill="#131f2d"/>
        <path id="Path_15452" data-name="Path 15452" d="M2177.281,690c.071.036-7.128,3.32-12.33,1.609-4.892-1.606-7.807-8.205-7.738-8.216,2.123-.31,2.876-3.167,3.463-15.578l.941.236,15.811,3.976s-.619,5.008-.871,9.743C2176.344,685.748,2176.393,689.531,2177.281,690Z" fill="#ff7955"/>
        <path id="Path_15453" data-name="Path 15453" d="M2177.428,672.029s-.619,5.008-.871,9.743c-8.925-.707-13.235-9.1-14.94-13.719Z" fill="#ef6343"/>
        <path id="Path_15454" data-name="Path 15454" d="M2160.056,666.23s-4.307-7.64-5.109-14.025c-.573-4.559,2.581-21.189,19.287-17.92a22.9,22.9,0,0,1,9.3,4.068c3.528,2.654,8.53,8.25,1.89,22.564l-1.783,4.858Z" fill="#131f2d"/>
        <path id="Path_15455" data-name="Path 15455" d="M2180.185,676.665s-21.165-.728-20.509-13.9-1.634-22.139,11.908-22.231,15.913,5.065,16.764,9.516S2185.707,676.515,2180.185,676.665Z" fill="#ff7955"/>
        <path id="Path_15456" data-name="Path 15456" d="M2161.9,642.5s14.947-9.14,19.169-2.079c1.446-1.117,3.957-1.851,7.019,2.27,4.6,6.192-.3,16.474-.3,16.474-2.025.132-2.147-6.8-3.031-10.2-.666-2.57-3.188-5.289-4.388-6.471-2.057,4.066-7.639,13.76-14.724,15.2-9,1.833-12.735-.744-12.735-.744A25.2,25.2,0,0,0,2161.9,642.5Z" fill="#131f2d"/>
        <path id="Path_15457" data-name="Path 15457" d="M2116.112,794.365c.979,3.225,4.436,4.219,9.152,3.907,8.991-.589,22.575-5.914,32.355-9.578,14.909-5.579,21.238.7,26.084-3.089s-4.644-13.243,6.092-54.357c3.642-13.941-13.334-45.117-13.334-45.117s-1.7,8.126-19.248-2.736a166.151,166.151,0,0,0-15.478,21.965c-8.122,13.674-16.081,30.284-14.441,39.136C2130.423,761.372,2113.265,785,2116.112,794.365Z" fill="#364154"/>
        <path id="Path_15458" data-name="Path 15458" d="M2176.461,686.131l8.633,45.4s1.236,2.489,3.192,6.043c4.592,8.344,13.152,22.558,19.009,24.256,2.888.838,9.232-1.278,16.292-4.406a325.975,325.975,0,0,0,29.26-15.432c1.3-5.918-3.646-11.045-3.646-11.045s-31.762,10.126-34.869,10.19c-6.772.137-11.98-32.776-17.733-43.949C2192.439,689.111,2176.461,686.131,2176.461,686.131Z" fill="#364154"/>
        <path id="Path_15459" data-name="Path 15459" d="M2175.89,668.441s.309,1.693,4.485,1.647c0,0,3.507-.038,3.493-1.883A11.258,11.258,0,0,0,2175.89,668.441Z" fill="#fff"/>
        <path id="Path_15460" data-name="Path 15460" d="M2116.112,794.365c.979,3.225,4.436,4.219,9.152,3.907,6.323-2.38,33.576-11.374,33.635-18.4.085-10.41-4.593-10.981-.625-23.633,3.187-10.159-20.533-30.557-24.26-34.918-8.122,13.673-8.36,14.327-6.72,23.179C2130.423,761.372,2113.265,785,2116.112,794.365Z" fill="#131f2d"/>
        <path id="Path_15461" data-name="Path 15461" d="M2188.286,737.577c4.592,8.344,13.152,22.558,19.009,24.256,2.888.838,9.232-1.278,16.292-4.406a41.657,41.657,0,0,1-14.685.057c-5.113-.759-6.284-7.135-13.926-17C2190.02,734.092,2188.648,735.568,2188.286,737.577Z" fill="#131f2d"/>
        <path id="Path_15462" data-name="Path 15462" d="M2162.514,756.2s4.653-3.253,8.838-2.209,6.11,4.05,5.876,5.368-2.661,4.934-5.911,5.1-12.331-2.623-12.331-2.623Z" fill="#ff7955"/>
        <path id="Path_15463" data-name="Path 15463" d="M2157.213,683.4s-17.289.185-23.68,8.2c-9,11.286-31.807,62.367-22.6,69.512,10.372,8.046,52.45,2.449,52.45,2.449s1.573-5.875-.048-8.839-30.12-9.068-31.378-10.461,17.894-25.017,18.1-28.995S2157.213,683.4,2157.213,683.4Z" fill="#364154"/>
      </g>
      <g id="Group_3147" data-name="Group 3147">
        <g id="Group_3146" data-name="Group 3146">
          <path id="Path_15464" data-name="Path 15464" d="M2167.226,776.735l64.841,3.3,13.765-40.168-64.741-3.3Z" fill="#016eb9"/>
          <rect id="Rectangle_132" data-name="Rectangle 132" width="84.878" height="1.59" transform="translate(2231.844 780.026) rotate(-177.085)" fill="#016eb9"/>
        </g>
        <path id="Path_15465" data-name="Path 15465" d="M2212.548,757.946a1.89,1.89,0,0,0-1.718-2.689,3.723,3.723,0,0,0-3.471,2.424,1.891,1.891,0,0,0,1.719,2.689A3.721,3.721,0,0,0,2212.548,757.946Z" fill="#fff"/>
      </g>
    </g>
  </g>
  <g id="Group_3151" data-name="Group 3151" transform="translate(-1897.582 -628.33)">
    <path id="Path_15467" data-name="Path 15467" d="M2758.023,904.045h-106.03a4.525,4.525,0,0,0-4.512,4.512v45.871a4.525,4.525,0,0,0,4.512,4.512h6.016v12.032l18.755-12.032h81.259a4.525,4.525,0,0,0,4.512-4.512V908.557A4.525,4.525,0,0,0,2758.023,904.045Z" fill="#00a3fe"/>
    <g id="Group_3150" data-name="Group 3150">
      <path id="Path_15468" data-name="Path 15468" d="M2747.5,922.469h-84.974a3.017,3.017,0,0,1-3.008-3.008h0a3.016,3.016,0,0,1,3.008-3.008H2747.5a3.016,3.016,0,0,1,3.008,3.008h0A3.017,3.017,0,0,1,2747.5,922.469Z" fill="#fff"/>
      <path id="Path_15469" data-name="Path 15469" d="M2747.5,933.372h-84.974a3.016,3.016,0,0,1-3.008-3.007h0a3.017,3.017,0,0,1,3.008-3.009H2747.5a3.017,3.017,0,0,1,3.008,3.009h0A3.016,3.016,0,0,1,2747.5,933.372Z" fill="#fff"/>
      <path id="Path_15470" data-name="Path 15470" d="M2747.5,944.276h-84.974a3.016,3.016,0,0,1-3.008-3.008h0a3.016,3.016,0,0,1,3.008-3.007H2747.5a3.016,3.016,0,0,1,3.008,3.007h0A3.016,3.016,0,0,1,2747.5,944.276Z" fill="#fff"/>
    </g>
  </g>
</svg>
