<svg id="img-abour-why-2" xmlns="http://www.w3.org/2000/svg" width="134.579" height="164.544" viewBox="0 0 134.579 164.544">
  <path id="Path_15479" data-name="Path 15479" d="M2016.084,447.14v76.846c0,3.788-1.464,6.274-3.681,6.92v.013l-15.3,4.571,3.063-9.9-48.357-27.92a4.7,4.7,0,0,1-.478.422L1930.6,513.763a8.4,8.4,0,0,1-2.47,1.238l0,.008-15.533,4.654,4.905-12.892,1.519.548c0-.078,0-.159,0-.239V478.742l-14.328-8.271c-4.47-2.583-8.095-9.509-8.095-15.47V383.606l-2.121,6.855-10.034,32.415.551-37.448.141-9.654,14.741-4.4a5.427,5.427,0,0,1,4.817.662l98.026,56.6,3.562,2.055,1.7.984a12.58,12.58,0,0,1,3.082,2.588,18.8,18.8,0,0,1,1.964,2.676,21.67,21.67,0,0,1,2.6,6.367A17.207,17.207,0,0,1,2016.084,447.14Z" transform="translate(-1881.504 -371.062)" fill="#adafaf"/>
  <path id="Path_15480" data-name="Path 15480" d="M2015.04,436.935a18.665,18.665,0,0,0-1.964-2.676h0v0c-.227-.256-.46-.5-.7-.736-.06-.059-.121-.116-.181-.173s-.109-.1-.164-.155-.135-.122-.2-.182l-.151-.132c-.069-.06-.139-.118-.208-.175l-.155-.125c-.069-.055-.138-.109-.207-.162l-.168-.125c-.066-.048-.132-.1-.2-.143s-.133-.091-.2-.135-.114-.077-.172-.114c-.124-.08-.25-.156-.377-.229l-1.7-.984-3.562-2.055-98.026-56.6a5.427,5.427,0,0,0-4.817-.662l-14.741,4.4-.141,9.654,9.484,5.034,2.121,1.124,92.43,49.062-5.231,3.021,7.8,7.026,24.031-7.394A21.67,21.67,0,0,0,2015.04,436.935Z" transform="translate(-1883.512 -371.062)" fill="#cfd1cf"/>
  <path id="Path_15481" data-name="Path 15481" d="M1982.171,452.706,1878.88,393.07c-4.472-2.582-8.1.159-8.1,6.121v76.846c0,5.962,3.625,12.888,8.1,15.47l14.327,8.272c0,11.033,0,21.68,0,28.337,0,10.325,8.382,9.1,11.578,6.685l20.729-15.671a4.568,4.568,0,0,0,.479-.423l56.179,32.435c4.472,2.582,8.1-.159,8.1-6.121V468.176C1990.268,462.213,1986.643,455.288,1982.171,452.706Z" transform="translate(-1870.783 -387.571)" fill="#e7f2d9"/>
  <path id="Path_15482" data-name="Path 15482" d="M2084.153,628.754c-3.924-7.5-8.645-9.293-12.586-8.177l-5.234,1.229.688,1.625a13.089,13.089,0,0,0-1.609,2.07c-3.348-9.19-10.641-21.018-16.847-19.358l-6.676,1.476-2.378,2.983,4.921.073c-1.823,5.8.223,15.674,2.7,23.086a101.959,101.959,0,0,0,15.83,29.669l-1.7,4.5,6.695-1.492c.893-.172,1.736-.479,2.248-.606a18.967,18.967,0,0,0,5.183-2.147,22.764,22.764,0,0,0,7.873-8.161A27.972,27.972,0,0,0,2084.153,628.754Z" transform="translate(-2003.195 -555.421)" fill="#cf636f"/>
  <path id="Path_15483" data-name="Path 15483" d="M2067.989,635.758c-6.412-12.251-14.95-9.28-18.741-3.253-3.617-9.927-11.836-22.935-18.316-18.693-5.643,3.695-3.164,17.38.042,26.952a100.23,100.23,0,0,0,17.778,32.047c1.3,1.518,4.141.31,5.3.022a18.956,18.956,0,0,0,5.183-2.147,22.768,22.768,0,0,0,7.874-8.161A27.971,27.971,0,0,0,2067.989,635.758Z" transform="translate(-1993.823 -560.916)" fill="#f1807f"/>
</svg>
