<svg id="img-abour-why-4" xmlns="http://www.w3.org/2000/svg" width="133.199" height="162.606" viewBox="0 0 133.199 162.606">
  <g id="Group_3157" data-name="Group 3157">
    <path id="Path_15493" data-name="Path 15493" d="M2742.761,1458.964v75.925c0,3.744-1.446,6.2-3.636,6.837v.013l-15.119,4.516,3.027-9.78-47.778-27.585a4.753,4.753,0,0,1-.473.417l-20.479,15.481a8.288,8.288,0,0,1-2.44,1.223l0,.007-15.347,4.6,4.846-12.737,1.5.542c0-.077,0-.157,0-.236v-28l-14.157-8.172c-4.416-2.552-8-9.395-8-15.285v-70.539l-2.1,6.772-9.914,32.026.544-37,.139-9.539,14.564-4.349a5.362,5.362,0,0,1,4.76.654l96.851,55.92,3.52,2.031,1.682.972a12.434,12.434,0,0,1,3.044,2.557,18.619,18.619,0,0,1,1.942,2.644,21.41,21.41,0,0,1,2.565,6.291A16.987,16.987,0,0,1,2742.761,1458.964Z" transform="translate(-2609.563 -1383.799)" fill="#adafaf"/>
    <path id="Path_15494" data-name="Path 15494" d="M2741.762,1448.881a18.373,18.373,0,0,0-1.942-2.644h0v0q-.337-.379-.688-.727c-.059-.058-.119-.115-.178-.171s-.108-.1-.162-.153-.134-.121-.2-.181l-.148-.13c-.068-.059-.138-.117-.207-.173-.051-.042-.1-.083-.153-.124-.067-.054-.135-.107-.2-.16s-.11-.082-.165-.123-.131-.1-.2-.141-.132-.089-.2-.133-.113-.077-.169-.113c-.123-.079-.248-.155-.372-.227l-1.682-.972-3.52-2.031-96.851-55.92a5.362,5.362,0,0,0-4.76-.654l-14.564,4.349-.139,9.539,9.37,4.973,2.1,1.111,91.323,48.474-5.168,2.985,7.7,6.942,23.742-7.3A21.417,21.417,0,0,0,2741.762,1448.881Z" transform="translate(-2611.577 -1383.799)" fill="#cfd1cf"/>
    <path id="Path_15495" data-name="Path 15495" d="M2708,1464.879l-102.053-58.921c-4.418-2.551-8,.157-8,6.048v75.925c0,5.89,3.582,12.734,8,15.285l14.155,8.172v28c0,10.2,8.281,8.992,11.439,6.6l20.481-15.482a4.394,4.394,0,0,0,.472-.418L2708,1562.137c4.418,2.551,8-.157,8-6.048v-75.925C2716,1474.273,2712.415,1467.43,2708,1464.879Z" transform="translate(-2597.943 -1400.49)" fill="#e7f2d9"/>
  </g>
  <path id="Path_15496" data-name="Path 15496" d="M2782.906,1661.9c-1.229-5.748-12.516-7.159-15.73-12.13s-3.061-20.773-7.035-23.067a1.33,1.33,0,0,0-1.007-.192v0l-5.1,1.445-.367,5.644,2.4.5c-.76,3.492-1.523,6.984-2.958,7.546-2.868,1.122-12.158-8-15-6.914l-5.151,1.432,1.941,3.314,3.37.095c2.6,5.289,9.551,12.985,10.495,17.4,1.228,5.748-5.9,14.367-2.687,19.338.07.107.142.206.214.3l-.984.375-.746,2.169,5.491-1.532h0c3.328-.931,7.387-4.615,10.095-3.051,1.837,1.061,4.294,5.251,6.724,9.328l-.159-.062,2.186,10.205,5.266-1.464,0,0c.019-.006.037-.009.055-.016,3.214-1.259-3.915-18.11-2.688-22.441S2784.134,1667.646,2782.906,1661.9Z" transform="translate(-2704.241 -1574.87)" fill="#d27d18"/>
  <path id="Path_15497" data-name="Path 15497" d="M2751.341,1681.488c3.974,2.294,10.855,19.244,14.07,17.986s-3.915-18.111-2.687-22.441,12.611-2.474,11.383-8.222-12.516-7.159-15.731-12.13-3.061-20.773-7.035-23.067-3.82,13.685-7.035,14.944-14.5-10.365-15.73-6.034,10.155,15.618,11.382,21.366-5.9,14.367-2.687,19.337S2747.367,1679.194,2751.341,1681.488Z" transform="translate(-2700.723 -1580.313)" fill="#ffa027"/>
</svg>
