<svg id="img-discovering" xmlns="http://www.w3.org/2000/svg" xmlns:xlink="http://www.w3.org/1999/xlink" width="250.902" height="217.366" viewBox="0 0 250.902 217.366">
  <defs>
    <linearGradient id="linear-gradient" x1="-0.132" y1="0.5" x2="0.868" y2="0.5" gradientUnits="objectBoundingBox">
      <stop offset="0" stop-color="#97b500"/>
      <stop offset="0.507" stop-color="#b4cb3e"/>
      <stop offset="0.836" stop-color="#5d672b"/>
      <stop offset="1" stop-color="#45500c"/>
    </linearGradient>
    <linearGradient id="linear-gradient-2" y1="0.5" x2="1" y2="0.5" gradientUnits="objectBoundingBox">
      <stop offset="0" stop-color="#6d6e71"/>
      <stop offset="0.55" stop-color="#bbbcbd"/>
      <stop offset="1" stop-color="#fff"/>
    </linearGradient>
  </defs>
  <path id="Bg_Oval" data-name="Bg Oval" d="M97.839,152.4c32.585,0,61.4,24.762,78.879,0,11.119-15.751,20.872-35.162,17.652-55.737C191.928,81.06,172.4,86.239,157.243,67.943,134,39.88,135.459,0,97.839,0c-35.9,0-24.15,35.377-47.129,61.286C32.6,81.7,6.928,75.412,1.308,96.666c-5.239,19.812,6.25,39.141,16.927,54.7C35.637,176.71,64.8,152.4,97.839,152.4Z" transform="matrix(0.966, 0.259, -0.259, 0.966, 57.64, 0)" fill="#e7f2d9"/>
  <g id="Group_1516" data-name="Group 1516" transform="translate(114.599 62.183)" opacity="0.2">
    <path id="Path_13528" data-name="Path 13528" d="M94.008,84.172a1.364,1.364,0,0,1-1.364-1.363V72.962a1.364,1.364,0,0,1,2.727,0v9.847A1.363,1.363,0,0,1,94.008,84.172Z" transform="translate(-92.644 -71.6)" fill="#fff"/>
  </g>
  <g id="Group_1517" data-name="Group 1517" transform="translate(1.135 100.235)" style="mix-blend-mode: multiply;isolation: isolate">
    <path id="Path_13529" data-name="Path 13529" d="M36.394,148.047a8.3,8.3,0,0,1-4.067-1.419c-2.347-1.355-8.188-4.86-12.882-7.678-2.788-1.673-5.236-3.142-6.463-3.867-1.709-1.011-2.475-1.855-2.488-2.737s.7-1.7,2.394-2.76c3.659-2.3,27.008-15.58,28.862-16.635l0-22.011a.227.227,0,0,1,.227-.227h0a.227.227,0,0,1,.227.227l0,22.276-.115.065c-.252.143-25.176,14.309-28.96,16.689-1.518.955-2.191,1.686-2.181,2.37s.75,1.456,2.265,2.351c1.226.726,3.677,2.2,6.466,3.869,4.691,2.817,10.531,6.322,12.875,7.675,3.709,2.141,5.032,1.55,8.314-.477,3.412-2.108,7.694-4.653,7.737-4.677a.227.227,0,1,1,.232.39c-.043.026-4.322,2.569-7.731,4.675C39.154,147.352,37.836,148.047,36.394,148.047Z" transform="translate(-10.494 -90.713)" fill="#868fd5" stroke="#868fd5" stroke-width="1"/>
  </g>
  <path id="Path_13530" data-name="Path 13530" d="M251.118,101.593c-3.36-1.275-21.135-8.93-25.393-10.767V79.552c0-.754-.836-1.363-1.869-1.363s-1.87.609-1.87,1.363V92.381l.916.4c.921.4,22.6,9.759,26.493,11.236,1.8.683,2.214,1.244,2.217,1.385,0,.092-.252.46-1.407.928-1.382.561-9.375,3.97-20.437,8.69-16.891,7.206-40.024,17.076-52.477,22.275-9.891,4.131-25.681,10.82-39.614,16.724-15.328,6.493-28.566,12.1-32,13.485a15.416,15.416,0,0,1-12.093-.355c-4.626-1.949-18.821-8-29.183-12.426-5.7-2.432-10.362-4.421-11.932-5.087a5.631,5.631,0,0,1-1.675-.928,10.69,10.69,0,0,1,2.894-1.583l.019-.009c4.662-2.1,10.519-4.638,10.576-4.663.888-.384,1.18-1.22.653-1.868a2.3,2.3,0,0,0-2.563-.477c-.059.026-5.941,2.576-10.631,4.689-4.257,1.917-5.429,2.3-9.8.459-3.2-1.349-11.2-4.851-17.629-7.664-3.828-1.676-7.191-3.147-8.873-3.873-2.1-.907-2.328-1.372-2.342-1.372h0c.011-.032.2-.463,2.262-1.41,5.159-2.367,39.3-16.521,39.646-16.663l.947-.392,0-22.937c0-.752-.838-1.363-1.87-1.363s-1.869.611-1.869,1.363l0,21.35c-5.683,2.357-34.041,14.13-38.843,16.334-2,.918-4.041,2.08-4.009,3.737.032,1.7,2.247,2.868,4.175,3.7,1.68.725,5.033,2.193,8.853,3.865,6.441,2.819,14.455,6.327,17.684,7.687a16.352,16.352,0,0,0,6.366,1.567c.217,0,.432-.014.646-.028.337,1.333,2.122,2.25,3.509,2.837,1.567.665,6.229,2.654,11.923,5.083,10.367,4.423,24.565,10.482,29.2,12.433a21.874,21.874,0,0,0,8.5,1.791,19.341,19.341,0,0,0,7.265-1.41c3.469-1.4,16.723-7.012,32.069-13.514,13.929-5.9,29.714-12.589,39.593-16.715,12.468-5.206,35.609-15.079,52.507-22.288,10.626-4.533,19.019-8.114,20.367-8.66,2.782-1.127,3.344-2.442,3.328-3.348C255.331,104.366,254.581,102.906,251.118,101.593Z" transform="translate(-9.359 31.451)" fill="#868fd5" opacity="0.3"/>
  <g id="Group_1518" data-name="Group 1518" transform="translate(115.759 63.494)" style="mix-blend-mode: color-dodge;isolation: isolate">
    <path id="Path_13531" data-name="Path 13531" d="M94.008,83.035a.227.227,0,0,1-.228-.226V72.962a.227.227,0,0,1,.454,0v9.847A.226.226,0,0,1,94.008,83.035Z" transform="translate(-93.78 -72.735)" fill="#fff"/>
  </g>
  <g id="Group_1519" data-name="Group 1519" transform="translate(95.172 110.775)" style="mix-blend-mode: color-dodge;isolation: isolate">
    <path id="Path_13532" data-name="Path 13532" d="M75.63,170.152a11.258,11.258,0,0,1-5.636-1.631c-3.378-1.951-13.732-8.007-21.293-12.43-4.154-2.431-7.555-4.419-8.7-5.085-1.387-.807-2.037-1.53-2.045-2.278-.012-.984,1.059-1.834,2.912-2.97a.228.228,0,1,1,.238.388c-1.672,1.024-2.7,1.812-2.7,2.576.007.564.6,1.183,1.819,1.891,1.145.665,4.545,2.655,8.7,5.085,7.559,4.423,17.914,10.48,21.29,12.429a9.681,9.681,0,0,0,9.938.366c2.515-1.389,12.175-7,23.36-13.5,10.161-5.9,21.676-12.592,28.887-16.72,9.088-5.2,25.963-15.073,38.283-22.28,7.76-4.539,13.889-8.124,14.885-8.678,1.063-.59,1.62-1.26,1.611-1.936-.011-.792-.8-1.636-2.23-2.378-2.812-1.463-19.1-11.108-19.266-11.2l-.111-.066V79.552a.227.227,0,1,1,.453,0V91.474c1.45.858,16.454,9.733,19.134,11.127,1.6.834,2.461,1.794,2.474,2.775.009.6-.305,1.484-1.844,2.34-.992.552-7.119,4.135-14.875,8.672-12.322,7.208-29.2,17.079-38.288,22.283-7.21,4.128-18.724,10.816-28.884,16.718-11.188,6.5-20.85,12.111-23.369,13.5A9.735,9.735,0,0,1,75.63,170.152Z" transform="translate(-37.957 -79.324)" fill="#a0abfe"/>
  </g>
  <g id="Group_1520" data-name="Group 1520" transform="translate(15.541 97.699)">
    <path id="Path_13533" data-name="Path 13533" d="M240.594,129.315c0,1.082-1.026,2.163-3.088,2.991L106.271,184.682a23.259,23.259,0,0,1-14.945,0L27.991,159.407c-2.066-.827-3.091-1.909-3.091-2.99s1.026-2.163,3.091-2.982l11.015-4.4,17.787-7.1,5.783-2.309,3.577-1.427,12.515-4.989,4.049-1.618,76.507-30.537a23.134,23.134,0,0,1,14.948,0l25.146,10.034,3.6,1.435,5.784,2.319,17.785,7.088,11.016,4.4c2.011.8,3.036,1.845,3.077,2.9A.2.2,0,0,1,240.594,129.315Z" transform="translate(-24.9 -66.248)" fill="#707070" opacity="0.1"/>
    <path id="Path_13534" data-name="Path 13534" d="M28,134.124c-4.13,1.648-4.13,4.319,0,5.967l63.327,25.277a23.209,23.209,0,0,0,14.95,0L237.5,112.99c4.127-1.648,4.127-4.32,0-5.968L174.172,81.745a23.236,23.236,0,0,0-14.95,0Z" transform="translate(-24.9 -66.248)" fill="#707070" opacity="0.5"/>
    <path id="Path_13535" data-name="Path 13535" d="M28,145.218c-4.128,1.648-4.128,4.319,0,5.967l63.33,25.278a23.227,23.227,0,0,0,14.948,0L237.5,124.084c4.128-1.648,4.128-4.319,0-5.967L174.173,92.84a23.209,23.209,0,0,0-14.95,0Z" transform="translate(-24.9 -66.248)" fill="#707070" opacity="0.3"/>
    <path id="Path_13536" data-name="Path 13536" d="M30.412,122.833v.688L159.221,72.106a23.236,23.236,0,0,1,14.95,0l60.082,23.983v-.507H240.6v4.638h-.017c.1,1.129-.92,2.27-3.078,3.132L106.274,155.73a23.223,23.223,0,0,1-14.95,0L28,130.453c-2-.8-3.025-1.839-3.085-2.885H24.9v-4.735Z" transform="translate(-24.9 -66.248)" fill="url(#linear-gradient)"/>
    <path id="Path_13537" data-name="Path 13537" d="M28,119.863c-4.13,1.648-4.13,4.32,0,5.967l63.327,25.277a23.209,23.209,0,0,0,14.95,0L237.5,98.73c4.127-1.649,4.127-4.321,0-5.968L174.172,67.484a23.223,23.223,0,0,0-14.95,0Z" transform="translate(-24.9 -66.248)" fill="#fff"/>
    <path id="Path_13538" data-name="Path 13538" d="M38.28,116.241l74.984,28.377L231.521,99.864,156.538,71.487Z" transform="translate(-24.9 -66.248)" fill="#868fd5"/>
    <ellipse id="Ellipse_116" data-name="Ellipse 116" cx="7.16" cy="4.134" rx="7.16" ry="4.134" transform="translate(34.456 63.815)" fill="#cfcfcf"/>
    <path id="Path_13539" data-name="Path 13539" d="M35.154,121.95a1.246,1.246,0,0,0,0,2.36l9.469,5.468,4.1-2.366-9.471-5.468A4.525,4.525,0,0,0,35.154,121.95Z" transform="translate(-24.9 -66.248)" fill="#cfcfcf"/>
    <path id="Path_13540" data-name="Path 13540" d="M76.346,145.722a1.247,1.247,0,0,0,0-2.362l-9.469-5.466-4.1,2.366,9.47,5.467A4.528,4.528,0,0,0,76.346,145.722Z" transform="translate(-6.18 -66.248)" fill="#cfcfcf"/>
    <path id="Path_13541" data-name="Path 13541" d="M137.68,78.859a.678.678,0,0,0,0,1.285l14.14,8.164a2.464,2.464,0,0,0,2.225,0h0a.678.678,0,0,0,0-1.285L139.9,78.859a2.457,2.457,0,0,0-2.225,0Z" transform="translate(41.674 -66.248)" fill="#f1f2f2"/>
  </g>
  <g id="Group_1523" data-name="Group 1523" transform="translate(20.661 77.345)" opacity="0.3">
    <path id="Path_13545" data-name="Path 13545" d="M51.6,82.923,33.5,106.066l-3.479-1.948V91.427L48.125,80.974Z" transform="translate(-30.019 -80.974)" fill="#fff"/>
  </g>
  <g id="Group_1524" data-name="Group 1524" transform="translate(24.139 79.799)">
    <path id="Path_13546" data-name="Path 13546" d="M51.6,95.613,33.5,106.066V93.376L51.6,82.923Z" transform="translate(-33.498 -82.923)" fill="#e6e7e8"/>
    <path id="Path_13547" data-name="Path 13547" d="M33.5,94.475l9.053,1.119L33.5,106.066Z" transform="translate(-33.498 -82.923)" fill="#f1f2f2"/>
    <path id="Path_13548" data-name="Path 13548" d="M51.6,84.021,42.551,95.594l9.053.019Z" transform="translate(-33.498 -82.923)" fill="#f1f2f2"/>
    <path id="Path_13549" data-name="Path 13549" d="M33.5,93.376l9.053.976L51.6,82.923Z" transform="translate(-33.498 -82.923)" fill="#fff"/>
  </g>
  <g id="Group_1525" data-name="Group 1525" transform="translate(219.106 60.569)">
    <path id="Path_13550" data-name="Path 13550" d="M185.029,72.172l-17.356-10.02c-1.386-.8-2.606-.828-3.376-.244l0-.015L158.41,65.35l5.029,3.531V81.3c0,2.338,1.9,5.328,4.233,6.679l14.561,8.4L182.066,102l6.2-3.645-.02-.015a2.332,2.332,0,0,0,1.012-2.134V78.849C189.26,76.511,187.365,73.522,185.029,72.172Z" transform="translate(-157.465 -61.506)" fill="#fff" opacity="0.3"/>
    <path id="Path_13551" data-name="Path 13551" d="M183.712,98.146c0,2.338-1.9,3.141-4.235,1.788L162.123,89.916c-2.336-1.351-4.232-4.339-4.232-6.677V65.883c0-2.338,1.9-3.137,4.232-1.788l17.354,10.02c2.34,1.349,4.235,4.339,4.235,6.677Z" transform="translate(-157.891 -59.92)" fill="#a0abfe"/>
    <path id="Path_13552" data-name="Path 13552" d="M175.178,74.382a14.49,14.49,0,0,0-5.056-5.288c-1.828-1.047-3.664-1.3-5.069-.5-2.307,1.3-2.7,5.015-1.253,8.949h-.077l-3.5,2.021c-.77.435-.774,1.877-.009,3.186a3.955,3.955,0,0,0,1.4,1.457,1.424,1.424,0,0,0,1.4.146l3.538-1.956v-.087a13.3,13.3,0,0,0,3.571,3.125c1.826,1.045,3.642,1.287,5.026.483C177.951,84.325,177.967,79.172,175.178,74.382Zm-1.753,8.578a3.42,3.42,0,0,1-3.361-.348,9.6,9.6,0,0,1-3.35-3.492c-1.8-3.084-1.784-6.535.062-7.577a3.385,3.385,0,0,1,3.339.335,9.532,9.532,0,0,1,3.332,3.483C175.28,78.509,175.271,81.916,173.424,82.96Z" transform="translate(-156.454 -56.075)" fill="#fff"/>
  </g>
  <g id="Group_1526" data-name="Group 1526" transform="matrix(1, 0.017, -0.017, 1, 65.211, 120.222)" opacity="0.3" style="mix-blend-mode: color-dodge;isolation: isolate">
    <path id="Path_13553" data-name="Path 13553" d="M7.759,41.178,6.422,37.849,16.661,32.96c.1-.049.195-.095.277-.137-.2-.114-.476-.253-.835-.419-1.872-.863-5.867-2.8-9.076-4.354-1.612-.782-3.008-1.458-3.786-1.829C2.354,25.8,0,24.673,0,22.751c0-1.957,2.44-3.122,3.24-3.505,11.808-5.636,15.972-7.652,17.386-8.352,3.59-1.773,5.525-2.036,9.247.022C32.193,12.2,57.4,24.112,66.882,28.6c2.393,1.133,4.055,1.916,4.547,2.153,2.348,1.122,2.984,1.424,5.991-.013C79.653,29.669,83.766,27.721,87.4,26c2.857-1.352,5.42-2.567,6.533-3.1.122-.056.227-.109.322-.157-.2-.111-.453-.242-.773-.394l-.206-.1c-15.113-7.214-19.121-9.115-19.824-9.44-1.19-.553-3.412-1.581-3.426-3.467-.009-1.228.943-2.31,2.834-3.211C76.32,4.481,84.808.289,84.894.246a2.374,2.374,0,0,1,2.891.6,1.586,1.586,0,0,1-.728,2.39c-.087.043-8.6,4.249-12.088,5.912-.135.064-.246.123-.343.176.227.125.523.274.89.444,1.036.481,7.721,3.663,19.869,9.462l.206.1c1.806.862,3.475,1.876,3.475,3.453,0,1.695-1.966,2.632-3.022,3.137-1.118.534-3.684,1.749-6.549,3.1-3.628,1.721-7.736,3.665-9.969,4.731-4.771,2.278-7.039,1.524-10.205.01-.493-.233-2.146-1.016-4.53-2.142C47.573,23.483,29.683,15,27.529,13.812c-2.106-1.165-2.239-1.162-4.74.074-1.427.7-5.61,2.73-17.44,8.378a7.486,7.486,0,0,0-.863.474,8.373,8.373,0,0,0,.863.465c.784.373,2.186,1.053,3.809,1.839,3.192,1.548,7.166,3.473,9,4.318,1.708.787,3.457,1.816,3.471,3.462.017,1.786-2.073,2.783-2.859,3.159Z" transform="translate(2.811 3.318)" fill="url(#linear-gradient-2)"/>
  </g>
  <g id="Group_1527" data-name="Group 1527" transform="matrix(1, 0.017, -0.017, 1, 68.26, 118.705)" style="mix-blend-mode: color-dodge;isolation: isolate">
    <path id="Path_13554" data-name="Path 13554" d="M5.907,38.159l-.353-.5,10.255-4.888c1.087-.518,1.635-.983,1.63-1.382,0-.461-.728-1.016-2.213-1.7-1.858-.855-5.85-2.788-9.058-4.34-1.618-.784-3.018-1.461-3.8-1.833C1.266,22.986,0,22.26,0,21.3c0-.753.776-1.488,2.368-2.247C14.2,13.411,18.383,11.39,19.8,10.688c3.131-1.544,4.326-1.705,7.38-.018,2.375,1.312,26.76,12.821,37.173,17.736,2.394,1.129,4.054,1.914,4.548,2.148,2.494,1.19,3.868,1.843,7.759-.01,2.237-1.066,6.355-3.014,9.992-4.734,2.865-1.356,5.432-2.569,6.551-3.1C94.448,22.116,95,21.692,95,21.331c0-.417-.737-.97-2.248-1.692l-.207-.1C77.4,12.324,73.379,10.418,72.675,10.092c-.946-.437-2.527-1.17-2.535-2.21-.006-.676.636-1.313,1.957-1.943C75.573,4.282,84.088.084,84.173.041a.4.4,0,0,1,.482.1.264.264,0,0,1-.122.4c-.084.042-8.6,4.243-12.081,5.9-1.056.5-1.612,1-1.609,1.437,0,.7,1.417,1.356,2.174,1.707.709.329,4.732,2.233,19.882,9.454l.2.1c1.824.868,2.6,1.524,2.6,2.194,0,.711-.858,1.266-2.146,1.878-1.118.534-3.687,1.749-6.553,3.105-3.637,1.721-7.754,3.666-9.989,4.732-4.058,1.933-5.692,1.333-8.464.012-.492-.235-2.154-1.018-4.546-2.148C53.589,23.994,29.189,12.477,26.794,11.153c-2.83-1.562-3.721-1.4-6.629.033-1.425.7-5.607,2.727-17.446,8.369C1.381,20.193.7,20.779.7,21.3s.641,1.053,2.014,1.709c.783.373,2.185,1.051,3.806,1.837,3.207,1.551,7.2,3.48,9.044,4.332,1.8.83,2.569,1.488,2.575,2.205.006.64-.624,1.241-1.984,1.888Z" transform="translate(2.711 3.276)" fill="#707070" stroke="#707070" stroke-width="1"/>
  </g>
  <g id="Group_1535" data-name="Group 1535" transform="translate(31.255 63.729)" opacity="0.2">
    <path id="Path_13581" data-name="Path 13581" d="M41.977,87.055a1.364,1.364,0,0,1-1.363-1.364v-11.8a1.364,1.364,0,1,1,2.727,0v11.8A1.364,1.364,0,0,1,41.977,87.055Z" transform="translate(-40.614 -72.527)" fill="#fff"/>
  </g>
  <g id="Group_1536" data-name="Group 1536" transform="translate(114.599 16.009)" opacity="0.2">
    <path id="Path_13582" data-name="Path 13582" d="M94.008,53.5a1.363,1.363,0,0,1-1.364-1.363V44.609a1.364,1.364,0,0,1,2.727,0v7.527A1.363,1.363,0,0,1,94.008,53.5Z" transform="translate(-92.644 -43.246)" fill="#fff"/>
  </g>
  <g id="Group_1537" data-name="Group 1537" transform="translate(221.741 35.087)" opacity="0.2">
    <path id="Path_13583" data-name="Path 13583" d="M165.89,65.711a1.364,1.364,0,0,1-1.364-1.363V53.587a1.364,1.364,0,0,1,2.727,0V64.348A1.363,1.363,0,0,1,165.89,65.711Z" transform="translate(-164.526 -52.224)" fill="#fff"/>
  </g>
  <g id="Group_1538" data-name="Group 1538" transform="translate(32.391 65.034)" style="mix-blend-mode: color-dodge;isolation: isolate">
    <path id="Path_13584" data-name="Path 13584" d="M41.977,85.919a.228.228,0,0,1-.227-.228v-11.8a.228.228,0,1,1,.455,0v11.8A.228.228,0,0,1,41.977,85.919Z" transform="translate(-41.75 -73.663)" fill="#fff"/>
  </g>
  <g id="Group_1539" data-name="Group 1539" transform="translate(115.759 17.146)" style="mix-blend-mode: color-dodge;isolation: isolate">
    <path id="Path_13585" data-name="Path 13585" d="M94.008,52.362a.227.227,0,0,1-.228-.226V44.609a.227.227,0,0,1,.454,0v7.527A.226.226,0,0,1,94.008,52.362Z" transform="translate(-93.78 -44.383)" fill="#fff"/>
  </g>
  <g id="Group_1540" data-name="Group 1540" transform="translate(222.877 36.518)" style="mix-blend-mode: color-dodge;isolation: isolate">
    <path id="Path_13586" data-name="Path 13586" d="M165.89,64.574a.227.227,0,0,1-.228-.226V53.587a.228.228,0,1,1,.455,0V64.348A.226.226,0,0,1,165.89,64.574Z" transform="translate(-165.662 -53.359)" fill="#fff"/>
  </g>
  <g id="Group_1541" data-name="Group 1541" transform="translate(1.135 69.121)">
    <path id="Path_13587" data-name="Path 13587" d="M27.323,91.013a4.951,4.951,0,0,1-1.29-3.631c0-4.51,3.648-10.278,8.149-12.885a8.16,8.16,0,0,1,4.041-1.223,23.98,23.98,0,0,1,9.826-12.026c4.327-2.5,8.03-2.091,9.769.579a16.035,16.035,0,0,1,3.85-3.241c2.828-1.639,5.317-1.63,6.778-.28l0,0,5.291,4.216-6.9,5.413a18.058,18.058,0,0,1-5.389,5.74v.062l-7.659,4.436L32.358,94.984l-4.8-3.751c-.063-.053-.13-.1-.19-.157l-.063-.051Z" transform="translate(-26.033 -57.322)" fill="#fff" opacity="0.3"/>
    <path id="Path_13588" data-name="Path 13588" d="M37.485,77.482a8.492,8.492,0,0,1,4.2-1.267,24.845,24.845,0,0,1,10.2-12.458c4.494-2.594,8.343-2.166,10.148.6a16.691,16.691,0,0,1,4-3.357c4.673-2.7,8.462-1.1,8.462,3.577,0,4.454-3.455,10.059-7.824,12.912v.064L37.485,94.4c-4.671,2.7-8.462,1.1-8.462-3.574S32.814,80.181,37.485,77.482Z" transform="translate(-26.033 -57.322)" fill="#a0abfe"/>
  </g>
  <g id="Group_1542" data-name="Group 1542" transform="matrix(0.995, 0.105, -0.105, 0.995, 64.694, 47.046)">
    <path id="Path_13589" data-name="Path 13589" d="M0,3.276A1.352,1.352,0,0,0,1.072,3.6a2.845,2.845,0,0,0,1.155-.4A5.126,5.126,0,0,0,3.383,2.26,6.087,6.087,0,0,0,4.45.7C4.424.116,4.128-.051,3.688.012A4.448,4.448,0,0,1,2.227,1.456,1.7,1.7,0,0,1,.766,1.7,2.367,2.367,0,0,0,0,3.276Z" transform="translate(76.396 21.274)" fill="#fff" opacity="0.8"/>
    <path id="Path_13590" data-name="Path 13590" d="M78.395,20.8a3.554,3.554,0,0,1,.131-.978,6,6,0,0,0,.664-2.531V2.287A2.057,2.057,0,0,0,77.908.129,3.286,3.286,0,0,0,75.182.61L4.008,41.039C1.794,42.3,0,45.092,0,47.25V62.259a2.212,2.212,0,0,0,.775,1.875l.42.261h.023a3.27,3.27,0,0,0,2.791-.456l69.6-39.562c.023.02.023.02.023.066,3.254,2.135,7.393-1.287,7.393-1.287C78.794,23.091,78.395,21.762,78.395,20.8ZM66.46,25.1c-3.851,2.178-7.105,1.436-8.014-1.571a5.672,5.672,0,0,1-.288-1.915,9.867,9.867,0,0,1,.111-1.353c.618-4.225,4.008-9.1,8.1-11.48a.953.953,0,0,1,.088-.063,7.974,7.974,0,0,1,4.43-1.241c2.345.106,3.895,1.786,3.895,4.7C74.786,16.708,71.066,22.478,66.46,25.1Z" transform="translate(3.225 1.876)" fill="#a0abfe"/>
    <path id="Path_13591" data-name="Path 13591" d="M0,2.486c0,.57.331.87.813.825A1.493,1.493,0,0,0,1.434,3.1a2.684,2.684,0,0,0,.622-.5A2.8,2.8,0,0,0,2.87.829c0-.793-.643-1.064-1.436-.606A2.971,2.971,0,0,0,0,2.486Z" transform="translate(77.187 15.139)" fill="#fff" opacity="0.8"/>
    <path id="Path_13592" data-name="Path 13592" d="M7.783,1.209,0,5.7V4.493L7.783,0Z" transform="translate(17.347 39.443)" fill="#fff"/>
    <path id="Path_13593" data-name="Path 13593" d="M4.707,1.209,0,3.926V2.717L4.707,0Z" transform="translate(16.194 50.91)" fill="#fff"/>
    <path id="Path_13594" data-name="Path 13594" d="M18.264,1.208,0,11.753V10.544L18.264,0Z" transform="translate(24.515 52.418)" fill="#a0abfe"/>
    <path id="Path_13595" data-name="Path 13595" d="M83.041,4.7a3.169,3.169,0,0,0-2.626.463L11.858,44.046C9.725,45.261,8,47.944,8,50.02V64.457a2.127,2.127,0,0,0,.746,1.8L1.066,61.9v-.022A2.006,2.006,0,0,1,0,59.888V45.451c0-2.074,1.726-4.756,3.858-5.972L72.421.59a3.858,3.858,0,0,1,1.9-.59,2.063,2.063,0,0,1,.96.231Z" fill="#fff" opacity="0.3"/>
  </g>
  <g id="Group_1547" data-name="Group 1547" transform="translate(206.299 15.702)">
    <path id="Path_13596" data-name="Path 13596" d="M184.266,49.426l-16.859-9.735c-1.346-.776-2.531-.8-3.279-.237l0-.014L158.41,42.8l4.885,3.428V58.289c0,2.271,1.841,5.173,4.112,6.486l14.144,8.166-.163,5.458,6.024-3.541-.019-.014a2.268,2.268,0,0,0,.983-2.075V55.912C188.376,53.641,186.535,50.737,184.266,49.426Z" transform="translate(-157.492 -39.065)" fill="#fff" opacity="0.3"/>
    <path id="Path_13597" data-name="Path 13597" d="M182.972,74.712c0,2.271-1.841,3.047-4.114,1.737L162,66.716c-2.269-1.311-4.11-4.215-4.11-6.486V43.373c0-2.271,1.841-3.051,4.11-1.74l16.857,9.735c2.273,1.312,4.114,4.215,4.114,6.486Z" transform="translate(-157.891 -37.58)" fill="#a0abfe"/>
    <path id="Path_13598" data-name="Path 13598" d="M159.977,57.946a.7.7,0,0,1,.041-.253l.734-10.67c.034-.478.444-.626.941-.34l13.507,7.8a1.987,1.987,0,0,1,.941,1.426l.748,11.744a.539.539,0,0,1-.253.559.749.749,0,0,1-.688-.1l-15.005-8.661-.023-.016A1.954,1.954,0,0,1,159.977,57.946Zm14.34-2.087L162.575,49.08l-.623,9.064,12.987,7.5Z" transform="translate(-156.288 -33.32)" fill="#fff"/>
    <path id="Path_13599" data-name="Path 13599" d="M163.41,51.7c.522.3.943.122.943-.4V48.547c0-1.13.92-1.518,2.048-.865l.235.134a4.253,4.253,0,0,1,2.048,3.231v2.761a1.961,1.961,0,0,0,.944,1.486c.52.3.943.122.943-.4V52.138a8.176,8.176,0,0,0-3.935-6.208L166.4,45.8c-2.168-1.254-3.933-.506-3.933,1.664v2.757A1.959,1.959,0,0,0,163.41,51.7Z" transform="translate(-154.374 -34.358)" fill="#fff"/>
    <path id="Path_13600" data-name="Path 13600" d="M161.746,55.276a.719.719,0,0,1,.041-.251l.361-5.608c.03-.479.444-.628.941-.341l7.994,4.616a1.989,1.989,0,0,1,.943,1.429l.373,6.247a.534.534,0,0,1-.255.557.752.752,0,0,1-.686-.1l-8.744-5.048-.025-.016A1.951,1.951,0,0,1,161.746,55.276Zm8.451-.21-6.222-3.592-.256,4,6.737,3.889Z" transform="translate(-154.928 -31.481)" fill="#fff"/>
  </g>
  <g id="Group_1551" data-name="Group 1551" transform="translate(160.512 76.35)" style="mix-blend-mode: color-dodge;isolation: isolate">
    <path id="Path_13542" data-name="Path 13542" d="M133.586,98.785a13.2,13.2,0,0,1-6.507-1.582,5.169,5.169,0,0,1,0-9.573,14.173,14.173,0,0,1,13.012,0,5.168,5.168,0,0,1,0,9.573A13.2,13.2,0,0,1,133.586,98.785Zm0-9.167a9.748,9.748,0,0,0-4.721,1.1c-.9.518-1.434,1.152-1.434,1.7s.534,1.178,1.434,1.7a10.649,10.649,0,0,0,9.442,0c.9-.517,1.434-1.152,1.434-1.7s-.535-1.177-1.434-1.7A9.756,9.756,0,0,0,133.586,89.618Z" transform="translate(-123.861 -86.049)" fill="none"/>
    <path id="Path_13544" data-name="Path 13544" d="M133.919,90.154a1.2,1.2,0,0,1,0,2.277,4.354,4.354,0,0,1-3.945,0,1.2,1.2,0,0,1,0-2.277A4.362,4.362,0,0,1,133.919,90.154Z" transform="translate(-123.147 -84.588)" fill="#a0abfe"/>
    <path id="Path_13543" data-name="Path 13543" d="M133.234,96.948a11.7,11.7,0,0,1-5.763-1.384,3.711,3.711,0,0,1,0-7,12.711,12.711,0,0,1,11.525,0,3.711,3.711,0,0,1,0,7A11.693,11.693,0,0,1,133.234,96.948Zm0-9.168a11.113,11.113,0,0,0-5.466,1.3,3.133,3.133,0,0,0,0,5.967,12.105,12.105,0,0,0,10.93,0,3.133,3.133,0,0,0,0-5.967A11.107,11.107,0,0,0,133.234,87.779Z" transform="translate(-123.718 -85.588)" fill="#a0abfe"/>
  </g>
  <g id="Group_1549" data-name="Group 1549" transform="translate(146.818 3.788)">
    <path id="Path_13601" data-name="Path 13601" d="M169.5,76.3c0-12.688-10.268-28.9-22.959-36.223-7.145-4.124-13.521-4.545-17.728-1.861v0l-8.681,5.3,3.9,2.038a19.393,19.393,0,0,0-.447,4.245,19.816,19.816,0,0,0,.2,2.545l-4.695,5.067,3.76,22.942L134.5,84.553a161.852,161.852,0,0,0,9.752,19.668l-2.383,6.974,8.008-4.856-.016-.008C156.635,102.471,169.5,86.753,169.5,76.3Zm-22.959,1.6c-8.021-4.63-14.544-14.9-14.544-22.915a8.834,8.834,0,0,1,2.209-6.349l14.312,15.45,6.6,15.906C152.711,80.378,149.759,79.759,146.539,77.9Z" transform="translate(-114.374 -36.516)" fill="#c4d5ae"/>
    <path id="Path_13602" data-name="Path 13602" d="M159.137,66.971a47.874,47.874,0,0,0-3.94-7.463c-.815-1.292-1.707-2.553-2.648-3.78A48.766,48.766,0,0,0,142.18,45.586a36.683,36.683,0,0,0-3.1-1.993c-12.7-7.32-22.954-2.968-22.954,9.726,0,5.5,3.556,16.571,7.928,27.543,2.3,5.757,4.818,11.5,7.163,16.376.766,1.643,1.531,3.174,2.249,4.577a61.689,61.689,0,0,0,4.132,7.113,6.054,6.054,0,0,0,1.482,1.644c4.069,2.343,22.957-18.084,22.957-30.748A33.571,33.571,0,0,0,159.137,66.971ZM151.846,81.2c-1.833,2.328-5.007,3.076-8.788,1.944a17.37,17.37,0,0,1-3.765-1.609c-.065-.033-.144-.08-.209-.113A31.074,31.074,0,0,1,128.909,71.4c-2.7-4.194-4.373-8.833-4.373-12.9,0-7.94,6.367-10.7,14.245-6.315.1.064.207.113.3.177a30.966,30.966,0,0,1,10.1,9.9,32.027,32.027,0,0,1,2.361,4.352,21.532,21.532,0,0,1,2.074,8.661,11.492,11.492,0,0,1-.463,3.365A7.426,7.426,0,0,1,151.846,81.2Z" transform="translate(-116.13 -34.421)" fill="#97b500"/>
    <path id="Path_13603" data-name="Path 13603" d="M136.334,69.834l-8.072,15.707c-2.345-4.878-4.865-10.619-7.163-16.376l4.851-9.458a31.074,31.074,0,0,0,10.174,10.015C136.191,69.755,136.269,69.8,136.334,69.834Z" transform="translate(-113.172 -22.724)" fill="#899e1d"/>
    <path id="Path_13604" data-name="Path 13604" d="M144.1,53.66,140.731,60.2a30.966,30.966,0,0,0-10.1-9.9c-.094-.064-.2-.113-.3-.177l3.4-6.6A48.766,48.766,0,0,1,144.1,53.66Z" transform="translate(-107.678 -32.352)" fill="#899e1d"/>
    <path id="Path_13605" data-name="Path 13605" d="M145.375,65.847,131.132,93.578A61.686,61.686,0,0,1,127,86.465l9.587-18.674C140.368,68.923,143.543,68.175,145.375,65.847Z" transform="translate(-109.66 -19.072)" fill="#899e1d"/>
    <path id="Path_13606" data-name="Path 13606" d="M139.941,71.384a11.491,11.491,0,0,0,.463-3.365,21.532,21.532,0,0,0-2.074-8.661l3.653-7.111a47.875,47.875,0,0,1,3.94,7.463Z" transform="translate(-102.916 -27.16)" fill="#899e1d"/>
  </g>
</svg>
