<svg id="img-abour-why-3" xmlns="http://www.w3.org/2000/svg" width="134.475" height="164.416" viewBox="0 0 134.475 164.416">
  <g id="Group_3155" data-name="Group 3155">
    <path id="Path_15484" data-name="Path 15484" d="M540.664,1421.247v76.786c0,3.786,1.463,6.269,3.677,6.915v.013l15.29,4.567-3.061-9.891,48.32-27.9a4.73,4.73,0,0,0,.477.422l20.711,15.657a8.4,8.4,0,0,0,2.468,1.237l0,.008,15.521,4.65-4.9-12.882-1.518.548c0-.078,0-.158,0-.238v-28.315l14.317-8.265c4.467-2.582,8.089-9.5,8.089-15.458v-71.34l2.119,6.85L672.2,1397l-.55-37.419-.141-9.647-14.729-4.4a5.422,5.422,0,0,0-4.814.661l-97.95,56.555-3.559,2.053-1.7.983a12.594,12.594,0,0,0-3.079,2.586,18.9,18.9,0,0,0-1.963,2.675,21.661,21.661,0,0,0-2.594,6.362A17.2,17.2,0,0,0,540.664,1421.247Z" transform="translate(-540.664 -1345.229)" fill="#adafaf"/>
    <path id="Path_15485" data-name="Path 15485" d="M545.374,1411.05a18.7,18.7,0,0,1,1.963-2.675h0c.227-.256.459-.5.7-.735.06-.059.121-.116.181-.173s.109-.1.164-.155.135-.122.2-.182l.15-.133q.1-.088.209-.174c.051-.043.1-.084.155-.125.069-.055.137-.109.207-.162l.168-.125c.066-.048.132-.1.2-.143s.133-.09.2-.134.114-.077.171-.114c.125-.079.25-.156.377-.229l1.7-.983,3.559-2.053,97.95-56.555a5.422,5.422,0,0,1,4.814-.661l14.729,4.4.141,9.647-9.476,5.029-2.119,1.124-92.359,49.025,5.227,3.018-7.792,7.021-24.012-7.388A21.661,21.661,0,0,1,545.374,1411.05Z" transform="translate(-542.325 -1345.229)" fill="#cfd1cf"/>
    <path id="Path_15486" data-name="Path 15486" d="M618.881,1426.824l103.211-59.589c4.468-2.58,8.09.158,8.09,6.117v76.786c0,5.957-3.622,12.878-8.091,15.458l-14.315,8.266c0,11.024,0,21.663,0,28.315,0,10.317-8.375,9.1-11.569,6.68L675.495,1493.2a4.494,4.494,0,0,1-.478-.422l-56.136,32.41c-4.468,2.58-8.09-.159-8.09-6.117v-76.786C610.791,1436.325,614.413,1429.4,618.881,1426.824Z" transform="translate(-595.709 -1361.74)" fill="#e7f2d9"/>
  </g>
  <path id="Path_15487" data-name="Path 15487" d="M979.346,1682.365c0-4.168,2.533-9.009,5.659-10.813a4.024,4.024,0,0,1,2.971-.592l0,0,2.447.625-.843.435a6.073,6.073,0,0,1,1.084,3.813c0,4.168-2.534,9.01-5.66,10.814-.092.053-.184.1-.276.151l-.036,1.106-2.769-.691,0-.005C980.372,1686.755,979.346,1685.017,979.346,1682.365Z" transform="translate(-884.999 -1600.837)" fill="#1a4877"/>
  <path id="Path_15488" data-name="Path 15488" d="M991.812,1685.478c0,4.168,2.534,6.084,5.659,4.279s5.66-6.646,5.66-10.814-2.534-6.083-5.66-4.278S991.811,1681.311,991.812,1685.478Z" transform="translate(-894.784 -1603.28)" fill="#64acc5"/>
  <path id="Path_15489" data-name="Path 15489" d="M881.166,1739.05c0-4.168,2.534-9.009,5.659-10.814a3.949,3.949,0,0,1,3.092-.558l2.247.573-.794.41a6.028,6.028,0,0,1,1.115,3.853c0,4.168-2.534,9.01-5.66,10.814-.1.058-.2.111-.3.161l-.035,1.091-2.769-.691,0-.005C882.183,1743.424,881.166,1741.69,881.166,1739.05Z" transform="translate(-807.934 -1645.331)" fill="#1a4877"/>
  <path id="Path_15490" data-name="Path 15490" d="M782.991,1795.734c0-4.167,2.534-9.01,5.659-10.814a4,4,0,0,1,3.008-.581l.005,0,2.447.624-.868.448a6.1,6.1,0,0,1,1.068,3.792c0,4.168-2.534,9.009-5.66,10.814-.078.046-.156.087-.233.127l-.037,1.138-2.626-.656c-.041-.009-.082-.02-.123-.03l-.019-.005h0C784.036,1800.154,782.991,1798.409,782.991,1795.734Z" transform="translate(-730.874 -1689.824)" fill="#1a4877"/>
  <path id="Path_15491" data-name="Path 15491" d="M893.633,1742.161c0,4.167,2.534,6.083,5.66,4.278s5.66-6.646,5.66-10.814-2.534-6.083-5.66-4.279S893.633,1737.993,893.633,1742.161Z" transform="translate(-817.72 -1647.771)" fill="#64acc5"/>
  <path id="Path_15492" data-name="Path 15492" d="M795.457,1798.843c0,4.168,2.534,6.084,5.659,4.279s5.66-6.646,5.66-10.814-2.534-6.083-5.66-4.278S795.457,1794.677,795.457,1798.843Z" transform="translate(-740.659 -1692.264)" fill="#64acc5"/>
</svg>
