<?xml version="1.0" encoding="utf-8"?>
<!-- Generator: Adobe Illustrator 25.2.3, SVG Export Plug-In . SVG Version: 6.00 Build 0)  -->
<svg version="1.1" id="main-logo" xmlns="http://www.w3.org/2000/svg" xmlns:xlink="http://www.w3.org/1999/xlink" x="0px" y="0px"
	 viewBox="0 0 334 71" style="enable-background:new 0 0 334 71;" xml:space="preserve">
<style type="text/css">
	.st0{fill:#676767;}
	.st1{fill:#ABCC37;}
</style>
<g>
	<g>
		<g id="SmokeBK_1_">
			<path class="st0" d="M54.4,55.3c-8.4,3-27.4,6.8-37.7,2.1C3.5,52.6,1.9,40.7,14.5,33.6c-0.8,3-0.6,5.8-2.9,8.2
				c-3.3,3.3-2.8,7.6,0.5,11.1C24,63.1,45.3,57.4,54.4,55.3z"/>
		</g>
		<g id="Plane">
			<g>
				<path class="st0" d="M44,55.3c-2.9-2.2-5.3-4.1-8-6.1c1.2-0.7,2.3-0.6,3.4-0.2c5.5,1.8,10.7,5.6,16.8,3.3
					c1.1-0.4,2.5-0.1,3.7-0.1c0.4,0,0.9,0.2,0.9,0.6c0,0.4-0.3,0.7-0.7,0.9c-11.7,3.4-22.7,6.9-25.7,6.9c-1.8,0-0.6-0.2-0.3-0.9
					c0.2-0.7-0.5-1-0.9-1.3c-0.8-0.7-1.7-1.3-2.8-2.1c1.4-0.7,2.2-1.3,2.9-0.6C36.8,58.8,40.1,56.7,44,55.3z"/>
			</g>
			<g>
				<path class="st0" d="M46.6,58.4c-1.2,1.7-1.8,3.1-3.7,3.2c-0.9,0-1.7-0.4-1.8-1.1c-0.1-0.7,0.7-0.8,1.3-1
					C43.6,59.2,44.8,58.9,46.6,58.4z"/>
			</g>
		</g>
		<g id="Lication">
			<path class="st1" d="M60.8,26.1c0,4.2-1.4,7.9-4.3,10.9c-3.4,3.6-7,7-10.4,10.5c-0.9,0.9-1.4,1.1-2.4,0.1c-2.4-2.5-4.9-5-7.5-7.4
				c-1-0.9-0.7-1.4,0-2.5c0.8-1.3,1.6-2.6,2.4-4.1c0.3-0.5,0.9-2.2,2.8-1c7.7,4.3,14.9-6.5,8.1-12.3c-4.4-3.9-11.7-0.5-12.1,5.5
				c-0.4,5.3-2.3,9.4-6.1,13c-3,2.8-5.9,5.7-8.7,8.7c-1,1.1-1.6,0.9-2.5-0.1c-3.4-3.5-6.9-6.8-10.2-10.3
				c-12.3-13.4,2.9-33.2,19-25.2c1.5,0.8,1.6,0.9,0.7,3c-0.1,0.2-0.3,0.8-0.4,1.1c-1.3,2.9-2.4,4.9-6.7,3c-3.7-1.6-7.9,2-8.4,6
				C13,35,27.9,36.7,28.8,26.6C29.3,5,60,4.5,60.8,26.1z"/>
		</g>
	</g>
	<g>
		<path class="st0" d="M200.3,49.6c-0.3-0.3-0.4-0.9,0-1.2c0.3-0.3,1-0.3,1.3,0C202.5,49.2,201.2,50.4,200.3,49.6z M200.4,51.8h1.2
			v9.1h-1.2V51.8z"/>
		<path class="st0" d="M211.5,52.8c0.7,0.7,1,1.6,1,2.9v5.3h-1.2v-5.2c0-0.9-0.2-1.7-0.7-2.2c-1-1.1-3.4-0.9-4.4,0.1
			c-0.6,0.6-0.9,1.4-0.9,2.4v4.8h-1.2v-9.1h1.2v1.7c0.3-0.6,0.8-1,1.4-1.3C208.1,51.5,210.5,51.6,211.5,52.8z"/>
		<path class="st0" d="M222.5,51.8l-4.1,9.1h-1.3l-4-9.1h1.3l3.4,7.8l3.4-7.8H222.5z"/>
		<path class="st0" d="M231.1,56.8h-7.6c0.1,0.9,0.4,1.7,1.1,2.3c1,0.9,2.8,1.1,4.1,0.6c0.5-0.2,0.9-0.5,1.2-0.9l0.7,0.8
			c-0.4,0.5-0.9,0.9-1.5,1.1c-1.3,0.6-3.2,0.5-4.5-0.2c-0.7-0.4-1.3-1-1.7-1.7c-0.8-1.4-0.8-3.4,0-4.8c1.1-2.2,4.1-2.9,6.1-1.6
			c0.7,0.4,1.2,0.9,1.6,1.6c0.4,0.7,0.6,1.5,0.6,2.4L231.1,56.8z M224.4,53.7c-0.6,0.6-0.9,1.3-1,2.2h6.5c-0.1-0.9-0.4-1.6-1-2.2
			C227.8,52.5,225.6,52.5,224.4,53.7z"/>
		<path class="st0" d="M240.1,52.8c0.7,0.7,1,1.6,1,2.9v5.3h-1.2v-5.2c0-0.9-0.2-1.7-0.7-2.2c-1-1.1-3.4-0.9-4.4,0.1
			c-0.6,0.6-0.9,1.4-0.9,2.4v4.8h-1.2v-9.1h1.2v1.7c0.3-0.6,0.8-1,1.4-1.3C236.7,51.5,239,51.6,240.1,52.8z"/>
		<path class="st0" d="M248.4,60.4c-1.7,1.4-4.8,0.5-4.6-2v-5.5h-1.6v-1h1.6v-2h1.2v2h2.8v1H245v5.4c-0.1,1.4,1.1,2,2.3,1.5
			c0.2-0.1,0.4-0.2,0.6-0.3L248.4,60.4z"/>
		<path class="st0" d="M261.1,51.8L256.5,62c-0.4,0.9-0.8,1.5-1.3,1.8c-0.8,0.6-2.1,0.7-3,0.3c-0.4-0.1-0.7-0.3-1-0.6l0.6-0.9
			c0.7,0.7,1.9,1,2.7,0.3c0.3-0.2,0.6-0.6,0.8-1.2l0.4-0.9l-4.1-9.1h1.3l3.4,7.7l3.4-7.7H261.1z"/>
		<path class="st0" d="M263.1,60.4c-0.7-0.4-1.3-1-1.7-1.7c-0.8-1.4-0.8-3.4,0-4.8c0.4-0.7,1-1.3,1.7-1.6c1.4-0.8,3.4-0.8,4.7,0
			c0.7,0.4,1.3,0.9,1.7,1.6c0.8,1.4,0.8,3.4,0,4.8c-0.4,0.7-1,1.3-1.7,1.7C266.4,61.2,264.4,61.2,263.1,60.4z M267.2,59.5
			c0.5-0.3,0.9-0.7,1.2-1.3c0.9-1.6,0.5-4.1-1.2-5c-1-0.6-2.5-0.6-3.5,0c-1.7,0.9-2.1,3.4-1.2,5c0.3,0.5,0.7,1,1.2,1.3
			C264.7,60.1,266.2,60.1,267.2,59.5z"/>
		<path class="st0" d="M279.9,51.8v9.1h-1.2v-1.7c-0.3,0.6-0.8,1-1.3,1.3c-1.4,0.8-3.7,0.6-4.8-0.5c-0.7-0.7-1-1.6-1-2.9v-5.3h1.2
			V57c-0.2,2.9,3.2,3.8,5,2.1c0.6-0.6,0.8-1.4,0.8-2.4v-4.8H279.9z"/>
		<path class="st0" d="M285,52.2c0.6-0.3,1.3-0.5,2.1-0.5V53l-0.3,0c-1,0-1.7,0.3-2.3,0.9c-0.5,0.6-0.8,1.4-0.8,2.5v4.6h-1.2v-9.1
			h1.2v1.8C284,53,284.4,52.5,285,52.2z"/>
		<path class="st0" d="M305.6,51.8l-3.4,9.1H301l-2.9-7.5l-2.9,7.5h-1.2l-3.4-9.1h1.2l2.9,7.7l2.9-7.7h1.1l2.9,7.7l2.9-7.7H305.6z"
			/>
		<path class="st0" d="M312.3,52.7c0.6,0.6,1,1.5,1,2.6v5.7h-1.2v-1.4c-0.3,0.5-0.7,0.8-1.2,1.1c-1.2,0.6-3.4,0.5-4.3-0.3
			c-1.2-0.9-1.2-2.9-0.1-3.8c0.6-0.5,1.5-0.7,2.7-0.7h2.9v-0.6c0-0.8-0.2-1.4-0.7-1.8c-0.8-0.8-2.5-0.7-3.6-0.3
			c-0.5,0.2-1,0.5-1.4,0.8l-0.6-0.9c0.5-0.4,1-0.7,1.7-0.9C308.9,51.6,311.3,51.6,312.3,52.7z M310.9,59.6c0.5-0.3,0.9-0.8,1.1-1.4
			v-1.5h-2.9c-2.2-0.2-3.1,1.7-1.7,2.9C308.2,60.2,310,60.2,310.9,59.6z"/>
		<path class="st0" d="M323.2,51.8L318.6,62c-0.4,0.9-0.8,1.5-1.3,1.8c-0.8,0.6-2.1,0.7-3,0.3c-0.4-0.1-0.7-0.3-1-0.6l0.6-0.9
			c0.7,0.7,1.9,1,2.7,0.3c0.3-0.2,0.6-0.6,0.8-1.2l0.4-0.9l-4.1-9.1h1.3l3.4,7.7l3.4-7.7H323.2z"/>
	</g>
	<g>
		<g>
			<path class="st0" d="M93.6,33.1C93,47,73.2,46.9,72.6,33.1V16H78v17c0.3,6.7,9.8,6.7,10.1,0h0V16h5.4L93.6,33.1L93.6,33.1z"/>
		</g>
		<g>
			<path class="st0" d="M117.4,16v5.4h-7.5v21.6h-5.4V21.4H97V16H117.4z"/>
		</g>
		<g>
			<path class="st0" d="M141.7,16v5.4h-7.5v21.6h-5.4V21.4h-7.5V16H141.7z"/>
		</g>
		<g>
			<path class="st0" d="M163.4,21.4h-18V16h18V21.4z M145.4,26.5h14.9v5.4h-14.9V26.5z M145.4,37.7h17.9v5.4h-17.9V37.7z"/>
		</g>
		<g>
			<path class="st0" d="M173.4,21.4V43H168V16h10.6c8.7,0.1,11.2,11.9,3.4,15.5l5.4,11.6h-5.7l-5.1-10.8v-5.4h2.1
				c3.6-0.1,3.6-5.3,0-5.4H173.4z"/>
		</g>
		<g>
			<path class="st1" d="M210.5,43.1l-12.2-27h6l7.1,15.3l7-15.3h6l-12.2,27H210.5z"/>
		</g>
		<g>
			<path class="st1" d="M226.5,43V16h5.4v27H226.5z"/>
		</g>
		<g>
			<path class="st1" d="M245.5,31.6c-0.9-0.2-2.5-0.7-4.1-1.7c-2.2-1.4-3.4-3.5-3.5-6.1c-0.1-2.2,0.6-4,2-5.5c4.5-4.5,11-2.5,14.4,0
				l0.9,0.6l-2.8,4.6l-1-0.6c-2.1-1.4-5.1-2.9-7.6-0.8c-0.2,0.2-0.5,0.7-0.5,1.5c0,1.4,1,2.2,3.5,2.8c0.3,0.1,0.5,0.2,0.8,0.2
				c2.6,0.9,4.6,2.1,6,3.6c2.9,3.1,2.8,7.6,0,10.6c-2.9,3.2-6.6,3.3-11,2.1c-2.4-0.8-4.6-2.1-6.4-4.1l3.9-3.7c2.9,3,6.1,3,7.2,3
				c2.2,0,3-2,3-2.7c0-1.5-1.7-2.8-4.5-3.8l-0.1,0L245.5,31.6z"/>
		</g>
		<g>
			<path class="st1" d="M259.9,43V16h5.4v27H259.9z"/>
		</g>
		<g>
			<path class="st1" d="M296,29.5c0,7.7-6.3,14-14,14c-18.6-0.8-18.6-27.2,0-28C289.7,15.5,296,21.8,296,29.5z M273.5,29.5
				c0,4.7,3.8,8.4,8.4,8.4c11.2-0.4,11.2-16.5,0-16.9C277.3,21.1,273.5,24.9,273.5,29.5z"/>
		</g>
		<g>
			<path class="st1" d="M321.2,43.1L306,27.3v15.8h-5.4V16h1.7l14.9,15.1V16h5.4v27H321.2z"/>
		</g>
	</g>
</g>
</svg>
