<svg xmlns="http://www.w3.org/2000/svg" width="21" height="21" viewBox="0 0 21 21">
  <path id="icons_test_account" d="M13.5,3A10.489,10.489,0,0,0,6.522,21.331v-.256l.121-.2c.9-1.512,4.294-3,6.855-3s5.96,1.483,6.856,3l.123.205v.255A10.489,10.489,0,0,0,13.5,3Zm0,5.25a3.5,3.5,0,0,1,3.5,3.5v.875a3.5,3.5,0,0,1-7,0V11.75A3.5,3.5,0,0,1,13.5,8.25Zm0,1.75a1.752,1.752,0,0,0-1.75,1.75v.875a1.75,1.75,0,0,0,3.5,0V11.75A1.752,1.752,0,0,0,13.5,10Zm0,9.625A8.593,8.593,0,0,0,8.271,21.6l0,1a10.442,10.442,0,0,0,10.462,0c0-.312,0-.643,0-1A8.6,8.6,0,0,0,13.5,19.625Z" transform="translate(-3 -3)" fill="#b0b0b0"/>
</svg>
