<svg id="Component_6_1" data-name="Component 6 – 1" xmlns="http://www.w3.org/2000/svg" width="104.046" height="109.381" viewBox="0 0 104.046 109.381">
  <g id="Group_821" data-name="Group 821" transform="translate(42.823)" opacity="0.5">
    <path id="Path_410" data-name="Path 410" d="M1514.713,486.619s-2.148-8.167.011-14.4a.938.938,0,0,1,1.764-.014l.015.042C1517,473.659,1514.843,481.294,1514.713,486.619Z" transform="translate(-1513.762 -470.307)" fill="#afcdfb" opacity="0.5"/>
    <path id="Path_411" data-name="Path 411" d="M1530.39,474.448s.134-11.321,5.235-18.317a.994.994,0,0,1,1.348-.258,1.577,1.577,0,0,1,.58,1.3C1537.687,459.1,1532.379,467.862,1530.39,474.448Z" transform="translate(-1529.043 -455.712)" fill="#afcdfb" opacity="0.5"/>
  </g>
  <g id="Group_825" data-name="Group 825" transform="translate(69.34 29.908)">
    <g id="Group_824" data-name="Group 824">
      <path id="Path_436" data-name="Path 436" d="M1844.394,1015.5a7.513,7.513,0,0,0-.508-2.608c-.52-1.041-1.987-2.176-2.6-1.8s.9,2.129.662,2.791.663,1.793,1.4,2.6l1.064-.565S1844.406,1015.758,1844.394,1015.5Z" transform="translate(-1841.135 -995.949)" fill="#ffb27d"/>
      <path id="Path_437" data-name="Path 437" d="M1876.655,990.692a30.851,30.851,0,0,1-3.367,5.021h0a10.112,10.112,0,0,1-3.691,3.079l-.009,0c-.058.02-.115.039-.171.054a.013.013,0,0,1-.008,0h0a2.011,2.011,0,0,1-.642.083c-3.624-.163-7.443-7.937-7.443-7.937a2.763,2.763,0,0,1,.8-1.573,3.266,3.266,0,0,1,1.088-.716s3.9,4.008,4.857,4.3c.6.181,1.388-2.618,2.518-6.133s5.1-4.382,5.1-4.382S1879.707,985.034,1876.655,990.692Z" transform="translate(-1859.688 -969.731)" fill="#aec3ff"/>
      <path id="Path_438" data-name="Path 438" d="M1965.018,1114.621h0a10.108,10.108,0,0,1-3.691,3.079l-.009,0-.171.054-.01,0h0a2.806,2.806,0,0,0,1.407-1.777c.189-1.162-1.041-2.113,2.05-3.911C1966.4,1111.023,1965.018,1114.621,1965.018,1114.621Z" transform="translate(-1951.418 -1088.638)" fill="#94b0ed"/>
      <path id="Path_439" data-name="Path 439" d="M1974.112,1751.051h8.493c.609-.413-.164-4.448-.164-4.448s-2.318-.88-2.718.909-2.953,2.356-4.3,2.574A1.452,1.452,0,0,0,1974.112,1751.051Z" transform="translate(-1963.341 -1671.75)" fill="#24406d"/>
      <path id="Path_440" data-name="Path 440" d="M2012.991,1254.6s-.268,4.955-.6,10.7c-.241,4.117-.516,8.639-.751,12.025-.031.449-.062.879-.092,1.285-.008.126-.018.251-.027.375a75.508,75.508,0,0,1-2.642,14.246c-2.388.5-3.467-.417-3.467-.417s-1.645-19.284-2.255-27.061c-.448-5.725-.83-14.061-.83-14.061Z" transform="translate(-1989.268 -1217.125)" fill="#2b478b"/>
      <path id="Path_441" data-name="Path 441" d="M2064.152,1351.5c-.241,4.116-.516,8.638-.751,12.025-1.561-3.682-4.751-18.036-4.751-18.036Z" transform="translate(-2041.031 -1303.326)" fill="#233862"/>
      <path id="Path_442" data-name="Path 442" d="M2129.629,1751.051h8.493c.609-.413-.164-4.448-.164-4.448s-2.319-.88-2.719.909-2.953,2.356-4.3,2.574A1.452,1.452,0,0,0,2129.629,1751.051Z" transform="translate(-2106.261 -1671.75)" fill="#24406d"/>
      <path id="Path_443" data-name="Path 443" d="M2030.809,1242.38s6.065,15.1,8,20.821c1.381,4.077,5.276,18.378,5.276,18.378a3.915,3.915,0,0,0,3.118-.481s1.449-14.611-1.479-18.731c-1.553-2.186-.386-22.721-6.683-22.9S2030.809,1242.38,2030.809,1242.38Z" transform="translate(-2015.445 -1205.887)" fill="#2b478b"/>
      <path id="Path_444" data-name="Path 444" d="M2006.844,992.323c-.026,2.147-.05,3.723-.043,4.121.017,1.3-.814,1.593-1.67,1.79,0,0-.791.17-1.789.34a19.673,19.673,0,0,1-2.989.32,26.964,26.964,0,0,1-7.823-1.288c-.8,0-1.167-1.24-1.3-2.97-.089-1.171.272-12.853.318-15.77a7.61,7.61,0,0,1,1.5-4.308c2.974-2.629,11.749-2.3,13.329-.484.39.448.5,4.773.517,9.511C2006.9,986.635,2006.874,989.856,2006.844,992.323Z" transform="translate(-1979.061 -960.686)" fill="#aec3ff"/>
      <path id="Path_445" data-name="Path 445" d="M2064.925,931.509c-1.12,1.214-4.883,1.034-4.771-.026.015-.13.039-.906.052-1.027.01-.1.019-.191.027-.28.025-.261.046-.492.063-.692.051-.581.066-.9.066-.9h0c.108-.03,2.527-.717,3.73-1a1.941,1.941,0,0,1,.667-.111C2064.394,930.18,2065.292,931.111,2064.925,931.509Z" transform="translate(-2042.411 -919.161)" fill="#ffb27d"/>
      <path id="Path_446" data-name="Path 446" d="M2065.862,929.767s-1.01,1.027-3.928,1.1c.05-.581.066-.9.066-.9h0c.108-.03,2.527-.717,3.731-1C2065.946,929.057,2065.665,929.622,2065.862,929.767Z" transform="translate(-2044.048 -920.544)" fill="#ed975d"/>
      <path id="Path_447" data-name="Path 447" d="M2047.969,855.868a9.162,9.162,0,0,0,1.681.392c1.378.186,3.189.076,3.758-1.59.958-2.805,2.182-4.487-.638-5.632a4.478,4.478,0,0,0-3.132-.412,2.271,2.271,0,0,0-1.161,1C2047.93,850.489,2046.829,855.377,2047.969,855.868Z" transform="translate(-2030.758 -846.584)" fill="#ffb27d"/>
      <path id="Path_448" data-name="Path 448" d="M2055.731,825.822a1.331,1.331,0,0,0,.509,2.421,9.774,9.774,0,0,1,1.654.3c.7.312,1.3.642,1.138,1.73-.056.37-.237.821.716.6a.463.463,0,0,1,.346.021c.4.234-.11,1.371-.262,1.617,0,0-.219.814.267,1.21.059.047,1.014.465,3.317-3.059a3.271,3.271,0,0,0,.148-3c-.558-1.2-2.115-2.717-5.048-2.717A5.594,5.594,0,0,0,2055.731,825.822Z" transform="translate(-2037.799 -824.947)" fill="#a9453d"/>
      <path id="Path_449" data-name="Path 449" d="M2053.344,917.2s-.059.363.785.653c0,0,.709.243.839-.129A2.407,2.407,0,0,0,2053.344,917.2Z" transform="translate(-2036.154 -909.732)" fill="#fff"/>
      <path id="Path_450" data-name="Path 450" d="M2152.06,1102.613c-.428,1.991-1.125,2.681-1.517,1.938-1.372-2.6-1.355-3.693-.76-5.538s-1.494-4.731,0-5.961c1.461-1.2,2.293.736,2.329.822C2152.12,1096.925,2152.089,1100.145,2152.06,1102.613Z" transform="translate(-2124.276 -1070.976)" fill="#94b0ed"/>
      <path id="Path_451" data-name="Path 451" d="M2127.769,1212.365s-1.009,1.651-1.671,1.593-1.555-.305-2.071.187-1.347,1.762-1.115,2.1,1.166.038,1.837-.332,1.728.182,2.291-.238a19.637,19.637,0,0,0,1.912-2.09Z" transform="translate(-2100.051 -1180.984)" fill="#ffb27d"/>
      <path id="Path_452" data-name="Path 452" d="M2157.838,990.237s8.379,7.884,7.291,13.129c-.5,2.39-2.035,4.406-6.135,7.67a8.045,8.045,0,0,1-2.365-2.428s3.721-5.242,3.578-6.134c-.176-1.093-2.717-3.832-3.628-4.258S2155.751,991.152,2157.838,990.237Z" transform="translate(-2130.52 -976.849)" fill="#aec3ff"/>
      <path id="Path_453" data-name="Path 453" d="M2147.1,1225.172s-.883-.386-1.167-.552-.221.1-.135.237a.981.981,0,0,0,.671.465A1.106,1.106,0,0,0,2147.1,1225.172Z" transform="translate(-2121.054 -1192.199)" fill="#ffb27d"/>
    </g>
  </g>
  <g id="Group_830" data-name="Group 830" transform="translate(0 16.674)">
    <path id="Rectangle_28" data-name="Rectangle 28" d="M0,0H57.71a14,14,0,0,1,14,14V78.708a14,14,0,0,1-14,14H0a0,0,0,0,1,0,0V0A0,0,0,0,1,0,0Z" fill="#466064"/>
    <g id="Group_826" data-name="Group 826" transform="translate(9.149 6.71)">
      <path id="Path_454" data-name="Path 454" d="M1099.39,750.631v2.9h-1.358v-7.815h2.99a3.651,3.651,0,0,1,1.21.185,2.571,2.571,0,0,1,.894.518,2.209,2.209,0,0,1,.556.789,2.552,2.552,0,0,1,.19.993,2.6,2.6,0,0,1-.19,1.02,2.021,2.021,0,0,1-.556.762,2.528,2.528,0,0,1-.894.478,4.032,4.032,0,0,1-1.21.166Zm0-1.09h1.632a2.084,2.084,0,0,0,.674-.1,1.223,1.223,0,0,0,.464-.274,1.052,1.052,0,0,0,.266-.422,1.647,1.647,0,0,0,.083-.534,1.671,1.671,0,0,0-.083-.526,1.206,1.206,0,0,0-.266-.448,1.292,1.292,0,0,0-.464-.311,1.775,1.775,0,0,0-.674-.115h-1.632Z" transform="translate(-1098.032 -745.612)" fill="#ffba9f"/>
      <path id="Path_455" data-name="Path 455" d="M1169.442,751.715h-3.027l-.634,1.82h-1.412l2.952-7.815h1.219l2.958,7.815h-1.417Zm-2.646-1.1h2.265l-1.133-3.242Z" transform="translate(-1158.996 -745.612)" fill="#ffba9f"/>
      <path id="Path_456" data-name="Path 456" d="M1262.888,750.3a1.189,1.189,0,0,0-.07-.421.833.833,0,0,0-.255-.341,2.124,2.124,0,0,0-.51-.3,7.857,7.857,0,0,0-.835-.3,8.056,8.056,0,0,1-1.031-.381,3.559,3.559,0,0,1-.813-.5,2.134,2.134,0,0,1-.534-.655,1.809,1.809,0,0,1-.193-.848,1.9,1.9,0,0,1,.2-.87,2.061,2.061,0,0,1,.566-.687,2.7,2.7,0,0,1,.875-.451,3.73,3.73,0,0,1,1.127-.161,3.469,3.469,0,0,1,1.187.191,2.657,2.657,0,0,1,.888.518,2.253,2.253,0,0,1,.556.76,2.226,2.226,0,0,1,.193.921h-1.353a1.5,1.5,0,0,0-.089-.523,1.09,1.09,0,0,0-.271-.413,1.25,1.25,0,0,0-.462-.271,2.023,2.023,0,0,0-.66-.1,2.14,2.14,0,0,0-.623.081,1.246,1.246,0,0,0-.438.225.888.888,0,0,0-.257.344,1.1,1.1,0,0,0-.083.429.861.861,0,0,0,.411.725,4.369,4.369,0,0,0,1.253.537,7.268,7.268,0,0,1,1.144.43,3.28,3.28,0,0,1,.8.534,1.93,1.93,0,0,1,.475.671,2.159,2.159,0,0,1,.156.84,1.971,1.971,0,0,1-.2.888,1.9,1.9,0,0,1-.558.671,2.618,2.618,0,0,1-.878.424,4.166,4.166,0,0,1-1.149.148,4.11,4.11,0,0,1-1.111-.153,3.142,3.142,0,0,1-.982-.462,2.4,2.4,0,0,1-.7-.77,2.135,2.135,0,0,1-.266-1.084h1.358a1.418,1.418,0,0,0,.132.636,1.185,1.185,0,0,0,.36.435,1.509,1.509,0,0,0,.54.247,2.756,2.756,0,0,0,.671.078,1.674,1.674,0,0,0,1.065-.287A.927.927,0,0,0,1262.888,750.3Z" transform="translate(-1245.416 -744.393)" fill="#ffba9f"/>
      <path id="Path_457" data-name="Path 457" d="M1344.8,750.3a1.181,1.181,0,0,0-.07-.421.834.834,0,0,0-.255-.341,2.133,2.133,0,0,0-.51-.3,7.837,7.837,0,0,0-.834-.3,8.066,8.066,0,0,1-1.031-.381,3.564,3.564,0,0,1-.813-.5,2.137,2.137,0,0,1-.534-.655,1.809,1.809,0,0,1-.193-.848,1.9,1.9,0,0,1,.2-.87,2.063,2.063,0,0,1,.566-.687,2.69,2.69,0,0,1,.875-.451,3.727,3.727,0,0,1,1.127-.161,3.469,3.469,0,0,1,1.187.191,2.657,2.657,0,0,1,.888.518,2.259,2.259,0,0,1,.556.76,2.228,2.228,0,0,1,.193.921H1344.8a1.494,1.494,0,0,0-.089-.523,1.091,1.091,0,0,0-.271-.413,1.25,1.25,0,0,0-.462-.271,2.023,2.023,0,0,0-.66-.1,2.138,2.138,0,0,0-.623.081,1.249,1.249,0,0,0-.437.225.887.887,0,0,0-.258.344,1.1,1.1,0,0,0-.083.429.862.862,0,0,0,.411.725,4.373,4.373,0,0,0,1.253.537,7.259,7.259,0,0,1,1.143.43,3.286,3.286,0,0,1,.8.534,1.936,1.936,0,0,1,.475.671,2.163,2.163,0,0,1,.156.84,1.97,1.97,0,0,1-.2.888,1.9,1.9,0,0,1-.558.671,2.62,2.62,0,0,1-.877.424,4.172,4.172,0,0,1-1.149.148,4.107,4.107,0,0,1-1.111-.153,3.141,3.141,0,0,1-.983-.462,2.4,2.4,0,0,1-.7-.77,2.137,2.137,0,0,1-.266-1.084h1.358a1.42,1.42,0,0,0,.132.636,1.191,1.191,0,0,0,.36.435,1.511,1.511,0,0,0,.54.247,2.757,2.757,0,0,0,.671.078,1.674,1.674,0,0,0,1.065-.287A.926.926,0,0,0,1344.8,750.3Z" transform="translate(-1320.69 -744.393)" fill="#ffba9f"/>
      <path id="Path_458" data-name="Path 458" d="M1428.487,750.631v2.9h-1.358v-7.815h2.99a3.653,3.653,0,0,1,1.21.185,2.566,2.566,0,0,1,.894.518,2.2,2.2,0,0,1,.556.789,2.552,2.552,0,0,1,.19.993,2.6,2.6,0,0,1-.19,1.02,2.017,2.017,0,0,1-.556.762,2.523,2.523,0,0,1-.894.478,4.033,4.033,0,0,1-1.21.166Zm0-1.09h1.632a2.083,2.083,0,0,0,.673-.1,1.227,1.227,0,0,0,.465-.274,1.055,1.055,0,0,0,.266-.422,1.643,1.643,0,0,0,.083-.534,1.667,1.667,0,0,0-.083-.526,1.208,1.208,0,0,0-.266-.448,1.3,1.3,0,0,0-.465-.311,1.774,1.774,0,0,0-.673-.115h-1.632Z" transform="translate(-1400.472 -745.612)" fill="#ffba9f"/>
      <path id="Path_459" data-name="Path 459" d="M1517.311,748.612a5.077,5.077,0,0,1-.234,1.6,3.481,3.481,0,0,1-.658,1.2,2.85,2.85,0,0,1-1.02.754,3.431,3.431,0,0,1-2.635,0,2.928,2.928,0,0,1-1.028-.754,3.47,3.47,0,0,1-.671-1.2,4.97,4.97,0,0,1-.239-1.6v-.4a4.993,4.993,0,0,1,.239-1.6,3.549,3.549,0,0,1,.666-1.2,2.866,2.866,0,0,1,1.022-.757,3.44,3.44,0,0,1,2.638,0,2.86,2.86,0,0,1,1.026.757,3.484,3.484,0,0,1,.66,1.2,5.1,5.1,0,0,1,.234,1.6Zm-1.358-.408a4.776,4.776,0,0,0-.126-1.157,2.47,2.47,0,0,0-.368-.84,1.6,1.6,0,0,0-.593-.513,1.768,1.768,0,0,0-.8-.174,1.729,1.729,0,0,0-.784.174,1.624,1.624,0,0,0-.593.513,2.5,2.5,0,0,0-.375.84,4.569,4.569,0,0,0-.132,1.157v.408a4.6,4.6,0,0,0,.132,1.159,2.5,2.5,0,0,0,.378.846,1.627,1.627,0,0,0,.6.515,1.745,1.745,0,0,0,.786.174,1.6,1.6,0,0,0,1.388-.687,3.463,3.463,0,0,0,.486-2.008Z" transform="translate(-1477.391 -744.393)" fill="#ffba9f"/>
      <path id="Path_460" data-name="Path 460" d="M1610.452,750.523h-1.514v3.011h-1.358v-7.815h2.748a4.293,4.293,0,0,1,1.2.153,2.462,2.462,0,0,1,.888.451,1.915,1.915,0,0,1,.55.738,2.583,2.583,0,0,1,.188,1.02,2.2,2.2,0,0,1-.378,1.312,2.411,2.411,0,0,1-1.055.813l1.755,3.258v.07h-1.455Zm-1.514-1.09h1.4a1.918,1.918,0,0,0,.639-.1,1.276,1.276,0,0,0,.456-.268,1.09,1.09,0,0,0,.274-.408,1.426,1.426,0,0,0,.092-.521,1.641,1.641,0,0,0-.086-.545,1.089,1.089,0,0,0-.263-.419,1.177,1.177,0,0,0-.454-.268,2.069,2.069,0,0,0-.663-.094h-1.39Z" transform="translate(-1566.306 -745.612)" fill="#ffba9f"/>
      <path id="Path_461" data-name="Path 461" d="M1688.335,746.814H1685.9v6.72h-1.347v-6.72h-2.416v-1.095h6.2Z" transform="translate(-1634.823 -745.612)" fill="#ffba9f"/>
    </g>
    <g id="Group_827" data-name="Group 827" transform="translate(22.209 81.502)">
      <path id="Path_462" data-name="Path 462" d="M1365.478,1669.015H1354.7a.629.629,0,0,1-.629-.628h0a.629.629,0,0,1,.629-.629h10.776a.629.629,0,0,1,.629.629h0A.629.629,0,0,1,1365.478,1669.015Z" transform="translate(-1346.394 -1667.758)" fill="#ffba9f"/>
      <path id="Path_463" data-name="Path 463" d="M1286.036,1706H1259.9a.629.629,0,0,1-.629-.629h0a.629.629,0,0,1,.629-.628h26.134a.629.629,0,0,1,.628.628h0A.629.629,0,0,1,1286.036,1706Z" transform="translate(-1259.273 -1701.749)" fill="#ffba9f"/>
    </g>
    <g id="Group_829" data-name="Group 829" transform="translate(10.343 22.478)">
      <g id="Group_828" data-name="Group 828">
        <path id="Path_464" data-name="Path 464" d="M1138.341,990.188a25.562,25.562,0,1,1,18.075-7.487A25.395,25.395,0,0,1,1138.341,990.188Zm0-50.842a25.281,25.281,0,1,0,17.876,7.4A25.115,25.115,0,0,0,1138.341,939.346Z" transform="translate(-1112.779 -939.065)" fill="#ffba9f"/>
      </g>
      <path id="Path_465" data-name="Path 465" d="M1216.3,1022.1a20.645,20.645,0,0,1-.331,3.692,20.5,20.5,0,0,1-38.91,4.606,20.155,20.155,0,0,1-1.044-2.947,20.647,20.647,0,0,1-.241-9.711c0-.016.007-.032.01-.048a20.549,20.549,0,0,1,8-12.193q.632-.458,1.3-.869a20.385,20.385,0,0,1,10.72-3.025q.782,0,1.549.058a20.362,20.362,0,0,1,10.151,3.608h0a20.579,20.579,0,0,1,5.622,5.87q.471.744.879,1.528a20.405,20.405,0,0,1,2.293,9.431Z" transform="translate(-1170.248 -996.538)" fill="#f5f5f5"/>
      <path id="Path_466" data-name="Path 466" d="M1194.124,1047.25c-.818,1.3.341,3.545-2.112,2.931s-3.954-.886-4.089.477,1.84,1.364,1.84,2.8-.886,1.9-2.249,1.225-1.755-1.668-3.34-1.055-2.5.2-2.863-1.023a1.784,1.784,0,0,0-.255-.536c0-.016.007-.032.01-.048a20.551,20.551,0,0,1,8-12.193q.632-.459,1.3-.869a2.7,2.7,0,0,1,2.054,1.072c1.431,1.773,2.385.886,2.045,2.931s.2,2.318,1.363,2.25,2.522-.069,2.658.818S1194.942,1045.954,1194.124,1047.25Z" transform="translate(-1175.526 -1030.862)" fill="#ea7542" opacity="0.5"/>
      <path id="Path_467" data-name="Path 467" d="M1327.668,1248.242s-1.806.58-2.283-.682.068-1.533-1.534-1.908-1.738-1.465-2.76-1.329-.511.545-1.7,1.431-2.283.477-2.249,2.113,1.806,1.891,2.164,2.965-.256,1.534.511,2.352,2.2.46,1.533,1.585-1.687,1.993-1.175,3.731.154,1.84,1.022,3.067,2.556,1.636,2.812.818-1.176-1.891-.716-2.709,1.227-.256,1.534-1.482,1.55-1.227,1.653-2.079-1.5-2.147-.886-2.692,1.84.989,2.794-.375.306-2.454,1.3-3.749S1328.349,1247.492,1327.668,1248.242Z" transform="translate(-1300.583 -1219.586)" fill="#ea7542" opacity="0.5"/>
      <path id="Path_468" data-name="Path 468" d="M1501.954,1156.625a20.633,20.633,0,0,1-.331,3.692,20.39,20.39,0,0,1-3.235,7.863,2.339,2.339,0,0,1-1.639-.044c-2.556-1.022-.665-3.783.358-5.163s-1.585-.767-3.476-2.045.2-4.7-1.738-4.141-4.294,1.278-5.418-.614,1.022-2.2.051-3.783.563-2.5,2.5-2.658,1.687-1.534,4.089-1.738,2.352,2.863,5.01,2.658,2.539.409,2.539.409a1.242,1.242,0,0,1,.555.117A20.527,20.527,0,0,1,1501.954,1156.625Z" transform="translate(-1455.897 -1131.063)" fill="#ea7542" opacity="0.5"/>
      <path id="Path_469" data-name="Path 469" d="M1512.114,1054.26c-2.21,1.076-3.1-1.849-4.987-.97-1.9.886-1.571-.818-3.07-1.909s-4.5.886-4.362-.818,2.385-1.227,2.863-2.59,2.658-1.022,2.658-1.022a1.488,1.488,0,0,1,.4-.09h0a20.577,20.577,0,0,1,5.622,5.87Q1511.705,1053.475,1512.114,1054.26Z" transform="translate(-1468.35 -1038.129)" fill="#ea7542" opacity="0.5"/>
      <path id="Path_470" data-name="Path 470" d="M1361.922,1038.939s1.159-1.672-.681-2.165-1.806.152-3.238,0-1.994.955-.92,2.165,1.943,3.531,2.914,2.294S1360.781,1039.058,1361.922,1038.939Z" transform="translate(-1336.78 -1028.686)" fill="#ea7542" opacity="0.5"/>
    </g>
  </g>
</svg>
