<svg id="grid" xmlns="http://www.w3.org/2000/svg" width="20" height="20" viewBox="0 0 20 20">
  <g id="grid-2" data-name="grid">
    <path id="Path" d="M.583,0A.583.583,0,0,0,0,.583V4.861a.583.583,0,0,0,.583.583H4.861a.583.583,0,0,0,.583-.583V.583A.583.583,0,0,0,4.861,0Z" fill="#b7b7c9"/>
    <path id="Path-2" data-name="Path" d="M.583,0A.583.583,0,0,0,0,.583V4.861a.583.583,0,0,0,.583.583H4.861a.583.583,0,0,0,.583-.583V.583A.583.583,0,0,0,4.861,0Z" transform="translate(7.278)" fill="#b7b7c9"/>
    <path id="Path-3" data-name="Path" d="M.583,0A.583.583,0,0,0,0,.583V4.861a.583.583,0,0,0,.583.583H4.861a.583.583,0,0,0,.583-.583V.583A.583.583,0,0,0,4.861,0Z" transform="translate(14.556)" fill="#b7b7c9"/>
    <path id="Path-4" data-name="Path" d="M.583,0A.583.583,0,0,0,0,.583V4.861a.583.583,0,0,0,.583.583H4.861a.583.583,0,0,0,.583-.583V.583A.583.583,0,0,0,4.861,0Z" transform="translate(0 7.278)" fill="#b7b7c9"/>
    <path id="Path-5" data-name="Path" d="M.583,0A.583.583,0,0,0,0,.583V4.861a.583.583,0,0,0,.583.583H4.861a.583.583,0,0,0,.583-.583V.583A.583.583,0,0,0,4.861,0Z" transform="translate(7.278 7.278)" fill="#b7b7c9"/>
    <path id="Path-6" data-name="Path" d="M.583,0A.583.583,0,0,0,0,.583V4.861a.583.583,0,0,0,.583.583H4.861a.583.583,0,0,0,.583-.583V.583A.583.583,0,0,0,4.861,0Z" transform="translate(14.556 7.278)" fill="#b7b7c9"/>
    <path id="Path-7" data-name="Path" d="M.583,0A.583.583,0,0,0,0,.583V4.861a.583.583,0,0,0,.583.583H4.861a.583.583,0,0,0,.583-.583V.583A.583.583,0,0,0,4.861,0Z" transform="translate(0 14.556)" fill="#b7b7c9"/>
    <path id="Path-8" data-name="Path" d="M.583,0A.583.583,0,0,0,0,.583V4.861a.583.583,0,0,0,.583.583H4.861a.583.583,0,0,0,.583-.583V.583A.583.583,0,0,0,4.861,0Z" transform="translate(7.278 14.556)" fill="#b7b7c9"/>
    <path id="Path-9" data-name="Path" d="M.583,0A.583.583,0,0,0,0,.583V4.861a.583.583,0,0,0,.583.583H4.861a.583.583,0,0,0,.583-.583V.583A.583.583,0,0,0,4.861,0Z" transform="translate(14.556 14.556)" fill="#b7b7c9"/>
  </g>
</svg>
