<svg xmlns="http://www.w3.org/2000/svg" width="19.936" height="17.188" viewBox="0 0 19.936 17.188">
  <g id="house" transform="translate(0 -0.04)">
    <path id="Shape" d="M13.853,0a.588.588,0,0,0-.588.588V6.632H10.02V.588A.588.588,0,0,0,9.432,0H5.01a.588.588,0,0,0-.588.588V6.632H1.176V.588A.588.588,0,0,0,0,.588V7.221a.588.588,0,0,0,.588.588H13.853a.588.588,0,0,0,.588-.588V.588A.588.588,0,0,0,13.853,0Z" transform="translate(2.747 9.42)" fill="#accd00"/>
    <path id="Path" d="M19.764,9.552,10.383.172a.588.588,0,0,0-.832,0L.172,9.552A.588.588,0,0,0,1,10.383L9.968,1.42l8.964,8.963a.588.588,0,1,0,.832-.832Z" transform="translate(0 0.04)" fill="#b0b0b0"/>
    <path id="Path-2" data-name="Path" d="M0,5.456V0H3.245V5.456Z" transform="translate(8.345 10.596)" fill="#f8fef8"/>
  </g>
</svg>
