<svg xmlns="http://www.w3.org/2000/svg" width="27.867" height="19" viewBox="0 0 27.867 19">
  <g id="icons8_canada" transform="translate(-2 -9)">
    <path id="Path_16" data-name="Path 16" d="M2,9H29.867V28H2Z" fill="#eceff1"/>
    <path id="Path_17" data-name="Path 17" d="M23.533,9h6.333V28H23.533ZM2,9H8.333V28H2ZM15.3,22.3h1.267v1.9H15.3Z" fill="#ff3d00"/>
    <path id="Path_18" data-name="Path 18" d="M26.4,22.6l-1.267-.633,1.267-1.9H24.5l-.026-1.258-1.464.734.223-3.276-1.267.633L20.7,15l-1.271,1.9-1.267-.633.223,3.258-1.464-.714s-.029,1.25-.025,1.257H15l1.267,1.9L15,22.6l2.533,1.267v1.267s2.991-.164,3.167-.164,3.167.164,3.167.164V23.867Z" transform="translate(-4.767 -2.2)" fill="#ff3d00"/>
  </g>
</svg>
