<svg xmlns="http://www.w3.org/2000/svg" width="49.445" height="35.485" viewBox="0 0 49.445 35.485">
  <g id="icons_mastercard_credit_card" transform="translate(-11.5 -26)">
    <path id="Path_685" data-name="Path 685" d="M57.128,61.683H18.515A4.015,4.015,0,0,1,14.5,57.668V33.015A4.015,4.015,0,0,1,18.515,29H57.128a4.015,4.015,0,0,1,4.015,4.015V57.621A4.055,4.055,0,0,1,57.128,61.683Z" transform="translate(-1.599 -1.599)" fill="#fff"/>
    <path id="Path_686" data-name="Path 686" d="M14,44H60.691v7.144H14Z" transform="translate(-1.333 -9.596)" fill="#accd00"/>
    <path id="Path_687" data-name="Path 687" d="M93.615,72.4a4.11,4.11,0,1,0,4.015,4.109A4.063,4.063,0,0,0,93.615,72.4Z" transform="translate(-41.635 -24.736)" fill="#f7f0be"/>
    <path id="Path_688" data-name="Path 688" d="M79.815,72.4a4.11,4.11,0,1,0,4.015,4.109A4.063,4.063,0,0,0,79.815,72.4Z" transform="translate(-34.278 -24.736)" fill="#f1c0c2"/>
    <path id="Path_689" data-name="Path 689" d="M55.529,61.485H16.916A5.42,5.42,0,0,1,11.5,56.069V31.416A5.42,5.42,0,0,1,16.916,26H55.529a5.42,5.42,0,0,1,5.416,5.416V56.022A5.43,5.43,0,0,1,55.529,61.485ZM16.916,28.8A2.61,2.61,0,0,0,14.3,31.416V56.022a2.61,2.61,0,0,0,2.615,2.615H55.529a2.61,2.61,0,0,0,2.615-2.615V31.416A2.61,2.61,0,0,0,55.529,28.8Z" transform="translate(0 0)" fill="#afafaf"/>
  </g>
</svg>
