<svg id="icons_meeting" xmlns="http://www.w3.org/2000/svg" width="22.971" height="23.196" viewBox="0 0 22.971 23.196">
  <path id="Path_19" data-name="Path 19" d="M36.109,22.122a4.137,4.137,0,0,1-1.593,1.655l-.769.43a1.063,1.063,0,0,1-1.378-.285h0a1.063,1.063,0,0,1,.269-1.527l1-.658a2.068,2.068,0,0,0,.827-1.026l.186-.592a4.137,4.137,0,0,1,2.9-2.6h0a4.518,4.518,0,0,1,2.337.037l.463.132a4.137,4.137,0,0,1,2.085,1.394h0a3.789,3.789,0,0,1,.827,2.366v3.843a1.034,1.034,0,0,1-1.034,1.034h0a1.034,1.034,0,0,1-1.034-1.034V25.5l.356,7.8a1.241,1.241,0,0,1-1.241,1.3h0a1.241,1.241,0,0,1-1.241-1.179l-.356-7.095h0l-.356,7.095A1.241,1.241,0,0,1,37.115,34.6h0a1.241,1.241,0,0,1-1.241-1.3l.356-7.8v-4.7" transform="translate(-20.705 -11.846)" fill="#85cbf8"/>
  <path id="Path_20" data-name="Path 20" d="M11.892,20.848l1.3,1.655A4.137,4.137,0,0,0,15.139,23.9l1.187.414A1.03,1.03,0,0,0,17.683,23.3h0a1.03,1.03,0,0,0-.575-.923l-1.411-.7a2.068,2.068,0,0,1-.852-.778l-.885-1.423a4.137,4.137,0,0,0-2.391-1.816h0a4.9,4.9,0,0,0-2.693,0l-.161.046a4.137,4.137,0,0,0-2.2,1.572l-.741,1.034A1.655,1.655,0,0,0,5.55,21.8l.691,2.068a1.241,1.241,0,0,0,1.167.856h.347" transform="translate(-5.055 -11.9)" fill="#ed7899"/>
  <path id="Path_21" data-name="Path 21" d="M9.908,25.647v4.687l-.769,7.8a1.241,1.241,0,0,0,1.241,1.3h0a1.241,1.241,0,0,0,1.241-1.179l.769-7.095h0l-.058,7.095a1.241,1.241,0,0,0,1.241,1.179h0a1.241,1.241,0,0,0,1.241-1.3l.058-7.8v-4.7" transform="translate(-7.208 -16.682)" fill="#ed7899"/>
  <path id="Path_22" data-name="Path 22" d="M27.479,5a2.068,2.068,0,1,0,2.068,2.068A2.068,2.068,0,0,0,27.479,5ZM15.068,5a2.068,2.068,0,1,0,2.068,2.068A2.068,2.068,0,0,0,15.068,5Z" transform="translate(-9.473 -4.586)" fill="#faefde"/>
  <path id="Path_23" data-name="Path 23" d="M22.481,8.964A2.482,2.482,0,1,0,20,6.482,2.482,2.482,0,0,0,22.481,8.964Zm0-4.236a1.754,1.754,0,1,1-1.754,1.754A1.754,1.754,0,0,1,22.481,4.728ZM10.07,8.964A2.482,2.482,0,1,0,7.588,6.482,2.482,2.482,0,0,0,10.07,8.964Zm0-4.236A1.754,1.754,0,1,1,8.316,6.482,1.754,1.754,0,0,1,10.07,4.728Zm16.436,6.226a4.522,4.522,0,0,0-2.284-1.51l-.463-.132q-.178-.05-.36-.087a4.869,4.869,0,0,0-5.469,3.194l-.112.306a1.655,1.655,0,0,1-.649.827L16.486,14,15.3,13.416a1.655,1.655,0,0,1-.678-.629l-.658-1.071A5.163,5.163,0,0,0,8.585,9.27q-.186.037-.368.091l-.161.046A4.551,4.551,0,0,0,5.6,11.136L4.861,12.17a2.068,2.068,0,0,0-.281,1.857L5.271,16.1A1.655,1.655,0,0,0,6.76,17.238v.376l-.769,7.823a1.655,1.655,0,0,0,3.252.525,1.655,1.655,0,0,0,2.792.695,1.626,1.626,0,0,0,.455-1.2l.062-7.81V15.17a4.526,4.526,0,0,0,1.878,1.216l1.191.414a1.427,1.427,0,0,0,.794.025,1.46,1.46,0,0,0,1.295-.074l.782-.447a4.551,4.551,0,0,0,1.092-.906v2.255L19.233,25.4a1.725,1.725,0,0,0,.323,1.117,1.655,1.655,0,0,0,2.925-.558,1.655,1.655,0,0,0,2.929.542,1.725,1.725,0,0,0,.319-1.117l-.3-6.619a1.452,1.452,0,0,0,.807.1,1.485,1.485,0,0,0,1.212-1.473V13.734a4.406,4.406,0,0,0-.939-2.78ZM14.691,15.583a3.723,3.723,0,0,1-1.754-1.241l-1.3-1.655a.414.414,0,0,0-.649.509l.745.951v3.5l-.058,7.827a.829.829,0,0,1-1.655.1l.054-7.1a.414.414,0,1,0-.827-.05l-.769,7.124a.828.828,0,0,1-1.655-.041l.769-7.86V12.965a.414.414,0,1,0-.827,0v3.446a.827.827,0,0,1-.72-.554L5.35,13.788a1.241,1.241,0,0,1,.17-1.134L6.26,11.62a3.723,3.723,0,0,1,2-1.415l.161-.046q.178-.05.356-.087a4.327,4.327,0,0,1,4.468,2.068l.662,1.08a2.482,2.482,0,0,0,1.022.931l1.411.695a.623.623,0,1,1-.48,1.15Zm11.927,1.862a.621.621,0,1,1-1.241,0v-4.48a.414.414,0,1,0-.827,0v4.513l.356,8a.827.827,0,0,1-.9.865.856.856,0,0,1-.757-.827l-.352-7.033a.414.414,0,0,0-.827,0l-.352,7.033a.869.869,0,0,1-.749.827.827.827,0,0,1-.906-.86l.352-7.827v-4.7a.414.414,0,1,0-.827,0v1.034a.414.414,0,0,0-.054.07,4.249,4.249,0,0,1-1.4,1.473l-.728.414a1.407,1.407,0,0,0-.19-1.431l.414-.269A2.482,2.482,0,0,0,18.6,13l.116-.323a4.029,4.029,0,0,1,4.48-2.66q.17.033.339.083L24,10.23a3.723,3.723,0,0,1,1.886,1.241,3.545,3.545,0,0,1,.732,2.242ZM14.207,7.31A.414.414,0,0,0,14.62,6.9V6.068a.414.414,0,1,0-.827,0V6.9A.414.414,0,0,0,14.207,7.31Zm2.068,0a.414.414,0,0,0,.414-.414V6.068a.414.414,0,1,0-.827,0V6.9A.414.414,0,0,0,16.275,7.31Zm2.068,0a.414.414,0,0,0,.414-.414V6.068a.414.414,0,1,0-.827,0V6.9A.414.414,0,0,0,18.344,7.31Z" transform="translate(-4.474 -4)" fill="#8d6c9f"/>
</svg>
