<svg xmlns="http://www.w3.org/2000/svg" width="28.235" height="28.235" viewBox="0 0 28.235 28.235">
  <g id="icons8_delivery_time_1" transform="translate(-6 -6)">
    <path id="Path_24" data-name="Path 24" d="M22.387,9A13.387,13.387,0,1,0,35.775,22.387,13.387,13.387,0,0,0,22.387,9Z" transform="translate(-2.27 -2.27)" fill="#fff"/>
    <path id="Path_25" data-name="Path 25" d="M69.032,39.763h-7.3a.663.663,0,0,1-.511-.219A.7.7,0,0,1,61,39.032v-7.3a.717.717,0,0,1,.73-.73h0a.717.717,0,0,1,.73.73V38.3h6.572a.73.73,0,0,1,0,1.46Z" transform="translate(-41.613 -18.915)" fill="#71c2ff"/>
    <path id="Path_26" data-name="Path 26" d="M58.7,57a1.7,1.7,0,1,0,1.7,1.7A1.7,1.7,0,0,0,58.7,57Z" transform="translate(-38.586 -38.586)" fill="#fff"/>
    <path id="Path_27" data-name="Path 27" d="M56.434,58.868a2.434,2.434,0,1,1,2.434-2.434A2.441,2.441,0,0,1,56.434,58.868Zm0-3.408a.974.974,0,1,0,.974.974A.976.976,0,0,0,56.434,55.46Z" transform="translate(-36.316 -36.316)" fill="#71c2ff"/>
    <path id="Path_28" data-name="Path 28" d="M20.118,6a14.118,14.118,0,0,0,0,28.235,13.93,13.93,0,0,0,9.955-4.114L30.1,30.1v1.8a.73.73,0,0,0,1.46,0V28.418a.717.717,0,0,0-.73-.73H27.323a.73.73,0,0,0,0,1.46h1.631a12.487,12.487,0,0,1-8.836,3.627A12.657,12.657,0,1,1,32.775,20.118a.73.73,0,1,0,1.46,0A14.143,14.143,0,0,0,20.118,6Z" transform="translate(0 0)" fill="#444b54"/>
    <g id="Group_2" data-name="Group 2" transform="translate(32.166 23.063)">
      <path id="Path_29" data-name="Path 29" d="M114.3,76.1a.8.8,0,1,0,.8.8A.8.8,0,0,0,114.3,76.1Z" transform="translate(-113.5 -76.1)" fill="#444b54"/>
    </g>
  </g>
</svg>
