<svg xmlns="http://www.w3.org/2000/svg" width="27.244" height="25.148" viewBox="0 0 27.244 25.148">
  <path id="icons8_cash" d="M22.957,2a6.287,6.287,0,1,0,6.287,6.287A6.287,6.287,0,0,0,22.957,2ZM20.92,5.144h4.073V6.357H22.122l-.115,1.42h.082a1.435,1.435,0,0,1,1.3-.628A1.953,1.953,0,0,1,25.38,9.2a2.222,2.222,0,0,1-2.452,2.227,2.135,2.135,0,0,1-2.395-1.946h1.412a1,1,0,0,0,1.965-.241.951.951,0,0,0-.976-1.017A1.04,1.04,0,0,0,22,8.731H20.632ZM4.1,10.383a2.1,2.1,0,0,0-.4.041l-.041.01a2.1,2.1,0,0,0-.356.111l-.033.014a2.1,2.1,0,0,0-.332.178l-.006,0-.01.008a2.1,2.1,0,0,0-.295.242c-.006.006-.01.014-.016.02a2.1,2.1,0,0,0-.244.295l-.006.008a2.1,2.1,0,0,0-.188.348s0,0,0,0A2.079,2.079,0,0,0,2,12.478V25.052a2.1,2.1,0,0,0,.041.4c0,.014.007.027.01.041a2.1,2.1,0,0,0,.111.356l.014.033a2.1,2.1,0,0,0,.178.332l.012.016a2.1,2.1,0,0,0,.241.295c.006.006.014.01.02.016a2.1,2.1,0,0,0,.295.244l.008.006a2.1,2.1,0,0,0,.348.188h0a2.078,2.078,0,0,0,.815.166H27.148a2.1,2.1,0,0,0,.4-.041l.041-.01a2.1,2.1,0,0,0,.356-.111l.033-.014a2.1,2.1,0,0,0,.332-.178l.006,0,.01-.008a2.1,2.1,0,0,0,.295-.242l.006-.006s.006-.01.01-.014a2.1,2.1,0,0,0,.244-.295l0,0,0-.006a2.1,2.1,0,0,0,.188-.348v0a2.078,2.078,0,0,0,.166-.814V13.819a8.407,8.407,0,0,1-2.1,1.721l0,7.417a2.1,2.1,0,0,0-2.094,2.1H6.191a2.1,2.1,0,0,0-2.1-2.1V14.574a2.1,2.1,0,0,0,2.1-2.1H15.7a8.3,8.3,0,0,1-.855-2.1Zm11.526,4.191a4.477,4.477,0,0,0-4.191,4.715,4.919,4.919,0,0,0,1.586,3.667h5.21a4.919,4.919,0,0,0,1.586-3.667A4.477,4.477,0,0,0,15.622,14.574ZM7.239,17.718a1.048,1.048,0,1,0,1.048,1.048A1.048,1.048,0,0,0,7.239,17.718Zm16.765,0a1.048,1.048,0,1,0,1.048,1.048A1.048,1.048,0,0,0,24,17.718Z" transform="translate(-2 -2)" fill="#83b146"/>
</svg>
