<svg xmlns="http://www.w3.org/2000/svg" width="22.471" height="15.728" viewBox="0 0 22.471 15.728">
  <path id="icons_pay_1" d="M8.988,4a1.5,1.5,0,0,0-1.5,1.5v.749H7.281A6.274,6.274,0,0,0,3.135,7.366C2.256,8.134,0,10.046,0,10.046v1.922s3.223-2.69,4.121-3.476a5.149,5.149,0,0,1,3.16-.748H7.49v5.733l4.371-2.455h0a1.488,1.488,0,0,1,1.26-.234,1.5,1.5,0,0,1,.445,2.692l-2.275,1.753L8.617,17.3a4.493,4.493,0,0,1-2.742.933H0v1.5H5.875a6.02,6.02,0,0,0,3.656-1.245l3.245-2.5h9.695V4Zm0,1.5h2.247A2.885,2.885,0,0,1,8.988,7.745Zm8.988.749c1.655,0,3,1.677,3,3.745s-1.342,3.745-3,3.745-3-1.677-3-3.745S16.322,6.247,17.977,6.247Z" transform="translate(0 -4)" fill="#f0b2b1"/>
</svg>
