<svg xmlns="http://www.w3.org/2000/svg" xmlns:xlink="http://www.w3.org/1999/xlink" width="97.727" height="129.056" viewBox="0 0 97.727 129.056">
  <defs>
    <linearGradient id="linear-gradient" y1="0.5" x2="1" y2="0.5" gradientUnits="objectBoundingBox">
      <stop offset="0" stop-color="#4795d6"/>
      <stop offset="1" stop-color="#3d63a8"/>
    </linearGradient>
    <clipPath id="clip-path">
      <path id="Path_233" data-name="Path 233" d="M164.812,413.012h0q0-.744,0-1.488h0Z" transform="translate(-164.812 -411.524)" fill="none"/>
    </clipPath>
    <clipPath id="clip-path-2">
      <path id="Path_235" data-name="Path 235" d="M160.167,411.524q0,.564,0,1.129,0-.565,0-1.129Z" transform="translate(-160.164 -411.524)" fill="none"/>
    </clipPath>
    <clipPath id="clip-path-3">
      <path id="Path_254" data-name="Path 254" d="M159.482,412.617a.477.477,0,0,0-.279.391l0-1.488a.478.478,0,0,1,.28-.391q0,.744,0,1.487,0-.744,0-1.487a1.5,1.5,0,0,1,1.359,0q0,.744,0,1.488A1.5,1.5,0,0,0,159.482,412.617Z" transform="translate(-159.203 -410.966)" fill="none"/>
    </clipPath>
    <clipPath id="clip-path-4">
      <path id="Path_256" data-name="Path 256" d="M165.1,413.409a.481.481,0,0,0-.283-.4l0-1.488a.481.481,0,0,1,.284.4C165.1,412.367,165.1,412.963,165.1,413.409Z" transform="translate(-164.813 -411.525)" fill="none"/>
    </clipPath>
    <clipPath id="clip-path-5">
      <path id="Path_275" data-name="Path 275" d="M161.13,412.868l0,1.488a.477.477,0,0,1-.279.391,1.5,1.5,0,0,1-1.359,0,.481.481,0,0,1-.284-.4l0-1.488a.481.481,0,0,0,.284.4,1.5,1.5,0,0,0,1.359,0A.477.477,0,0,0,161.13,412.868Z" transform="translate(-159.203 -412.862)" fill="none"/>
    </clipPath>
    <radialGradient id="radial-gradient" cx="0.574" cy="0.411" r="0.895" gradientTransform="translate(0.241 0.133) scale(0.58 0.676)" gradientUnits="objectBoundingBox">
      <stop offset="0" stop-color="#a9ffff"/>
      <stop offset="1" stop-color="#5cd9ff"/>
    </radialGradient>
    <linearGradient id="linear-gradient-2" y1="0.5" x2="1" y2="0.5" gradientUnits="objectBoundingBox">
      <stop offset="0" stop-color="#59b2ef"/>
      <stop offset="1" stop-color="#467fd3"/>
    </linearGradient>
    <linearGradient id="linear-gradient-3" y1="0.5" x2="1" y2="0.5" gradientUnits="objectBoundingBox">
      <stop offset="0" stop-color="#1471af"/>
      <stop offset="0.196" stop-color="#1471af"/>
      <stop offset="0.43" stop-color="#38e0ff"/>
      <stop offset="0.609" stop-color="#1d58a5"/>
      <stop offset="0.615" stop-color="#1d54a3"/>
      <stop offset="1" stop-color="#1d54a3"/>
    </linearGradient>
    <linearGradient id="linear-gradient-4" y1="0.5" x2="1" y2="0.5" gradientUnits="objectBoundingBox">
      <stop offset="0" stop-color="#1a962c"/>
      <stop offset="1" stop-color="#39ff6c"/>
    </linearGradient>
    <linearGradient id="linear-gradient-6" y1="0.5" x2="1" y2="0.5" gradientUnits="objectBoundingBox">
      <stop offset="0" stop-color="#138420"/>
      <stop offset="1" stop-color="#2be252"/>
    </linearGradient>
    <linearGradient id="linear-gradient-8" x1="-6.824" y1="1.083" x2="5.796" y2="1.083" gradientUnits="objectBoundingBox">
      <stop offset="0" stop-color="#176ebc"/>
      <stop offset="1" stop-color="#55a8f2"/>
    </linearGradient>
    <linearGradient id="linear-gradient-9" x1="-8.545" y1="-3.827" x2="6.806" y2="-3.827" xlink:href="#linear-gradient-8"/>
    <linearGradient id="linear-gradient-10" x1="-1.4" y1="5.102" x2="1.023" y2="5.102" xlink:href="#linear-gradient-8"/>
    <linearGradient id="linear-gradient-11" x1="-2.138" y1="1.935" x2="1.088" y2="1.935" xlink:href="#linear-gradient-8"/>
    <linearGradient id="linear-gradient-12" x1="-2.638" y1="1.375" x2="1.655" y2="1.375" xlink:href="#linear-gradient-8"/>
    <linearGradient id="linear-gradient-13" x1="-2.671" y1="1.13" x2="1.345" y2="1.13" xlink:href="#linear-gradient-8"/>
    <linearGradient id="linear-gradient-14" x1="-6.128" y1="0.267" x2="5.559" y2="0.267" xlink:href="#linear-gradient-8"/>
    <linearGradient id="linear-gradient-15" x1="-8.569" y1="0.623" x2="1.048" y2="0.623" xlink:href="#linear-gradient-8"/>
    <linearGradient id="linear-gradient-16" x1="-4.779" y1="0.333" x2="1.663" y2="0.333" xlink:href="#linear-gradient-8"/>
    <linearGradient id="linear-gradient-17" x1="-6.965" y1="0.015" x2="4.123" y2="0.015" xlink:href="#linear-gradient-8"/>
    <linearGradient id="linear-gradient-18" x1="-3.895" y1="0.071" x2="3.531" y2="0.071" xlink:href="#linear-gradient-8"/>
    <linearGradient id="linear-gradient-19" x1="-10.789" y1="-0.782" x2="4.023" y2="-0.782" xlink:href="#linear-gradient-8"/>
    <linearGradient id="linear-gradient-20" x1="-6.796" y1="-2.111" x2="5.852" y2="-2.111" xlink:href="#linear-gradient-8"/>
    <linearGradient id="linear-gradient-21" x1="-7.144" y1="-0.894" x2="4.195" y2="-0.894" xlink:href="#linear-gradient-8"/>
    <linearGradient id="linear-gradient-22" x1="-6.388" y1="-0.043" x2="2.326" y2="-0.043" xlink:href="#linear-gradient-8"/>
    <linearGradient id="linear-gradient-23" x1="-12.812" y1="-0.203" x2="1.755" y2="-0.203" xlink:href="#linear-gradient-8"/>
    <linearGradient id="linear-gradient-24" x1="-10.165" y1="-1.152" x2="2.451" y2="-1.152" xlink:href="#linear-gradient-8"/>
    <linearGradient id="linear-gradient-25" x1="-4.223" y1="-1.614" x2="2.994" y2="-1.614" xlink:href="#linear-gradient-8"/>
    <linearGradient id="linear-gradient-26" x1="-7.614" y1="-3.242" x2="3.772" y2="-3.242" xlink:href="#linear-gradient-8"/>
    <linearGradient id="linear-gradient-27" x1="-9.75" y1="0.114" x2="0.522" y2="0.114" xlink:href="#linear-gradient-8"/>
    <linearGradient id="linear-gradient-28" x1="-2.531" y1="-2.5" x2="1.557" y2="-2.5" xlink:href="#linear-gradient-8"/>
    <linearGradient id="linear-gradient-29" x1="-2.59" y1="-0.452" x2="1.028" y2="-0.452" xlink:href="#linear-gradient-8"/>
    <linearGradient id="linear-gradient-30" x1="-9.066" y1="-4.328" x2="1.714" y2="-4.328" xlink:href="#linear-gradient-8"/>
    <linearGradient id="linear-gradient-31" x1="-0.281" y1="0.321" x2="0.719" y2="0.321" xlink:href="#linear-gradient-8"/>
    <linearGradient id="linear-gradient-32" x1="-0.445" y1="0.402" x2="0.765" y2="0.402" xlink:href="#linear-gradient-8"/>
    <linearGradient id="linear-gradient-33" x1="-1.315" y1="0.824" x2="0.576" y2="0.824" gradientUnits="objectBoundingBox">
      <stop offset="0" stop-color="#2d5ac9"/>
      <stop offset="0.156" stop-color="#2851ae"/>
      <stop offset="0.385" stop-color="#23478f"/>
      <stop offset="0.607" stop-color="#1f4078"/>
      <stop offset="0.816" stop-color="#1d3c6a"/>
      <stop offset="1" stop-color="#1d3b66"/>
    </linearGradient>
    <linearGradient id="linear-gradient-34" x1="-0.354" y1="0.11" x2="1.221" y2="0.11" xlink:href="#linear-gradient-33"/>
    <linearGradient id="linear-gradient-35" x1="-0.146" y1="0.458" x2="0.854" y2="0.458" xlink:href="#linear-gradient-33"/>
    <linearGradient id="linear-gradient-36" y1="0.5" x2="1" y2="0.5" gradientUnits="objectBoundingBox">
      <stop offset="0" stop-color="#3870a8"/>
      <stop offset="1" stop-color="#253556"/>
    </linearGradient>
    <linearGradient id="linear-gradient-37" x1="0" y1="0.5" x2="1" y2="0.5" xlink:href="#linear-gradient-36"/>
    <linearGradient id="linear-gradient-38" y1="0.5" x2="1" y2="0.5" gradientUnits="objectBoundingBox">
      <stop offset="0" stop-color="#728baf"/>
      <stop offset="1" stop-color="#f5feff"/>
    </linearGradient>
    <linearGradient id="linear-gradient-39" x1="0.5" y1="1" x2="0.5" gradientUnits="objectBoundingBox">
      <stop offset="0" stop-color="#3d92d8"/>
      <stop offset="0.196" stop-color="#3d92d8"/>
      <stop offset="0.43" stop-color="#38e0ff"/>
      <stop offset="0.615" stop-color="#3668c1"/>
      <stop offset="0.877" stop-color="#38e0ff"/>
      <stop offset="1" stop-color="#3668c1"/>
    </linearGradient>
    <linearGradient id="linear-gradient-40" y1="0.5" x2="1" y2="0.5" gradientUnits="objectBoundingBox">
      <stop offset="0" stop-color="#4c91c9"/>
      <stop offset="1" stop-color="#32599e"/>
    </linearGradient>
    <linearGradient id="linear-gradient-41" y1="0.5" x2="1" y2="0.5" gradientUnits="objectBoundingBox">
      <stop offset="0" stop-color="#3870a8"/>
      <stop offset="1" stop-color="#142749"/>
    </linearGradient>
    <linearGradient id="linear-gradient-42" x1="0.077" y1="0.799" x2="0.876" y2="0.213" gradientUnits="objectBoundingBox">
      <stop offset="0" stop-color="#fff"/>
      <stop offset="0.002" stop-color="#f9fffe" stop-opacity="0.965"/>
      <stop offset="0.011" stop-color="#e0fffc" stop-opacity="0.784"/>
      <stop offset="0.022" stop-color="#c9fffb" stop-opacity="0.616"/>
      <stop offset="0.033" stop-color="#b4fff9" stop-opacity="0.467"/>
      <stop offset="0.046" stop-color="#a2fff8" stop-opacity="0.341"/>
      <stop offset="0.06" stop-color="#93fff7" stop-opacity="0.231"/>
      <stop offset="0.075" stop-color="#87fff6" stop-opacity="0.145"/>
      <stop offset="0.093" stop-color="#7efff5" stop-opacity="0.078"/>
      <stop offset="0.116" stop-color="#77fff5" stop-opacity="0.035"/>
      <stop offset="0.147" stop-color="#74fff5" stop-opacity="0.008"/>
      <stop offset="0.235" stop-color="#73fff5" stop-opacity="0"/>
    </linearGradient>
  </defs>
  <g id="Investor_Visa" data-name="Investor Visa" transform="translate(0.126 0)">
    <path id="Path_228" data-name="Path 228" d="M189.823,299.326a1.342,1.342,0,0,1,.016,2.54l-56.614,32.9a4.832,4.832,0,0,1-4.385,0L94.19,314.759a1.342,1.342,0,0,1-.016-2.54l56.614-32.9a4.832,4.832,0,0,1,4.385,0Z" transform="translate(-93.269 -206.236)" opacity="0.45" fill="url(#linear-gradient)" style="mix-blend-mode: multiply;isolation: isolate"/>
    <g id="Group_681" data-name="Group 681" transform="translate(0 66.911)">
      <g id="Group_680" data-name="Group 680" transform="translate(0)" style="isolation: isolate">
        <g id="Group_659" data-name="Group 659" transform="translate(56.99 2.387)">
          <path id="Path_229" data-name="Path 229" d="M324.708,288.63l0,1.488L288.34,269.123l0-1.488Z" transform="translate(-288.34 -267.635)" fill="#484848"/>
        </g>
        <g id="Group_660" data-name="Group 660" transform="translate(4.112 2.387)">
          <path id="Path_230" data-name="Path 230" d="M160.217,267.635l0,1.488-52.878,30.729,0-1.488Z" transform="translate(-107.335 -267.635)" fill="#686868"/>
        </g>
        <path id="Path_231" data-name="Path 231" d="M93.259,379.684l0-1.488a1.552,1.552,0,0,0,.916,1.28l0,1.488A1.554,1.554,0,0,1,93.259,379.684Z" transform="translate(-93.259 -343.51)" fill="none"/>
        <g id="Group_663" data-name="Group 663" transform="translate(20.903 44.422)" style="isolation: isolate">
          <g id="Group_662" data-name="Group 662" clip-path="url(#clip-path)">
            <g id="Group_661" data-name="Group 661" transform="translate(-0.139 -0.067)" style="isolation: isolate">
              <path id="Path_232" data-name="Path 232" d="M164.763,411.759l0,1.488a.48.48,0,0,0-.284-.4,1.036,1.036,0,0,0-.139-.067l0-1.488a1.047,1.047,0,0,1,.139.067.481.481,0,0,1,.284.4" transform="translate(-164.336 -411.296)" fill="#464646"/>
            </g>
          </g>
        </g>
        <g id="Group_666" data-name="Group 666" transform="translate(19.545 44.422)" style="isolation: isolate">
          <g id="Group_665" data-name="Group 665" clip-path="url(#clip-path-2)">
            <g id="Group_664" data-name="Group 664" transform="translate(-0.013 -0.093)" style="isolation: isolate">
              <path id="Path_234" data-name="Path 234" d="M160.346,411.207l0,1.488a1.083,1.083,0,0,0-.211.093l-.012.007,0-1.488.012-.007a1.1,1.1,0,0,1,.211-.093" transform="translate(-160.119 -411.207)" fill="#616161"/>
            </g>
          </g>
        </g>
        <g id="Group_669" data-name="Group 669" transform="translate(19.265 44.259)" style="isolation: isolate">
          <g id="Group_668" data-name="Group 668" clip-path="url(#clip-path-3)">
            <g id="Group_667" data-name="Group 667" transform="translate(0 0)" style="isolation: isolate">
              <path id="Path_236" data-name="Path 236" d="M164.763,411.759l0,1.488a.48.48,0,0,0-.284-.4,1.036,1.036,0,0,0-.139-.067l0-1.488a1.047,1.047,0,0,1,.139.067.481.481,0,0,1,.284.4" transform="translate(-162.836 -411.2)" fill="#464646"/>
              <path id="Path_237" data-name="Path 237" d="M164.058,411.2l0,1.488a1.213,1.213,0,0,0-.117-.039l0-1.488c.04.011.079.025.117.039" transform="translate(-162.554 -411.105)" fill="#494949"/>
              <path id="Path_238" data-name="Path 238" d="M163.7,411.1l0,1.488c-.033-.009-.066-.018-.1-.025l0-1.488c.034.007.067.015.1.025" transform="translate(-162.311 -411.044)" fill="#4c4c4c"/>
              <path id="Path_239" data-name="Path 239" d="M163.367,411.037l0,1.488c-.032-.007-.063-.012-.1-.017l0-1.488c.032,0,.064.01.1.016" transform="translate(-162.08 -411.005)" fill="#4e4e4e"/>
              <path id="Path_240" data-name="Path 240" d="M163.046,411l0,1.488-.093-.011,0-1.488.093.01" transform="translate(-161.854 -410.979)" fill="#515151"/>
              <path id="Path_241" data-name="Path 241" d="M162.723,410.973l0,1.488c-.031,0-.063,0-.095,0l0-1.488c.032,0,.063,0,.095,0" transform="translate(-161.625 -410.967)" fill="#545454"/>
              <path id="Path_242" data-name="Path 242" d="M162.391,410.966l0,1.488c-.033,0-.065,0-.1,0l0-1.488c.033,0,.066,0,.1,0" transform="translate(-161.387 -410.966)" fill="#565656"/>
              <path id="Path_243" data-name="Path 243" d="M162.034,410.969l0,1.488c-.036,0-.071,0-.107.007l0-1.488c.035,0,.071-.006.106-.007" transform="translate(-161.128 -410.968)" fill="#595959"/>
              <path id="Path_244" data-name="Path 244" d="M161.631,410.994l0,1.488c-.041,0-.082.01-.122.017l0-1.488c.04-.007.081-.013.122-.017" transform="translate(-160.832 -410.986)" fill="#5c5c5c"/>
              <path id="Path_245" data-name="Path 245" d="M161.067,411.052l0,1.488a1.454,1.454,0,0,0-.182.045l0-1.488a1.39,1.39,0,0,1,.182-.045" transform="translate(-160.391 -411.027)" fill="#5e5e5e"/>
              <path id="Path_246" data-name="Path 246" d="M160.346,411.207l0,1.488a1.083,1.083,0,0,0-.211.093l-.012.007,0-1.488.012-.007a1.1,1.1,0,0,1,.211-.093" transform="translate(-159.851 -411.137)" fill="#616161"/>
              <path id="Path_247" data-name="Path 247" d="M159.828,411.548l0,1.488a.758.758,0,0,0-.122.09l0-1.488a.771.771,0,0,1,.122-.09" transform="translate(-159.556 -411.378)" fill="#5e5e5e"/>
              <path id="Path_248" data-name="Path 248" d="M159.562,411.857l0,1.488a.575.575,0,0,0-.06.064l0-1.488a.554.554,0,0,1,.06-.064" transform="translate(-159.412 -411.597)" fill="#5c5c5c"/>
              <path id="Path_249" data-name="Path 249" d="M159.408,412.077l0,1.488a.46.46,0,0,0-.039.057l0-1.488a.462.462,0,0,1,.039-.057" transform="translate(-159.318 -411.752)" fill="#595959"/>
              <path id="Path_250" data-name="Path 250" d="M159.308,412.273l0,1.488a.4.4,0,0,0-.025.055l0-1.488a.4.4,0,0,1,.026-.055" transform="translate(-159.256 -411.891)" fill="#565656"/>
              <path id="Path_251" data-name="Path 251" d="M159.245,412.46l0,1.488a.333.333,0,0,0-.015.054l0-1.488a.364.364,0,0,1,.015-.054" transform="translate(-159.219 -412.023)" fill="#545454"/>
              <path id="Path_252" data-name="Path 252" d="M159.214,412.645l0,1.488a.323.323,0,0,0-.006.055l0-1.488a.323.323,0,0,1,.006-.055" transform="translate(-159.203 -412.154)" fill="#515151"/>
              <path id="Path_253" data-name="Path 253" d="M159.207,412.834l0,1.488v.008l0-1.488v-.008" transform="translate(-159.203 -412.288)" fill="#4e4e4e"/>
            </g>
          </g>
        </g>
        <g id="Group_672" data-name="Group 672" transform="translate(20.903 44.422)" style="isolation: isolate">
          <g id="Group_671" data-name="Group 671" clip-path="url(#clip-path-4)">
            <g id="Group_670" data-name="Group 670" transform="translate(-0.139 -0.067)" style="isolation: isolate">
              <path id="Path_255" data-name="Path 255" d="M164.763,411.759l0,1.488a.48.48,0,0,0-.284-.4,1.036,1.036,0,0,0-.139-.067l0-1.488a1.047,1.047,0,0,1,.139.067.481.481,0,0,1,.284.4" transform="translate(-164.336 -411.296)" fill="#464646"/>
            </g>
          </g>
        </g>
        <g id="Group_675" data-name="Group 675" transform="translate(19.265 44.813)" style="isolation: isolate">
          <g id="Group_674" data-name="Group 674" clip-path="url(#clip-path-5)">
            <g id="Group_673" data-name="Group 673" style="isolation: isolate">
              <path id="Path_257" data-name="Path 257" d="M165.787,412.881l0,1.488v.008l0-1.488v-.008" transform="translate(-163.861 -412.875)" fill="#737373"/>
              <path id="Path_258" data-name="Path 258" d="M165.772,412.91l0,1.488a.323.323,0,0,1-.006.055l0-1.488a.322.322,0,0,0,.006-.055" transform="translate(-163.845 -412.896)" fill="#777"/>
              <path id="Path_259" data-name="Path 259" d="M165.728,413.1l0,1.488a.33.33,0,0,1-.015.054l0-1.488a.37.37,0,0,0,.015-.054" transform="translate(-163.808 -413.03)" fill="#7b7b7b"/>
              <path id="Path_260" data-name="Path 260" d="M165.651,413.284l0,1.488a.367.367,0,0,1-.025.055l0-1.488a.382.382,0,0,0,.026-.054" transform="translate(-163.746 -413.161)" fill="#7f7f7f"/>
              <path id="Path_261" data-name="Path 261" d="M165.531,413.47l0,1.488a.467.467,0,0,1-.039.057l0-1.488a.409.409,0,0,0,.039-.058" transform="translate(-163.652 -413.292)" fill="#838383"/>
              <path id="Path_262" data-name="Path 262" d="M165.348,413.667l0,1.488a.551.551,0,0,1-.06.064l0-1.488a.554.554,0,0,0,.06-.064" transform="translate(-163.508 -413.432)" fill="#878787"/>
              <path id="Path_263" data-name="Path 263" d="M164.993,413.887l0,1.488a.761.761,0,0,1-.122.09l0-1.488a.732.732,0,0,0,.122-.09" transform="translate(-163.212 -413.588)" fill="#8b8b8b"/>
              <path id="Path_264" data-name="Path 264" d="M164.332,414.2l0,1.488-.012.007a1.1,1.1,0,0,1-.211.093l0-1.488a1.081,1.081,0,0,0,.211-.093l.012-.007" transform="translate(-162.673 -413.806)" fill="#8f8f8f"/>
              <path id="Path_265" data-name="Path 265" d="M163.668,414.537l0,1.488a1.392,1.392,0,0,1-.182.045l0-1.488a1.393,1.393,0,0,0,.182-.045" transform="translate(-162.232 -414.048)" fill="#8b8b8b"/>
              <path id="Path_266" data-name="Path 266" d="M163.19,414.692l0,1.488c-.04.007-.081.013-.122.017l0-1.488c.041,0,.082-.01.123-.017" transform="translate(-161.935 -414.157)" fill="#878787"/>
              <path id="Path_267" data-name="Path 267" d="M162.809,414.75l0,1.488c-.035,0-.071.006-.107.007l0-1.488c.036,0,.071,0,.106-.007" transform="translate(-161.677 -414.198)" fill="#838383"/>
              <path id="Path_268" data-name="Path 268" d="M162.465,414.774l0,1.488c-.033,0-.065,0-.1,0l0-1.488c.033,0,.066,0,.1,0" transform="translate(-161.439 -414.215)" fill="#7f7f7f"/>
              <path id="Path_269" data-name="Path 269" d="M162.137,414.764l0,1.488c-.032,0-.063,0-.095,0l0-1.488.094,0" transform="translate(-161.21 -414.205)" fill="#7b7b7b"/>
              <path id="Path_270" data-name="Path 270" d="M161.817,414.733l0,1.488-.093-.011,0-1.488.093.01" transform="translate(-160.984 -414.179)" fill="#777"/>
              <path id="Path_271" data-name="Path 271" d="M161.492,414.683l0,1.488c-.032,0-.064-.01-.1-.016l0-1.488c.032.007.063.012.1.017" transform="translate(-160.753 -414.139)" fill="#737373"/>
              <path id="Path_272" data-name="Path 272" d="M161.154,414.607l0,1.488c-.034-.007-.067-.015-.1-.025l0-1.488c.033.009.066.018.1.025" transform="translate(-160.51 -414.08)" fill="#6f6f6f"/>
              <path id="Path_273" data-name="Path 273" d="M160.771,414.486l0,1.488a1.218,1.218,0,0,1-.117-.039l0-1.488c.038.015.077.028.117.039" transform="translate(-160.227 -413.984)" fill="#6b6b6b"/>
              <path id="Path_274" data-name="Path 274" d="M159.63,413.325l0,1.488a1.062,1.062,0,0,1-.139-.066.481.481,0,0,1-.284-.4l0-1.488a.481.481,0,0,0,.284.4,1.045,1.045,0,0,0,.139.067" transform="translate(-159.203 -412.862)" fill="#676767"/>
            </g>
          </g>
        </g>
        <g id="Group_676" data-name="Group 676" transform="translate(19.269 44.259)">
          <path id="Path_276" data-name="Path 276" d="M160.856,411.129a.416.416,0,0,1,0,.787,1.5,1.5,0,0,1-1.359,0,.416.416,0,0,1,0-.787A1.5,1.5,0,0,1,160.856,411.129Z" transform="translate(-159.217 -410.966)" fill="#fff"/>
        </g>
        <g id="Group_677" data-name="Group 677" transform="translate(40.476 23.382)">
          <path id="Path_277" data-name="Path 277" d="M284.7,339.5l0,1.488-52.878,30.729,0-1.488Z" transform="translate(-231.813 -339.502)" fill="#999"/>
        </g>
        <path id="Path_278" data-name="Path 278" d="M196.592,288.63l-52.878,30.729L107.35,298.364l52.878-30.729Z" transform="translate(-103.233 -265.248)" fill="url(#radial-gradient)"/>
        <g id="Group_678" data-name="Group 678" transform="translate(4.112 33.116)">
          <path id="Path_279" data-name="Path 279" d="M143.7,393.818l0,1.488-36.364-20.995,0-1.488Z" transform="translate(-107.335 -372.823)" fill="#6a6a6a"/>
        </g>
        <g id="Group_679" data-name="Group 679" transform="translate(0.004)">
          <path id="Path_280" data-name="Path 280" d="M189.823,280a1.342,1.342,0,0,1,.016,2.54l-56.614,32.9a4.832,4.832,0,0,1-4.385,0L94.19,295.429a1.342,1.342,0,0,1-.016-2.54l56.614-32.9a4.831,4.831,0,0,1,4.385,0ZM133.75,313.574l52.878-30.729-36.364-20.995L97.386,292.58l36.364,20.995m-20.928-8.9a1.5,1.5,0,0,0,1.359,0,.416.416,0,0,0,0-.787,1.5,1.5,0,0,0-1.359,0,.416.416,0,0,0,0,.787" transform="translate(-93.273 -259.463)" fill="url(#linear-gradient-2)"/>
        </g>
        <path id="Path_281" data-name="Path 281" d="M190.722,334.22c0,.033-.005.065-.011.1s-.013.053-.02.079-.016.062-.027.093-.021.05-.032.075-.028.065-.045.1-.027.046-.041.069-.046.072-.073.108-.033.042-.05.063a1.775,1.775,0,0,1-.131.141c-.017.017-.033.034-.051.051s-.063.053-.095.079-.056.046-.087.068-.074.05-.111.074-.076.051-.118.076l-56.614,32.9a3.147,3.147,0,0,1-.292.148l-.088.038q-.119.049-.243.092l-.09.031c-.052.016-.106.031-.159.045l-.122.033c-.056.013-.114.025-.171.036l-.117.024c-.116.02-.234.037-.352.049l-.11.009c-.07.006-.14.011-.21.014l-.134,0h-.17l-.142,0-.157-.008-.144-.012c-.052,0-.1-.01-.155-.017l-.139-.02c-.055-.009-.11-.018-.165-.029l-.128-.026c-.065-.014-.129-.03-.193-.047l-.106-.028q-.171-.05-.333-.112l-.044-.019a3.391,3.391,0,0,1-.421-.2L94.179,348.282h0a1.553,1.553,0,0,1-.916-1.28l0,1.488a1.554,1.554,0,0,0,.916,1.28l34.651,20.006a3.33,3.33,0,0,0,.421.2l.027.013.017.006c.108.042.219.079.333.112l.027.009.079.019c.064.017.128.033.193.047l.051.013.077.013c.055.01.11.02.165.029l.066.012.073.008.154.017.074.008.069,0,.157.008.079,0h.063c.056,0,.113,0,.17,0h.085l.049,0c.07,0,.141-.008.21-.014.028,0,.056,0,.084-.006l.025,0c.119-.012.236-.028.352-.049l.018,0c.034-.006.067-.015.1-.021.057-.012.114-.023.17-.036s.082-.022.122-.033.107-.029.159-.045l.034-.01c.019-.006.036-.014.055-.021q.124-.043.243-.092l.089-.038a3.25,3.25,0,0,0,.292-.148l56.614-32.9.038-.022c.029-.017.053-.036.08-.053s.076-.049.111-.074.058-.045.086-.068.066-.052.1-.079l.019-.016c.012-.011.02-.023.032-.034a1.774,1.774,0,0,0,.131-.141c.009-.011.02-.02.029-.031s.013-.021.021-.032c.027-.036.051-.072.073-.108.01-.015.022-.03.031-.046s.007-.016.011-.023c.017-.032.031-.064.045-.1s.019-.037.026-.056,0-.013.006-.019c.011-.031.018-.062.027-.093s.014-.041.018-.062c0-.006,0-.011,0-.017.006-.032.008-.065.011-.1s.006-.042.007-.064,0-.018,0-.027l0-1.488C190.729,334.159,190.724,334.189,190.722,334.22Z" transform="translate(-93.259 -312.317)" fill="url(#linear-gradient-3)"/>
      </g>
    </g>
    <g id="Path_282" data-name="Path 282" transform="translate(-93.269 -192.553)" fill="none" stroke-miterlimit="10" opacity="0.35" style="mix-blend-mode: multiply;isolation: isolate">
      <path d="M189.823,280a1.342,1.342,0,0,1,.016,2.54l-56.614,32.9a4.832,4.832,0,0,1-4.385,0L94.19,295.429a1.342,1.342,0,0,1-.016-2.54l56.614-32.9a4.831,4.831,0,0,1,4.385,0Z" stroke="none"/>
      <path d="M 152.9752044677734 261.46337890625 C 152.4262390136719 261.46337890625 152.0042877197266 261.594970703125 151.7921142578125 261.7183227539062 L 95.97938537597656 294.1530456542969 L 129.8409729003906 313.7030334472656 C 130.0575714111328 313.8280944824219 130.4857940673828 313.9617309570312 131.0381164550781 313.9617309570312 C 131.5870971679688 313.9617309570312 132.0090637207031 313.8302001953125 132.2209167480469 313.7070617675781 L 188.0336608886719 281.2720031738281 L 154.1721038818359 261.7220153808594 C 153.9555358886719 261.5969848632812 153.5273895263672 261.46337890625 152.9752044677734 261.46337890625 M 152.9752044677734 259.46337890625 C 153.7689971923828 259.46337890625 154.5639801025391 259.6388549804688 155.1721343994141 259.989990234375 L 189.8233947753906 279.9959106445312 C 191.0392761230469 280.6979370117188 191.0456695556641 281.8349609375 189.8394775390625 282.5357666015625 L 133.225830078125 315.436279296875 C 132.0199127197266 316.1370849609375 130.0567626953125 316.1371154785156 128.8408966064453 315.43505859375 L 94.18963623046875 295.4291381835938 C 92.97377014160156 294.7271118164062 92.96734619140625 293.5901489257812 94.17356872558594 292.8892822265625 L 150.7872161865234 259.9891052246094 C 151.3899688720703 259.638671875 152.1819915771484 259.46337890625 152.9752044677734 259.46337890625 Z" stroke="none" fill="#707070"/>
    </g>
    <g id="Group_682" data-name="Group 682" transform="translate(0.004 66.911)">
      <path id="Path_283" data-name="Path 283" d="M189.823,280a1.342,1.342,0,0,1,.016,2.54l-56.614,32.9a4.832,4.832,0,0,1-4.385,0L94.19,295.429a1.342,1.342,0,0,1-.016-2.54l56.614-32.9a4.831,4.831,0,0,1,4.385,0ZM133.75,313.574l52.878-30.729-36.364-20.995L97.386,292.58l36.364,20.995m-20.928-8.9a1.5,1.5,0,0,0,1.359,0,.416.416,0,0,0,0-.787,1.5,1.5,0,0,0-1.359,0,.416.416,0,0,0,0,.787" transform="translate(-93.273 -259.463)" fill="none" stroke="#707070" stroke-miterlimit="10" stroke-width="0.26"/>
    </g>
    <g id="Group_698" data-name="Group 698" transform="translate(17.626 96.988)">
      <g id="Group_688" data-name="Group 688" transform="translate(0 0)">
        <g id="Group_687" data-name="Group 687" style="isolation: isolate">
          <g id="Group_683" data-name="Group 683" transform="translate(18.035 10.412)">
            <path id="Path_284" data-name="Path 284" d="M220.6,398.063l-.008,2.833-5.264,3.059.008-2.833Z" transform="translate(-215.33 -398.063)" fill="url(#linear-gradient-4)"/>
          </g>
          <g id="Group_684" data-name="Group 684" transform="translate(0 3.059)">
            <path id="Path_285" data-name="Path 285" d="M171.638,383.3l-.008,2.833L153.6,375.726l.008-2.833Z" transform="translate(-153.596 -372.892)" fill="url(#linear-gradient-4)"/>
          </g>
          <g id="Group_685" data-name="Group 685" transform="translate(0.008)">
            <path id="Path_286" data-name="Path 286" d="M176.922,372.833l-5.264,3.059-18.035-10.412,5.264-3.059Z" transform="translate(-153.623 -362.42)" fill="url(#linear-gradient-6)"/>
          </g>
          <g id="Group_686" data-name="Group 686" transform="translate(1.314 0.521)">
            <path id="Path_287" data-name="Path 287" d="M178.5,374.342l-3.813,2.216a.558.558,0,0,1-.559,0l-15.758-9.1a.558.558,0,0,1,0-.965l3.813-2.216a.558.558,0,0,1,.559,0l15.759,9.1A.558.558,0,0,1,178.5,374.342Z" transform="translate(-158.094 -364.204)" fill="url(#linear-gradient-4)"/>
          </g>
        </g>
      </g>
      <g id="Group_697" data-name="Group 697" transform="translate(2.81 1.423)">
        <g id="Group_689" data-name="Group 689" transform="translate(7.366 3.978)">
          <path id="Path_288" data-name="Path 288" d="M192.054,382.036l-1.2.7a1.907,1.907,0,0,1-1.959.006c-.614-.354-.629-.768,0-1.135l1.2-.7.5.289-1.183.688c-.407.237-.4.439-.1.613a.989.989,0,0,0,1.058-.057l1.183-.688Z" transform="translate(-188.428 -380.907)" fill="#fff"/>
        </g>
        <g id="Group_690" data-name="Group 690" transform="translate(3.961 2.287)">
          <path id="Path_289" data-name="Path 289" d="M181.345,376.52l-2.141,1.25-.468-.27,1.285-.75-1.7.25-.225-.13.4-.965-1.26.732-.469-.271,2.146-1.247.413.239-.525,1.242,2.129-.315Z" transform="translate(-176.771 -375.118)" fill="#fff"/>
        </g>
        <g id="Group_691" data-name="Group 691" transform="translate(1.012 0.585)">
          <path id="Path_290" data-name="Path 290" d="M171.253,370.693l-2.14,1.251-.469-.271,1.285-.75-1.7.25-.225-.13.4-.965-1.26.732-.469-.271,2.146-1.247.413.239-.525,1.242,2.129-.315Z" transform="translate(-166.679 -369.291)" fill="#fff"/>
        </g>
        <g id="Group_692" data-name="Group 692">
          <path id="Path_291" data-name="Path 291" d="M165.859,367.579l-2.146,1.247-.5-.289,2.146-1.247Z" transform="translate(-163.213 -367.29)" fill="#fff"/>
        </g>
        <g id="Group_693" data-name="Group 693" transform="translate(15.252 8.323)">
          <path id="Path_292" data-name="Path 292" d="M218.908,397.037l-2.225.321-.76.442-.5-.289.766-.445.5-1.177.045-.107.531.306-.376.887,1.53-.221Z" transform="translate(-215.423 -395.782)" fill="#fff"/>
        </g>
        <g id="Group_694" data-name="Group 694" transform="translate(13.295 7.277)">
          <path id="Path_293" data-name="Path 293" d="M211.99,393.246l-.045.107-.289.168-.691-.4-1.742,1.012-.5-.289,1.742-1.012-.691-.4.4-.235Z" transform="translate(-208.723 -392.2)" fill="#fff"/>
        </g>
        <g id="Group_695" data-name="Group 695" transform="translate(11.836 6.833)">
          <path id="Path_294" data-name="Path 294" d="M206.374,390.97l-2.146,1.247-.5-.289,2.146-1.247Z" transform="translate(-203.728 -390.681)" fill="#fff"/>
        </g>
        <g id="Group_696" data-name="Group 696" transform="translate(9.341 5.393)">
          <path id="Path_295" data-name="Path 295" d="M199.314,386.894l-2.146,1.247-.41-.237.226-1.379-1.3.757-.495-.286,2.146-1.247.414.239-.229,1.377,1.3-.757Z" transform="translate(-195.187 -385.75)" fill="#fff"/>
        </g>
      </g>
    </g>
    <g id="Group_726" data-name="Group 726" transform="translate(34.799 95.219)">
      <g id="Group_725" data-name="Group 725" transform="translate(0 0)">
        <g id="Group_699" data-name="Group 699" transform="translate(3.239 2.192)">
          <path id="Path_296" data-name="Path 296" d="M224.409,363.895a.067.067,0,0,1,0,.126,1.983,1.983,0,0,0-.646.566.206.206,0,0,1-.2.05.2.2,0,0,1-.051-.02c-.042-.025-.058-.063-.034-.1a2.195,2.195,0,0,1,.714-.626A.241.241,0,0,1,224.409,363.895Z" transform="translate(-223.466 -363.869)" fill="url(#linear-gradient-8)"/>
        </g>
        <g id="Group_700" data-name="Group 700" transform="translate(3.437 4.233)">
          <path id="Path_297" data-name="Path 297" d="M224.911,370.881a.119.119,0,0,1,.026.02c.041.043.014.1-.06.121-.168.054-.344.1-.523.141a.242.242,0,0,1-.164-.02.117.117,0,0,1-.036-.031c-.03-.046.009-.1.089-.115.166-.037.329-.081.484-.131A.246.246,0,0,1,224.911,370.881Z" transform="translate(-224.144 -370.855)" fill="url(#linear-gradient-9)"/>
        </g>
        <g id="Group_723" data-name="Group 723">
          <g id="Group_701" data-name="Group 701" transform="translate(3.702)">
            <path id="Path_298" data-name="Path 298" d="M230.2,356.7l-.205.257a9.675,9.675,0,0,0-4.745-.032l-.2-.259A10.5,10.5,0,0,1,230.2,356.7Z" transform="translate(-225.049 -356.366)" fill="url(#linear-gradient-10)"/>
          </g>
          <g id="Group_702" data-name="Group 702" transform="translate(4.762 1.664)">
            <path id="Path_299" data-name="Path 299" d="M232.5,362.615a.067.067,0,0,1,0,.126.239.239,0,0,1-.218,0,4.674,4.674,0,0,0-3.381-.331.243.243,0,0,1-.176-.017.141.141,0,0,1-.03-.025c-.037-.044-.005-.1.072-.119A5.158,5.158,0,0,1,232.5,362.615Z" transform="translate(-228.678 -362.061)" fill="url(#linear-gradient-11)"/>
          </g>
          <g id="Group_703" data-name="Group 703" transform="translate(4.16 2.025)">
            <path id="Path_300" data-name="Path 300" d="M229.478,363.37c.038.022.055.054.041.086a.182.182,0,0,1-.188.063,3.6,3.6,0,0,0-2.248.352,2.1,2.1,0,0,0-.188.124.238.238,0,0,1-.217.015l-.014-.007c-.054-.031-.061-.082-.013-.118a2.11,2.11,0,0,1,.213-.14,4.081,4.081,0,0,1,2.544-.4A.2.2,0,0,1,229.478,363.37Z" transform="translate(-226.618 -363.297)" fill="url(#linear-gradient-12)"/>
          </g>
          <g id="Group_704" data-name="Group 704" transform="translate(4.789 2.374)">
            <path id="Path_301" data-name="Path 301" d="M231.7,364.84c.05.029.1.059.141.09s.044.095-.021.126a.242.242,0,0,1-.206-.006l-.011-.007c-.037-.027-.079-.052-.12-.076a2.7,2.7,0,0,0-2.448,0,.242.242,0,0,1-.218,0,.067.067,0,0,1,0-.126A3.183,3.183,0,0,1,231.7,364.84Z" transform="translate(-228.771 -364.494)" fill="url(#linear-gradient-13)"/>
          </g>
          <g id="Group_705" data-name="Group 705" transform="translate(3.034 2.882)">
            <path id="Path_302" data-name="Path 302" d="M223.786,366.257c.054.032.061.083.013.119a2.775,2.775,0,0,1-.806.4.245.245,0,0,1-.184-.015.1.1,0,0,1-.026-.02c-.041-.043-.015-.1.059-.122a2.481,2.481,0,0,0,.713-.358.238.238,0,0,1,.216-.015Z" transform="translate(-222.764 -366.231)" fill="url(#linear-gradient-14)"/>
          </g>
          <g id="Group_706" data-name="Group 706" transform="translate(7.608 2.31)">
            <path id="Path_303" data-name="Path 303" d="M238.956,364.435a1.446,1.446,0,0,1,.759.894c.011.049-.049.093-.133.1a.23.23,0,0,1-.129-.025.087.087,0,0,1-.044-.053,1.279,1.279,0,0,0-.67-.789,2.422,2.422,0,0,0-.257-.129l-.018-.009c-.053-.031-.061-.081-.014-.116a.234.234,0,0,1,.215-.018A2.9,2.9,0,0,1,238.956,364.435Z" transform="translate(-238.419 -364.272)" fill="url(#linear-gradient-15)"/>
          </g>
          <g id="Group_707" data-name="Group 707" transform="translate(5.748 2.741)">
            <path id="Path_304" data-name="Path 304" d="M233.576,365.988a.732.732,0,0,1,.412.537c0,.049-.061.091-.146.093a.229.229,0,0,1-.117-.026.081.081,0,0,1-.045-.059.568.568,0,0,0-.321-.419,1.7,1.7,0,0,0-1.106-.157.241.241,0,0,1-.155-.022.1.1,0,0,1-.038-.036c-.026-.047.018-.1.1-.112A2.177,2.177,0,0,1,233.576,365.988Z" transform="translate(-232.052 -365.749)" fill="url(#linear-gradient-16)"/>
          </g>
          <g id="Group_708" data-name="Group 708" transform="translate(4.33 3.019)">
            <path id="Path_305" data-name="Path 305" d="M228.278,366.727c.048.028.06.072.025.107a3.936,3.936,0,0,1-.841.644.239.239,0,0,1-.217,0c-.061-.035-.062-.091,0-.126a3.689,3.689,0,0,0,.791-.606.225.225,0,0,1,.211-.034A.176.176,0,0,1,228.278,366.727Z" transform="translate(-227.198 -366.701)" fill="url(#linear-gradient-17)"/>
          </g>
          <g id="Group_709" data-name="Group 709" transform="translate(3.037 2.968)">
            <path id="Path_306" data-name="Path 306" d="M224.408,366.553c.049.028.06.074.022.11a2.569,2.569,0,0,1-.477.351,3.858,3.858,0,0,1-.961.387.242.242,0,0,1-.172-.018.121.121,0,0,1-.032-.026c-.035-.045,0-.1.076-.119a3.509,3.509,0,0,0,.871-.351,2.3,2.3,0,0,0,.433-.319.227.227,0,0,1,.212-.029A.18.18,0,0,1,224.408,366.553Z" transform="translate(-222.773 -366.526)" fill="url(#linear-gradient-18)"/>
          </g>
          <g id="Group_710" data-name="Group 710" transform="translate(5.579 3.497)">
            <path id="Path_307" data-name="Path 307" d="M232.273,368.364c.048.028.06.072.025.108a3.084,3.084,0,0,1-.554.434.239.239,0,0,1-.218,0l0,0c-.059-.034-.061-.088,0-.124a2.859,2.859,0,0,0,.513-.4.226.226,0,0,1,.211-.033A.171.171,0,0,1,232.273,368.364Z" transform="translate(-231.477 -368.338)" fill="url(#linear-gradient-19)"/>
          </g>
          <g id="Group_711" data-name="Group 711" transform="translate(3.196 3.852)">
            <path id="Path_308" data-name="Path 308" d="M224.26,369.577l.016.011c.05.04.034.1-.035.124a4.152,4.152,0,0,1-.714.221.241.241,0,0,1-.163-.021.1.1,0,0,1-.036-.032c-.03-.046.01-.1.09-.115a3.761,3.761,0,0,0,.642-.2A.243.243,0,0,1,224.26,369.577Z" transform="translate(-223.319 -369.551)" fill="url(#linear-gradient-20)"/>
          </g>
          <g id="Group_712" data-name="Group 712" transform="translate(4.353 3.609)">
            <path id="Path_309" data-name="Path 309" d="M228.332,368.746c.053.03.061.079.018.115-.075.06-.154.118-.238.174a3.774,3.774,0,0,1-.588.313.244.244,0,0,1-.2-.008l-.015-.01c-.051-.04-.037-.1.032-.125a3.516,3.516,0,0,0,.54-.288c.077-.051.15-.105.218-.16a.233.233,0,0,1,.216-.021Z" transform="translate(-227.277 -368.72)" fill="url(#linear-gradient-21)"/>
          </g>
          <g id="Group_713" data-name="Group 713" transform="translate(5.638 3.088)">
            <path id="Path_310" data-name="Path 310" d="M232.89,367.072c.521.3.021.806-.564,1.146a.239.239,0,0,1-.218,0,.067.067,0,0,1,0-.126c.364-.212.952-.671.566-.894a.779.779,0,0,0-.707,0l-.018.012a.239.239,0,0,1-.217.007l-.007,0c-.058-.034-.061-.087-.006-.122l.031-.019A1.26,1.26,0,0,1,232.89,367.072Z" transform="translate(-231.677 -366.935)" fill="url(#linear-gradient-22)"/>
          </g>
          <g id="Group_714" data-name="Group 714" transform="translate(7.464 3.265)">
            <path id="Path_311" data-name="Path 311" d="M238.707,367.569a.088.088,0,0,1,.043.046c.125.384-.083.777-.557,1.053a.241.241,0,0,1-.218,0,.067.067,0,0,1,0-.126c.4-.234.579-.568.472-.894-.015-.048.039-.095.123-.1A.237.237,0,0,1,238.707,367.569Z" transform="translate(-237.929 -367.542)" fill="url(#linear-gradient-23)"/>
          </g>
          <g id="Group_715" data-name="Group 715" transform="translate(6.544 3.837)">
            <path id="Path_312" data-name="Path 312" d="M235.722,369.528c.045.026.059.067.029.1a2.237,2.237,0,0,1-.717.55.245.245,0,0,1-.212,0l-.006,0c-.056-.037-.051-.093.013-.126a2.006,2.006,0,0,0,.644-.493.213.213,0,0,1,.205-.041A.176.176,0,0,1,235.722,369.528Z" transform="translate(-234.778 -369.502)" fill="url(#linear-gradient-24)"/>
          </g>
          <g id="Group_716" data-name="Group 716" transform="translate(3.793 4.147)">
            <path id="Path_313" data-name="Path 313" d="M227.043,370.586l.008,0c.056.037.049.093-.015.126a7.109,7.109,0,0,1-1.46.527.242.242,0,0,1-.17-.019.119.119,0,0,1-.033-.028c-.033-.046,0-.1.081-.117a6.7,6.7,0,0,0,1.379-.5A.243.243,0,0,1,227.043,370.586Z" transform="translate(-225.36 -370.56)" fill="url(#linear-gradient-25)"/>
          </g>
          <g id="Group_717" data-name="Group 717" transform="translate(4.836 4.417)">
            <path id="Path_314" data-name="Path 314" d="M229.981,371.513l.015.01c.05.04.036.1-.033.125a4.707,4.707,0,0,1-.823.261.242.242,0,0,1-.164-.02.1.1,0,0,1-.035-.032c-.031-.046.008-.1.088-.115a4.335,4.335,0,0,0,.751-.237A.244.244,0,0,1,229.981,371.513Z" transform="translate(-228.931 -371.487)" fill="url(#linear-gradient-26)"/>
          </g>
          <g id="Group_718" data-name="Group 718" transform="translate(8.334 2.788)">
            <path id="Path_315" data-name="Path 315" d="M241.841,365.934a.113.113,0,0,1,.034.03c.5.706.221,1.511-.706,2.05a.241.241,0,0,1-.218,0,.067.067,0,0,1,0-.126c.84-.488,1.091-1.216.639-1.856-.032-.046.006-.1.085-.116A.242.242,0,0,1,241.841,365.934Z" transform="translate(-240.905 -365.908)" fill="url(#linear-gradient-27)"/>
          </g>
          <g id="Group_719" data-name="Group 719" transform="translate(4.217 4.527)">
            <path id="Path_316" data-name="Path 316" d="M229.818,371.888l.013.009c.051.039.039.1-.029.125a5.683,5.683,0,0,1-2.864.4.2.2,0,0,1-.081-.024c-.035-.02-.053-.05-.043-.08.015-.048.1-.081.179-.071a5.2,5.2,0,0,0,2.621-.369A.246.246,0,0,1,229.818,371.888Z" transform="translate(-226.812 -371.862)" fill="url(#linear-gradient-28)"/>
          </g>
          <g id="Group_720" data-name="Group 720" transform="translate(5.423 3.768)">
            <path id="Path_317" data-name="Path 317" d="M234.343,369.289c.036.021.053.051.042.082a2.146,2.146,0,0,1-1.231,1.053,6.221,6.221,0,0,1-2.044.47.228.228,0,0,1-.124-.026.083.083,0,0,1-.045-.054c-.009-.049.052-.093.137-.1,1.257-.072,2.724-.609,3-1.382.017-.048.1-.079.183-.069A.207.207,0,0,1,234.343,369.289Z" transform="translate(-230.941 -369.263)" fill="url(#linear-gradient-29)"/>
          </g>
          <g id="Group_721" data-name="Group 721" transform="translate(6.985 4.975)">
            <path id="Path_318" data-name="Path 318" d="M237.4,373.423l.013.009c.053.039.04.095-.027.125a4.354,4.354,0,0,1-.891.284.244.244,0,0,1-.162-.021.1.1,0,0,1-.036-.033c-.029-.046.012-.1.092-.115a3.9,3.9,0,0,0,.806-.257A.246.246,0,0,1,237.4,373.423Z" transform="translate(-236.287 -373.397)" fill="url(#linear-gradient-30)"/>
          </g>
          <g id="Group_722" data-name="Group 722" transform="translate(0 1.049)">
            <path id="Path_319" data-name="Path 319" d="M223.033,359.981c2.429,1.416,2.423,3.71-.015,5.112a9.745,9.745,0,0,1-8.8-.012c-2.451-1.429-2.445-3.722-.008-5.125l.338.2c-2.25,1.3-2.256,3.412-.013,4.72a9,9,0,0,0,8.149.023c2.25-1.3,2.256-3.412.013-4.72Z" transform="translate(-212.378 -359.956)" fill="url(#linear-gradient-31)"/>
          </g>
        </g>
        <g id="Group_724" data-name="Group 724" transform="translate(1.084 0.632)">
          <path id="Path_320" data-name="Path 320" d="M224.872,359.4c2.026,1.181,2.021,3.076.006,4.234a8.051,8.051,0,0,1-7.272-.01c-2.027-1.181-2.021-3.076-.007-4.235A8.051,8.051,0,0,1,224.872,359.4Zm-6.891,3.987a7.19,7.19,0,0,0,6.506.018c1.8-1.033,1.8-2.724.011-3.768a7.19,7.19,0,0,0-6.507-.019c-1.8,1.034-1.8,2.724-.01,3.769" transform="translate(-216.088 -358.53)" fill="url(#linear-gradient-32)"/>
        </g>
      </g>
    </g>
    <g id="Group_733" data-name="Group 733" transform="translate(47.88 80.797)">
      <g id="Group_730" data-name="Group 730" transform="translate(2.945 2.215)">
        <g id="Group_729" data-name="Group 729">
          <g id="Group_727" data-name="Group 727" transform="translate(7.353)">
            <path id="Path_321" data-name="Path 321" d="M299.448,315.279c1.618.934,1.626,2.449.019,3.383a6.438,6.438,0,0,1-5.84,0c-1.618-.934-1.627-2.449-.019-3.383A6.437,6.437,0,0,1,299.448,315.279Z" transform="translate(-292.408 -314.578)" fill="url(#linear-gradient-33)"/>
          </g>
          <g id="Group_728" data-name="Group 728" transform="translate(0 3.313)">
            <path id="Path_322" data-name="Path 322" d="M275.631,326.793c2.02,1.167,2.031,3.058.022,4.225l-1.1.638-7.317-4.224,1.1-.638A8.037,8.037,0,0,1,275.631,326.793Z" transform="translate(-267.238 -325.919)" fill="url(#linear-gradient-34)"/>
          </g>
        </g>
      </g>
      <g id="Group_732" data-name="Group 732" transform="translate(0)">
        <g id="Group_731" data-name="Group 731">
          <path id="Path_323" data-name="Path 323" d="M277.568,309.026c4.685,2.7,4.709,7.105.055,9.81s-12.252,2.705-16.937,0-4.71-7.106-.055-9.811S272.884,306.322,277.568,309.026Zm-16.634,9.667c4.547,2.625,11.922,2.625,16.44,0s4.493-6.9-.053-9.522-11.923-2.625-16.44,0-4.5,6.9.053,9.523" transform="translate(-257.157 -306.997)" fill="url(#linear-gradient-35)"/>
        </g>
      </g>
    </g>
    <g id="Group_776" data-name="Group 776" transform="translate(25.862 46.094)" opacity="0.75">
      <g id="Group_734" data-name="Group 734" transform="translate(2.148 1.401)">
        <path id="Path_324" data-name="Path 324" d="M229.392,244.881c13.119,7.574,13.188,19.9.158,27.471a42.614,42.614,0,0,1-13.641,4.8l-.152-.284a41.965,41.965,0,0,0,13.426-4.729c12.832-7.457,12.763-19.592-.152-27.049s-33.866-7.457-46.7,0-12.766,19.594.149,27.05l-.362.21c-13.119-7.574-13.188-19.9-.155-27.473S216.273,237.307,229.392,244.881Z" transform="translate(-172.236 -239.2)" fill="#fff"/>
      </g>
      <g id="Group_735" data-name="Group 735" transform="translate(7.105 4.213)">
        <path id="Path_325" data-name="Path 325" d="M233.442,251.11c11.217,6.476,11.276,17.013.132,23.49s-29.335,6.476-40.553,0c-4.8-2.769-7.762-6.44-8.353-10.336l2.2-.108c.547,3.6,3.285,6.984,7.712,9.539,10.351,5.977,27.141,5.978,37.428,0s10.226-15.7-.125-21.678-27.141-5.978-37.425,0l-1.567-.905C204.033,244.634,222.225,244.634,233.442,251.11Z" transform="translate(-184.668 -246.253)" fill="#fff"/>
      </g>
      <g id="Group_736" data-name="Group 736" transform="translate(0)">
        <path id="Path_326" data-name="Path 326" d="M227.847,241.784c-6.81-3.932-15.846-6.1-25.445-6.1s-18.61,2.166-25.377,6.1c14.005-8.036,36.723-8.035,50.731.053s14.082,21.244.165,29.332-36.635,8.09-50.642,0c-5.99-3.458-9.7-8.044-10.43-12.909.609,4.888,4.328,9.492,10.339,12.962,6.81,3.932,15.846,6.1,25.448,6.1s18.61-2.166,25.377-6.1,10.472-9.159,10.444-14.719S234.657,245.716,227.847,241.784Z" transform="translate(-166.849 -235.686)" fill="#fff"/>
      </g>
      <g id="Group_737" data-name="Group 737" transform="translate(17.831 10.483)">
        <path id="Path_327" data-name="Path 327" d="M241.985,265c6.981,4.03,7.017,10.588.082,14.618s-18.257,4.031-25.238,0-7.018-10.588-.082-14.618S235,260.971,241.985,265Zm-24.964,14.507c6.873,3.968,18.021,3.97,24.852,0s6.792-10.428-.081-14.4-18.024-3.968-24.852,0-6.792,10.427.081,14.4" transform="translate(-211.569 -261.978)" fill="#fff"/>
      </g>
      <g id="Group_738" data-name="Group 738" transform="translate(20.946 12.291)">
        <path id="Path_328" data-name="Path 328" d="M244.485,269.007l-1.557.905c-4.9-2.827-12.837-2.827-17.7,0s-4.841,7.429.055,10.255,12.837,2.826,17.7,0l1.567.905c-5.724,3.326-15.067,3.328-20.828,0s-5.792-8.741-.068-12.067S238.724,265.681,244.485,269.007Z" transform="translate(-219.383 -266.511)" fill="#fff"/>
      </g>
      <g id="Group_775" data-name="Group 775" transform="translate(10.457 6.217)">
        <g id="Group_739" data-name="Group 739" transform="translate(40.535 4.184)">
          <path id="Path_329" data-name="Path 329" d="M297.333,261.884l-2.4,1.4-.193-.112,2.4-1.4Z" transform="translate(-294.738 -261.773)" fill="#fff"/>
        </g>
        <g id="Group_740" data-name="Group 740" transform="translate(37.592 2.554)">
          <path id="Path_330" data-name="Path 330" d="M289.526,257.776l-1.945,1.617-.223-.091,1.945-1.617Z" transform="translate(-287.358 -257.685)" fill="#fff"/>
        </g>
        <g id="Group_741" data-name="Group 741" transform="translate(34.269 1.289)">
          <path id="Path_331" data-name="Path 331" d="M280.7,254.581l-1.428,1.787-.252-.066,1.431-1.789Z" transform="translate(-279.022 -254.513)" fill="#fff"/>
        </g>
        <g id="Group_742" data-name="Group 742" transform="translate(30.673 0.43)">
          <path id="Path_332" data-name="Path 332" d="M271.14,252.4l-.872,1.908-.265-.044.872-1.9Z" transform="translate(-270.003 -252.358)" fill="#fff"/>
        </g>
        <g id="Group_743" data-name="Group 743" transform="translate(26.909)">
          <path id="Path_333" data-name="Path 333" d="M261.124,251.293l-.286,1.967-.275-.015.29-1.965Z" transform="translate(-260.563 -251.28)" fill="#fff"/>
        </g>
        <g id="Group_744" data-name="Group 744" transform="translate(22.79 0)">
          <path id="Path_334" data-name="Path 334" d="M250.5,251.28l.305,1.965-.271.013-.305-1.965Z" transform="translate(-250.232 -251.28)" fill="#fff"/>
        </g>
        <g id="Group_745" data-name="Group 745" transform="translate(18.455 0.43)">
          <path id="Path_335" data-name="Path 335" d="M239.625,252.358l.89,1.906-.264.04-.89-1.906Z" transform="translate(-239.361 -252.358)" fill="#fff"/>
        </g>
        <g id="Group_746" data-name="Group 746" transform="translate(14.326 1.289)">
          <path id="Path_336" data-name="Path 336" d="M229.252,254.513,230.7,256.3l-.248.068L229,254.582Z" transform="translate(-229.004 -254.513)" fill="#fff"/>
        </g>
        <g id="Group_747" data-name="Group 747" transform="translate(10.529 2.554)">
          <path id="Path_337" data-name="Path 337" d="M219.7,257.685l1.964,1.617-.222.091-1.964-1.617Z" transform="translate(-219.481 -257.685)" fill="#fff"/>
        </g>
        <g id="Group_748" data-name="Group 748" transform="translate(7.175 4.186)">
          <path id="Path_338" data-name="Path 338" d="M213.678,263.173l-.192.112-2.417-1.4.192-.112Z" transform="translate(-211.07 -261.778)" fill="#fff"/>
        </g>
        <g id="Group_749" data-name="Group 749" transform="translate(4.372 6.132)">
          <path id="Path_339" data-name="Path 339" d="M206.993,267.791l-.159.131-2.794-1.134.156-.129Z" transform="translate(-204.04 -266.659)" fill="#fff"/>
        </g>
        <g id="Group_750" data-name="Group 750" transform="translate(2.201 8.337)">
          <path id="Path_340" data-name="Path 340" d="M201.8,273.023l-.114.142-3.09-.833.114-.142Z" transform="translate(-198.595 -272.19)" fill="#fff"/>
        </g>
        <g id="Group_751" data-name="Group 751" transform="translate(0.731 10.73)">
          <path id="Path_341" data-name="Path 341" d="M198.266,278.7l-.068.153-3.291-.511.068-.153Z" transform="translate(-194.908 -278.192)" fill="#fff"/>
        </g>
        <g id="Group_752" data-name="Group 752" transform="translate(0 13.242)">
          <path id="Path_342" data-name="Path 342" d="M196.49,284.665l-.022.157-3.393-.17.025-.159Z" transform="translate(-193.074 -284.493)" fill="#fff"/>
        </g>
        <g id="Group_753" data-name="Group 753" transform="translate(0.017 15.624)">
          <path id="Path_343" data-name="Path 343" d="M196.5,290.466l.027.159-3.392.17-.024-.157Z" transform="translate(-193.116 -290.466)" fill="#fff"/>
        </g>
        <g id="Group_754" data-name="Group 754" transform="translate(0.77 17.801)">
          <path id="Path_344" data-name="Path 344" d="M198.293,295.926l.073.155-3.288.509-.073-.151Z" transform="translate(-195.005 -295.926)" fill="#fff"/>
        </g>
        <g id="Group_755" data-name="Group 755" transform="translate(2.27 19.883)">
          <path id="Path_345" data-name="Path 345" d="M201.849,301.149l.118.144-3.084.835-.115-.146Z" transform="translate(-198.768 -301.149)" fill="#fff"/>
        </g>
        <g id="Group_756" data-name="Group 756" transform="translate(4.466 21.803)">
          <path id="Path_346" data-name="Path 346" d="M207.06,305.963l.154.131-2.781,1.13-.158-.129Z" transform="translate(-204.275 -305.963)" fill="#fff"/>
        </g>
        <g id="Group_757" data-name="Group 757" transform="translate(7.291 23.505)">
          <path id="Path_347" data-name="Path 347" d="M213.951,310.343l-2.4,1.393-.193-.112,2.4-1.393Z" transform="translate(-211.36 -310.232)" fill="#fff"/>
        </g>
        <g id="Group_758" data-name="Group 758" transform="translate(10.663 24.936)">
          <path id="Path_348" data-name="Path 348" d="M221.987,313.91l-1.945,1.617-.223-.091,1.942-1.615Z" transform="translate(-219.818 -313.821)" fill="#fff"/>
        </g>
        <g id="Group_759" data-name="Group 759" transform="translate(14.472 26.051)">
          <path id="Path_349" data-name="Path 349" d="M231.05,316.686l-1.428,1.787-.252-.066,1.431-1.789Z" transform="translate(-229.37 -316.618)" fill="#fff"/>
        </g>
        <g id="Group_760" data-name="Group 760" transform="translate(18.614 26.82)">
          <path id="Path_350" data-name="Path 350" d="M240.9,318.587l-.875,1.906-.262-.042.868-1.906Z" transform="translate(-239.76 -318.545)" fill="#fff"/>
        </g>
        <g id="Group_761" data-name="Group 761" transform="translate(22.954 27.217)">
          <path id="Path_351" data-name="Path 351" d="M251.2,319.557l-.286,1.963-.271-.013.283-1.965Z" transform="translate(-250.644 -319.542)" fill="#fff"/>
        </g>
        <g id="Group_762" data-name="Group 762" transform="translate(27.054 27.219)">
          <path id="Path_352" data-name="Path 352" d="M261.2,319.547l.308,1.963-.274.015-.305-1.965Z" transform="translate(-260.928 -319.547)" fill="#fff"/>
        </g>
        <g id="Group_763" data-name="Group 763" transform="translate(30.811 26.822)">
          <path id="Path_353" data-name="Path 353" d="M270.614,318.55l.893,1.9-.265.04-.893-1.9Z" transform="translate(-270.349 -318.55)" fill="#fff"/>
        </g>
        <g id="Group_764" data-name="Group 764" transform="translate(34.402 26.053)">
          <path id="Path_354" data-name="Path 354" d="M279.6,316.622l1.448,1.787-.245.066-1.448-1.787Z" transform="translate(-279.356 -316.622)" fill="#fff"/>
        </g>
        <g id="Group_765" data-name="Group 765" transform="translate(37.706 24.934)">
          <path id="Path_355" data-name="Path 355" d="M287.869,313.816l1.964,1.617-.222.091-1.967-1.615Z" transform="translate(-287.644 -313.816)" fill="#fff"/>
        </g>
        <g id="Group_766" data-name="Group 766" transform="translate(40.637 23.505)">
          <path id="Path_356" data-name="Path 356" d="M297.6,311.626l-.192.112-2.417-1.4.192-.112Z" transform="translate(-294.993 -310.231)" fill="#fff"/>
        </g>
        <g id="Group_767" data-name="Group 767" transform="translate(43.098 21.803)">
          <path id="Path_357" data-name="Path 357" d="M304.12,307.095l-.156.129-2.8-1.132.156-.129Z" transform="translate(-301.166 -305.963)" fill="#fff"/>
        </g>
        <g id="Group_768" data-name="Group 768" transform="translate(45.015 19.883)">
          <path id="Path_358" data-name="Path 358" d="M309.182,301.981l-.117.144-3.09-.833.117-.144Z" transform="translate(-305.976 -301.148)" fill="#fff"/>
        </g>
        <g id="Group_769" data-name="Group 769" transform="translate(46.331 17.803)">
          <path id="Path_359" data-name="Path 359" d="M312.636,296.439l-.068.153-3.294-.509.068-.153Z" transform="translate(-309.274 -295.93)" fill="#fff"/>
        </g>
        <g id="Group_770" data-name="Group 770" transform="translate(47.005 15.626)">
          <path id="Path_360" data-name="Path 360" d="M314.381,290.64l-.022.157-3.393-.17.022-.157Z" transform="translate(-310.965 -290.47)" fill="#fff"/>
        </g>
        <g id="Group_771" data-name="Group 771" transform="translate(46.988 13.242)">
          <path id="Path_361" data-name="Path 361" d="M314.318,284.492l.024.157-3.391.174-.027-.159Z" transform="translate(-310.924 -284.492)" fill="#fff"/>
        </g>
        <g id="Group_772" data-name="Group 772" transform="translate(46.29 10.73)">
          <path id="Path_362" data-name="Path 362" d="M312.463,278.191l.069.153-3.285.511-.076-.153Z" transform="translate(-309.172 -278.191)" fill="#fff"/>
        </g>
        <g id="Group_773" data-name="Group 773" transform="translate(44.954 8.335)">
          <path id="Path_363" data-name="Path 363" d="M308.9,272.185l.118.144-3.084.835-.115-.146Z" transform="translate(-305.822 -272.185)" fill="#fff"/>
        </g>
        <g id="Group_774" data-name="Group 774" transform="translate(43.015 6.132)">
          <path id="Path_364" data-name="Path 364" d="M303.744,266.658l.158.129-2.785,1.132-.158-.129Z" transform="translate(-300.959 -266.658)" fill="#fff"/>
        </g>
      </g>
    </g>
    <g id="Group_818" data-name="Group 818" transform="translate(34.799)">
      <g id="Group_817" data-name="Group 817">
        <path id="Path_365" data-name="Path 365" d="M202.983,111.147H203a1.6,1.6,0,0,1,.349.039l.013,0a1.173,1.173,0,0,1,.311.119l.175-61.682a1.028,1.028,0,0,0-.138-.066c-.038-.015-.077-.028-.117-.04l-.057-.014-.013,0-.03-.007c-.032-.006-.064-.012-.1-.017s-.063-.008-.094-.01-.064,0-.1-.005h-.1c-.036,0-.071,0-.107.007s-.082.01-.123.017c-.018,0-.034.009-.051.013l-.046.012c-.029.007-.058.012-.085.021a1.082,1.082,0,0,0-.21.092l-.012.007c-.019.011-.032.024-.049.036a.727.727,0,0,0-.066.049l-.006,0a.552.552,0,0,0-.06.064l-.011.015-.011.016c-.006.009-.012.017-.017.026a.389.389,0,0,0-.026.055l0,.009,0,.011c0,.012-.008.023-.01.035a.349.349,0,0,0-.006.056v.009l-.175,61.682a.348.348,0,0,1,.016-.1s0-.007,0-.011a.388.388,0,0,1,.046-.089l.01-.016a.546.546,0,0,1,.077-.084.7.7,0,0,1,.065-.048.687.687,0,0,1,.061-.043,1.147,1.147,0,0,1,.295-.113l.046-.012A1.6,1.6,0,0,1,202.983,111.147Z" transform="translate(-201.199 -48.986)" fill="url(#linear-gradient-36)"/>
        <g id="Group_777" data-name="Group 777" transform="translate(2.471 0.641)">
          <path id="Path_366" data-name="Path 366" d="M240.627,72.8l-.155,54.676a1.9,1.9,0,0,1-2.848,1.639l-30-17.318a.407.407,0,0,1-.2-.353L207.6,50l29.808,17.21A6.438,6.438,0,0,1,240.627,72.8Z" transform="translate(-207.425 -49.999)" fill="url(#linear-gradient-37)"/>
        </g>
        <path id="Path_367" data-name="Path 367" d="M205.639,52.158l-1.173.682,28.607,16.529a7.1,7.1,0,0,1,3.55,6.17L234.9,130.581l.948.033a1.731,1.731,0,0,0,1.795-1.781l.159-54.411a6.35,6.35,0,0,0-3.172-5.516Z" transform="translate(-202.894 -50.861)" fill="url(#linear-gradient-38)"/>
        <path id="Path_368" data-name="Path 368" d="M235.951,71.5a7.313,7.313,0,0,0-3.656-6.354L202.926,48.19a2.825,2.825,0,0,0-2.365-.081h-.012c-.85.392-.9,1.118-.152,1.551l29,16.742a8.052,8.052,0,0,1,4.026,7l-1.5,52.443-3.521,1.771,1.93.921c1.434.648,3.52-.868,3.525-2.442l.154-53.788a6.751,6.751,0,0,0-3.375-5.866L200.985,49.318a.417.417,0,0,1,0-.788c.027-.016.063-.022.093-.036a1.505,1.505,0,0,1,1.267.036l29.441,17a7.169,7.169,0,0,1,3.585,6.229l-.16,54.332a1.885,1.885,0,0,1-1.262,1.7,1.494,1.494,0,0,0,1.85-1.446l0-1.226Z" transform="translate(-199.695 -47.889)" fill="url(#linear-gradient-39)"/>
        <path id="Path_369" data-name="Path 369" d="M200,52.023a.894.894,0,0,1-.527-.738l-.175,61.682a.894.894,0,0,0,.527.738l29.232,16.877a2.546,2.546,0,0,0,3.819-2.2l.151-53.176a7.1,7.1,0,0,0-3.549-6.167Z" transform="translate(-199.294 -50.253)" fill="url(#linear-gradient-40)"/>
        <path id="Path_370" data-name="Path 370" d="M231.187,114.287a7.089,7.089,0,0,1,.571,2.805l-.151,53.176a2.545,2.545,0,0,1-3.818,2.2L199.3,156.015l0,.808a.894.894,0,0,0,.527.738l29.232,16.877a2.546,2.546,0,0,0,3.819-2.2l.15-53.176A7.1,7.1,0,0,0,231.187,114.287Z" transform="translate(-199.294 -94.108)" opacity="0.6" fill="url(#linear-gradient-41)"/>
        <g id="Group_816" data-name="Group 816" transform="translate(6.068 16.189)">
          <g id="Group_778" data-name="Group 778" transform="translate(0.014)">
            <path id="Path_371" data-name="Path 371" d="M223.181,103.388v.089l-.473-.273-.011,3.856.473.273v.093l-1.469-.848v-.093l.473.273.005-1.893-1.871-1.08-.005,1.893.473.273v.093l-1.469-.848V105.1l.473.273.011-3.856-.473-.273v-.089l1.469.848v.089l-.473-.273-.005,1.87,1.871,1.08.005-1.871-.473-.273v-.089Z" transform="translate(-219.308 -101.158)" fill="#fff"/>
          </g>
          <g id="Group_779" data-name="Group 779" transform="translate(0 5.663)">
            <path id="Path_372" data-name="Path 372" d="M220.358,120.421a1.848,1.848,0,0,1,1.126,1.591c0,.6-.385.774-.976.433a1.347,1.347,0,0,1-.162-.1v-.074a1.379,1.379,0,0,0,.13.086c.409.236.552-.062.554-.587a1.282,1.282,0,0,0-.678-1.272l-.272-.157-.009,3.134.425.245v.074l-1.232-.711V123l.386.223.009-3.134-.386-.223v-.075Z" transform="translate(-219.262 -119.794)" fill="#fff"/>
          </g>
          <g id="Group_780" data-name="Group 780" transform="translate(2.088 7.628)">
            <path id="Path_373" data-name="Path 373" d="M228.689,130.182l.211.122v.074l-.963-.556v-.074l.3.174-.392-1.35-1-.575-.278.672c-.062.143.035.311.233.425l.13.075v.074l-.8-.463v-.074l.088.05c.133.077.208.045.283-.128l.984-2.373.065.037Zm-1.816-2.246.947.547-.486-1.654-.461,1.107" transform="translate(-226.133 -126.257)" fill="#fff"/>
          </g>
          <g id="Group_781" data-name="Group 781" transform="translate(4.249 2.445)">
            <path id="Path_374" data-name="Path 374" d="M235.929,110.748a5.949,5.949,0,0,0-.156,1.052l-.081-.047,0-.659c0-.376-.051-.421-.239-.53l-1.206-.7-.005,1.908.853.492,0-.537.078.045,0,1.222-.078-.045,0-.593-.853-.492-.005,1.856,1.177.68c.3.171.325-.137.438-.867l.084.049a8.308,8.308,0,0,0-.081,1.166l-2.614-1.509v-.093l.473.273.011-3.857-.473-.273V109.2Z" transform="translate(-233.243 -109.204)" fill="#fff"/>
          </g>
          <g id="Group_784" data-name="Group 784" transform="translate(7.079 5.01)" style="isolation: isolate">
            <g id="Group_782" data-name="Group 782" transform="translate(0.362 5.28)">
              <path id="Path_375" data-name="Path 375" d="M244.66,135.174a1.691,1.691,0,0,1,.615.609c.117.064.15.008.2-.107l.055.032a4.965,4.965,0,0,0-.083.65v.291l-.065-.038v-.279a1.34,1.34,0,0,0-.718-1.083c-.441-.255-.679-.127-.68.276,0,.842,1.636,1.374,1.633,2.611,0,.484-.281.782-.91.418a2.046,2.046,0,0,1-.742-.745c-.091-.034-.137.1-.157.193l-.055-.032c0-.016.03-.326.031-.632v-.4l.065.037v.257a1.67,1.67,0,0,0,.857,1.252c.4.229.7.175.7-.216,0-.849-1.636-1.407-1.633-2.637C243.77,135.075,244.07,134.834,244.66,135.174Z" transform="translate(-243.749 -135.017)" fill="#fff"/>
            </g>
            <g id="Group_783" data-name="Group 783">
              <path id="Path_376" data-name="Path 376" d="M245.7,122.475l.26.15v.093l-1.187-.685v-.093l.373.215-.486-1.661-1.222-.706-.343.821c-.075.181.041.386.288.528l.159.092v.093l-.986-.569v-.093l.107.062c.165.1.256.058.348-.161l1.214-2.916.078.045Zm-2.236-2.766,1.164.672-.6-2.034-.569,1.362" transform="translate(-242.557 -117.644)" fill="#fff"/>
            </g>
          </g>
          <g id="Group_785" data-name="Group 785" transform="translate(13.135 7.588)">
            <path id="Path_377" data-name="Path 377" d="M265.432,127.809v.384c0,.209.019.742.021.769l-.081-.047-.034-.5c-.031-.466-.112-.635-.361-.78l-.739-.427-.011,3.857.473.273v.093l-1.466-.846v-.093l.47.271.011-3.857-.739-.427c-.249-.144-.318-.06-.362.362l-.05.453-.078-.045c0-.026.031-.531.031-.739v-.384Z" transform="translate(-262.484 -126.126)" fill="#fff"/>
          </g>
          <g id="Group_786" data-name="Group 786" transform="translate(9.689 11.257)">
            <path id="Path_378" data-name="Path 378" d="M252.24,138.828a1.848,1.848,0,0,1,1.126,1.59c0,.6-.385.774-.976.433a1.461,1.461,0,0,1-.162-.1v-.074a1.343,1.343,0,0,0,.13.086c.408.236.552-.062.554-.587a1.282,1.282,0,0,0-.678-1.272l-.272-.157-.009,3.134.425.245v.074l-1.232-.711v-.074l.386.223.009-3.134-.386-.223V138.2Z" transform="translate(-251.144 -138.201)" fill="#fff"/>
          </g>
          <g id="Group_787" data-name="Group 787" transform="translate(10.591 6.107)">
            <path id="Path_379" data-name="Path 379" d="M255.593,122.1v.089l-.473-.273-.011,3.856,1.138.657c.3.172.325-.137.441-.865l.084.049a7.651,7.651,0,0,0-.084,1.164l-2.575-1.486V125.2l.473.273.011-3.856-.473-.274v-.089Z" transform="translate(-254.113 -121.253)" fill="#fff"/>
          </g>
          <g id="Group_788" data-name="Group 788" transform="translate(12.275 13.25)">
            <path id="Path_380" data-name="Path 380" d="M260.955,144.97a2.608,2.608,0,0,1,1.3,2.383c0,.95-.368,1.508-1.3.967a2.634,2.634,0,0,1-1.292-2.467C259.655,144.985,260.021,144.431,260.955,144.97Zm-.006,3.288c.707.408.839-.27.841-1.115,0-.924-.112-1.692-.832-2.108s-.839.262-.841,1.141c0,.913.112,1.666.832,2.081" transform="translate(-259.653 -144.757)" fill="#fff"/>
          </g>
          <g id="Group_789" data-name="Group 789" transform="translate(4.565 14.518)">
            <path id="Path_381" data-name="Path 381" d="M235.11,149.049a1.094,1.094,0,0,1,.415.43c.081.043.1-.011.13-.093l.036.021a2.921,2.921,0,0,0-.053.4v.2l-.039-.023v-.116a.955.955,0,0,0-.488-.771c-.451-.26-.543.187-.544.675a1.39,1.39,0,0,0,.516,1.28.511.511,0,0,0,.318.086c.146-.027.222-.178.222-.353l.042.024c0,.227-.131.547-.582.287a1.783,1.783,0,0,1-.8-1.5C234.285,148.991,234.624,148.769,235.11,149.049Z" transform="translate(-234.284 -148.929)" fill="#fff"/>
          </g>
          <g id="Group_790" data-name="Group 790" transform="translate(7.817 16.061)">
            <path id="Path_382" data-name="Path 382" d="M246.7,155v.045l-.052-.03c-.081-.047-.133-.029-.173.083l-.559,1.483-.039-.022-.708-2.4-.185-.107v-.045l.671.387v.045l-.2-.118.553,1.887.429-1.137c.033-.093-.022-.2-.146-.267l-.078-.045v-.045Z" transform="translate(-244.984 -154.006)" fill="#fff"/>
          </g>
          <g id="Group_791" data-name="Group 791" transform="translate(6.216 15.444)">
            <path id="Path_383" data-name="Path 383" d="M240.512,152.106a1.608,1.608,0,0,1,.8,1.468c0,.581-.227.925-.8.592a1.617,1.617,0,0,1-.791-1.513C239.716,152.117,239.938,151.775,240.512,152.106Zm0,2.021c.431.249.514-.166.515-.684,0-.57-.068-1.04-.509-1.294s-.517.16-.518.7c0,.559.068,1.021.513,1.278" transform="translate(-239.715 -151.976)" fill="#fff"/>
          </g>
          <g id="Group_792" data-name="Group 792" transform="translate(9.601 17.094)">
            <path id="Path_384" data-name="Path 384" d="M251.594,157.83v.045l-.237-.137-.005,1.926.237.137v.045l-.733-.423v-.045l.237.137.005-1.926-.237-.137v-.045Z" transform="translate(-250.855 -157.407)" fill="#fff"/>
          </g>
          <g id="Group_793" data-name="Group 793" transform="translate(10.519 17.624)">
            <path id="Path_385" data-name="Path 385" d="M254.646,159.592a1.638,1.638,0,0,1,.879,1.485c0,.577-.246.9-.885.53l-.765-.442v-.045l.237.137.005-1.926-.237-.137v-.045Zm0,1.973c.4.23.6.013.6-.617a1.362,1.362,0,0,0-.594-1.31l-.272-.157-.005,1.926.272.157" transform="translate(-253.875 -159.15)" fill="#fff"/>
          </g>
          <g id="Group_794" data-name="Group 794" transform="translate(12.496 19.67)">
            <path id="Path_386" data-name="Path 386" d="M261.053,166.269v.224l-.671-.388v-.224Z" transform="translate(-260.381 -165.881)" fill="#fff"/>
          </g>
          <g id="Group_795" data-name="Group 795" transform="translate(13.446 19.404)">
            <path id="Path_387" data-name="Path 387" d="M264.1,165.232l-.006,2,.3.174v.045l-.872-.5V166.9l.308.178.005-1.874a1.968,1.968,0,0,1-.334-.152v-.045A2.112,2.112,0,0,0,264.1,165.232Z" transform="translate(-263.506 -165.007)" fill="#fff"/>
          </g>
          <g id="Group_796" data-name="Group 796" transform="translate(7.337 46.501)">
            <path id="Path_388" data-name="Path 388" d="M248.818,257.294l0,1.211c0,.309-.222.435-.491.28l-4.43-2.557a1.081,1.081,0,0,1-.488-.845l0-1.211,1.806,1.043a2.035,2.035,0,0,0,.9,1.376c.444.257.818.1.9-.34Z" transform="translate(-243.406 -254.171)" fill="#fff"/>
          </g>
          <g id="Group_797" data-name="Group 797" transform="translate(7.342 44.564)">
            <path id="Path_389" data-name="Path 389" d="M248.345,250.42a1.08,1.08,0,0,1,.488.845l0,1.211-1.809-1.045a2.034,2.034,0,0,0-.893-1.374c-.447-.258-.821-.1-.9.339l-1.806-1.043,0-1.211c0-.309.222-.435.491-.28Z" transform="translate(-243.421 -247.796)" fill="#fff"/>
          </g>
          <g id="Group_798" data-name="Group 798" transform="translate(14.908 40.897)">
            <path id="Path_390" data-name="Path 390" d="M269.756,237.664l.123.208-.241.141-.126-.214a21.346,21.346,0,0,0-1.2-1.794q.075-.134.147-.276A22.082,22.082,0,0,1,269.756,237.664Z" transform="translate(-268.316 -235.731)" fill="#fff"/>
          </g>
          <g id="Group_799" data-name="Group 799" transform="translate(10.246 36.417)">
            <path id="Path_391" data-name="Path 391" d="M252.977,221.381v-.391A16.962,16.962,0,0,1,257.5,225.1q-.07.143-.144.277A16.35,16.35,0,0,0,252.977,221.381Z" transform="translate(-252.977 -220.99)" fill="#fff"/>
          </g>
          <g id="Group_800" data-name="Group 800" transform="translate(10.271 27.762)">
            <path id="Path_392" data-name="Path 392" d="M253.059,192.508a7.323,7.323,0,0,0,4.385,1.068c.049.146.1.294.143.442a7.645,7.645,0,0,1-4.529-1.119Z" transform="translate(-253.058 -192.508)" fill="#fff"/>
          </g>
          <g id="Group_803" data-name="Group 803" transform="translate(5.378 21.825)" style="isolation: isolate">
            <g id="Group_801" data-name="Group 801" transform="translate(0 13.242)">
              <path id="Path_393" data-name="Path 393" d="M237.1,217.027q-.073-.22-.143-.443a7.638,7.638,0,0,1,4.529,1.118v.391A7.316,7.316,0,0,0,237.1,217.027Z" transform="translate(-236.959 -216.548)" fill="#fff"/>
            </g>
            <g id="Group_802" data-name="Group 802" transform="translate(4.511)">
              <path id="Path_394" data-name="Path 394" d="M252.2,173.171v.2l-.016,5.538v.391l-.023,8.265v.391l-.016,5.542v.2l-.34-.2v-.2l.016-5.541v-.391l.023-8.265v-.391l.016-5.538v-.2Z" transform="translate(-251.803 -172.975)" fill="#fff"/>
            </g>
          </g>
          <g id="Group_804" data-name="Group 804" transform="translate(3.669 35.145)">
            <path id="Path_395" data-name="Path 395" d="M231.459,217.24a4.541,4.541,0,0,1,1.3-.436q.071.224.145.445a4.381,4.381,0,0,0-1.2.408c-.043.022-.085.044-.127.067l-.239-.418C231.376,217.284,231.417,217.262,231.459,217.24Z" transform="translate(-231.335 -216.804)" fill="#fff"/>
          </g>
          <g id="Group_805" data-name="Group 805" transform="translate(14.942 28.31)">
            <path id="Path_396" data-name="Path 396" d="M269.76,194.311l.239.418-.126.067a4.546,4.546,0,0,1-1.3.435q-.07-.224-.145-.444a4.383,4.383,0,0,0,1.2-.407Z" transform="translate(-268.429 -194.311)" fill="#fff"/>
          </g>
          <g id="Group_806" data-name="Group 806" transform="translate(5.411 23.574)">
            <path id="Path_397" data-name="Path 397" d="M237.068,179.007q.07-.143.145-.277a16.358,16.358,0,0,0,4.375,3.991v.391A16.952,16.952,0,0,1,237.068,179.007Z" transform="translate(-237.068 -178.73)" fill="#fff"/>
          </g>
          <g id="Group_807" data-name="Group 807" transform="translate(3.71 21.195)">
            <path id="Path_398" data-name="Path 398" d="M231.71,170.9l.128.217a21.439,21.439,0,0,0,1.194,1.789q-.076.134-.147.277a22.017,22.017,0,0,1-1.291-1.93c-.042-.07-.083-.14-.124-.211Z" transform="translate(-231.469 -170.902)" fill="#fff"/>
          </g>
          <g id="Group_808" data-name="Group 808" transform="translate(4.085 21.167)">
            <path id="Path_399" data-name="Path 399" d="M243.705,178.871a21.577,21.577,0,0,1,1.006,6.425,11.954,11.954,0,0,1-1.038,5.242q-.072.142-.147.276a3.559,3.559,0,0,1-2.683,2.022,3.621,3.621,0,0,1-2.164-.547,7.917,7.917,0,0,1-2.161-1.95,17.079,17.079,0,0,1-2.664-5.108q-.074-.221-.145-.445a21.561,21.561,0,0,1-1.006-6.423,11.939,11.939,0,0,1,1.04-5.244q.072-.142.147-.277a3.567,3.567,0,0,1,2.675-2.02,3.614,3.614,0,0,1,2.173.546,7.931,7.931,0,0,1,2.168,1.96,17.085,17.085,0,0,1,2.654,5.1Q243.635,178.648,243.705,178.871Zm-.318,11.294a11.767,11.767,0,0,0,.983-5.066,21.035,21.035,0,0,0-.953-6.187c-.046-.148-.094-.3-.143-.442-.994-2.978-2.576-5.476-4.369-6.606v-.2l-.34-.2v.2c-1.792-.939-3.383-.273-4.391,1.547q-.075.134-.145.277a11.752,11.752,0,0,0-.986,5.068,21.035,21.035,0,0,0,.953,6.184q.069.223.143.443c.995,2.977,2.577,5.477,4.369,6.607v.2l.341.2v-.2c1.795.942,3.386.274,4.394-1.549q.074-.134.144-.277" transform="translate(-232.704 -170.809)" fill="#fff"/>
          </g>
          <g id="Group_809" data-name="Group 809" transform="translate(14.515 20.147)">
            <path id="Path_400" data-name="Path 400" d="M267.608,167.549a1.448,1.448,0,0,1,.594,1.335c0,.514-.133.995-.661.69a.813.813,0,0,1-.45-.57c0-.078.039-.194.208-.1a.518.518,0,0,1,.1.078v.026a.13.13,0,0,0-.023-.017c-.067-.039-.094.049-.094.136a.47.47,0,0,0,.259.4c.363.21.387-.269.386-.83-.078.123-.2.163-.39.051a1.058,1.058,0,0,1-.517-.9C267.023,167.4,267.319,167.382,267.608,167.549Zm-.055,1.166c.217.125.37.008.374-.184-.005-.466-.053-.788-.319-.942-.227-.131-.309.035-.31.433,0,.373.063.581.255.692" transform="translate(-267.022 -167.453)" fill="#fff"/>
          </g>
          <g id="Group_810" data-name="Group 810" transform="translate(0.988 20.483)">
            <path id="Path_401" data-name="Path 401" d="M231.646,169.8c5.02,2.9,9.089,9.95,9.072,15.718s-4.112,8.1-9.132,5.2-9.089-9.946-9.072-15.714,4.112-8.106,9.132-5.208a3.614,3.614,0,0,0-2.173-.546,5.227,5.227,0,0,0-3.869.231l-.128-.217-.241.141c.041.071.083.141.124.211-1.542.927-2.5,2.857-2.505,5.584a17.66,17.66,0,0,0,2.464,8.451l-.124.066.239.418c.042-.023.084-.046.127-.067a19.572,19.572,0,0,0,3.865,4.7,7.911,7.911,0,0,0,2.161,1.95,3.618,3.618,0,0,0,2.164.547,5.228,5.228,0,0,0,3.88-.229l.126.214.241-.141-.123-.208c1.542-.927,2.5-2.856,2.5-5.582a17.664,17.664,0,0,0-2.466-8.454l.126-.067-.239-.418-.129.069a19.566,19.566,0,0,0-3.856-4.69A7.927,7.927,0,0,0,231.646,169.8Z" transform="translate(-222.514 -168.557)" fill="#fff"/>
          </g>
          <g id="Group_811" data-name="Group 811" transform="translate(15.221 14.451)">
            <path id="Path_402" data-name="Path 402" d="M271.818,153.01l.065.037c-.007.3-.137.357-.361.228a1.348,1.348,0,0,1-.556-1.153c-.015-.3-.056-.827-.426-1.041l-.383-.221,0,1.524.379.219v.074l-1.187-.685v-.074l.383.221.009-3.134-.383-.221v-.074l1.151.665a1.684,1.684,0,0,1,1.022,1.426c0,.391-.213.564-.771.361v.011a1.764,1.764,0,0,1,.688,1.3c.012.41.018.656.186.753C271.743,153.291,271.818,153.193,271.818,153.01ZM270.535,151c.405.234.535.059.537-.436a1.135,1.135,0,0,0-.555-1.112l-.353-.2,0,1.535.376.217" transform="translate(-269.346 -148.711)" fill="#fff"/>
          </g>
          <g id="Group_812" data-name="Group 812" transform="translate(16.431 9.479)">
            <path id="Path_403" data-name="Path 403" d="M277.2,134.576v.089l-.473-.273-.011,3.856.473.273v.093l-1.466-.846v-.093l.47.271.005-1.893-1.871-1.08-.005,1.893.473.273v.093l-1.466-.846v-.093l.473.273.011-3.856-.473-.273v-.089l1.466.846v.089l-.473-.273-.005,1.87,1.871,1.08.005-1.87-.47-.271v-.089Z" transform="translate(-273.33 -132.348)" fill="#fff"/>
          </g>
          <g id="Group_813" data-name="Group 813" transform="translate(5.068 8.92)">
            <path id="Path_404" data-name="Path 404" d="M236.85,130.665a1.692,1.692,0,0,1,.615.609c.117.064.15.008.2-.107l.055.032a4.91,4.91,0,0,0-.083.65v.291l-.065-.037v-.279a1.34,1.34,0,0,0-.718-1.083c-.441-.255-.679-.127-.68.276,0,.842,1.637,1.374,1.633,2.611,0,.484-.281.782-.911.418a2.047,2.047,0,0,1-.742-.745c-.091-.034-.136.1-.157.193l-.055-.032c0-.016.03-.326.031-.632v-.4l.065.038v.257a1.669,1.669,0,0,0,.857,1.252c.4.228.7.175.7-.216,0-.849-1.636-1.407-1.633-2.637C235.96,130.566,236.26,130.325,236.85,130.665Z" transform="translate(-235.939 -130.508)" fill="#fff"/>
          </g>
          <g id="Group_814" data-name="Group 814" transform="translate(17.874 15.994)">
            <path id="Path_405" data-name="Path 405" d="M280.471,155.154v.313c0,.171.014.6.015.624l-.065-.037-.028-.408c-.025-.376-.089-.514-.294-.632l-.6-.346-.009,3.134.386.223v.074l-1.193-.689v-.074l.383.221.009-3.134-.6-.346c-.2-.116-.26-.049-.293.294l-.04.369-.065-.038c0-.021.027-.428.028-.6v-.313Z" transform="translate(-278.075 -153.787)" fill="#fff"/>
          </g>
          <g id="Group_815" data-name="Group 815" transform="translate(9.462 47.123)">
            <path id="Path_406" data-name="Path 406" d="M250.983,256.295a1.278,1.278,0,0,1,.579,1.006c0,.369-.261.521-.582.336a1.286,1.286,0,0,1-.582-1.007C250.4,256.26,250.662,256.11,250.983,256.295Z" transform="translate(-250.398 -256.215)" fill="#fff"/>
          </g>
        </g>
      </g>
      <path id="Path_407" data-name="Path 407" d="M200,52.2a.894.894,0,0,1-.527-.738l-.175,61.682a.9.9,0,0,0,.527.738l29.232,16.877a2.546,2.546,0,0,0,3.819-2.2l.151-53.176a7.1,7.1,0,0,0-3.549-6.168Z" transform="translate(-199.294 -50.373)" fill="url(#linear-gradient-42)"/>
    </g>
  </g>
</svg>
