<svg xmlns="http://www.w3.org/2000/svg" width="21.997" height="20.305" viewBox="0 0 21.997 20.305">
  <path id="icons_logout_rounded_left" d="M11.845,1A10.146,10.146,0,0,0,2.956,6.275a2.086,2.086,0,0,1,.843-.2,2.127,2.127,0,0,1,1.008.254c.025.014.044.035.069.05a8.463,8.463,0,1,1,0,9.543c-.026.015-.047.038-.074.053a2.125,2.125,0,0,1-1,.253,2.093,2.093,0,0,1-.841-.2A10.146,10.146,0,1,0,11.845,1ZM3.777,7.768a.429.429,0,0,0-.218.073A23.21,23.21,0,0,0,.093,10.883.433.433,0,0,0,0,11.153a.439.439,0,0,0,.093.269,23.312,23.312,0,0,0,3.467,3.042A.428.428,0,0,0,4,14.486.434.434,0,0,0,4.23,14.1V12.633s7.926-.249,8.08-.359a1.576,1.576,0,0,0,.38-1.12,1.413,1.413,0,0,0-.38-1.058c-.153-.11-8.08-.425-8.08-.425V8.2a.433.433,0,0,0-.453-.433Z" transform="translate(0 -1)" fill="#b0b0b0"/>
</svg>
