<svg xmlns="http://www.w3.org/2000/svg" viewBox="0 0 421.78 515.79"><defs><style>.cls-1,.cls-3{fill:#a5a5a5;}.cls-2{fill:#accd00;}.cls-3{font-size:28.48px;font-family:Montserrat-Regular, Montserrat;letter-spacing:-0.05em;}.cls-4{letter-spacing:-0.06em;}.cls-5{letter-spacing:-0.07em;}.cls-6{letter-spacing:-0.05em;}.cls-7{letter-spacing:-0.07em;}.cls-8{fill:#b1b1b1;}</style></defs><g id="Layer_2" data-name="Layer 2"><g id="Layer_1-2" data-name="Layer 1"><path id="SmokeBK" class="cls-1" d="M373.15,344.71c0,1-67.37,20.25-104.93,25.72-63.74,9.29-120.61,13.82-181.78-9.54C-14.33,323.92-27.12,233.16,69.17,179c-6,23-4.3,44.22-22.46,62.5-24.83,25-21.39,58.16,3.79,84.25C118.67,390,253.35,368.13,294,362.14,317,358.76,373.15,344.71,373.15,344.71Z"/><g id="Plane"><path class="cls-1" d="M293.87,344.53l-60.71-46.2c9.38-5.67,17.36-4.7,25.55-1.47,42.06,13.67,81.47,42.71,127.84,25.31,8.24-3.17,18.71-.72,28.14-.53,3.14.07,6.79,1.17,7.07,4.89.26,3.41-2.6,5.51-5.66,6.79-89.4,25.59-172.94,52.46-195.65,52.26-13.82-.12-4.2-1.47-2.56-6.59S214,371.51,211,368.87c-6.2-5.32-13.06-9.88-21.11-15.84,10.49-5.67,16.45-9.54,22.28-4.68C239,370.67,264,355,293.87,344.53Z"/><path class="cls-1" d="M313.17,368c-9.12,12.79-14,23.55-28,24.28-7.17.38-12.91-2.95-13.54-8.44-.58-5.07,5.63-6.19,9.73-7.41C290.48,373.71,299.77,371.49,313.17,368Z"/></g><path id="Lication" class="cls-2" d="M421.78,121.89c.21,32.09-10.9,60-32.92,83-26,27.11-53.19,53.06-79.37,80-6.64,6.82-10.74,8.12-17.93.55q-27.6-29.09-56.77-56.66c-7.61-7.17-5.12-10.77-.27-18.66,6.19-10.08,12.17-19.91,18.58-30.88,2.38-4.07,7-16.93,21.36-7.94,24.21,15.18,56.4,5.71,72.52-17.74C363.62,129.3,359,97,336.13,77.91,302.62,48,247,74,244,119.57c-2.72,40.47-17.43,71.94-46.46,98.88-22.85,21.2-44.61,43.63-66.12,66.21-7.68,8-12,7.2-19.38-.39-25.64-26.56-52.45-52-78-78.62a121.3,121.3,0,0,1-9.34-157.5C60.06,1,126.74-13.68,178.92,13.78c11.28,5.94,11.92,7.11,5.62,22.84-.73,1.84-2.3,5.84-3.32,8.13-9.91,22.13-18,37.37-51.34,22.71-28.42-12.51-60.2,15.25-64.11,46-8.38,76.65,105,89.34,112,12.63C182-38.73,415.45-42.31,421.78,121.89Z"/><text class="cls-3" transform="translate(217.12 508.33)">i<tspan class="cls-4" x="6.24" y="0">n</tspan><tspan class="cls-5" x="23.81" y="0">v</tspan><tspan class="cls-6" x="37.39" y="0">ent </tspan><tspan class="cls-5" x="87.21" y="0">y</tspan><tspan class="cls-6" x="100.79" y="0">our </tspan><tspan class="cls-7" x="151" y="0">w</tspan><tspan class="cls-4" x="174.15" y="0">a</tspan><tspan x="189.25" y="0">y</tspan></text><path class="cls-8" d="M37.89,462.55c-.93,22.79-33.4,22.74-34.41.07V434.54h8.87v28c.42,10.95,16.14,11,16.67.07H29V434.54h8.87v28Z"/><path class="cls-8" d="M77.12,434.54v8.88H64.83V479H56V443.42H43.6v-8.88Z"/><path class="cls-8" d="M117,434.54v8.88H104.69V479H95.82V443.42H83.46v-8.88Z"/><path class="cls-8" d="M152.6,443.42H123v-8.88H152.6ZM123,451.65h24.52v8.88H123Zm0,18.44h29.4V479H123Z"/><path class="cls-8" d="M169.08,443.35V478.9h-8.87V434.48h17.36c14.33.2,18.37,19.53,5.51,25.48l8.81,19h-9.44l-8.3-17.81v-8.87h3.42c5.9-.15,5.84-8.76,0-8.94Z"/><path class="cls-2" d="M236.64,479l-20.09-44.43h9.82L238,459.76l11.53-25.22h9.82L239.3,479Z"/><path class="cls-2" d="M262.81,478.9V434.54h8.87V478.9Z"/><path class="cls-2" d="M294.06,460.15a21.46,21.46,0,0,1-6.72-2.79,12.21,12.21,0,0,1-5.71-10,11.91,11.91,0,0,1,3.24-9.06c7.43-7.34,18.05-4.08,23.63.07l1.46.95-4.63,7.54-1.58-1c-3.4-2.3-8.38-4.82-12.48-1.39a3.1,3.1,0,0,0-.76,2.53c.06,2.29,1.64,3.55,5.7,4.57a12.45,12.45,0,0,1,1.27.38,23.44,23.44,0,0,1,9.82,5.89,12.72,12.72,0,0,1-.06,17.49c-4.81,5.22-10.92,5.38-18,3.49a24.6,24.6,0,0,1-10.58-6.72l6.46-6.08A15.36,15.36,0,0,0,297,471a4.88,4.88,0,0,0,4.88-4.5c0-2.41-2.72-4.62-7.35-6.21l-.19-.06Z"/><path class="cls-2" d="M317.76,478.9V434.54h8.87V478.9Z"/><path class="cls-2" d="M377.07,456.72a23,23,0,0,1-23,23c-30.52-1.3-30.51-44.72,0-46A23,23,0,0,1,377.07,456.72Zm-36.88,0a13.87,13.87,0,0,0,13.88,13.88c18.41-.72,18.4-27,0-27.75A13.87,13.87,0,0,0,340.19,456.72Z"/><path class="cls-2" d="M418.52,479l-25-25.92V479h-8.87V434.54h2.79L412,459.38V434.54h8.87V479Z"/></g></g></svg>