<svg id="icons" enable-background="new 0 0 64 64" height="512" viewBox="0 0 64 64" width="512" xmlns="http://www.w3.org/2000/svg"><g><g><g><path d="m57.505 30c0 1.65-1.34 2.99-3 2.99-1.65 0-2.99-1.34-3-2.99h-4v31h4c0-.83.34-1.58.88-2.12s1.3-.88 2.12-.88c1.66 0 3 1.34 3 3h4v-31z" fill="#5d9cec"/></g><g><path d="m58.505 39.99v1h-1-3-3-1v-1l4-1.99z" fill="#e6e9ed"/></g><g><path d="m38.495 15v6l-4-4s-5 3-11 3-11-3-11-3l-4 4v-5c0-7.19 5.819-13 13-13h10v5c3.87 0 7 3.13 7 7z" fill="#965353"/></g><g><path d="m31.495 12c1.654 0 3 1.346 3 3v2l4 4v-6c0-3.87-3.13-7-7-7v-5h-4v5c0 2.209 1.791 4 4 4z" fill="#844747"/></g><g><path d="m30.495 40.27v5.73s-.99 4.01-6.99 4.01-7.01-4.01-7.01-4.01v-5.73c2.09 1.101 4.47 1.73 7 1.73 2.529 0 4.91-.63 7-1.73z" fill="#eac6bb"/></g><g><path d="m16.495 46s1.01 4.01 7.01 4.01 6.99-4.01 6.99-4.01h6c4.43 0 8 3.58 8 8v7h-42v-7c0-4.42 3.58-8 8-8z" fill="#48cfad"/></g><g><g><path d="m36.495 46h-4.004c4.43 0 8 3.58 8 8v7h4.004v-7c0-4.42-3.57-8-8-8z" fill="#37bc9b"/></g></g><g><path d="m38.495 21v6c0 5.76-3.24 10.76-8 13.27-2.09 1.101-4.471 1.73-7 1.73-2.53 0-4.91-.63-7-1.73-4.76-2.51-8-7.51-8-13.27v-6l4-4s5 3 11 3 11-3 11-3z" fill="#eac6bb"/></g><g><path d="m34.495 17-.004.002v9.998c0 5.76-3.24 10.76-8 13.27-1.528.805-3.214 1.354-4.998 1.594.655.087 1.322.136 2.002.136 2.529 0 4.91-.63 7-1.73 4.76-2.51 8-7.51 8-13.27v-6z" fill="#d3b1a9"/></g></g><g><g><path d="m31.506 55.999h-16.018c-.553 0-1-.447-1-1s.447-1 1-1h16.018c.553 0 1 .447 1 1s-.447 1-1 1z" fill="#37bc9b"/></g><g><path d="m27.506 58.999h-8.018c-.553 0-1-.447-1-1s.447-1 1-1h8.018c.553 0 1 .447 1 1s-.447 1-1 1z" fill="#37bc9b"/></g><g><path d="m58.5 50.996h-7.994c-.553 0-1-.447-1-1s.447-1 1-1h7.994c.553 0 1 .447 1 1s-.447 1-1 1z" fill="#4a89dc"/></g><g><path d="m56.506 53.996h-4.004c-.553 0-1-.447-1-1s.447-1 1-1h4.004c.553 0 1 .447 1 1s-.447 1-1 1z" fill="#4a89dc"/></g><g><path d="m54.502 46.987c-.553 0-1-.447-1-1v-5c0-.553.447-1 1-1s1 .447 1 1v5c0 .553-.447 1-1 1z" fill="#ccd1d9"/></g><g><path d="m51.5 46.987c-.553 0-1-.447-1-1v-5c0-.553.447-1 1-1s1 .447 1 1v5c0 .553-.447 1-1 1z" fill="#ccd1d9"/></g><g><path d="m57.502 46.987c-.553 0-1-.447-1-1v-5c0-.553.447-1 1-1s1 .447 1 1v5c0 .553-.447 1-1 1z" fill="#ccd1d9"/></g><g><path d="m58.502 41.987h-7.996c-.553 0-1-.447-1-1v-.998c0-.38.215-.727.555-.896l3.996-1.986c.281-.139.61-.139.89 0l4 1.986c.341.169.556.516.556.896v.998c-.001.553-.448 1-1.001 1zm-5.745-2h3.493l-1.748-.868z" fill="#e6e9ed"/></g><g><path d="m58.5 46.987h-7.994c-.553 0-1-.447-1-1s.447-1 1-1h7.994c.553 0 1 .447 1 1s-.447 1-1 1z" fill="#e6e9ed"/></g></g></g></svg>