<svg xmlns="http://www.w3.org/2000/svg" width="120.372" height="116.06" viewBox="0 0 120.372 116.06">
  <g id="Visitor_Visa" data-name="Visitor Visa" transform="translate(0 0)">
    <path id="Path_573" data-name="Path 573" d="M1420.674,336.263a35.712,35.712,0,0,1-.573,6.389,35.48,35.48,0,0,1-67.338,7.971,34.846,34.846,0,0,1-1.807-5.1,35.72,35.72,0,0,1-.418-16.807c.005-.028.012-.055.018-.083a35.564,35.564,0,0,1,13.845-21.1q1.093-.793,2.25-1.5a35.28,35.28,0,0,1,18.553-5.235q1.353,0,2.68.1a35.23,35.23,0,0,1,17.567,6.244h0a35.607,35.607,0,0,1,9.729,10.159q.815,1.287,1.521,2.645a35.306,35.306,0,0,1,3.969,16.322Z" transform="translate(-1301.824 -294.44)" fill="#dce8ff"/>
    <path id="Path_574" data-name="Path 574" d="M1383.592,388.264c-1.416,2.242.591,6.134-3.655,5.073s-6.842-1.534-7.077.824,3.185,2.36,3.185,4.837-1.534,3.3-3.893,2.12-3.038-2.888-5.78-1.826-4.335.354-4.954-1.769a3.106,3.106,0,0,0-.441-.929c.005-.028.012-.055.018-.083a35.563,35.563,0,0,1,13.845-21.1q1.093-.794,2.25-1.5a4.665,4.665,0,0,1,3.555,1.854c2.477,3.068,4.128,1.534,3.539,5.073s.354,4.011,2.358,3.892,4.365-.119,4.6,1.415S1385.008,386.022,1383.592,388.264Z" transform="translate(-1312.262 -362.319)" fill="#9fbdff" opacity="0.7"/>
    <path id="Path_575" data-name="Path 575" d="M1645.6,782.725s-3.126,1-3.952-1.18.118-2.654-2.654-3.3-3.008-2.536-4.777-2.3-.885.944-2.949,2.477-3.952.826-3.892,3.657,3.126,3.273,3.745,5.131-.442,2.654.885,4.069,3.8.8,2.654,2.742-2.919,3.45-2.035,6.458.265,3.185,1.769,5.308,4.423,2.831,4.866,1.415-2.035-3.273-1.238-4.689,2.123-.442,2.654-2.565,2.683-2.123,2.86-3.6-2.6-3.716-1.533-4.659,3.185,1.71,4.836-.649.531-4.246,2.241-6.487S1646.779,781.427,1645.6,782.725Z" transform="translate(-1559.584 -735.548)" fill="#9fbdff" opacity="0.7"/>
    <path id="Path_576" data-name="Path 576" d="M1985.587,602.3a35.713,35.713,0,0,1-.573,6.389,35.278,35.278,0,0,1-5.6,13.608,4.049,4.049,0,0,1-2.836-.076c-4.423-1.769-1.15-6.546.619-8.935s-2.742-1.327-6.016-3.539.354-8.139-3.008-7.166-7.431,2.212-9.377-1.062,1.769-3.8.089-6.546.973-4.335,4.335-4.6,2.919-2.654,7.077-3.008,4.069,4.954,8.67,4.6,4.393.708,4.393.708a2.143,2.143,0,0,1,.961.2A35.541,35.541,0,0,1,1985.587,602.3Z" transform="translate(-1866.737 -560.48)" fill="#9fbdff" opacity="0.7"/>
    <path id="Path_577" data-name="Path 577" d="M2006.246,402.192c-3.825,1.861-5.361-3.2-8.631-1.679-3.3,1.534-2.719-1.415-5.313-3.3s-7.785,1.534-7.55-1.415,4.128-2.123,4.954-4.482,4.6-1.769,4.6-1.769a2.556,2.556,0,0,1,.687-.156s0,0,0,0a35.611,35.611,0,0,1,9.729,10.159Q2005.539,400.834,2006.246,402.192Z" transform="translate(-1891.365 -376.691)" fill="#9fbdff" opacity="0.7"/>
    <path id="Path_578" data-name="Path 578" d="M1713.821,373.344s2.005-2.893-1.18-3.747-3.126.264-5.6,0-3.45,1.653-1.592,3.747,3.362,6.111,5.042,3.97S1711.845,373.551,1713.821,373.344Z" transform="translate(-1631.167 -358.015)" fill="#9fbdff" opacity="0.7"/>
    <path id="Path_585" data-name="Path 585" d="M1159.689,564.789l-.028,80.907a4.812,4.812,0,0,1-4.813,4.811l-42.294-.015a4.812,4.812,0,0,1-4.811-4.814l.028-80.907a4.812,4.812,0,0,1,4.814-4.81l42.294.015A4.812,4.812,0,0,1,1159.689,564.789Z" transform="translate(-1077.161 -535.051)" fill="#c2cfff"/>
    <path id="Path_586" data-name="Path 586" d="M1147.014,643.276l-42.294-.015a5.422,5.422,0,0,1-5.415-5.418l.028-80.907a5.423,5.423,0,0,1,5.418-5.415l42.294.015a5.423,5.423,0,0,1,5.414,5.418l-.028,80.907A5.422,5.422,0,0,1,1147.014,643.276Zm-42.263-90.547a4.213,4.213,0,0,0-4.21,4.207l-.028,80.907a4.213,4.213,0,0,0,4.207,4.21l42.294.015a4.213,4.213,0,0,0,4.21-4.207l.028-80.907a4.213,4.213,0,0,0-4.207-4.21Z" transform="translate(-1069.328 -527.216)" fill="#163560"/>
    <g id="Group_862" data-name="Group 862" transform="translate(34.131 28.624)">
      <path id="Path_587" data-name="Path 587" d="M1199.857,662.571l-.711.51-.715-.5a.875.875,0,0,1,1.426-.005Z" transform="translate(-1195.486 -658.599)" fill="#fff"/>
      <g id="Group_859" data-name="Group 859" transform="translate(1.93 2.364)">
        <path id="Path_588" data-name="Path 588" d="M1185.989,644.841a2.113,2.113,0,0,0-1.73.9l.451.317a1.563,1.563,0,0,1,2.55-.008l.449-.322A2.115,2.115,0,0,0,1185.989,644.841Z" transform="translate(-1184.259 -644.841)" fill="#fff"/>
      </g>
      <g id="Group_860" data-name="Group 860" transform="translate(0)">
        <path id="Path_589" data-name="Path 589" d="M1160.966,611.833a4.471,4.471,0,0,0-3.661,1.9l.451.317a3.925,3.925,0,0,1,6.4-.022l.448-.322A4.472,4.472,0,0,0,1160.966,611.833Z" transform="translate(-1157.305 -611.833)" fill="#fff"/>
      </g>
      <g id="Group_861" data-name="Group 861" transform="translate(1.05 1.293)">
        <path id="Path_590" data-name="Path 590" d="M1174.576,629.894a3.2,3.2,0,0,0-2.611,1.348l.451.317a2.652,2.652,0,0,1,4.307-.015l.448-.32A3.2,3.2,0,0,0,1174.576,629.894Z" transform="translate(-1171.965 -629.894)" fill="#fff"/>
      </g>
    </g>
    <g id="Group_863" data-name="Group 863" transform="translate(23.236 5.387)">
      <path id="Path_591" data-name="Path 591" d="M1249.368,420.855a12.1,12.1,0,0,0-7.069-.668s4.558-.311,7.26,2.581a8.982,8.982,0,0,1,5.014-3.563A8.4,8.4,0,0,0,1249.368,420.855Z" transform="translate(-1225.319 -409.75)" fill="#9fc1f4"/>
      <path id="Path_592" data-name="Path 592" d="M1148.792,406.531a9.356,9.356,0,0,0-5.464-.549s3.526-.22,5.6,2.029a6.946,6.946,0,0,1,3.894-2.733A6.5,6.5,0,0,0,1148.792,406.531Z" transform="translate(-1133.435 -396.821)" fill="#9fc1f4"/>
      <path id="Path_593" data-name="Path 593" d="M1047.774,391.328a8.518,8.518,0,0,0-4.991-.288s3.2-.336,5.175,1.63a6.324,6.324,0,0,1,3.437-2.636A5.918,5.918,0,0,0,1047.774,391.328Z" transform="translate(-1040.089 -382.676)" fill="#9fc1f4"/>
      <path id="Path_594" data-name="Path 594" d="M1008.548,362.888a5.768,5.768,0,0,0-3.384.12,4.783,4.783,0,0,1,3.593.773,4.283,4.283,0,0,1,2.151-1.994A4.008,4.008,0,0,0,1008.548,362.888Z" transform="translate(-1005.164 -356.455)" fill="#9fc1f4"/>
      <path id="Path_595" data-name="Path 595" d="M1223.561,288.3a5.769,5.769,0,0,0-3.386-.056,4.783,4.783,0,0,1,3.547.959,4.283,4.283,0,0,1,2.252-1.879A4.007,4.007,0,0,0,1223.561,288.3Z" transform="translate(-1204.779 -287.323)" fill="#9fc1f4"/>
      <path id="Path_596" data-name="Path 596" d="M1308.611,360.217a8.4,8.4,0,0,0-4.9-.558s3.17-.156,5.009,1.89a6.239,6.239,0,0,1,3.531-2.408A5.839,5.839,0,0,0,1308.611,360.217Z" transform="translate(-1282.332 -353.985)" fill="#9fc1f4"/>
      <path id="Path_597" data-name="Path 597" d="M1271.874,313.369a7.77,7.77,0,0,0-4.548-.345,6.442,6.442,0,0,1,4.693,1.571,5.77,5.77,0,0,1,3.178-2.348A5.4,5.4,0,0,0,1271.874,313.369Z" transform="translate(-1248.554 -310.458)" fill="#9fc1f4"/>
    </g>
    <g id="Group_864" data-name="Group 864" transform="translate(102.113 32.211)">
      <path id="Path_598" data-name="Path 598" d="M2106.708,668.354c0,3.548,5.974,9.218,5.974,9.218s5.974-5.671,5.974-9.218a5.99,5.99,0,1,0-11.948,0Zm2.454-.377a3.52,3.52,0,1,1,3.52,3.52A3.526,3.526,0,0,1,2109.162,667.978Z" transform="translate(-2106.708 -661.93)" fill="#f78e48"/>
    </g>
    <g id="Group_865" data-name="Group 865" transform="translate(81.714 9.884)">
      <path id="Path_599" data-name="Path 599" d="M1821.823,356.3c0,3.408,5.738,8.855,5.738,8.855s5.738-5.447,5.738-8.855a5.753,5.753,0,1,0-11.477,0Zm2.357-.362a3.381,3.381,0,1,1,3.381,3.381A3.387,3.387,0,0,1,1824.18,355.936Z" transform="translate(-1821.823 -350.127)" fill="#f78e48"/>
    </g>
    <g id="Group_867" data-name="Group 867" transform="translate(100.191 82.865)">
      <path id="Rectangle_33" data-name="Rectangle 33" d="M0,0H18.885a0,0,0,0,1,0,0V.209a2.569,2.569,0,0,1-2.569,2.569H2.779A2.779,2.779,0,0,1,0,0V0A0,0,0,0,1,0,0Z" transform="translate(0.648 28.079)" fill="#163560"/>
      <path id="Path_600" data-name="Path 600" d="M2100.039,1389.372v22.538a3.584,3.584,0,0,1-.088.791h-2.643a2.075,2.075,0,0,0-2.074,2.076v.7h-10.356v-.7a2.072,2.072,0,0,0-2.074-2.076h-2.857a3.6,3.6,0,0,1-.088-.791v-22.538a3.568,3.568,0,0,1,3.567-3.57h13.048A3.568,3.568,0,0,1,2100.039,1389.372Z" transform="translate(-2079.858 -1384.622)" fill="#f78248"/>
      <g id="Group_866" data-name="Group 866" transform="translate(5.755)">
        <path id="Path_601" data-name="Path 601" d="M2168.365,1370.494a9.731,9.731,0,0,0-7.967-.011l-.168-.293a7.411,7.411,0,0,1,2.308-.732,11.183,11.183,0,0,1,5.951.721Z" transform="translate(-2160.23 -1369.326)" fill="#163560"/>
      </g>
      <rect id="Rectangle_34" data-name="Rectangle 34" width="1.367" height="1.862" transform="translate(1.924 29.814)" fill="#163560"/>
      <path id="Path_602" data-name="Path 602" d="M2102.685,1803.011a.973.973,0,1,1,.972.973A.973.973,0,0,1,2102.685,1803.011Z" transform="translate(-2101.051 -1771.053)" fill="#1f4777"/>
      <path id="Path_603" data-name="Path 603" d="M2108.022,1807.97a.59.59,0,1,1,.59.591A.591.591,0,0,1,2108.022,1807.97Z" transform="translate(-2106.005 -1776.012)" fill="#163560"/>
      <rect id="Rectangle_35" data-name="Rectangle 35" width="1.367" height="1.862" transform="translate(15.982 29.814)" fill="#163560"/>
      <path id="Path_604" data-name="Path 604" d="M2299.012,1803.011a.973.973,0,1,1,.973.973A.973.973,0,0,1,2299.012,1803.011Z" transform="translate(-2283.319 -1771.053)" fill="#1f4777"/>
      <path id="Path_605" data-name="Path 605" d="M2304.348,1807.97a.59.59,0,1,1,.59.591A.59.59,0,0,1,2304.348,1807.97Z" transform="translate(-2288.273 -1776.012)" fill="#163560"/>
      <path id="Path_606" data-name="Path 606" d="M2130.19,1385.8v27.241a2.07,2.07,0,0,0-.52-.247V1385.8Z" transform="translate(-2126.103 -1384.622)" fill="#e06832"/>
      <rect id="Rectangle_36" data-name="Rectangle 36" width="0.52" height="29.678" transform="translate(7.729 1.18)" fill="#e06832"/>
      <rect id="Rectangle_37" data-name="Rectangle 37" width="0.52" height="29.678" transform="translate(11.613 1.18)" fill="#e06832"/>
      <path id="Path_607" data-name="Path 607" d="M2301.233,1385.8v27.225a2.047,2.047,0,0,0-.52.473v-27.7Z" transform="translate(-2284.899 -1384.622)" fill="#e06832"/>
    </g>
    <g id="Group_869" data-name="Group 869" transform="translate(86.853 55.308)">
      <path id="Path_608" data-name="Path 608" d="M1920.362,1205.218c0-.039.569-1.216.388-1.306s-.505-.077-.543.129A7.176,7.176,0,0,0,1920.362,1205.218Z" transform="translate(-1918.297 -1188.15)" fill="#ffb27d"/>
      <path id="Path_609" data-name="Path 609" d="M1895.878,1192.943a6.917,6.917,0,0,0-.43-2.228c-.3-.351-.9-.85-1.095-.834a1.877,1.877,0,0,0-.713,1.767,6.236,6.236,0,0,0,1.171,1.789Z" transform="translate(-1893.598 -1175.173)" fill="#ffb27d"/>
      <g id="Group_868" data-name="Group 868" transform="translate(0.205 12.124)">
        <path id="Path_610" data-name="Path 610" d="M1904.193,1157.308l-1.73.519a.109.109,0,0,1-.135-.073l-.989-3.3a.109.109,0,0,1,.073-.135l1.73-.519a.108.108,0,0,1,.135.073l.989,3.3A.109.109,0,0,1,1904.193,1157.308Z" transform="translate(-1900.985 -1153.796)" fill="#f1a34f"/>
        <path id="Path_611" data-name="Path 611" d="M1899.224,1159.144l-1.569.47a.193.193,0,0,1-.24-.129l-.94-3.138a.192.192,0,0,1,.129-.24l1.569-.47a.192.192,0,0,1,.24.129l.941,3.138A.193.193,0,0,1,1899.224,1159.144Z" transform="translate(-1896.466 -1155.497)" fill="#d86713"/>
      </g>
      <path id="Path_612" data-name="Path 612" d="M1901.642,1178.07s.72-1.109.9-1.047c.251.088-.653,1.495-.653,1.495s.67-1.051.775-.972c.239.18-.141.84-.518,1.347,0,0,.674-.617.7-.506.077.389-.74,1.333-.74,1.333l-.457-1.043Z" transform="translate(-1901.066 -1163.234)" fill="#ffb27d"/>
      <path id="Path_613" data-name="Path 613" d="M1894.094,1173.005c.035-.135.211-2.783.286-2.532s.254,1.639.254,1.639Z" transform="translate(-1894.058 -1157.14)" fill="#ffb27d"/>
      <path id="Path_614" data-name="Path 614" d="M1919.916,1146.571a19.613,19.613,0,0,1-.906,5.2c-.656,1.834-1.782,3.323-3.715,2.773q-.3-.084-.574-.182h0a8.838,8.838,0,0,1-5.2-4.5,2.024,2.024,0,0,1,1.139-.66,39.5,39.5,0,0,1,4.487,1.563c.8.161,1.453-4.255,1.975-5.785s2.66-2.214,2.66-2.214Z" transform="translate(-1908.382 -1131.435)" fill="#739af0"/>
      <path id="Path_615" data-name="Path 615" d="M1986.489,1239.506l-.076,2.074c-.656,1.834-1.782,3.323-3.715,2.773q-.3-.084-.574-.182c.062.008,1.245.168,1.74-.327s.456-2.2,1.392-3.322S1986.489,1239.506,1986.489,1239.506Z" transform="translate(-1975.785 -1221.243)" fill="#5283db"/>
      <path id="Path_616" data-name="Path 616" d="M1999.206,1763.827s.966.882.778,1.509-1.06,1.044-1.178,1.81-.589,1.183-1.013,1.183h-2.022s-.312-.539.442-.7,1.038-1.062.991-1.9a14.72,14.72,0,0,1,.071-1.949l1.6-.371Z" transform="translate(-1988.394 -1707.634)" fill="#133054"/>
      <path id="Path_617" data-name="Path 617" d="M1895.917,1770.47h5.955a.431.431,0,0,0,.432-.418,3.043,3.043,0,0,0-.213-1.284c-.318-.7-.519-.828.824-2.879-.4.416-1.492.226-2.411.1a29.133,29.133,0,0,1-2.193,3.085C1897.9,1769.374,1896.045,1769.268,1895.917,1770.47Z" transform="translate(-1895.751 -1709.936)" fill="#163560"/>
      <path id="Path_618" data-name="Path 618" d="M1953,1360.352s-4.318,8.147-5.491,12.633c-.911,3.482,4.647,16.954,4.647,16.954a4.447,4.447,0,0,0,1.2-.321,1.939,1.939,0,0,0,1-1.053s-.329-9.633-1.454-14.293c-.252-1.046,1.223-4.42,3.714-6.268s3.528-7.794,2.045-8.2S1953,1360.352,1953,1360.352Z" transform="translate(-1943.554 -1332.839)" fill="#163560"/>
      <path id="Path_619" data-name="Path 619" d="M1954.253,1336.407s-4.539,16.638-5.916,20.374-3.56,11.666-3.56,11.666a5.753,5.753,0,0,0,3.148.342s6.637-9.723,6.926-14.02c.134-1.986,6.809-9.861,6.065-15Z" transform="translate(-1941.112 -1311.207)" fill="#1c468a"/>
      <path id="Path_620" data-name="Path 620" d="M2020.841,1154.563a7.9,7.9,0,0,1-2.673.63h0a14.771,14.771,0,0,1-8.449-2.109s-.995-.819.227-4.305c.925-2.639,1.376-8.2,2.5-13.273,0,0,3.662-1.149,6.6-.156,2.245.759,2.022,4.2,2.436,7.792.038.335.083.671.135,1.006C2022.234,1148.076,2020.841,1154.563,2020.841,1154.563Z" transform="translate(-2001.048 -1124.172)" fill="#739af0"/>
      <path id="Path_621" data-name="Path 621" d="M2034.787,1004.571s2.5-4.069,4.436-1.975a3.382,3.382,0,0,1,1.99,2.294c.74,2.01-.412,3.785-1.181,3.5-.493-.184-.724.666-.724.666Z" transform="translate(-2024.677 -1000.743)" fill="#233862"/>
      <path id="Path_622" data-name="Path 622" d="M2091.377,986.018s.172-1.685,2.634-1.521c0,0-1.164.021-1.414.506a1.893,1.893,0,0,1,1.464-.28c.618.265.879,1.421.846,1.789s-.508,1.517-.923,1.577a1.927,1.927,0,0,1-.958-.234Z" transform="translate(-2077.215 -984.486)" fill="#233862"/>
      <path id="Path_623" data-name="Path 623" d="M2063.519,1097.26a11.353,11.353,0,0,1-.852-3.231l-.148.052-2.485.875s.174.8.285,1.555c.045.31.078.863.1,1.346s.507.54,1,.518C2062.733,1098.314,2063.458,1097.824,2063.519,1097.26Z" transform="translate(-2048.116 -1086.185)" fill="#ffb27d"/>
      <path id="Path_624" data-name="Path 624" d="M2060.034,1095.629s.174.8.285,1.555a3.065,3.065,0,0,0,2.2-2.43Z" transform="translate(-2048.116 -1086.858)" fill="#e8945b"/>
      <path id="Path_625" data-name="Path 625" d="M2034.613,1024.6a7.6,7.6,0,0,0,.613-2.333c.024-.742-.731-3.371-3.37-2.6a3.7,3.7,0,0,0-1.436.793c-.528.48-1.25,1.454.032,3.659l.359.755Z" transform="translate(-2019.987 -1017.019)" fill="#233862"/>
      <path id="Path_626" data-name="Path 626" d="M2032.585,1040.722s3.394-.432,3.093-2.542-.067-3.587-2.247-3.4-2.485,1.052-2.556,1.781S2031.694,1040.781,2032.585,1040.722Z" transform="translate(-2021.042 -1031.164)" fill="#ffb27d"/>
      <path id="Path_627" data-name="Path 627" d="M2044.973,1030.008s1.284,2.341,2.76,2.5a2.83,2.83,0,0,0,2.038-.309,4.072,4.072,0,0,1-1.661-2.191S2045.5,1028.73,2044.973,1030.008Z" transform="translate(-2034.134 -1026.221)" fill="#233862"/>
      <path id="Path_628" data-name="Path 628" d="M2028.353,1035.529a3.021,3.021,0,0,0-.7,1.214c-.091.561-.008,1.678-.336,1.687,0,0-.941-1.581-.293-2.646C2027.707,1034.654,2028.353,1035.529,2028.353,1035.529Z" transform="translate(-2017.255 -1031.574)" fill="#233862"/>
      <path id="Path_629" data-name="Path 629" d="M2046.959,1031.842s1.034,2.5,2.949,3.068a6.261,6.261,0,0,1-2.424-3.022C2047.085,1030.2,2046.959,1031.842,2046.959,1031.842Z" transform="translate(-2035.978 -1027.785)" fill="#233862"/>
      <path id="Path_630" data-name="Path 630" d="M2127.841,1257.217a7.9,7.9,0,0,1-2.673.63h0a2.993,2.993,0,0,1,.162-3.73c1.565-1.971-.122-5.608,1.083-7.586.839-1.376,1.655-1.056,2.074-.734.039.335.083.671.135,1.006C2129.234,1250.73,2127.841,1257.217,2127.841,1257.217Z" transform="translate(-2108.047 -1226.826)" fill="#5283db"/>
      <path id="Path_631" data-name="Path 631" d="M2242.692,1368.084s.208.484.5.517a6.094,6.094,0,0,1,1.521.535c.385.229.359,1.25-.026,1.346s-.577-.761-1.779-.991c-.408-.078-1,.2-1.242-.773Z" transform="translate(-2216.74 -1340.616)" fill="#ffb27d"/>
      <path id="Path_632" data-name="Path 632" d="M2135.647,1140.236c3.5,1.286,3.625,7.478,5.183,10.2,1.607,2.812,3.172,6.514,3.172,6.514s-.028.111-.627.283a2.5,2.5,0,0,1-.863.07,55.008,55.008,0,0,1-4.2-4.166c-.9-1.178-3.013-6.646-3.013-6.646S2134.26,1139.726,2135.647,1140.236Z" transform="translate(-2117.645 -1129.058)" fill="#739af0"/>
      <path id="Path_633" data-name="Path 633" d="M2242.869,1380.32a1.323,1.323,0,0,0,.6.753c.515.337.929.673.979.465s-.287-.433-.367-.817S2242.869,1380.32,2242.869,1380.32Z" transform="translate(-2217.859 -1351.976)" fill="#ffb27d"/>
    </g>
    <rect id="Rectangle_38" data-name="Rectangle 38" width="50.724" height="36.719" transform="translate(31.185 63.032)" fill="#f78e48"/>
    <path id="Path_634" data-name="Path 634" d="M1317.241,1691.054v4.954c0,.061,0,.122,0,.182h-25.365c0-.06,0-.121,0-.182v-4.954c0-2.26,1.459-4.108,3.241-4.108H1314C1315.782,1686.946,1317.241,1688.795,1317.241,1691.054Z" transform="translate(-1248.102 -1581.338)" fill="#f78248"/>
    <g id="Group_872" data-name="Group 872" transform="translate(53.437 107.227)">
      <g id="Group_870" data-name="Group 870" transform="translate(1.357 1.566)">
        <path id="Path_635" data-name="Path 635" d="M1447.512,1734.546l-1.633-1.462.459-.512,1.055.944,1.459-2.088.564.394Z" transform="translate(-1445.879 -1731.428)" fill="#ffe3ca"/>
      </g>
      <g id="Group_871" data-name="Group 871" transform="translate(0 0)">
        <path id="Path_636" data-name="Path 636" d="M1430.055,1715.806a3.125,3.125,0,1,1,3.125-3.125A3.129,3.129,0,0,1,1430.055,1715.806Zm0-6.09a2.964,2.964,0,1,0,2.964,2.964A2.968,2.968,0,0,0,1430.055,1709.717Z" transform="translate(-1426.93 -1709.556)" fill="#ffe3ca"/>
      </g>
    </g>
    <path id="Path_637" data-name="Path 637" d="M1179.61,701.079a4.073,4.073,0,0,1,3.983-2.325s4.078-4.359,8.426-.581c0,0,4.622-.936,8.045.81a7.8,7.8,0,0,1,3.036,2.386Z" transform="translate(-1143.882 -661.937)" fill="#ebf3fa"/>
    <path id="Path_638" data-name="Path 638" d="M1401.85,656.233h.044a.729.729,0,0,0,.481-.187,3.2,3.2,0,0,1,4.328-.34.7.7,0,0,0,.539.143,7.349,7.349,0,0,1,4.235.534l.122.067a.708.708,0,0,1-.361,1.323l-9.367-.122A.708.708,0,0,1,1401.85,656.233Z" transform="translate(-1349.579 -623.272)" fill="#ebf3fa"/>
    <g id="Group_873" data-name="Group 873" transform="translate(62.451 66.8)">
      <path id="Path_639" data-name="Path 639" d="M1566.023,1172.54h-10.069a3.153,3.153,0,0,1-3.15-3.15v-21.263a3.153,3.153,0,0,1,3.15-3.15h10.069a3.153,3.153,0,0,1,3.15,3.15v21.263A3.153,3.153,0,0,1,1566.023,1172.54Zm-10.069-27.242a2.832,2.832,0,0,0-2.828,2.829v21.263a2.832,2.832,0,0,0,2.828,2.829h10.069a2.832,2.832,0,0,0,2.828-2.829v-21.263a2.832,2.832,0,0,0-2.828-2.829Z" transform="translate(-1552.804 -1144.977)" fill="#ffe3ca"/>
    </g>
    <path id="Rectangle_39" data-name="Rectangle 39" d="M6.85,0h5.483a6.85,6.85,0,0,1,6.85,6.85v0a6.85,6.85,0,0,1-6.85,6.85H6.85A6.85,6.85,0,0,1,0,6.85v0A6.85,6.85,0,0,1,6.85,0Z" transform="translate(41.02 66.961)" fill="#ffe3ca"/>
    <g id="Group_874" data-name="Group 874" transform="translate(40.859 82.76)">
      <path id="Path_640" data-name="Path 640" d="M1268.515,1379.457H1253.54a2.266,2.266,0,0,1-2.264-2.264v-7.076a2.266,2.266,0,0,1,2.264-2.264h14.975a2.266,2.266,0,0,1,2.264,2.264v7.076A2.266,2.266,0,0,1,1268.515,1379.457Zm-14.975-11.283a1.945,1.945,0,0,0-1.942,1.943v7.076a1.945,1.945,0,0,0,1.942,1.943h14.975a1.945,1.945,0,0,0,1.942-1.943v-7.076a1.945,1.945,0,0,0-1.942-1.943Z" transform="translate(-1251.276 -1367.853)" fill="#ffe3ca"/>
    </g>
    <g id="Group_875" data-name="Group 875" transform="translate(66.449 70.084)">
      <path id="Path_641" data-name="Path 641" d="M1608.644,1195.338c0,2.486,4.186,6.459,4.186,6.459s4.186-3.973,4.186-6.459a4.2,4.2,0,1,0-8.372,0Zm1.719-.264a2.466,2.466,0,1,1,2.466,2.466A2.471,2.471,0,0,1,1610.364,1195.074Z" transform="translate(-1608.644 -1190.836)" fill="#ffe3ca"/>
    </g>
    <path id="Path_642" data-name="Path 642" d="M1388.324,1239.573l-.2,0-.02,0-1.52.415a.081.081,0,0,1-.056-.005l-2.136-.822c-.055-.026.276-.187.325-.223.534-.389,2.227-1.336,2.864-1.756a.139.139,0,0,0-.045-.251.3.3,0,0,0-.172.01l-3.111,1.129-.418-.265a.131.131,0,0,0-.18.04l-.2.324a.131.131,0,0,0,.037.178l-.4.146a.08.08,0,0,1-.059,0l-1.914-.816a.8.8,0,0,0-.536-.032l-.22.065a.272.272,0,0,0-.18.349l.025.074a.85.85,0,0,0,.5.52l1.552.584a.08.08,0,0,1,.052.073l.014.671-.089-.056a.131.131,0,0,0-.18.041l-.2.324a.131.131,0,0,0,.041.18l.449.285.022,1.047a.428.428,0,0,0,.077.236c.062.088.126.186.149.176a21.372,21.372,0,0,0,1.016-2.279c.014-.036.319.077.355.091l2.116.647a.08.08,0,0,1,.051.063l.094.617a.308.308,0,0,0,.1.18l0,0a.08.08,0,0,0,.121-.015l.492-.754a.081.081,0,0,1,.065-.036l.227-.007a.08.08,0,0,0,.053-.138l-.055-.053,1.148-.815A.08.08,0,0,0,1388.324,1239.573Z" transform="translate(-1330.076 -1163.542)" fill="#f78e48"/>
    <g id="Group_878" data-name="Group 878" transform="translate(52.067 85.431)">
      <g id="Group_876" data-name="Group 876" transform="translate(0 0)">
        <path id="Path_643" data-name="Path 643" d="M1410.93,1411.419a3.131,3.131,0,1,1,3.131-3.131A3.134,3.134,0,0,1,1410.93,1411.419Zm0-5.919a2.788,2.788,0,1,0,2.788,2.788A2.791,2.791,0,0,0,1410.93,1405.5Z" transform="translate(-1407.799 -1405.157)" fill="#ffe3ca"/>
      </g>
      <g id="Group_877" data-name="Group 877" transform="translate(2.939 1.589)">
        <path id="Rectangle_40" data-name="Rectangle 40" d="M.13,0h0A.13.13,0,0,1,.26.13v1.7a.13.13,0,0,1-.13.13h0A.13.13,0,0,1,0,1.831V.13A.13.13,0,0,1,.13,0Z" transform="translate(0.041)" fill="#ffe3ca"/>
        <path id="Path_644" data-name="Path 644" d="M1450.436,1429.958l0,0a.063.063,0,0,1,0-.089l1.74-1.74a.063.063,0,0,1,.088,0l0,0a.063.063,0,0,1,0,.089l-1.741,1.741A.063.063,0,0,1,1450.436,1429.958Z" transform="translate(-1450.302 -1428.053)" fill="#ffe3ca"/>
        <path id="Path_645" data-name="Path 645" d="M1448.85,1450.859a.171.171,0,1,1,.171.171A.171.171,0,0,1,1448.85,1450.859Z" transform="translate(-1448.85 -1449.017)" fill="#ffe3ca"/>
      </g>
    </g>
    <g id="Group_879" data-name="Group 879" transform="translate(43.085 84.812)">
      <rect id="Rectangle_41" data-name="Rectangle 41" width="6.884" height="0.714" transform="translate(0)" fill="#ffe3ca"/>
      <rect id="Rectangle_42" data-name="Rectangle 42" width="6.884" height="0.719" transform="translate(0 1.63)" fill="#ffe3ca"/>
      <rect id="Rectangle_43" data-name="Rectangle 43" width="4.128" height="0.719" transform="translate(0 3.264)" fill="#ffe3ca"/>
    </g>
    <g id="Group_880" data-name="Group 880" transform="translate(67.193 84.842)">
      <rect id="Rectangle_44" data-name="Rectangle 44" width="6.884" height="0.714" transform="translate(0 0)" fill="#ffe3ca"/>
      <rect id="Rectangle_45" data-name="Rectangle 45" width="6.884" height="0.719" transform="translate(0 1.63)" fill="#ffe3ca"/>
      <rect id="Rectangle_46" data-name="Rectangle 46" width="4.127" height="0.719" transform="translate(0 3.264)" fill="#ffe3ca"/>
    </g>
    <g id="Group_881" data-name="Group 881" transform="translate(43.512 70.112)">
      <rect id="Rectangle_47" data-name="Rectangle 47" width="6.884" height="0.714" transform="translate(0 0)" fill="#f78e48"/>
      <rect id="Rectangle_48" data-name="Rectangle 48" width="6.884" height="0.719" transform="translate(0 1.63)" fill="#f78e48"/>
      <rect id="Rectangle_49" data-name="Rectangle 49" width="4.128" height="0.719" transform="translate(0 3.264)" fill="#f78e48"/>
    </g>
    <g id="Group_882" data-name="Group 882" transform="translate(87.988)">
      <path id="Path_646" data-name="Path 646" d="M1929.546,242.861a.161.161,0,0,1-.16-.146s-.026-.284-.079-.78a.161.161,0,1,1,.32-.034c.053.5.079.782.079.785a.161.161,0,0,1-.145.175Zm-.165-1.559a.16.16,0,0,1-.159-.143c-.027-.235-.057-.493-.091-.773a.161.161,0,1,1,.319-.038c.034.281.064.54.091.775a.161.161,0,0,1-.141.178Zm-.186-1.547a.161.161,0,0,1-.159-.141q-.047-.368-.1-.771a.161.161,0,1,1,.319-.042q.053.4.1.773a.161.161,0,0,1-.139.18Zm-.2-1.543a.161.161,0,0,1-.159-.139q-.051-.374-.108-.77a.161.161,0,1,1,.318-.045q.057.4.108.771a.161.161,0,0,1-.137.181Zm-.22-1.54a.161.161,0,0,1-.159-.137q-.056-.377-.116-.768a.161.161,0,1,1,.318-.049q.061.392.117.77a.161.161,0,0,1-.135.183Zm-.238-1.537a.161.161,0,0,1-.158-.135q-.06-.378-.125-.766a.161.161,0,1,1,.317-.053q.065.389.125.768a.161.161,0,0,1-.133.184Zm-.255-1.534a.161.161,0,0,1-.158-.133q-.065-.379-.134-.765a.161.161,0,0,1,.316-.057q.069.387.135.767a.161.161,0,0,1-.131.186Zm-.274-1.53a.161.161,0,0,1-.158-.131q-.07-.379-.144-.763a.161.161,0,0,1,.316-.061q.074.385.145.765a.161.161,0,0,1-.129.187Zm-.294-1.526a.161.161,0,0,1-.157-.129q-.076-.379-.155-.76a.161.161,0,0,1,.315-.065q.079.383.155.763a.161.161,0,0,1-.126.189A.158.158,0,0,1,1927.711,230.544Zm-.316-1.522a.161.161,0,0,1-.157-.127q-.081-.377-.166-.756a.161.161,0,0,1,.314-.07q.085.38.167.758a.161.161,0,0,1-.123.191A.164.164,0,0,1,1927.395,229.022Zm-.34-1.515a.161.161,0,0,1-.156-.124q-.088-.379-.18-.757a.161.161,0,0,1,.312-.076q.092.379.181.759a.161.161,0,0,1-.157.2Zm-.368-1.512a.161.161,0,0,1-.156-.121q-.1-.376-.194-.751a.161.161,0,0,1,.311-.082q.1.376.2.754a.161.161,0,0,1-.156.2Zm-.4-1.5a.161.161,0,0,1-.155-.118q-.1-.375-.211-.746a.161.161,0,0,1,.309-.09q.108.373.212.75a.161.161,0,0,1-.155.2Zm-.433-1.492a.161.161,0,0,1-.154-.114c-.076-.248-.153-.5-.231-.739a.161.161,0,0,1,.306-.1c.078.244.156.495.232.744a.161.161,0,0,1-.107.2A.164.164,0,0,1,1925.856,223Zm-.475-1.48a.161.161,0,0,1-.152-.109c-.083-.246-.169-.492-.255-.731a.161.161,0,0,1,.3-.108c.086.241.172.489.256.737a.161.161,0,0,1-.152.212ZM1909.608,221a.161.161,0,0,1-.15-.219q.083-.213.167-.419a.161.161,0,1,1,.3.121q-.083.2-.165.415A.161.161,0,0,1,1909.608,221Zm15.249-.946a.161.161,0,0,1-.15-.1c-.093-.245-.188-.487-.283-.72a.161.161,0,0,1,.3-.121c.1.235.192.48.286.726a.161.161,0,0,1-.15.218Zm-14.784-.187a.161.161,0,0,1-.148-.224c.1-.243.211-.482.316-.712a.161.161,0,1,1,.292.134c-.1.228-.209.465-.313.705A.161.161,0,0,1,1910.073,219.87Zm14.2-1.252a.161.161,0,0,1-.147-.1c-.105-.242-.213-.478-.318-.7a.161.161,0,1,1,.291-.137c.107.228.216.468.323.712a.161.161,0,0,1-.147.225Zm-13.552-.158a.159.159,0,0,1-.071-.016.161.161,0,0,1-.074-.215c.117-.238.236-.472.355-.7a.161.161,0,1,1,.284.151c-.117.22-.234.451-.35.686A.161.161,0,0,1,1910.719,218.46Zm12.89-1.247a.161.161,0,0,1-.143-.087c-.12-.233-.242-.462-.364-.679a.161.161,0,1,1,.28-.158c.124.221.249.453.37.69a.161.161,0,0,1-.143.234Zm-12.162-.122a.161.161,0,0,1-.139-.241c.133-.231.269-.456.4-.669a.161.161,0,1,1,.271.172c-.133.21-.266.431-.4.658A.161.161,0,0,1,1911.447,217.091Zm11.4-1.23a.161.161,0,0,1-.136-.075c-.14-.223-.283-.437-.425-.638a.161.161,0,1,1,.262-.186c.146.206.292.426.435.653a.161.161,0,0,1-.136.246Zm-10.567-.079a.161.161,0,0,1-.131-.253c.155-.22.313-.431.47-.628a.161.161,0,0,1,.252.2c-.153.193-.307.4-.458.614A.161.161,0,0,1,1912.278,215.782Zm9.667-1.184a.161.161,0,0,1-.124-.059c-.167-.2-.338-.393-.507-.566a.161.161,0,1,1,.229-.225c.176.179.354.377.527.587a.161.161,0,0,1-.124.263Zm-8.7-.028a.161.161,0,0,1-.119-.269c.182-.2.369-.387.556-.559a.161.161,0,0,1,.218.236c-.18.166-.361.348-.537.54A.161.161,0,0,1,1913.245,214.571Zm1.142-1.046a.161.161,0,0,1-.1-.289,6.5,6.5,0,0,1,.663-.437.161.161,0,0,1,.16.279,6.2,6.2,0,0,0-.63.415A.16.16,0,0,1,1914.387,213.525Zm6.47-.023a.16.16,0,0,1-.1-.036,5.139,5.139,0,0,0-.612-.427.161.161,0,0,1,.163-.277,5.453,5.453,0,0,1,.651.454.161.161,0,0,1-.1.286Zm-5.125-.74a.161.161,0,0,1-.059-.31,5.164,5.164,0,0,1,.764-.236.161.161,0,1,1,.071.313,4.865,4.865,0,0,0-.716.222A.161.161,0,0,1,1915.731,212.763Zm3.8-.031a.159.159,0,0,1-.055-.01,3.562,3.562,0,0,0-.361-.11c-.123-.03-.245-.058-.364-.081a.161.161,0,1,1,.062-.315c.123.024.251.053.379.084a3.883,3.883,0,0,1,.394.12.161.161,0,0,1-.055.312Zm-1.517-.3H1918a5.29,5.29,0,0,0-.752,0,.161.161,0,0,1-.021-.321,5.62,5.62,0,0,1,.8.005.161.161,0,0,1-.012.321Z" transform="translate(-1909.448 -212.09)" fill="#f78e48"/>
    </g>
    <path id="Path_647" data-name="Path 647" d="M1116.2,861.894s2.19-.151,2.667,1.567c0,0,1.686-3.436,5.248-3.153s4.22,2.378,4.22,2.378a5.149,5.149,0,0,1,3.735.234,2.973,2.973,0,0,1,1.586,2.648,4.4,4.4,0,0,1,4.677-1.4s-.623-3.153,3.133-3.875,5.351.525,5.351.525,4.254-2.739,8.019.694c0,0,2.759-.536,4.108,1.164a9.241,9.241,0,0,1,7.964-2.754v16.513h-50.73Z" transform="translate(-1084.99 -813.403)" fill="#d7e2ff"/>
    <path id="Path_648" data-name="Path 648" d="M1116.2,1001.794a9.52,9.52,0,0,1,6.97,1.238s.8-.955,2.888-.718a3.225,3.225,0,0,1,2.661,2.164s7.3-2.411,10.917,3.616h-23.458Z" transform="translate(-1084.99 -945.062)" fill="#ebf3fa"/>
    <path id="Path_649" data-name="Path 649" d="M1506.517,918.824a5.13,5.13,0,0,1,4.045-4.579,2.185,2.185,0,0,1-.991-3.08,4.336,4.336,0,0,1,3.454-2.357s.255-3.974,7.193-3.287c1.948.193,4.01,1.359,4.332,3.394a2.632,2.632,0,0,1,2.311-1.155,2.419,2.419,0,0,1,2.434-2.24v13.3Z" transform="translate(-1447.381 -855.792)" fill="#ebf3fa"/>
    <g id="Group_885" data-name="Group 885" transform="translate(15.35 30.702)">
      <path id="Path_650" data-name="Path 650" d="M1611.213,647.727l-2.912,10.088-.092-.011-9.949-1.209s4.608-.958,5.087-1.511c.451-.521,5.236-6.7,6.635-7.364a.47.47,0,0,1,.218-.057Z" transform="translate(-1547.904 -647.176)" fill="#739af0"/>
      <path id="Path_651" data-name="Path 651" d="M1608.209,658.543l-9.949-1.209s4.608-.958,5.087-1.511c.451-.521,5.236-6.7,6.635-7.364-1.239,1.8-4.111,6.124-3.989,7.381C1606.109,657.038,1607.51,658.089,1608.209,658.543Z" transform="translate(-1547.904 -647.914)" fill="#2b478b"/>
      <path id="Path_652" data-name="Path 652" d="M1168,744.362c-.339.116-1.354.436-2.747.841-4,1.164-11.126,3.034-14.269,2.8-2.819-.207-17.73-1.346-28.044-2.25a18.955,18.955,0,0,1,8.455-8.132c12.016.984,27.731,2.315,29.731,2.7,3.289.636,7.652,1.153,7.652,1.153s.03.133.058.345C1168.926,742.511,1169,744.016,1168,744.362Z" transform="translate(-1106.618 -730.696)" fill="#e58638"/>
      <path id="Path_653" data-name="Path 653" d="M957.289,727.427c0,.025,0,.051,0,.076a2.084,2.084,0,0,1-.507,1.509l-.041.035a1.061,1.061,0,0,1-.086.064h0l-.046.029-.048.027h0l-.05.025-.053.023-.054.02-.017.005h0l-.017.006-.018.006h0l-.02.006h0l-.02.007-.021.007h0l-.022.007-.023.007h0l-.024.008-.025.008-.053.017h0l-.027.009h0l-.028.009-.021.006-.251.08-.052.016c-.241.076-.533.166-.869.267l-.106.032-.18.054-.04.012-.056.017-.057.017-.058.017-.059.017-.059.017-.06.018-.06.017h0l-.061.017-.044.014-.017.005-.062.017-.319.093-.19.056-.166.048-.126.037-.509.145-.1.03-.183.051-.167.047-.187.052c-2.081.578-4.6,1.225-6.943,1.7l-.246.049-.121.024-.244.046q-.363.069-.719.132l-.235.04-.116.02-.231.038-.229.035-.225.034-.223.033-.22.03-.217.028-.107.013c-.142.017-.282.033-.418.048l-.1.01-.2.02c-.133.012-.263.022-.39.03-.1.007-.189.012-.281.017l-.182.008c-.09,0-.178.006-.263.007-.115,0-.226,0-.333,0-.054,0-.107,0-.159-.005l-.077,0-.15-.009-.055,0h-.013l-.036,0-.147-.011-.042,0-.053,0-.083-.006-.046,0-.046,0-.1-.007-.1-.007-.052,0-.131-.01-.063-.005-.136-.01-.059,0-.175-.013-.528-.04-.069-.006-.142-.01-.218-.017-.09-.007-.213-.016-.079-.006-.15-.011-.165-.013-.088-.007-.082-.007-.133-.01-.8-.061-.121-.009-.186-.014-.443-.034-.035,0-.395-.03H934.1l-2.555-.2-.137-.011-.554-.043-.353-.028h-.02l-.407-.032-.051,0-.727-.057-.189-.015-.058,0-.648-.051-.285-.022-.19-.014-.387-.031-.583-.046-.052,0-.241-.019h-.017l-.724-.057-.02,0-.075-.006-.429-.034-.324-.026-.2-.016-.846-.067h-.007l-1.415-.114-.195-.016h-.014l-.625-.051-.192-.016-.538-.043-1.094-.09-.691-.056-.433-.036-1.031-.085-.049,0-.644-.053-.913-.077-.364-.03-.111-.009-.73-.061-.107-.009-.5-.043-2.056-.176-.242-.021-.147-.012-.2-.017-.389-.034c-2.5-.219-4.731-.425-6.453-.6l-.51-.052c-.409-.043-.784-.083-1.12-.122-.954-.108-1.6-.2-1.862-.263a19.277,19.277,0,0,1-5.141-2.235c-.859-.579-1.39-1.171-1.193-1.659a2.572,2.572,0,0,1,1.355-1.272c.485-.24.981-.4,1.305-.593l.055-.033a1.13,1.13,0,0,0,.158-.117l.023-.022a8.147,8.147,0,0,1,.635-.533,7.732,7.732,0,0,1,.727-.483l0,0a11.019,11.019,0,0,1,6.5-1.272s6.214.491,13.965,1.126h0l2.359.194h0l.8.066,1.214.1h0l2.044.17.411.034.822.069,1.647.139.82.069,2.9.247h0c2.763.237,5.414.468,7.765.682h0l.37.033c1.38.126,2.65.244,3.77.353l1.5.15c1.676.171,2.844.308,3.3.4,1.185.229,2.509.443,3.718.622l.3.043.015,0,.442.064.013,0,.492.069.669.092.268.036c1.044.139,1.738.221,1.738.221s0,.019.011.054l0,.009c0,.009,0,.02.006.031s.009.048.013.078.014.084.02.134h0c0,.012,0,.025.005.038.006.042.012.087.017.135l.011.1c0,.02,0,.04.005.06s0,.045.005.067,0,.066.007.1c0,.014,0,.027,0,.041s0,.048,0,.072,0,.025,0,.038,0,.05,0,.074S957.289,727.414,957.289,727.427Z" transform="translate(-895.022 -715.569)" fill="#d7e2ff"/>
      <path id="Path_654" data-name="Path 654" d="M1356.625,756.656c0,.025,0,.051,0,.076a2.085,2.085,0,0,1-.507,1.509l-.041.035c-.027.022-.056.044-.086.064h0l-.046.029-.048.027h0l-.05.025-.053.023-.054.02-.017.005h0l-.017.006-.018.006h0l-.02.006h0l-.02.007-.021.006h0l-.022.007-.023.007h0l-.024.008-.025.008-.053.017h0l-.027.009h0l-.028.009-.021.006-.251.08-.052.016c-.241.076-.533.166-.869.267l-.106.032-.18.054-.04.012-.057.017-.057.017-.058.017-.058.017-.059.017-.06.018-.06.017h0l-.061.017-.044.014-.017.005-.062.017-.319.093-.19.056-.166.048-.127.037-.509.145-.1.03-.183.051-.167.047-.187.052c-2.081.578-4.6,1.225-6.943,1.7l-.246.049-.121.024-.244.046q-.363.069-.719.132l-.235.04-.116.02-.231.038-.229.035-.225.034-.223.033-.22.03-.217.028-.107.013c-.142.017-.282.033-.418.048l-.1.01-.2.02c-.133.012-.263.022-.39.03-.1.007-.189.012-.281.017l-.182.008c-.09,0-.178.006-.263.006-.115,0-.226,0-.333,0-.054,0-.107,0-.159-.005l-.077,0-.15-.009-.055,0h-.013l-.036,0-.147-.011-.042,0-.053,0-.083-.006-.046,0-.046,0-.1-.007-.1-.007-.052,0-.131-.01-.063-.005-.136-.01-.059,0-.175-.013-.528-.04-.069-.006-.142-.01-.218-.017-.09-.007-.213-.016-.079-.006-.15-.011-.165-.013-.088-.006-.082-.007-.133-.01-.8-.061-.121-.009-.187-.014-.443-.034-.035,0-.395-.03h-.019l-2.554-.2-.137-.011-.555-.043-.353-.028h-.02l-.407-.032-.051,0-.727-.057-.189-.015-.058,0-.648-.051-.286-.022-.19-.014-.387-.031-.583-.046-.052,0-.241-.019h-.017l-.724-.057-.02,0-.075-.006a15.471,15.471,0,0,0,7-8.243h0c2.764.237,5.414.468,7.765.682h0l.37.033c1.38.126,2.65.244,3.77.353l1.5.15c1.676.171,2.844.308,3.3.4,1.185.229,2.509.443,3.718.622l.3.043.015,0,.442.064.013,0,.492.069.669.092.268.036c1.044.139,1.738.221,1.738.221s0,.019.011.054l0,.009c0,.009,0,.02.006.031s.009.048.013.078.014.084.02.134h0c0,.012,0,.025.005.038.006.042.012.087.017.135,0,.033.007.069.011.1,0,.02,0,.04.005.06s0,.045.005.067,0,.066.006.1c0,.014,0,.027,0,.041s0,.048,0,.072,0,.025,0,.038,0,.05,0,.074S1356.624,756.643,1356.625,756.656Z" transform="translate(-1294.358 -744.798)" fill="#f99746"/>
      <path id="Path_655" data-name="Path 655" d="M1691.144,798.8c-.339.117-1.354.436-2.747.841a4.435,4.435,0,0,0-1.963-2.759l5.546-.62C1692.073,796.951,1692.151,798.456,1691.144,798.8Z" transform="translate(-1629.764 -785.136)" fill="#e27727" opacity="0.5"/>
      <g id="Group_883" data-name="Group 883" transform="translate(10.667 8.155)">
        <path id="Path_656" data-name="Path 656" d="M1334.192,781.183h0a.351.351,0,0,1-.3-.4l.035-.391a.355.355,0,0,1,.363-.341h0a.352.352,0,0,1,.3.4l-.035.391A.355.355,0,0,1,1334.192,781.183Z" transform="translate(-1313.136 -778.24)" fill="#2b478b"/>
        <path id="Path_657" data-name="Path 657" d="M1310.467,779.133h0a.351.351,0,0,1-.3-.4l.035-.391a.355.355,0,0,1,.363-.341h0a.352.352,0,0,1,.3.4l-.035.391A.355.355,0,0,1,1310.467,779.133Z" transform="translate(-1291.11 -776.338)" fill="#2b478b"/>
        <path id="Path_658" data-name="Path 658" d="M1286.741,777.085h0a.352.352,0,0,1-.3-.4l.035-.391a.355.355,0,0,1,.363-.341h0a.351.351,0,0,1,.3.4l-.035.391A.355.355,0,0,1,1286.741,777.085Z" transform="translate(-1269.083 -774.436)" fill="#2b478b"/>
        <path id="Path_659" data-name="Path 659" d="M1263.016,775.036h0a.351.351,0,0,1-.3-.4l.035-.391a.355.355,0,0,1,.363-.341h0a.352.352,0,0,1,.3.4l-.035.391A.355.355,0,0,1,1263.016,775.036Z" transform="translate(-1247.057 -772.534)" fill="#2b478b"/>
        <path id="Path_660" data-name="Path 660" d="M1239.291,772.987h0a.352.352,0,0,1-.3-.4l.035-.391a.355.355,0,0,1,.363-.341h0a.352.352,0,0,1,.3.4l-.035.391A.355.355,0,0,1,1239.291,772.987Z" transform="translate(-1225.03 -770.632)" fill="#2b478b"/>
        <path id="Path_661" data-name="Path 661" d="M1215.565,770.939h0a.352.352,0,0,1-.3-.4l.036-.391a.355.355,0,0,1,.363-.341h0a.351.351,0,0,1,.3.4l-.035.391A.355.355,0,0,1,1215.565,770.939Z" transform="translate(-1203.004 -768.73)" fill="#2b478b"/>
        <path id="Path_662" data-name="Path 662" d="M1191.84,768.89h0a.352.352,0,0,1-.3-.4l.035-.391a.355.355,0,0,1,.363-.341h0a.352.352,0,0,1,.3.4l-.035.391A.355.355,0,0,1,1191.84,768.89Z" transform="translate(-1180.977 -766.828)" fill="#2b478b"/>
        <path id="Path_663" data-name="Path 663" d="M1168.115,766.841h0a.352.352,0,0,1-.3-.4l.035-.391a.355.355,0,0,1,.363-.341h0a.352.352,0,0,1,.3.4l-.036.391A.355.355,0,0,1,1168.115,766.841Z" transform="translate(-1158.951 -764.925)" fill="#2b478b"/>
        <path id="Path_664" data-name="Path 664" d="M1144.389,764.793h0a.351.351,0,0,1-.3-.4l.035-.391a.355.355,0,0,1,.363-.341h0a.351.351,0,0,1,.3.4l-.035.391A.355.355,0,0,1,1144.389,764.793Z" transform="translate(-1136.924 -763.024)" fill="#2b478b"/>
        <path id="Path_665" data-name="Path 665" d="M1121.137,762.784h0a.352.352,0,0,1-.3-.4l.035-.391a.355.355,0,0,1,.363-.341h0a.352.352,0,0,1,.3.4l-.035.391A.355.355,0,0,1,1121.137,762.784Z" transform="translate(-1115.337 -761.159)" fill="#2b478b"/>
        <path id="Path_666" data-name="Path 666" d="M1097.412,760.736h0a.352.352,0,0,1-.3-.4l.035-.391a.355.355,0,0,1,.363-.341h0a.352.352,0,0,1,.3.4l-.035.391A.355.355,0,0,1,1097.412,760.736Z" transform="translate(-1093.311 -759.257)" fill="#2b478b"/>
        <path id="Path_667" data-name="Path 667" d="M1073.687,758.687h0a.351.351,0,0,1-.3-.4l.035-.391a.355.355,0,0,1,.363-.341h0a.352.352,0,0,1,.3.4l-.035.391A.355.355,0,0,1,1073.687,758.687Z" transform="translate(-1071.285 -757.355)" fill="#2b478b"/>
        <path id="Path_668" data-name="Path 668" d="M1044.295,755.873h0a.352.352,0,0,1-.3-.4l.035-.391a.355.355,0,0,1,.363-.341h0a.351.351,0,0,1,.3.4l-.035.391A.355.355,0,0,1,1044.295,755.873Z" transform="translate(-1043.997 -754.743)" fill="#2b478b"/>
      </g>
      <g id="Group_884" data-name="Group 884" transform="translate(46.564 11.473)">
        <path id="Path_669" data-name="Path 669" d="M1593.055,806.3h0a.352.352,0,0,1-.3-.4l.036-.391a.355.355,0,0,1,.363-.341h0a.352.352,0,0,1,.3.4l-.035.391A.355.355,0,0,1,1593.055,806.3Z" transform="translate(-1589.36 -804.879)" fill="#2b478b"/>
        <path id="Path_670" data-name="Path 670" d="M1569.331,804.253h0a.351.351,0,0,1-.3-.4l.035-.391a.355.355,0,0,1,.363-.341h0a.351.351,0,0,1,.3.4l-.035.391A.355.355,0,0,1,1569.331,804.253Z" transform="translate(-1567.334 -802.977)" fill="#2b478b"/>
        <path id="Path_671" data-name="Path 671" d="M1545.6,802.2h0a.351.351,0,0,1-.3-.4l.035-.391a.355.355,0,0,1,.363-.341h0a.351.351,0,0,1,.3.4l-.035.391A.355.355,0,0,1,1545.6,802.2Z" transform="translate(-1545.307 -801.075)" fill="#2b478b"/>
      </g>
      <path id="Path_672" data-name="Path 672" d="M935.368,739.693l-1.158,1.093-.691.045a1.11,1.11,0,0,0,.158-.117l.023-.022a8.067,8.067,0,0,1,.635-.533,7.775,7.775,0,0,1,.727-.483l0,0Z" transform="translate(-930.762 -732.598)" fill="#2b478b"/>
      <path id="Path_673" data-name="Path 673" d="M948.21,740.5l-1.131,1.1,1.284.272.405-1.259Z" transform="translate(-943.352 -733.366)" fill="#2b478b"/>
      <path id="Path_674" data-name="Path 674" d="M968.492,742.673l-.3,1.183.952-.271.061-.824Z" transform="translate(-962.954 -735.382)" fill="#2b478b"/>
      <path id="Path_675" data-name="Path 675" d="M1267.115,840.356a.932.932,0,0,0,.217-1.436,2.826,2.826,0,0,0-1.613-.793c-1.306-.095-.776,2.565-.343,2.62A5.256,5.256,0,0,0,1267.115,840.356Z" transform="translate(-1238.408 -823.999)" fill="#2b478b"/>
      <path id="Path_676" data-name="Path 676" d="M1683.662,782.616c.052-.071,4.915-1.673,8.093-.976l-3.06,1.927-4.92-.423A.326.326,0,0,1,1683.662,782.616Z" transform="translate(-1627.104 -771.396)" fill="#355daf"/>
      <path id="Path_677" data-name="Path 677" d="M1277.015,640.854s-3.255,7.193-3.874,8.284a5.434,5.434,0,0,1-1.974,1.789l-.008,0-8.623,3.5s-10.756-.849-13.1-1.107h0c-.212-.024-.355-.043-.415-.055-.711-.151-1.044-.482-.907-.741s16.674-2.243,18.5-2.447l.052-.006c1.782-.21,1.948-.817,1.948-.817l6.823-7.82a.935.935,0,0,1,.4-.335A3.2,3.2,0,0,1,1277.015,640.854Z" transform="translate(-1222.805 -640.854)" fill="#d7e2ff"/>
      <path id="Path_678" data-name="Path 678" d="M1275.839,644.382c-1.836,2.228-6.915,8.374-7.4,8.792-.519.45-15.358,2.835-19,3.428h0c-.212-.024-.355-.043-.415-.055-.711-.151-1.044-.482-.907-.741s16.674-2.242,18.5-2.447,2-.822,2-.822l6.823-7.82A.935.935,0,0,1,1275.839,644.382Z" transform="translate(-1222.805 -644.129)" fill="#739af0"/>
      <path id="Path_679" data-name="Path 679" d="M1518,640.854s-3.254,7.193-3.874,8.284a5.434,5.434,0,0,1-1.974,1.789l-.008,0a14.341,14.341,0,0,1-4.486-.851c1.782-.21,1.948-.817,1.948-.817l6.823-7.82a.937.937,0,0,1,.4-.335A3.2,3.2,0,0,1,1518,640.854Z" transform="translate(-1463.791 -640.854)" fill="#d7e2ff"/>
      <path id="Path_680" data-name="Path 680" d="M1189.34,817.148l-.327,3.628a9.879,9.879,0,0,1-3.554.383,7.7,7.7,0,0,1-2.7-.577,2.856,2.856,0,0,1-.456-.242l.343-3.8a1.249,1.249,0,0,1,.5-.232c1.714-.439,5.927.7,5.927.7Z" transform="translate(-1161.734 -803.648)" fill="#e9f0ff"/>
      <path id="Path_681" data-name="Path 681" d="M1183.147,817.615l-.386,4.278a2.856,2.856,0,0,1-.456-.242l.343-3.8A1.248,1.248,0,0,1,1183.147,817.615Z" transform="translate(-1161.734 -804.958)" fill="#ff9843"/>
    </g>
    <g id="Group_886" data-name="Group 886" transform="translate(0 47.537)">
      <path id="Path_682" data-name="Path 682" d="M696.13,937.9l25.478-6.8c.539-.144.9-.575.8-.957l-14.286-53.707c-.1-.382-.626-.577-1.166-.433l-25.479,6.8c-.539.144-.9.575-.8.957l14.286,53.707C695.065,937.853,695.59,938.047,696.13,937.9Z" transform="translate(-680.661 -875.958)" fill="#ffe3ca"/>
      <path id="Path_683" data-name="Path 683" d="M696.13,1019.444l2.095-.559-14.655-55.1-2.095.559c-.539.144-.9.575-.8.957l14.286,53.707C695.065,1019.393,695.59,1019.588,696.13,1019.444Z" transform="translate(-680.661 -957.499)" fill="#f2be8f"/>
      <rect id="Rectangle_50" data-name="Rectangle 50" width="16.683" height="3.384" transform="matrix(0.257, 0.966, -0.966, 0.257, 18.639, 8.216)" fill="#eabc92" opacity="0.5"/>
      <rect id="Rectangle_51" data-name="Rectangle 51" width="23.746" height="3.384" transform="translate(25.891 6.281) rotate(75.105)" fill="#eabc92" opacity="0.5"/>
      <rect id="Rectangle_52" data-name="Rectangle 52" width="11.873" height="0.754" transform="matrix(0.257, 0.966, -0.966, 0.257, 21.789, 7.374)" fill="#f2be8f"/>
      <rect id="Rectangle_53" data-name="Rectangle 53" width="11.873" height="0.754" transform="translate(14.585 9.297) rotate(75.105)" fill="#f2be8f"/>
      <path id="Path_684" data-name="Path 684" d="M774.428,1021.87l.068.188a.081.081,0,0,0,.01.018l.905,1.309a.081.081,0,0,1,.014.055l-.067,2.311c-.007.061-.271-.2-.322-.235-.549-.378-2.02-1.674-2.634-2.139a.141.141,0,0,0-.224.127.306.306,0,0,0,.068.161l2.12,2.585-.112.487a.132.132,0,0,0,.1.158l.378.086a.132.132,0,0,0,.157-.1l.273.333a.081.081,0,0,1,.018.057l-.136,2.1a.8.8,0,0,0,.149.521l.136.188a.275.275,0,0,0,.393.054l.062-.049a.858.858,0,0,0,.326-.655l.036-1.675a.081.081,0,0,1,.053-.074l.635-.238-.024.1a.132.132,0,0,0,.1.158l.378.086a.133.133,0,0,0,.158-.1l.121-.524.99-.372a.435.435,0,0,0,.2-.152c.064-.088.135-.183.118-.2a21.614,21.614,0,0,0-2.513-.2c-.039,0-.033-.33-.032-.368l-.093-2.234a.081.081,0,0,1,.043-.07l.557-.3a.311.311,0,0,0,.139-.152v0a.081.081,0,0,0-.055-.111l-.883-.216a.081.081,0,0,1-.056-.049l-.083-.214a.081.081,0,0,0-.149,0l-.032.071-1.162-.821A.081.081,0,0,0,774.428,1021.87Z" transform="translate(-765.623 -1011.321)" fill="#f2be8f"/>
    </g>
  </g>
</svg>
