<svg version="1.2" baseProfile="tiny-ps" xmlns="http://www.w3.org/2000/svg" viewBox="0 0 334 71" width="220" height="47">
	<title>main-logo-svg</title>
	<style>
		tspan { white-space:pre }
		.s0 { fill: #676767 } 
		.s1 { fill: #abcc37 } 
	</style>
	<g id="Layer">
		<g id="Layer">
			<g id="SmokeBK_1_">
				<path id="Layer" class="s0" d="m54.4 55.3c-8.4 3-27.4 6.8-37.7 2.1c-13.2-4.8-14.8-16.7-2.2-23.8c-0.8 3-0.6 5.8-2.9 8.2c-3.3 3.3-2.8 7.6 0.5 11.1c11.9 10.2 33.2 4.5 42.3 2.4z" />
			</g>
			<g id="Plane">
				<g id="Layer">
					<path id="Layer" class="s0" d="m44 55.3c-2.9-2.2-5.3-4.1-8-6.1c1.2-0.7 2.3-0.6 3.4-0.2c5.5 1.8 10.7 5.6 16.8 3.3c1.1-0.4 2.5-0.1 3.7-0.1c0.4 0 0.9 0.2 0.9 0.6c0 0.4-0.3 0.7-0.7 0.9c-11.7 3.4-22.7 6.9-25.7 6.9c-1.8 0-0.6-0.2-0.3-0.9c0.2-0.7-0.5-1-0.9-1.3c-0.8-0.7-1.7-1.3-2.8-2.1c1.4-0.7 2.2-1.3 2.9-0.6c3.5 3.1 6.8 1 10.7-0.4z" />
				</g>
				<g id="Layer">
					<path id="Layer" class="s0" d="m46.6 58.4c-1.2 1.7-1.8 3.1-3.7 3.2c-0.9 0-1.7-0.4-1.8-1.1c-0.1-0.7 0.7-0.8 1.3-1c1.2-0.3 2.4-0.6 4.2-1.1z" />
				</g>
			</g>
			<g id="Lication">
				<path id="Layer" class="s1" d="m60.8 26.1c0 4.2-1.4 7.9-4.3 10.9c-3.4 3.6-7 7-10.4 10.5c-0.9 0.9-1.4 1.1-2.4 0.1c-2.4-2.5-4.9-5-7.5-7.4c-1-0.9-0.7-1.4 0-2.5c0.8-1.3 1.6-2.6 2.4-4.1c0.3-0.5 0.9-2.2 2.8-1c7.7 4.3 14.9-6.5 8.1-12.3c-4.4-3.9-11.7-0.5-12.1 5.5c-0.4 5.3-2.3 9.4-6.1 13c-3 2.8-5.9 5.7-8.7 8.7c-1 1.1-1.6 0.9-2.5-0.1c-3.4-3.5-6.9-6.8-10.2-10.3c-12.3-13.4 2.9-33.2 19-25.2c1.5 0.8 1.6 0.9 0.7 3c-0.1 0.2-0.3 0.8-0.4 1.1c-1.3 2.9-2.4 4.9-6.7 3c-3.7-1.6-7.9 2-8.4 6c-1.1 10 13.8 11.7 14.7 1.6c0.5-21.6 31.2-22.1 32-0.5z" />
			</g>
		</g>
		<g id="Layer">
			<path id="Layer" class="s0" d="m200.3 49.6c-0.3-0.3-0.4-0.9 0-1.2c0.3-0.3 1-0.3 1.3 0c0.9 0.8-0.4 2-1.3 1.2zm0.1 2.2h1.2v9.1h-1.2v-9.1z" />
			<path id="Layer" class="s0" d="m211.5 52.8c0.7 0.7 1 1.6 1 2.9v5.3h-1.2v-5.2c0-0.9-0.2-1.7-0.7-2.2c-1-1.1-3.4-0.9-4.4 0.1c-0.6 0.6-0.9 1.4-0.9 2.4v4.8h-1.2v-9.1h1.2v1.7c0.3-0.6 0.8-1 1.4-1.3c1.4-0.7 3.8-0.6 4.8 0.6z" />
			<path id="Layer" class="s0" d="m222.5 51.8l-4.1 9.1h-1.3l-4-9.1h1.3l3.4 7.8l3.4-7.8h1.3z" />
			<path id="Layer" fill-rule="evenodd" class="s0" d="m231.1 56.8h-7.6c0.1 0.9 0.4 1.7 1.1 2.3c1 0.9 2.8 1.1 4.1 0.6c0.5-0.2 0.9-0.5 1.2-0.9l0.7 0.8c-0.4 0.5-0.9 0.9-1.5 1.1c-1.3 0.6-3.2 0.5-4.5-0.2c-0.7-0.4-1.3-1-1.7-1.7c-0.8-1.4-0.8-3.4 0-4.8c1.1-2.2 4.1-2.9 6.1-1.6c0.7 0.4 1.2 0.9 1.6 1.6c0.4 0.7 0.6 1.5 0.6 2.4l-0.1 0.4zm-6.7-3.1c-0.6 0.6-0.9 1.3-1 2.2h6.5c-0.1-0.9-0.4-1.6-1-2.2c-1.1-1.2-3.3-1.2-4.5 0z" />
			<path id="Layer" class="s0" d="m240.1 52.8c0.7 0.7 1 1.6 1 2.9v5.3h-1.2v-5.2c0-0.9-0.2-1.7-0.7-2.2c-1-1.1-3.4-0.9-4.4 0.1c-0.6 0.6-0.9 1.4-0.9 2.4v4.8h-1.2v-9.1h1.2v1.7c0.3-0.6 0.8-1 1.4-1.3c1.4-0.7 3.7-0.6 4.8 0.6z" />
			<path id="Layer" class="s0" d="m248.4 60.4c-1.7 1.4-4.8 0.5-4.6-2v-5.5h-1.6v-1h1.6v-2h1.2v2h2.8v1h-2.8v5.4c-0.1 1.4 1.1 2 2.3 1.5c0.2-0.1 0.4-0.2 0.6-0.3l0.5 0.9z" />
			<path id="Layer" class="s0" d="m261.1 51.8l-4.6 10.2c-0.4 0.9-0.8 1.5-1.3 1.8c-0.8 0.6-2.1 0.7-3 0.3c-0.4-0.1-0.7-0.3-1-0.6l0.6-0.9c0.7 0.7 1.9 1 2.7 0.3c0.3-0.2 0.6-0.6 0.8-1.2l0.4-0.9l-4.1-9.1h1.3l3.4 7.7l3.4-7.7h1.4v0.1z" />
			<path id="Layer" fill-rule="evenodd" class="s0" d="m263.1 60.4c-0.7-0.4-1.3-1-1.7-1.7c-0.8-1.4-0.8-3.4 0-4.8c0.4-0.7 1-1.3 1.7-1.6c1.4-0.8 3.4-0.8 4.7 0c0.7 0.4 1.3 0.9 1.7 1.6c0.8 1.4 0.8 3.4 0 4.8c-0.4 0.7-1 1.3-1.7 1.7c-1.4 0.8-3.4 0.8-4.7 0zm4.1-0.9c0.5-0.3 0.9-0.7 1.2-1.3c0.9-1.6 0.5-4.1-1.2-5c-1-0.6-2.5-0.6-3.5 0c-1.7 0.9-2.1 3.4-1.2 5c0.3 0.5 0.7 1 1.2 1.3c1 0.6 2.5 0.6 3.5 0z" />
			<path id="Layer" class="s0" d="m279.9 51.8v9.1h-1.2v-1.7c-0.3 0.6-0.8 1-1.3 1.3c-1.4 0.8-3.7 0.6-4.8-0.5c-0.7-0.7-1-1.6-1-2.9v-5.3h1.2v5.2c-0.2 2.9 3.2 3.8 5 2.1c0.6-0.6 0.8-1.4 0.8-2.4v-4.8h1.3v-0.1z" />
			<path id="Layer" class="s0" d="m285 52.2c0.6-0.3 1.3-0.5 2.1-0.5v1.3h-0.3c-1 0-1.7 0.3-2.3 0.9c-0.5 0.6-0.8 1.4-0.8 2.5v4.6h-1.2v-9.1h1.2v1.8c0.3-0.7 0.7-1.2 1.3-1.5z" />
			<path id="Layer" class="s0" d="m305.6 51.8l-3.4 9.1h-1.2l-2.9-7.5l-2.9 7.5h-1.2l-3.4-9.1h1.2l2.9 7.7l2.9-7.7h1.1l2.9 7.7l2.9-7.7h1.1z" />
			<path id="Layer" fill-rule="evenodd" class="s0" d="m312.3 52.7c0.6 0.6 1 1.5 1 2.6v5.7h-1.2v-1.4c-0.3 0.5-0.7 0.8-1.2 1.1c-1.2 0.6-3.4 0.5-4.3-0.3c-1.2-0.9-1.2-2.9-0.1-3.8c0.6-0.5 1.5-0.7 2.7-0.7h2.9v-0.6c0-0.8-0.2-1.4-0.7-1.8c-0.8-0.8-2.5-0.7-3.6-0.3c-0.5 0.2-1 0.5-1.4 0.8l-0.6-0.9c0.5-0.4 1-0.7 1.7-0.9c1.4-0.6 3.8-0.6 4.8 0.5zm-1.4 6.9c0.5-0.3 0.9-0.8 1.1-1.4v-1.5h-2.9c-2.2-0.2-3.1 1.7-1.7 2.9c0.8 0.6 2.6 0.6 3.5 0z" />
			<path id="Layer" class="s0" d="m323.2 51.8l-4.6 10.2c-0.4 0.9-0.8 1.5-1.3 1.8c-0.8 0.6-2.1 0.7-3 0.3c-0.4-0.1-0.7-0.3-1-0.6l0.6-0.9c0.7 0.7 1.9 1 2.7 0.3c0.3-0.2 0.6-0.6 0.8-1.2l0.4-0.9l-4.1-9.1h1.3l3.4 7.7l3.4-7.7h1.4v0.1z" />
		</g>
		<g id="Layer">
			<g id="Layer">
				<path id="Layer" class="s0" d="m93.6 33.1c-0.6 13.9-20.4 13.8-21 0v-17.1h5.4v17c0.3 6.7 9.8 6.7 10.1 0v0v-17h5.4l0.1 17.1v0z" />
			</g>
			<g id="Layer">
				<path id="Layer" class="s0" d="m117.4 16v5.4h-7.5v21.6h-5.4v-21.6h-7.5v-5.4h20.4z" />
			</g>
			<g id="Layer">
				<path id="Layer" class="s0" d="m141.7 16v5.4h-7.5v21.6h-5.4v-21.6h-7.5v-5.4h20.4z" />
			</g>
			<g id="Layer">
				<path id="Layer" class="s0" d="m163.4 21.4h-18v-5.4h18v5.4zm-18 5.1h14.9v5.4h-14.9v-5.4zm0 11.2h17.9v5.4h-17.9v-5.4z" />
			</g>
			<g id="Layer">
				<path id="Layer" class="s0" d="m173.4 21.4v21.6h-5.4v-27h10.6c8.7 0.1 11.2 11.9 3.4 15.5l5.4 11.6h-5.7l-5.1-10.8v-5.4h2.1c3.6-0.1 3.6-5.3 0-5.4h-5.3v-0.1z" />
			</g>
			<g id="Layer">
				<path id="Layer" class="s1" d="m210.5 43.1l-12.2-27h6l7.1 15.3l7-15.3h6l-12.2 27h-1.7z" />
			</g>
			<g id="Layer">
				<path id="Layer" class="s1" d="m226.5 43v-27h5.4v27h-5.4z" />
			</g>
			<g id="Layer">
				<path id="Layer" class="s1" d="m245.5 31.6c-0.9-0.2-2.5-0.7-4.1-1.7c-2.2-1.4-3.4-3.5-3.5-6.1c-0.1-2.2 0.6-4 2-5.5c4.5-4.5 11-2.5 14.4 0l0.9 0.6l-2.8 4.6l-1-0.6c-2.1-1.4-5.1-2.9-7.6-0.8c-0.2 0.2-0.5 0.7-0.5 1.5c0 1.4 1 2.2 3.5 2.8c0.3 0.1 0.5 0.2 0.8 0.2c2.6 0.9 4.6 2.1 6 3.6c2.9 3.1 2.8 7.6 0 10.6c-2.9 3.2-6.6 3.3-11 2.1c-2.4-0.8-4.6-2.1-6.4-4.1l3.9-3.7c2.9 3 6.1 3 7.2 3c2.2 0 3-2 3-2.7c0-1.5-1.7-2.8-4.5-3.8h-0.1l-0.2 0z" />
			</g>
			<g id="Layer">
				<path id="Layer" class="s1" d="m259.9 43v-27h5.4v27h-5.4z" />
			</g>
			<g id="Layer">
				<path id="Layer" fill-rule="evenodd" class="s1" d="m296 29.5c0 7.7-6.3 14-14 14c-18.6-0.8-18.6-27.2 0-28c7.7 0 14 6.3 14 14zm-22.5 0c0 4.7 3.8 8.4 8.4 8.4c11.2-0.4 11.2-16.5 0-16.9c-4.6 0.1-8.4 3.9-8.4 8.5z" />
			</g>
			<g id="Layer">
				<path id="Layer" class="s1" d="m321.2 43.1l-15.2-15.8v15.8h-5.4v-27.1h1.7l14.9 15.1v-15.1h5.4v27h-1.4v0.1z" />
			</g>
		</g>
	</g>
</svg>