<svg id="visa_F1_08_Converted_" data-name="visa_F1_08 [Converted]" xmlns="http://www.w3.org/2000/svg" width="131.522" height="84" viewBox="0 0 131.522 84">
  <rect id="Rectangle_1" data-name="Rectangle 1" width="61.821" height="90.135" transform="translate(33.507 61.192) rotate(-81.82)" fill="#fff"/>
  <rect id="Rectangle_2" data-name="Rectangle 2" width="17.681" height="90.135" transform="translate(39.788 17.503) rotate(-81.82)" fill="#bb133e"/>
  <rect id="Rectangle_3" data-name="Rectangle 3" width="17.681" height="42.038" transform="translate(39.791 17.502) rotate(-81.82)" fill="#002664"/>
  <rect id="Rectangle_4" data-name="Rectangle 4" width="38.082" height="3.709" transform="translate(86.441 27.576) rotate(8.18)" fill="#b3b3b3"/>
  <rect id="Rectangle_5" data-name="Rectangle 5" width="17.434" height="3.709" transform="translate(85.551 34.242) rotate(8.049)" fill="#b3b3b3"/>
  <rect id="Rectangle_6" data-name="Rectangle 6" width="34.991" height="34.743" transform="translate(38.986 56.107) rotate(-81.82)" fill="gray"/>
  <rect id="Rectangle_7" data-name="Rectangle 7" width="27.943" height="3.709" transform="translate(84.382 41.896) rotate(8.18)" fill="#b3b3b3"/>
  <rect id="Rectangle_8" data-name="Rectangle 8" width="19.412" height="3.709" transform="translate(83.318 50.038) rotate(8.049)" fill="#b3b3b3"/>
  <rect id="Rectangle_9" data-name="Rectangle 9" width="33.136" height="3.709" transform="translate(82.143 58.365) rotate(8.049)" fill="#b3b3b3"/>
  <rect id="Rectangle_10" data-name="Rectangle 10" width="17.434" height="3.709" transform="translate(105.894 37.368) rotate(8.18)" fill="#b3b3b3"/>
  <path id="Path_1" data-name="Path 1" d="M1309,176.688l2.84-6.107,1.947.28-4.175,8.063-1.824-.262-1.723-8.911,1.941.279Z" transform="translate(-1255.753 -163.211)" fill="#fff"/>
  <path id="Path_2" data-name="Path 2" d="M1500.259,210.739l-1.749-.252,1.221-8.487,1.749.252Z" transform="translate(-1440.791 -194.218)" fill="#fff"/>
  <path id="Path_3" data-name="Path 3" d="M1590.6,228.213a.906.906,0,0,0-.24-.811,4.644,4.644,0,0,0-1.179-.741,8.855,8.855,0,0,1-1.356-.787,2.376,2.376,0,0,1-1.143-2.311,2.067,2.067,0,0,1,.564-1.171,2.553,2.553,0,0,1,1.233-.682,4.233,4.233,0,0,1,1.673-.069,3.853,3.853,0,0,1,1.573.562,2.616,2.616,0,0,1,.972,1.088,2.458,2.458,0,0,1,.2,1.421l-1.749-.252a1.156,1.156,0,0,0-.237-.959,1.52,1.52,0,0,0-.985-.47,1.634,1.634,0,0,0-1.036.128.864.864,0,0,0-.458.663.827.827,0,0,0,.317.754,4.743,4.743,0,0,0,1.152.7,5.373,5.373,0,0,1,2.014,1.425,2.236,2.236,0,0,1,.444,1.754,2.064,2.064,0,0,1-1.082,1.609,3.682,3.682,0,0,1-2.335.3,4.376,4.376,0,0,1-1.733-.616,2.855,2.855,0,0,1-1.086-1.159,2.543,2.543,0,0,1-.214-1.506l1.755.252q-.2,1.405,1.477,1.647a1.653,1.653,0,0,0,1.01-.114A.836.836,0,0,0,1590.6,228.213Z" transform="translate(-1524.791 -213.052)" fill="#fff"/>
  <path id="Path_4" data-name="Path 4" d="M1763.67,258.177l-3.066-.441-.835,1.665-1.86-.268,4.381-8.033,1.62.231,1.956,8.945-1.86-.268Zm-2.388-1.79,2.122.305-.61-3.331Z" transform="translate(-1690.199 -241.427)" fill="#fff"/>
  <circle id="Ellipse_2" data-name="Ellipse 2" cx="8.16" cy="8.16" r="8.16" transform="translate(47.904 35.692) rotate(-45)" fill="#b3b3b3"/>
  <path id="Path_5" data-name="Path 5" d="M1092.11,1191.25l28.175,4.052a14.281,14.281,0,0,0-28.175-4.052Z" transform="translate(-1050.044 -1134.698)" fill="#b3b3b3"/>
  <path id="Path_6" data-name="Path 6" d="M49.775,646.723l-39.322,8.454L0,602.514l39.322-8.454Z" transform="translate(0 -571.177)" fill="#001d4d"/>
  <path id="Path_7" data-name="Path 7" d="M208.449,1003.645l.286,1.442-.766.165-.789-3.975,1.461-.314a1.484,1.484,0,0,1,1.106.127,1.2,1.2,0,0,1,.56.839,1.227,1.227,0,0,1-.2,1,1.537,1.537,0,0,1-.967.571Zm-.12-.614.693-.15a.65.65,0,0,0,.45-.286.683.683,0,0,0,.073-.5.693.693,0,0,0-.258-.438.619.619,0,0,0-.524-.082l-.7.149Z" transform="translate(-199.2 -962.359)" fill="#ffbd73"/>
  <path id="Path_8" data-name="Path 8" d="M298.645,987.069l-1.238.266-.087.913-.8.172.5-4.252L297.8,984l2.072,3.7-.8.172Zm-1.173-.4.863-.186-.7-1.31-.015,0Z" transform="translate(-285.099 -946.097)" fill="#ffbd73"/>
  <path id="Path_9" data-name="Path 9" d="M378.706,967.549a.476.476,0,0,0-.227-.336,1.521,1.521,0,0,0-.591-.146,3.026,3.026,0,0,1-1.1-.273.942.942,0,0,1-.495-.693,1.012,1.012,0,0,1,.227-.881,1.581,1.581,0,0,1,.922-.522,1.529,1.529,0,0,1,1.088.113,1.064,1.064,0,0,1,.547.793l0,.018-.743.158a.593.593,0,0,0-.264-.42.694.694,0,0,0-.517-.056.651.651,0,0,0-.41.237.486.486,0,0,0-.083.4.4.4,0,0,0,.234.3,2.2,2.2,0,0,0,.634.15,2.464,2.464,0,0,1,1.057.278,1.013,1.013,0,0,1,.487.717.992.992,0,0,1-.223.886,1.687,1.687,0,0,1-.954.512,1.776,1.776,0,0,1-1.122-.092,1.072,1.072,0,0,1-.618-.861l0-.017.743-.159a.641.641,0,0,0,.3.476.823.823,0,0,0,.573.05.738.738,0,0,0,.442-.235A.455.455,0,0,0,378.706,967.549Z" transform="translate(-361.777 -927.492)" fill="#ffbd73"/>
  <path id="Path_10" data-name="Path 10" d="M464.929,949.01a.475.475,0,0,0-.226-.335,1.528,1.528,0,0,0-.591-.146,3.034,3.034,0,0,1-1.1-.273.939.939,0,0,1-.495-.693,1.013,1.013,0,0,1,.227-.881,1.581,1.581,0,0,1,.922-.522,1.529,1.529,0,0,1,1.088.114,1.062,1.062,0,0,1,.547.793v.018l-.742.159a.593.593,0,0,0-.264-.42.7.7,0,0,0-.517-.055.649.649,0,0,0-.41.236.487.487,0,0,0-.084.4.4.4,0,0,0,.234.3,2.19,2.19,0,0,0,.634.15,2.464,2.464,0,0,1,1.056.279,1.013,1.013,0,0,1,.487.716.992.992,0,0,1-.223.886,1.7,1.7,0,0,1-.956.515,1.784,1.784,0,0,1-1.122-.092,1.066,1.066,0,0,1-.616-.86l0-.018.742-.159a.641.641,0,0,0,.3.476.82.82,0,0,0,.574.05.738.738,0,0,0,.442-.235A.456.456,0,0,0,464.929,949.01Z" transform="translate(-444.679 -909.667)" fill="#ffbd73"/>
  <path id="Path_11" data-name="Path 11" d="M546.389,930.995l.286,1.442-.766.165-.789-3.975,1.461-.314a1.484,1.484,0,0,1,1.105.127,1.2,1.2,0,0,1,.56.839,1.227,1.227,0,0,1-.2,1,1.53,1.53,0,0,1-.967.57Zm-.122-.616.7-.148a.648.648,0,0,0,.449-.286.682.682,0,0,0,.072-.5.693.693,0,0,0-.258-.438.617.617,0,0,0-.523-.082l-.7.149Z" transform="translate(-524.123 -892.507)" fill="#ffbd73"/>
  <path id="Path_12" data-name="Path 12" d="M642.143,909.739a1.765,1.765,0,0,1-.2,1.306,1.563,1.563,0,0,1-1.06.724,1.494,1.494,0,0,1-1.244-.231,1.727,1.727,0,0,1-.681-1.115l-.142-.715a1.777,1.777,0,0,1,.2-1.3,1.542,1.542,0,0,1,1.05-.725,1.514,1.514,0,0,1,1.252.231,1.714,1.714,0,0,1,.686,1.112Zm-.907-.557a1.239,1.239,0,0,0-.374-.714.8.8,0,0,0-1.221.265,1.306,1.306,0,0,0-.066.809l.143.721a1.277,1.277,0,0,0,.37.72.714.714,0,0,0,.668.167.751.751,0,0,0,.555-.429,1.294,1.294,0,0,0,.067-.817Z" transform="translate(-614.167 -872.676)" fill="#ffbd73"/>
  <path id="Path_13" data-name="Path 13" d="M731.238,891.742l.315,1.589-.766.164L730,889.521l1.322-.284a1.554,1.554,0,0,1,1.083.09,1.073,1.073,0,0,1,.539.785.924.924,0,0,1-.051.562,1.139,1.139,0,0,1-.385.457.824.824,0,0,1,.555.242,1.159,1.159,0,0,1,.27.569l.058.292a1.521,1.521,0,0,0,.112.339.481.481,0,0,0,.2.237l.011.057-.789.17a.447.447,0,0,1-.193-.26,2.668,2.668,0,0,1-.108-.385l-.056-.281a.648.648,0,0,0-.248-.429.582.582,0,0,0-.474-.069Zm-.122-.616.543-.116a.725.725,0,0,0,.452-.245.557.557,0,0,0,.074-.455.593.593,0,0,0-.245-.4.631.631,0,0,0-.5-.061l-.557.12Z" transform="translate(-701.882 -854.933)" fill="#ffbd73"/>
  <path id="Path_14" data-name="Path 14" d="M811.485,865.3l-1.091.235.667,3.361-.766.165-.667-3.362-1.075.231-.122-.614,2.933-.631Z" transform="translate(-777.291 -831.373)" fill="#ffbd73"/>
  <path id="Path_15" data-name="Path 15" d="M391.514,1194.093a11.222,11.222,0,0,0-4.611-7.12l0-.007-.336-.216a10.475,10.475,0,0,0-7.637-1.5h0l-.095.019-.134.028h0l-.032.006-.133.029h-.005l-.09.021h0q-.326.077-.645.175-.244.077-.483.161-.359.129-.707.283a10.932,10.932,0,0,0-4.638,3.917h0l-.225.335.006,0a11.577,11.577,0,0,0-1.523,8.439,11.362,11.362,0,0,0,4.749,7.214l0,.008.35.217a10.471,10.471,0,0,0,7.749,1.352l.064-.014a10.48,10.48,0,0,0,1.215-.347q.237-.083.47-.178.116-.047.231-.1c.136-.059.27-.121.4-.185l.109-.053c.1-.049.2-.1.292-.151.077-.042.153-.083.228-.126a10.819,10.819,0,0,0,.994-.639c.1-.072.2-.144.292-.219s.164-.128.244-.193a11.124,11.124,0,0,0,2.07-2.254l.239-.344-.007-.005A11.719,11.719,0,0,0,391.514,1194.093Zm-2.262,8.1a10.009,10.009,0,0,0-2.631-1.228,16,16,0,0,0-.015-5.4l4.2-.9A10.862,10.862,0,0,1,389.252,1202.194Zm-.482.693-.066.085-.077.1-.069.085-.077.1c-.025.031-.047.056-.071.084l-.077.092c-.025.03-.049.055-.073.083l-.081.09-.075.081-.082.088c-.028.029-.05.053-.077.079l-.084.086-.077.077-.086.084-.077.077-.089.082-.08.073-.092.081-.08.069-.1.081-.077.066-.1.08-.077.062-.11.084-.07.053q-.077.059-.158.116l-.039.027c-.057.039-.116.081-.172.12l-.069.046c-.039.026-.08.053-.12.077l-.081.051-.111.07-.085.051-.109.065-.088.051-.109.062-.091.049-.109.058-.092.048-.11.056-.093.046-.111.053-.094.043-.112.05-.1.041-.116.048-.1.039-.116.045-.012.005a11.146,11.146,0,0,0,2.093-4.44,9.246,9.246,0,0,1,2.331,1.087Zm-7.445,3.969-.106,0-.12,0h-.452l-.107,0-.119,0-.107-.005-.119-.008-.106-.008-.119-.011-.105-.01-.121-.014-.1-.012-.124-.017-.1-.014-.133-.021-.09-.015-.174-.032-.077-.015-.189-.039-.086-.02-.134-.032-.094-.024-.125-.033-.1-.027-.122-.035-.1-.03-.119-.038-.1-.033-.117-.038-.1-.035-.116-.043-.1-.039-.116-.046-.095-.038-.116-.049-.093-.039-.116-.053-.091-.042-.116-.056-.089-.043c-.039-.02-.08-.039-.119-.061l-.085-.044-.122-.066-.081-.044-.026-.015a9.626,9.626,0,0,1,1.742-1.975,10.65,10.65,0,0,0,3.618,3.214h0ZM370.93,1198.1a10.71,10.71,0,0,1,1.47-7.391,10.006,10.006,0,0,0,2.681,1.29,16.145,16.145,0,0,0,.082,5.192Zm1.949-8.1c.02-.027.039-.054.061-.082l.081-.107.064-.081.082-.1.066-.08.084-.1.068-.08.086-.1.07-.077.087-.1.071-.077.089-.093.072-.074.092-.092.073-.072.1-.091.073-.068.1-.09.072-.064.107-.092.068-.058c.038-.033.077-.065.118-.1l.06-.049.16-.125.021-.016q.091-.071.185-.138l.053-.038.134-.1.072-.049c.039-.026.077-.053.118-.08l.079-.052.113-.072.084-.052.111-.068.087-.051.111-.064.09-.05.111-.061.092-.048.112-.057.093-.047c.039-.019.075-.039.112-.055l.094-.045.116-.052.1-.042.116-.05.1-.039.1-.039a11.377,11.377,0,0,0-2.041,4.588,9.223,9.223,0,0,1-2.372-1.15Zm7.806-4.1h.337l.127,0c.035,0,.069,0,.1,0l.128.006.1.006.129.009.1.008.131.012.1.01.133.016.1.012.138.02.09.014.146.025.081.014.165.032.061.012q.227.047.452.106l.047.013.176.048.073.022.149.045.082.027.138.045.087.03.133.047.089.033.129.049.091.039.126.051.091.038.123.054.092.042.121.057.091.044c.039.02.08.038.12.06l.091.046.119.063.09.049.116.066.089.051.039.022a9.685,9.685,0,0,1-1.719,2.009,10.91,10.91,0,0,0-3.6-3.351l.07,0Zm5.763,8.863a15.927,15.927,0,0,0-1.912-4.82,10.494,10.494,0,0,0,1.946-2.264,10.371,10.371,0,0,1,4.164,6.181Zm-4.03,11.632a9.43,9.43,0,0,1-3.954-3.257,9.127,9.127,0,0,1,3.037-1.439Zm-.138-4.865a9,9,0,0,1,3.4.052,9.78,9.78,0,0,1-2.473,4.708Zm-.159-.812-.784-4.011,4.49-.965a15.137,15.137,0,0,1,.019,5.031,9.776,9.776,0,0,0-3.725-.054Zm-.942-4.824-.738-3.778a10.043,10.043,0,0,0,3.462-1.664,15.033,15.033,0,0,1,1.765,4.477Zm-1.884-9.646a9.525,9.525,0,0,1,4.165,3.516,9.252,9.252,0,0,1-3.177,1.541Zm.208,5.224a8.944,8.944,0,0,1-3.505-.086,9.951,9.951,0,0,1,2.514-4.99Zm-3.65.728a9.69,9.69,0,0,0,3.809.084l.738,3.775-4.46.959a15.292,15.292,0,0,1-.087-4.816Zm4.7,4.672.784,4.015a9.9,9.9,0,0,0-3.338,1.575,14.872,14.872,0,0,1-1.9-4.632Zm-9.467,2.035,4.233-.91a15.708,15.708,0,0,0,2.043,4.964,10.433,10.433,0,0,0-1.964,2.228,10.5,10.5,0,0,1-4.312-6.281Z" transform="translate(-355.745 -1139.419)" fill="#ffbd73"/>
  <path id="Path_16" data-name="Path 16" d="M2375.939,466.224l-.4,2.266c-.067.4.033.505.262.582.108.035.2.066.214.2.017.181-.192.193-.32.205l-.743.069c-.129.012-.363.027-.38-.16-.014-.154.1-.159.231-.243a.948.948,0,0,0,.37-.718l.514-2.909h.02Zm.871,1.881-.944.087.056-.385.789-.073-.917-2.8.052-.357,1.428-.132,1.348,3.995c.056.177.073.3.261.36.094.03.169.069.18.186.016.174-.217.189-.34.2l-1.609.149c-.129.012-.318.017-.333-.152-.009-.1.027-.139.106-.193.159-.113.181-.16.1-.407Z" transform="translate(-2283.104 -446.559)" fill="#fff"/>
  <path id="Path_17" data-name="Path 17" d="M2487.655,455.495c-.022-.239-.019-.278-.252-.329a.18.18,0,0,1-.158-.161c-.017-.188.195-.22.221-.223l1.706-.158.38,4.11c.022.239.019.278.252.329a.18.18,0,0,1,.158.161c.017.187-.195.22-.22.222l-1.829.169c-.026,0-.24.009-.257-.178a.18.18,0,0,1,.126-.188c.219-.092.209-.13.187-.369Zm1.807-.9a2.467,2.467,0,0,1,1.3.121,1.522,1.522,0,0,1,.232,2.509,2.466,2.466,0,0,1-1.258.357l-.035-.375c.375-.106.37-.373.341-.689l-.09-.976c-.027-.291-.109-.55-.457-.57Z" transform="translate(-2391.441 -437.061)" fill="#fff"/>
  <path id="Path_18" data-name="Path 18" d="M2607.455,444.433c-.022-.239-.019-.279-.252-.329a.179.179,0,0,1-.158-.161c-.017-.188.193-.22.22-.222l1.706-.158.379,4.11c.023.239.02.278.252.329a.179.179,0,0,1,.158.161c.018.187-.194.22-.22.222l-1.829.169c-.026,0-.24.009-.258-.178a.179.179,0,0,1,.126-.188c.22-.092.21-.13.188-.369Zm1.807-.9a2.466,2.466,0,0,1,1.3.121,1.522,1.522,0,0,1,.231,2.509,2.466,2.466,0,0,1-1.258.357l-.034-.375c.374-.106.369-.373.34-.69l-.09-.976c-.027-.291-.11-.55-.457-.57Z" transform="translate(-2506.626 -426.425)" fill="#fff"/>
  <path id="Path_19" data-name="Path 19" d="M2730.265,432.633c-.022-.239-.019-.279-.252-.329a.18.18,0,0,1-.158-.161c-.017-.187.195-.22.221-.222l1.706-.158.38,4.11c.022.239.019.278.252.329a.18.18,0,0,1,.158.161c.017.188-.2.22-.221.223l-1.829.169c-.026,0-.24.009-.258-.178a.18.18,0,0,1,.126-.188c.219-.092.209-.13.187-.369Zm1.807-.9.032,0a2.835,2.835,0,0,1,1.263.059,1.12,1.12,0,0,1,.757,1c.082.742-.38,1.11-1.025,1.326v.013c.583.031,1.148.148,1.224.832l.052.568c.006.058,0,.189.082.181.1-.01.106-.2.261-.213a.214.214,0,0,1,.2.17.887.887,0,0,1-.306.569,1.068,1.068,0,0,1-.708.3.988.988,0,0,1-.756-.2,1.085,1.085,0,0,1-.334-.8l-.038-.439c-.028-.3-.067-.658-.459-.661l-.035-.381c.347-.065.371-.282.342-.6l-.073-.782c-.03-.323-.116-.472-.449-.558Z" transform="translate(-2624.706 -415.062)" fill="#fff"/>
  <path id="Path_20" data-name="Path 20" d="M2860.412,419.142a.434.434,0,0,0-.286.5l.308,3.347a.435.435,0,0,0,.373.435l.034.375a2.588,2.588,0,0,1-.464-5.027Zm.686,4.251a.435.435,0,0,0,.287-.5l-.308-3.348a.435.435,0,0,0-.372-.435l-.035-.375a2.588,2.588,0,0,1,.465,5.028Z" transform="translate(-2748.477 -402.61)" fill="#fff"/>
  <path id="Path_21" data-name="Path 21" d="M2975.051,411.2l-.93.086-1.626-4.041c-.069-.183-.052-.2-.233-.265a.2.2,0,0,1-.147-.176c-.02-.213.252-.231.4-.246l1.415-.131c.149-.014.455-.081.477.151.023.252-.27.169-.247.433a.636.636,0,0,0,.049.185l1.061,2.731Zm.063-2.424.249-1.464a.677.677,0,0,0,.022-.256.332.332,0,0,0-.278-.326c-.114-.029-.208-.059-.219-.188-.019-.2.214-.222.349-.234l.711-.066c.142-.013.379-.061.4.146.013.142-.077.17-.18.231a.611.611,0,0,0-.3.3,1.571,1.571,0,0,0-.135.449l-.357,2.06h-.013Z" transform="translate(-2857.634 -390.575)" fill="#fff"/>
  <path id="Path_22" data-name="Path 22" d="M3086.267,396.807l1.706-.158.447,4.834-1.706.158c-.026,0-.24.009-.258-.178a.18.18,0,0,1,.126-.188c.219-.092.209-.13.188-.369l-.313-3.386c-.022-.239-.019-.279-.252-.329a.181.181,0,0,1-.159-.161C3086.029,396.842,3086.24,396.81,3086.267,396.807Zm2-.184,1.441-.133.121,1.312c0,.032.008.154-.186.173-.11.01-.148-.051-.189-.145A1.249,1.249,0,0,0,3088.3,397Zm.2,2.157a.694.694,0,0,0,.4-.611c.022-.113.052-.22.187-.231.2-.018.19.217.193.27l.129,1.4c.005.052.059.281-.142.3-.135.013-.184-.087-.226-.193a.694.694,0,0,0-.505-.527Zm.212,2.3a1.33,1.33,0,0,0,1.012-1.04c.036-.1.065-.208.182-.219a.185.185,0,0,1,.208.2l.119,1.292-1.486.138Z" transform="translate(-2967.177 -381.217)" fill="#fff"/>
  <path id="Path_23" data-name="Path 23" d="M3196.947,394.468l-1.641.15c-.143.013-.3.015-.322-.172a.18.18,0,0,1,.126-.188c.219-.092.209-.13.188-.369l-.313-3.386c-.009-.1-.012-.273-.139-.3s-.258-.041-.273-.2.144-.2.274-.214l1.656-.154Zm-.154-4.861c1.1-.116,2.085.563,2.317,2.223a2.181,2.181,0,0,1-1.87,2.61l-.035-.375c.389-.088.375-.458.352-.7l-.254-2.753c-.023-.245-.077-.612-.475-.627Z" transform="translate(-3071.524 -374.587)" fill="#fff"/>
  <path id="Path_24" data-name="Path 24" d="M2322.1,274.89,2288.421,278a4.373,4.373,0,0,1-4.751-3.947l-.55-5.95a4.373,4.373,0,0,1,3.947-4.751l33.682-3.111a4.373,4.373,0,0,1,4.751,3.947l.55,5.95A4.374,4.374,0,0,1,2322.1,274.89Zm-34.936-10.46A3.29,3.29,0,0,0,2284.2,268l.55,5.949a3.29,3.29,0,0,0,3.574,2.97L2322,273.811a3.29,3.29,0,0,0,2.97-3.574l-.55-5.95a3.289,3.289,0,0,0-3.574-2.97Z" transform="translate(-2195.162 -250.199)" fill="#fff"/>
</svg>
