<svg xmlns="http://www.w3.org/2000/svg" viewBox="0 0 124.66 124.66"><defs><style>.cls-1{isolation:isolate;}.cls-2{opacity:0.4;mix-blend-mode:multiply;}.cls-3{fill:#fff;}.cls-4{fill:#fafdf7;}.cls-5{fill:#f5fcef;}.cls-6{fill:#effae7;}.cls-7{fill:#eaf8df;}.cls-8{fill:#e5f6d7;}.cls-9{fill:#e0f5d0;}.cls-10{fill:#daf3c8;}.cls-11{fill:#d5f1c0;}.cls-12{fill:#d0efb8;}.cls-13{fill:#cbeeb0;}.cls-14{fill:#c6eca8;}.cls-15{fill:#c0eaa0;}.cls-16{fill:#bbe898;}.cls-17{fill:#b6e790;}.cls-18{fill:#b1e588;}.cls-19{fill:#abe381;}.cls-20{fill:#a6e179;}.cls-21{fill:#a1e071;}.cls-22{fill:#9cde69;}.cls-23{fill:#96dc61;}.cls-24{fill:#91da59;}.cls-25{fill:#8cd951;}.cls-26{fill:#87d749;}.cls-27{fill:#82d541;}.cls-28{fill:#7cd339;}.cls-29{fill:#77d232;}.cls-30{fill:#72d02a;}.cls-31{fill:#6dce22;}.cls-32{fill:#67cc1a;}.cls-33{fill:#62cb12;}.cls-34{fill:#5dc90a;}</style></defs><title>Asset 3</title><g class="cls-1"><g id="Layer_2" data-name="Layer 2"><g id="Layer_1-2" data-name="Layer 1"><g class="cls-2"><circle class="cls-3" cx="47.52" cy="77.15" r="47.52"/><circle class="cls-4" cx="48.44" cy="76.22" r="47.52" transform="translate(-0.43 0.27) rotate(-0.32)"/><circle class="cls-5" cx="49.36" cy="75.3" r="47.52" transform="translate(-0.88 0.58) rotate(-0.67)"/><circle class="cls-6" cx="50.29" cy="74.38" r="47.52" transform="translate(-1.34 0.93) rotate(-1.04)"/><circle class="cls-7" cx="51.21" cy="73.45" r="47.52" transform="matrix(1, -0.03, 0.03, 1, -1.83, 1.31)"/><circle class="cls-8" cx="52.13" cy="72.53" r="47.52" transform="matrix(1, -0.03, 0.03, 1, -2.34, 1.74)"/><circle class="cls-9" cx="53.06" cy="71.61" r="47.52" transform="translate(-2.87 2.22) rotate(-2.33)"/><circle class="cls-10" cx="53.98" cy="70.68" r="47.52" transform="translate(-3.43 2.76) rotate(-2.83)"/><circle class="cls-11" cx="54.91" cy="69.76" r="47.52" transform="translate(-4.02 3.36) rotate(-3.38)"/><circle class="cls-12" cx="55.83" cy="68.84" r="47.52" transform="matrix(1, -0.07, 0.07, 1, -4.63, 4.03)"/><circle class="cls-13" cx="56.75" cy="67.91" r="47.52" transform="translate(-5.28 4.79) rotate(-4.62)"/><circle class="cls-14" cx="57.68" cy="66.99" r="47.52" transform="translate(-5.97 5.64) rotate(-5.32)"/><circle class="cls-15" cx="58.6" cy="66.06" r="47.52" transform="matrix(0.99, -0.11, 0.11, 0.99, -6.69, 6.6)"/><circle class="cls-16" cx="59.52" cy="65.14" r="47.52" transform="translate(-7.45 7.68) rotate(-6.95)"/><circle class="cls-17" cx="60.45" cy="64.22" r="47.52" transform="translate(-8.25 8.91) rotate(-7.89)"/><circle class="cls-18" cx="61.37" cy="63.29" r="47.52" transform="translate(-9.09 10.3) rotate(-8.94)"/><circle class="cls-19" cx="62.29" cy="62.37" r="47.52" transform="translate(-9.97 11.88) rotate(-10.09)"/><circle class="cls-20" cx="63.22" cy="61.45" r="47.52" transform="matrix(0.98, -0.2, 0.2, 0.98, -10.88, 13.68)"/><circle class="cls-21" cx="64.14" cy="60.52" r="47.52" transform="translate(-11.83 15.74) rotate(-12.82)"/><circle class="cls-22" cx="65.06" cy="59.6" r="47.52" transform="translate(-12.79 18.08) rotate(-14.42)"/><circle class="cls-23" cx="65.99" cy="58.68" r="47.52" transform="translate(-13.75 20.74) rotate(-16.2)"/><circle class="cls-24" cx="66.91" cy="57.75" r="47.52" transform="translate(-14.68 23.77) rotate(-18.19)"/><circle class="cls-25" cx="67.84" cy="56.83" r="47.52" transform="translate(-15.55 27.19) rotate(-20.39)"/><circle class="cls-26" cx="68.76" cy="55.91" r="47.52" transform="translate(-16.29 31.02) rotate(-22.81)"/><circle class="cls-27" cx="69.68" cy="54.98" r="47.52" transform="translate(-16.86 35.27) rotate(-25.44)"/><circle class="cls-28" cx="70.61" cy="54.06" r="47.52" transform="translate(-17.18 39.9) rotate(-28.28)"/><circle class="cls-29" cx="71.53" cy="53.13" r="47.52" transform="translate(-16.62 66.14) rotate(-45)"/><circle class="cls-30" cx="72.45" cy="52.21" r="47.52" transform="translate(-15.7 66.52) rotate(-45)"/><circle class="cls-31" cx="73.38" cy="51.29" r="47.52" transform="translate(-14.77 66.91) rotate(-45)"/><circle class="cls-32" cx="74.3" cy="50.36" r="47.52" transform="translate(-13.85 67.29) rotate(-45)"/><circle class="cls-33" cx="75.22" cy="49.44" r="47.52" transform="translate(-12.93 67.67) rotate(-45)"/><circle class="cls-34" cx="76.15" cy="48.52" r="47.52" transform="translate(-12 68.05) rotate(-45)"/></g><circle class="cls-34" cx="76.15" cy="48.52" r="47.52" transform="translate(-12 68.05) rotate(-45)"/><path class="cls-3" d="M76.15,97a48.52,48.52,0,1,1,48.51-48.51A48.57,48.57,0,0,1,76.15,97Zm0-95a46.52,46.52,0,1,0,46.51,46.52A46.57,46.57,0,0,0,76.15,2Z"/><path d="M71.27,101.66a48.49,48.49,0,0,1-47.2-38.14.75.75,0,0,1,1.47-.32A46.82,46.82,0,0,0,85.77,97.87a.75.75,0,0,1,.46,1.42A48.17,48.17,0,0,1,71.27,101.66Zm31.82-12.23a.76.76,0,0,1-.56-.24.75.75,0,0,1,.06-1.06A46.86,46.86,0,0,0,118,53.39V53.2a.76.76,0,0,1,.74-.76h0a.75.75,0,0,1,.75.75v.2a48.34,48.34,0,0,1-16,35.85A.73.73,0,0,1,103.09,89.43ZM23.76,54.19a.71.71,0,0,1-.75-.7v-.1A48.34,48.34,0,0,1,38.88,17.61a.75.75,0,0,1,1,1.11A46.84,46.84,0,0,0,24.51,53.39.8.8,0,0,1,23.76,54.19Zm94-10.12a.76.76,0,0,1-.73-.59A46.82,46.82,0,0,0,56.69,8.94a.75.75,0,1,1-.47-1.42,48.31,48.31,0,0,1,62.24,35.64.76.76,0,0,1-.58.9Z"/><polygon class="cls-3" points="66.23 74.19 45.98 53.95 53.27 46.67 66.23 59.63 98.96 26.89 106.25 34.17 66.23 74.19"/><path class="cls-3" d="M66.23,75.92l-22-22,9-9,13,13L99,25.16l9,9ZM47.71,54,66.23,72.47l38.29-38.3L99,28.62,66.23,61.35l-13-13Z"/></g></g></g></svg>