<svg version="1.2" baseProfile="tiny-ps" xmlns="http://www.w3.org/2000/svg" viewBox="0 0 22 24" width="22" height="24">
	<title>notification-svg</title>
	<style>
		tspan { white-space:pre }
		.s0 { fill: #222900 } 
	</style>
	<path id="Layer" fill-rule="evenodd" class="s0" d="m21.91 18.86c0 1.55-1.33 2.82-2.97 2.82h-5.31c0.01 0.08 0.03 0.16 0.03 0.24c0 1.43-1.23 2.6-2.75 2.6c-1.51 0-2.74-1.17-2.74-2.6c0-0.08 0.02-0.16 0.03-0.24h-5.31c-1.64 0-2.97-1.26-2.97-2.82c0-1.24 0.88-2.34 2.12-2.7c0.42-0.6 1-3.46 1.3-5.89c0.68-5.17 3.27-7.05 5.22-7.73v-0.43c0-1.23 1.06-2.23 2.36-2.23c1.3 0 2.36 1 2.36 2.23v0.43c1.95 0.68 4.55 2.55 5.22 7.72c0.28 2.43 0.84 5.26 1.27 5.89c1.26 0.34 2.15 1.45 2.15 2.71zm-12.02-16.65c0.35-0.05 0.63-0.06 0.85-0.05c0.07 0 0.13 0 0.17 0.01c0.01 0 0.03 0 0.04 0c0.02 0 0.03 0 0.05 0c0.03 0 0.06 0 0.1 0c0.02 0 0.04 0 0.06 0c0 0 0.01 0 0.02 0c0.07 0 0.16 0 0.26 0.01c0.07 0 0.14 0.01 0.21 0.02c0.03 0 0.07 0.01 0.1 0.01c0.06 0.01 0.11 0.01 0.18 0.02v-0.1c0-0.53-0.46-0.97-1.02-0.97c-0.56 0-1.02 0.43-1.02 0.97v0.1zm-0.37 19.46c-0.01 0.08-0.02 0.16-0.02 0.24c0 0.74 0.63 1.33 1.41 1.33c0.78 0 1.41-0.6 1.41-1.33c0-0.08-0.01-0.16-0.02-0.24l-2.77 0zm11.05-2.82c0-0.73-0.55-1.37-1.3-1.52c-0.1-0.02-0.2-0.06-0.28-0.12c-1.03-0.77-1.62-5.02-1.83-6.81c-0.63-4.87-3.03-6.36-4.69-6.8c-0.02 0-0.03 0-0.05-0.01c-0.19-0.05-0.37-0.08-0.53-0.11c-0.03 0-0.06-0.01-0.09-0.01c-0.04-0.01-0.09-0.01-0.13-0.02c-0.2-0.02-0.38-0.03-0.52-0.03c-0.1 0-0.17 0-0.18 0.01c-0.04 0-0.09 0-0.13 0c-0.01 0-0.07-0.01-0.18-0.01c-0.14 0-0.32 0.01-0.53 0.03c-0.04 0-0.09 0.01-0.13 0.02c-0.03 0-0.06 0.01-0.09 0.01c-0.16 0.03-0.33 0.06-0.52 0.11c-0.01 0-0.02 0-0.02 0c-1.66 0.43-4.08 1.92-4.72 6.82c-0.22 1.79-0.83 6.04-1.86 6.81c-0.08 0.06-0.17 0.1-0.27 0.12c-0.74 0.16-1.28 0.79-1.28 1.52c0 0.85 0.73 1.55 1.64 1.55h16.05c0.9 0 1.63-0.7 1.63-1.55z" />
</svg>