<svg xmlns="http://www.w3.org/2000/svg" width="33.691" height="33.691" viewBox="0 0 33.691 33.691">
  <path id="icons_18_plus" d="M18.846,2a16.846,16.846,0,0,0,0,33.691c9.289,0,16.846-5.6,16.846-16.846A16.864,16.864,0,0,0,18.846,2ZM18.72,12.986c3.322,0,3.509,2.381,3.509,2.945a2.663,2.663,0,0,1-1.566,2.38,2.79,2.79,0,0,1,2.069,2.882c0,2.945-2.694,3.509-3.822,3.509-2.945,0-3.948-1.88-3.948-3.509a2.944,2.944,0,0,1,2.006-2.882,2.6,2.6,0,0,1-1.629-2.38A3.04,3.04,0,0,1,18.72,12.986Zm-6.832.183h1.1V24.522H11.521V16.465l-2.93-.007V15.329C10.349,15.267,11.574,14.926,11.888,13.169Zm6.9,1.07a1.783,1.783,0,0,0-2,1.755,1.854,1.854,0,0,0,2.067,1.88,1.774,1.774,0,0,0,1.88-1.88A1.7,1.7,0,0,0,18.783,14.239Zm8.12,1.677h1.465v2.2h2.2v1.465h-2.2v2.2H26.9v-2.2h-2.2V18.113h2.2Zm-8.057,3.149a2.234,2.234,0,1,0,0,4.449,2.273,2.273,0,0,0,2.382-2.254A2.345,2.345,0,0,0,18.846,19.065Z" transform="translate(-2 -2)" fill="#ababab"/>
</svg>
